<?xml version="1.0" encoding="UTF-8"?>
<svg id="CRUCES" xmlns="http://www.w3.org/2000/svg" viewBox="0 0 24.9 21.69">
  <defs>
    <style>
      .cls-1 {
        fill: #ffe6c1;
      }

      .cls-2 {
        fill: #0a4635;
      }
    </style>
  </defs>
  <path class="cls-1" d="M1.04,21.69s.17-3.91.17-4.92.5-3.08.5-3.08c0,0,3.3,1.07,4.39,1.3s3.61-.07,4.2,0,2.1-.3,2.1-.3c0,0,4.39.67,6.43-.12,2.04-.78,3.92-2.1,3.92-2.1,0,0,1.06,3.27,1.06,5.79v3.4H1.04Z"/>
  <g>
    <path class="cls-2" d="M5.96,3.41c.99-.54,2.09-.92,3.23-.92.24-.03.49.05.72-.03.22-.11.3-.37.33-.6.04-.37.05-.75.06-1.13.06-.38-.18-.67-.55-.72-.75-.08-1.5.18-2.2.43-1.19.44-2.31,1.05-3.28,1.87-1.13.93-2.04,2.1-2.83,3.32-.42.66-.79,1.36-1.05,2.1-.09.19-.15.4-.23.6-.07.19-.25.42-.09.61.38.34.61-.37.81-.61,1.32-1.97,3.05-3.7,5.08-4.92Z"/>
    <path class="cls-2" d="M24.75,7.97c-.33-.64-.7-1.26-1.1-1.86-.84-1.27-1.8-2.49-2.98-3.47-.98-.83-2.11-1.49-3.32-1.93-.72-.33-1.49-.52-2.27-.58-.68-.03-.54.39-.58.88,0,.45-.11.93.05,1.36.09.22.33.27.54.24.18,0,.36,0,.54,0,.26,0,.53.04.79.08,1.13.2,2.19.71,3.15,1.32,1.32.9,2.48,2.03,3.62,3.14.29.3.56.62.82.94.16.17.26.4.45.53.18.1.43-.03.44-.24.01-.15-.09-.28-.15-.41Z"/>
    <path class="cls-2" d="M12.87,21.69c0-.17,0-.35,0-.52,0-.26,0-.52,0-.78.01-1.46-.03-2.92-.14-4.37,0-.34,0-.69.01-1.03.18.02.35.04.53.07,1.08.12,2.18.19,3.27.11,0,0,.31,3.18,2.38,2.91,1.51-.2,1.18-3.71,1.18-3.71.93-.34,1.82-.81,2.6-1.44.06.19.11.38.16.58.3,1.06.38,2.18.46,3.28.08,1.2.15,2.4.15,3.6,0,.35,0,.71-.02,1.06,0,.08,0,.16,0,.24h.61c.01-.43.02-.87.02-1.31,0-.89-.02-1.78-.09-2.67-.09-1.47-.14-2.97-.55-4.4-.23-.83-.46-1.68-.84-2.46-.24-.5-.53-.98-.82-1.45-.99-1.61-2.47-3.06-4.39-3.4-2.93-.54-4.4,1.87-4.81,4.43-.14.73-.24,1.46-.32,2.19-.21-.95-.49-1.88-.8-2.79-.85-2.18-2.15-4.03-4.77-3.48-2.97.6-4.69,4.53-5.29,7.2-.53,2.24-.71,4.54-.69,6.84,0,.44.02.87.03,1.31h.61c-.02-.43-.05-.86-.04-1.29v-.02c0-2.1.12-4.3.59-6.39,1.04.44,2.11.83,3.2,1.12,0,0,0,0,0,0-.03.16-.05.35-.05.54-.05.89.01,2.56,1.24,2.68,1.36.13,1.94-1.75,2.11-2.47.03-.09.06-.18.06-.27.08,0,.16,0,.25,0,1.13,0,2.25-.2,3.32-.55.2,1.76.23,3.55.22,5.32,0,.16,0,.32,0,.48,0,.27,0,.55,0,.82M11.84,14.49c-2.25.79-4.72.6-6.97-.08-.88-.25-1.74-.55-2.58-.9-.07-.02-.15-.06-.23-.09.33-1.28.8-2.51,1.47-3.65.56-.95,1.27-1.86,2.23-2.42.58-.34,1.25-.49,1.92-.48,2.39.02,3.27,3.17,3.8,5.04.21.83.37,1.68.49,2.53-.04.01-.08.03-.13.05ZM22.3,12.49c-.43.34-.9.63-1.39.88-1.22.61-2.57.93-3.91,1.15-1.16.11-2.34.08-3.5-.05-.24-.02-.49-.07-.74-.1.02-.87.08-1.74.23-2.61.18-1.24.36-2.52.99-3.63.54-.9,1.48-1.64,2.57-1.61,2.34,0,4.07,1.92,5.11,3.83.37.61.64,1.26.86,1.94-.08.05-.15.13-.22.18Z"/>
  </g>
</svg>