<?xml version="1.0" encoding="UTF-8"?>
<svg id="Capa_de_vector-5" data-name="Capa de vector" xmlns="http://www.w3.org/2000/svg" xmlns:xlink="http://www.w3.org/1999/xlink" viewBox="0 0 55 42">
  <defs>
    <style>
      .cls-1 {
        fill: none;
      }

      .cls-2 {
        fill: #0a4635;
      }
    </style>
    <clipPath id="clippath">
      <path class="cls-1" d="M-289.87,234.99c-4.17-6.51-12.23-7.01-15.22.74-.71-5.51-2.81-11.49-7.55-14.77-7.4-4.87-14.47-.72-16.95,7.15-.59-14.6.01-29.21.06-43.81,0-5.58.12-11.19-.56-16.74-.35-5.93-3.6-12.23-10.47-10.96-10.5,2.26-11.98,20.66-13,29.49-2.82,27.08-.54,54.23.14,81.36-6.43-7.59-12.74-15.99-22.29-19.76-9.41-4.42-23.83-.37-21.08,12.15,2.06,8.91,10.38,13.13,17.36,17.79,6.17,4.69,11.68,10.33,16.65,16.26,2.44,3.07,4.61,6.33,6.82,9.55,4.7,6.24,9.03,12.84,11.44,20.33,1.34,4.01,2.4,8.12,3.33,12.24.26.85.13,1.88.69,2.61,1.35,1.03,3.31.97,4.94,1.18,7.09-.1,14.18-.18,21.27-.29,2.08-.05,4.15-.07,6.23-.19,1.11.15,1.95-.62,2.11-1.69.93-6.52.4-13.19,1.67-19.68,1.29-7.99,4.24-15.51,7.24-22.98,5.41-14.88,11.01-30.29,10.63-46.35-.37-4.67-1.04-9.55-3.46-13.65ZM-290,241.08c.05.2.09.4.13.59-.05-.2-.08-.4-.13-.59-.61-2.19-1.44-4.4-3.08-6.02-1.15-1.23-2.84-2.08-4.49-2.21,1.65.13,3.34.98,4.49,2.21,1.64,1.63,2.48,3.84,3.08,6.02ZM-306.03,255.32c-.03,1.07-.07,2.31-1.19,2.44h0c1.12-.13,1.16-1.37,1.19-2.44ZM-332.17,220.13c-.04-2.78-.05-5.57-.05-8.35,0-2.78.03-5.57.07-8.35-.04,2.78-.06,5.57-.07,8.35,0,2.78,0,5.57.05,8.35ZM-328.71,235.97c.13-1.76.38-3.59.82-5.33-.44,1.74-.69,3.56-.82,5.33ZM-327.87,230.53c.14-.53.3-1.05.48-1.56-.18.51-.34,1.03-.48,1.56ZM-307.31,240.26c.03-3.62-.43-7.29-1.8-10.57,1.37,3.28,1.82,6.96,1.8,10.57ZM-315.26,222.62c-1.74-.81-3.7-1.11-5.62-.72,1.92-.39,3.87-.09,5.62.72ZM-329.16,250.21c.16-.91.24-1.83.29-2.76-.04.93-.13,1.85-.29,2.76-.14.34-.36.53-.61.6.25-.07.47-.26.61-.6ZM-329.85,250.82s-.07.02-.11.02c.04,0,.07-.01.11-.02ZM-331.99,193.55c.06-3.82.1-7.65.09-11.47-.04-2.01-.02-4.05-.04-6.09.02,2.04,0,4.08.04,6.09,0,3.82-.03,7.65-.09,11.47ZM-333.68,162.7c.81,2.35,1.24,4.78,1.47,7.24-.23-2.46-.67-4.89-1.48-7.24-.44-1.03-1.13-1.81-1.94-2.37.81.56,1.5,1.33,1.94,2.37ZM-344.49,161.96c.89-1.19,2.17-1.98,3.53-2.37-1.37.39-2.64,1.19-3.53,2.37-3.22,4.07-4.4,9.26-5.35,14.33.95-5.07,2.13-10.26,5.35-14.33ZM-351.04,267.1c.12,1.6.28,3.52-.6,4.21.88-.69.72-2.61.6-4.21ZM-359.49,264.29c1.23,1.41,2.44,2.84,3.64,4.28-1.2-1.44-2.41-2.86-3.64-4.28ZM-352.29,201.45c-.88,21.23.55,42.55,1.21,63.8h0c-.66-21.24-2.09-42.56-1.21-63.8ZM-391.53,265c-5.01-6.55-3.67-11.69.38-14.32-4.06,2.63-5.39,7.77-.38,14.32,1.18,1.56,2.59,2.88,4.12,4.06-1.52-1.18-2.94-2.5-4.12-4.06ZM-381.94,272.72c-.72-.44-1.44-.89-2.15-1.34.71.46,1.43.9,2.15,1.34,1.37.82,2.68,1.72,3.95,2.66-1.27-.94-2.58-1.84-3.95-2.66ZM-369.02,283.37c-.94-.97-1.9-1.92-2.89-2.84.98.93,1.94,1.88,2.89,2.84,2.4,2.18,4.59,4.55,6.65,7.03-2.06-2.48-4.25-4.85-6.65-7.03ZM-347.23,311.9c2.33,4.21,4.22,8.64,5.71,13.22-1.49-4.58-3.39-9.01-5.71-13.22ZM-336.51,336.92c1.47.16,2.95.14,4.43.09-1.48.05-2.96.07-4.43-.09ZM-308,334.74c.29-3.6.31-7.22.59-10.82-.28,3.6-.29,7.23-.59,10.82ZM-304.57,308.54c-.83,3.09-1.59,6.22-2.12,9.38.53-3.16,1.29-6.29,2.12-9.38,3.79-11.71,8.98-22.95,12.12-34.89.94-3.38,1.81-6.85,2.47-10.36-.66,3.51-1.53,6.98-2.47,10.36-3.14,11.94-8.33,23.17-12.12,34.89ZM-141.15,235.48c-.3.53-.56,1.07-.82,1.62.89-9.76,1.26-19.66,2.13-29.39,1.26-13.28,2.96-26.59,2.91-39.94.06-7.18-4.41-17.06-13.03-13.46-6.39,3.72-9.22,11.42-10.94,18.26-2.98,12.1-2.58,24.62-3.35,36.96-1.15,12.9-1.44,25.84-2.22,38.75-.17-1.04-.33-2.09-.49-3.14-2.94-22.13-3.91-44.56-6.85-66.72-.99-6.07-1.31-12.83-5.41-17.75-3.68-4.88-11.76-4.2-14.18,1.53-3.07,7.41-2.87,15.66-2.93,23.55.14,7.55.53,15.1,1.13,22.63,1.04,15.15,2.2,30.24,4.54,45.25-1.18-.22-2.98.57-3.92.88-13.01,7.65-12.65,24.54-6.45,36.63,3.08,6.24,7.82,11.41,11.88,16.99,3.44,4.88,6.56,10.05,8.51,15.73,1.19,3.38,2.08,6.87,2.78,10.38.42,1.83.56,3.82,1.62,5.43.55.84,1.52,1.03,2.45.89,2.11-.13,4.22-.31,6.33-.42,2.78-.15,5.68-.21,8.64-.16,4.52.04,9.05.3,13.57,0,1.55-.15,3.31-.12,4.58-1.15.99-.68.85-1.89.87-2.95.04-2.06.13-4.11.32-6.16.6-6.17,1.87-12.25,3.21-18.29,2.96-14.55,10.09-27.84,13.31-42.31,1.57-9.05,2.51-18.61-.17-27.53-2.29-8.81-11.57-15.7-18.01-6.12ZM-143.13,249.52c.04-.15.08-.3.12-.45-.04.16-.08.33-.12.49,0,.06,0,.12-.01.18,0-.07,0-.15.01-.22ZM-143.2,250.51c-.02.34-.05.69-.08,1.03.03-.34.05-.69.08-1.03ZM-143.36,252.47c-.03.28-.05.57-.08.85.03-.28.06-.57.08-.85ZM-143.99,256.85s0-.01,0-.02c0,0,0,.01,0,.02-.18.39-.54.71-1,.69h0c.45.02.81-.3,1-.69ZM-143.58,254.39c-.03.24-.06.47-.09.71.04-.24.06-.47.09-.71ZM-146.08,255.43c0-.06,0-.12.02-.18,0,.06-.01.12-.02.18ZM-145.86,253.06c.26-3.05.52-6.09.81-9.13-.29,3.04-.55,6.09-.81,9.13ZM-142.09,206.31c-.93,10.11-1.33,20.37-2.24,30.5.91-10.13,1.31-20.4,2.24-30.5ZM-142.81,248.27c.08-.32.15-.64.23-.96-.07.32-.15.64-.23.96ZM-142.28,246.04c.07-.31.14-.63.22-.94-.07.31-.15.63-.22.94ZM-141.82,244.06c.06-.25.12-.5.19-.75-.06.25-.13.5-.19.75ZM-141.35,242.32c.07-.23.13-.47.2-.7-.07.23-.14.47-.2.7ZM-140.81,240.61c.08-.21.15-.43.23-.64-.08.21-.15.43-.23.64ZM-140.12,238.9c.08-.17.15-.35.23-.52-.08.17-.15.35-.23.52ZM-139.31,171.8c-.02.63-.05,1.26-.08,1.89.03-.63.06-1.26.08-1.89ZM-158.69,173.63c-.02.1-.05.2-.08.3-1.16,4.96-1.76,9.99-2.13,15.04.37-5.05.97-10.08,2.13-15.04.02-.1.05-.2.08-.3ZM-167.15,258.01s.04.04.05.06c-.02-.02-.04-.04-.05-.06ZM-163.85,244.01c-.01.26-.02.53-.04.79-.1,1.84-.22,3.61-.36,5.37.14-1.75.26-3.53.36-5.37.01-.26.02-.53.04-.79ZM-165.3,258.11c.23-.29.34-.63.39-.99-.06.36-.16.7-.39.99-.42.55-1.18.55-1.64.14.46.41,1.22.41,1.64-.14ZM-173.78,200.94c.4,4.93.78,9.85,1.23,14.76.18,1.6.35,3.2.52,4.79-.17-1.6-.34-3.2-.52-4.79-.45-4.91-.82-9.84-1.23-14.76-.09-1.06-.18-2.13-.27-3.19.09,1.06.18,2.13.27,3.19ZM-178.06,168.42c-.86-3.02-2.42-6.22-5.32-7.65,2.89,1.43,4.46,4.64,5.32,7.65ZM-188.47,252.28c.7,4.79,1.6,9.54,2.47,14.3,0,.19.04.41.08.64.29,1.5,1.18,3.65-.45,4.02,1.63-.37.74-2.52.45-4.02-.04-.23-.08-.45-.08-.64-.87-4.76-1.77-9.52-2.47-14.31-1.84-11.6-2.86-23.3-3.74-35,.88,11.71,1.9,23.4,3.74,35ZM-186.67,271.28s-.08.01-.12.02h0s.08-.01.12-.02ZM-187.08,271.14c-.96-.6-.8-2.15-1.1-3.18.29,1.03.13,2.58,1.1,3.18ZM-184.73,160.27c-1.68-.33-3.38.09-4.71,1.04,1.34-.95,3.04-1.37,4.71-1.04ZM-193.92,179.53c.04-1.24.09-2.48.17-3.71-.08,1.24-.13,2.48-.17,3.71-.12,4.14-.06,8.28.09,12.42-.16-4.14-.22-8.28-.09-12.42ZM-190.12,257.12c.56,3.39,1.22,6.77,1.81,10.16-.59-3.39-1.25-6.76-1.81-10.16-.05-.29-.1-.58-.15-.88-.02.01-.05.02-.07.03.03-.01.05-.03.08-.04.05.3.09.6.14.89ZM-190.62,256.36c-.06.02-.11.04-.17.05.06-.01.11-.03.17-.05ZM-191.13,256.48c-.05,0-.1.02-.15.03.05,0,.1-.02.15-.03ZM-191.78,256.57c-.16.02-.31.04-.46.07.15-.03.3-.05.46-.07ZM-192.27,256.65s0,0,0,0c-3.8,1.06-6.49,4.66-8.39,7.95-.35.67-.64,1.36-.9,2.06.26-.7.55-1.39.9-2.06,1.89-3.28,4.59-6.89,8.39-7.95ZM-179.32,320.43c-.52-1.3-1.1-2.57-1.72-3.81.62,1.25,1.2,2.52,1.72,3.81,1.7,3.86,2.55,7.98,3.5,12.06-.94-4.08-1.8-8.2-3.5-12.06ZM-174.46,337.79h0c1.45-.1,2.89-.19,4.33-.28-1.44.09-2.88.18-4.33.28ZM-155.71,337.21c2.57.04,5.17.2,7.74.14-2.57.06-5.17-.11-7.74-.14ZM-130.51,285.46c3.84-10.64,7.14-21.5,6.65-32.95-.12-3.01-.44-6.1-1.25-9.03.82,2.93,1.13,6.02,1.26,9.03.49,11.45-2.81,22.31-6.65,32.95ZM22.21,192.01c-4.59-10.99-15.23-24.9-28.68-19.89-.34.14-.53.35-.63.58-2.11-2.23-4.47-4.13-7.15-5.57-6.55-3.26-16.81-3.36-20.27,4.26-4.02,9.01,8.27,23.16,12.19,31.5,6.12,11.19,11.18,23.13,14.28,35.53-11.06-14.4-32.95-17.56-44.96.31-5.69,8.96-8.39,24.64.95,32.06-7.31,2.88-6.16,12.53-4.52,18.72,4.1,13.01,12.89,19.6,24.99,24.66,4.41,2.22,8.56,5.16,11.32,9.34,1.82,2.87,3.37,5.94,4.51,9.15,1.09,5.01,1.5,4.79,6.55,4.96,6.75,0,13.52-.24,20.27-.5,1.22-.04,2.43-.02,3.65.03,1.87.34,3.39-.16,3.33-2.15-.59-9.76-.55-19.66,2.17-29.15,4.83-15.96,10.44-31.88,11.23-48.69.8-21.92-.1-44.85-9.21-65.14ZM12.96,245.84c.21-2.98.16-6.01.17-6.87-.19-5.93-.89-11.84-1.87-17.69.98,5.86,1.67,11.76,1.87,17.69,0,.86.04,3.89-.17,6.87ZM9.73,251.93c.41.41.77.59,1.08.59.51,0,.9-.47,1.21-1.24-.31.76-.7,1.24-1.21,1.24-.32,0-.67-.18-1.08-.59h0ZM8.67,208.4c.04.17.08.34.13.51-.04-.17-.08-.34-.13-.51ZM8.43,220.29c-.04-.21-.08-.41-.11-.62.04.21.08.41.11.62,0,0,0,0,0,0ZM-2.77,173.67c10.03-1.32,17.07,8.06,21.07,16.05,4.41,8.61,6.99,17.92,8.55,27.42-1.56-9.5-4.14-18.81-8.55-27.42-4-7.99-11.04-17.37-21.07-16.05-.81.15-1.6.41-2.37.72,0,0,0,0,0,0,0,0,0,0,0,0,.76-.32,1.55-.58,2.37-.72ZM8.17,206.41c-.02-.07-.04-.15-.06-.22.02.07.04.15.06.22ZM7.65,204.39c-.05-.19-.1-.38-.15-.57.05.19.1.38.15.57ZM6.95,201.79c-.03-.12-.07-.23-.1-.35.03.12.07.23.1.35ZM6.34,199.65c-.05-.18-.11-.36-.16-.54.05.18.11.36.16.54ZM5.55,197.04c-.05-.15-.09-.29-.14-.44.05.15.09.29.14.44ZM4.84,194.82c-.06-.17-.11-.34-.17-.51.06.17.11.34.17.51ZM3.94,192.24c-.06-.16-.12-.31-.17-.47.06.16.12.31.17.47ZM3.1,190c-.06-.15-.11-.3-.17-.45.06.15.12.3.17.45ZM2.09,187.52c-.07-.16-.14-.33-.21-.49.07.16.14.33.21.49ZM1.09,185.28c-.06-.12-.11-.25-.17-.37.06.12.11.24.17.37ZM-.05,182.95c-.08-.16-.17-.32-.25-.48.08.16.17.32.25.48ZM-1.25,180.74c-.05-.08-.09-.16-.14-.24.05.08.09.16.14.24ZM-2.51,178.65c-.1-.15-.19-.3-.29-.45.1.15.19.3.29.45ZM-3.98,176.49s-.04-.06-.06-.08c.02.03.04.06.06.08ZM-5.46,174.5s-.03.01-.04.01c.06.07.11.14.16.21-.06-.07-.12-.14-.18-.22.02,0,.04,0,.06,0ZM-2.53,183.92c1.43,2.85,2.69,5.76,3.81,8.73-1.12-2.97-2.38-5.89-3.81-8.73-1.63-3.42-3.82-6.91-6.53-9.79,2.71,2.88,4.9,6.37,6.53,9.79ZM-2.14,251.03c-.16-.7-.34-1.38-.54-2.06.2.68.38,1.36.54,2.06ZM-4.59,243.65c0-.06,0-.11,0-.17,0,.06,0,.11,0,.17ZM-4.59,243.18c0-.06,0-.12,0-.18,0,.06,0,.12,0,.18ZM-4.62,242.69c0-.06-.01-.12-.02-.18,0,.06.01.12.02.18ZM-4.68,242.2c0-.06-.02-.13-.02-.19,0,.06.02.13.02.19ZM-4.74,241.72c0-.06-.02-.13-.03-.19,0,.06.02.13.03.19ZM-4.8,241.31c-.06-.38-.12-.72-.15-.99,0,0,0,0,0,0,.03.27.09.61.15.99ZM-24.33,167.51c5.47-.51,10.14,1.76,13.93,5.28.22.21.44.42.66.63-.22-.22-.44-.43-.66-.63-3.79-3.51-8.46-5.79-13.93-5.28-6.63.85-8.71,5.11-8.1,9.98-.61-4.88,1.47-9.13,8.1-9.99ZM-4.6,243.92s0,.04,0,.06c.06.12.11.24.16.36-.05-.11-.11-.22-.17-.34,0-.03,0-.05.01-.08ZM-2.88,248.34c-.15-.46-.3-.92-.46-1.37.16.45.32.91.46,1.37ZM-3.62,246.26c-.16-.42-.34-.83-.52-1.24.18.41.35.82.52,1.24ZM-17.03,233.21c5.22,3.36,8.84,8.69,11.16,14.36.89,1.81,1.01,3.97,1.98,5.7,1.61,1.16,2.09-.67,1.82-1.98.27,1.31-.21,3.14-1.82,1.98-.97-1.73-1.09-3.89-1.98-5.7-2.33-5.67-5.95-11-11.16-14.36-19.88-13.29-41.54,5.87-37.96,27.55.03.31.08.62.14.95-.06-.32-.11-.64-.14-.95-3.58-21.67,18.08-40.84,37.96-27.55ZM-36.61,258.21c2.57-3.43,5.55-4.87,8.43-4.87,5.4,0,10.48,5.08,11.92,11.71,1.61,7.23.83,21.96-8.5,23.2-9.95-.54-12.55-13-20.85-16.73,5.46-2.27,5.55-9.2,9-13.31ZM-44,275.41c4.11,3.75,7,8.95,11.47,12.45,4.3,3.44,11.1,4.08,14.9-.42,4.28-4.86,5.55-13.25,4.44-20.36,1.11,7.11-.16,15.5-4.44,20.36-3.81,4.5-10.6,3.86-14.9.42-4.47-3.5-7.36-8.7-11.47-12.45-6.38-5.49-11.44-.98-11.06,6.49.04,1.61.22,3.21.54,4.78-.31-1.57-.5-3.16-.54-4.78-.39-7.47,4.68-11.98,11.06-6.49ZM-2.53,183.92s.01.02.01.03c0,0,0-.02-.01-.02,0-.01-.01-.03-.02-.04,0,.01.01.02.02.04Z"/>
    </clipPath>
  </defs>
  <path class="cls-2" d="M10.02,40.85c-2.17-2.56,1.1-5.18,2.82-6.9-.03.03-.05.05-.07.07,3.14-3.12,6.59-5.91,9.78-8.99,3.61-3.62,6.95-7.5,10.34-11.32,3.49-3.88,6.79-7.94,10.35-11.76,1.58-2.11,5.11-2.07,4.58,1.2-.35,1.49-1.52,2.66-2.39,3.85-3.27,4.18-6.81,8.14-10.34,12.11-4.69,5.41-9.5,10.71-14.96,15.36-1.7,1.56-3.4,3.13-5,4.79-.86,1.02-2.21,2.23-3.55,2.23-.53,0-1.06-.19-1.55-.64Z"/>
  <path class="cls-2" d="M12.77,34.02s-.02.02-.03.03c.01-.01.02-.02.03-.03Z"/>
  <path class="cls-2" d="M41.47,40.14c-4.48-4.31-8.05-9.46-12.37-13.92-6.42-6.94-13.25-13.48-20.3-19.78-2.93-2.13-1.84-5.61,1.84-5.18,1.66.39,2.79,1.79,4.08,2.81,2.99,2.59,5.87,5.32,8.74,8.04,8.13,7.59,15.24,16.13,22.68,24.36,2.12,2.35,0,4.6-2.33,4.6-.82,0-1.66-.28-2.35-.92Z"/>
</svg>