<?xml version="1.0" encoding="UTF-8"?>
<svg id="CRUCES" xmlns="http://www.w3.org/2000/svg" viewBox="0 0 235.18 51.32">
  <defs>
    <style>
      .cls-1 {
        fill: #0a4635;
      }
    </style>
  </defs>
  <path class="cls-1" d="M10.52,17.53c-2.78-.47-8.46-1.56-9.87,1.64-.34.9-.02,1.6.09,2.54.16,1.78.28,3.57.22,5.36-.09,4.72-.46,9.43-.74,14.15.05,2.17-1,5.03,1.03,6.57,1.72,1.19,3.7-.12,5.08-1.23,2.74-2.11,5.38-4.41,7.48-7.17,6.64-8.27,10.07-18.68-3.28-21.85ZM13.8,30.61c-2.11,4.24-5.14,8.02-8.84,10.98.33-6.3.96-12.61.56-18.92-.02-.3-.05-.61-.08-.91,3.2.08,7.21.52,9.2,3.33.85,1.88-.13,3.77-.84,5.52Z"/>
  <path class="cls-1" d="M45.61,16.53c-2.53-.12-5.95-1.31-8.06.49-3.24,2.97-2.16,9.92-2.43,14.03-.06,3.31-.39,6.61-.62,9.92-.36,2.54-.06,5.71,2.94,6.37,2.13.34,4.29-.34,6.29-1.01,1.76-.44,3.5-1.74,2.61-3.74-1.59-2.93-4.82-.01-7.19.05.17-2.94.46-5.88.61-8.82,1.09-.17,2.27-.7,3.2-1.03,1.85-.75,5.95-1.55,4.56-4.34-1.34-1.79-3.92-.77-5.68-.25-.56.22-1.26.41-1.96.62-.01-2.7-.1-5.42.64-8.01,2.46-.07,6.3.81,8.17-1.1,1.23-2.06-1.44-3.11-3.09-3.18Z"/>
  <path class="cls-1" d="M78.14,34.82c-2.82.46-5.45,1.9-8.32,2.06-.35-6.3.18-12.63,0-18.91-.27-1.81-2.76-2.46-3.78-.89-.71,1.09-.7,2.46-.81,3.72-.23,5.13-.33,10.28-.19,15.42.01,1.8.09,3.95,1.93,4.86,2.77,1.25,5.9.19,8.63-.66,1.99-.82,5.74-.62,5.3-3.7-.23-1.26-1.5-2.15-2.77-1.9Z"/>
  <path class="cls-1" d="M98.89,15.05c-.08-1.87-1.64-3.74-3.5-2.39-1.44,1.33-.83,3.56-.73,5.29.44,3.81.89,7.61,1.2,11.43.16,1.82.39,3.64.63,5.45.08.6.49,1.17.97,1.51,1.03.76,2.59.48,3.31-.57.92-1.47.02-3.3.02-4.91-.51-5.28-.98-10.57-1.89-15.8Z"/>
  <path class="cls-1" d="M130.67,7.95c-.82,8.05-.95,16.21-2.94,24.11-1.27-4.15-2.34-8.35-3.22-12.6-.63-1.98-.63-5.64-2.68-6.61-1.13-.44-2.15.63-2.31,1.68-.3,1.96.32,3.96.55,5.91.82,5.05,2.22,9.98,3.68,14.88.77,1.94.92,4.93,3.31,5.55,4.21.89,5.01-7.15,5.81-10.05,1.46-6.88,1.82-13.9,2.34-20.89,1.14-4.04-3.44-5.61-4.53-1.99Z"/>
  <path class="cls-1" d="M160.32,20.44c-.48.14-.96.28-1.43.43,0-2.19,0-4.39.02-6.58,1.95.19,4.15.8,5.96-.23,1.42-.88.96-2.82-.46-3.39-1.48-.66-3.13-.76-4.71-1.03-3.09-.79-4.94-.24-5.43,3.18-.26,5.11-.03,10.24-.18,15.35-.07,2.91-.26,6.31-.51,9.28-.23,1.7-.31,3.66,1.61,4.38,1.71.58,3.33-.72,4.78-1.48,1.62-.86,3.26-1.7,4.92-2.49,2.78-1.43.83-5.53-2.04-4.29-1.47.7-2.92,1.44-4.37,2.2.25-3.29.35-6.58.39-9.88,1.17-.45,2.34-.89,3.52-1.33,1.7-.67,6.46-1.96,4.03-4.42-1.84-1.02-4.17-.09-6.09.31Z"/>
  <path class="cls-1" d="M207.36,31.19c-.48-.36-.95-.74-1.42-1.12-3.16-2.78-6.75-5.44-10.52-7.42,3.34-2.29,6.34-5.93,6.42-10.14.38-3.25-1.26-7.03-4.9-7.23-4.46-.24-7.85,3.73-9.2,7.63-.86,2.65-1.08,5.45-1.18,8.22-.22,5.37-.13,10.75.12,16.12-.45,2.47,2.8,3.86,4.24,1.81.39-.55.49-1.18.38-1.81-.05-.77-.04-1.55-.08-2.32-.14-3.02-.09-6.05-.04-9.08,3.16,1.45,6.12,3.33,8.87,5.45,1.53,1.26,3,2.59,4.59,3.78,1.04.78,2.58.46,3.31-.57.76-1.08.46-2.53-.57-3.31ZM191.38,19.47c.22-2.66.54-5.52,2.3-7.65.67-.83,1.99-2.14,3.12-1.7.58,1.11.34,2.92-.06,4.07-1.14,2.29-3.02,4.22-5.36,5.28Z"/>
  <path class="cls-1" d="M233.05,0c-1.34-.11-2.65,1.04-2.51,2.43.06.43,0,.86-.06,1.29-.73,3.58-1.3,7.19-1.99,10.78-2.33-2.57-4.75-5.05-7.49-7.19-.45-.4-.86-.93-1.45-1.12-1.49-.57-3.25.67-3.1,2.28.23,1.86,2.19,2.78,3.39,4.01,2.64,2.31,4.87,5.03,7.36,7.48.05.05.1.09.15.13-1.42,7.19-3.15,14.32-4.06,21.6-.28,2.15-.47,4.32-.78,6.47-.39,1.32.36,2.81,1.75,3.1,1.22.27,2.61-.52,2.84-1.8.29-1.56.42-3.15.6-4.72.23-2.02.5-4.04.79-6.05.94-5.78,2.37-11.47,3.38-17.24,1.15-5.16,1.94-10.39,2.61-15.63.17-.9.23-1.84.57-2.7.56-1.41-.5-2.99-1.98-3.12Z"/>
</svg>