<?xml version="1.0" encoding="UTF-8"?>
<svg id="Capa_de_vector-3" xmlns="http://www.w3.org/2000/svg" version="1.1" viewBox="0 0 318.19 88.84">
  <!-- Generator: Adobe Illustrator 30.3.0, SVG Export Plug-In . SVG Version: 2.1.3 Build 182)  -->
  <defs>
    <style>
      .st0 {
        fill: #0a4635;
      }
    </style>
  </defs>
  <path class="st0" d="M9.16,88.81c-4.37.27-7.86-2.13-8.09-6.68-.39-4.41-.35-8.86-.57-13.29-.11-11.06-1.91-22.73,2.07-33.32,1.77-5.17,6.8-6.06,11.41-7.44,4.8-2.47,7.62,3.51,2.6,5.4-2.58,1.28-5.59,1.64-8.08,3.03-2.67,3.15-2.61,7.73-3.06,11.65-.17,11.33.17,22.76,1.11,34.03,2.68.89,5.63.18,8.41.34,3.09.11,6.21.14,9.25-.56,1.35-.27,2.49,1.01,2.61,2.27.44,3.31-3.36,3.37-5.69,3.69-3.96.6-7.94,1.01-11.95.87h-.02Z"/>
  <path class="st0" d="M2.87,63.72c-.82-3.89,4.97-3.89,7.28-5.66,2.95-1.16,6.13-2.34,9.32-2.48,1.95.35,2.62,2.88,1.51,4.37-3.36,2.77-8.21,3.38-12.36,4.39-1.97.52-4.93,2.41-5.75-.62Z"/>
  <path class="st0" d="M59.47,75.38c-3.43-.68-3.86-6.44-5.3-9.17-3.79-10.08-7.85-20.06-12.39-29.83.03.06.05.11.06.12.03.06.05.11.06.12-.78-1.7-1.62-3.32-2.34-5.03-1.05-3.9,3.12-4.69,4.72-1.26,5.65,10.09,9.82,20.93,14.02,31.68.31-8.54.52-17.08.71-25.61.1-3.49.47-6.96.69-10.44.13-1.15-.1-2.44.63-3.43,1.31-1.87,3.96-.38,3.8,1.67.23,10.55-.19,21.08-.54,31.63-.11,3.49-.2,6.98-.36,10.47-.38,2.98.56,9.07-3.77,9.08h0Z"/>
  <path class="st0" d="M104.99,76c-4.29-1.88-3.14-9.02-4.13-12.94-1.02-7.78-2.24-15.54-2.61-23.39-.05-6.28-1.79-16.88,6.29-18.73,2.97-.2,8.52-1.81,10.48,1.02,1.63,3.86-2.6,4.35-5.37,4.51-1.77.46-4.5-.08-5.62,1.57-1.29,3.8-.68,7.96-.6,11.9.62,10.14,2.43,20.15,3.74,30.21,4.06-.49,7.91-2.1,11.95-2.76,1.64-.79,3.72-.43,4.14,1.58.85,3.53-2.83,3.84-5.23,4.81-3.94,1.01-9.05,3.27-13.04,2.22Z"/>
  <path class="st0" d="M101.73,50.03c-.91-4.43,5.11-4.47,8.1-5.06,2.47-.12,5.87-1.28,7.73.86,2.41,4.34-3.62,4.71-6.46,5.2-2.77.12-8.28,2.82-9.37-1Z"/>
  <path class="st0" d="M150.64,69.67c-2.05-2.36-1.12-6.59-1.51-9.56-.25-8.03-.08-16.07-.03-24.1.26-2.93-.66-6.46,1.31-8.91,1.22-1.44,3.31-1.04,4.43.31,5.79,7.57,10.09,16.23,14.72,24.54-.03-12.67-.66-25.33-.23-37.99-.12-1.9,2.17-3.55,3.66-1.96,1.15,1.24.69,3.2.91,4.71.71,9.69.44,22.45.66,33.18-.44,3.48,1.96,14.69-4.07,13.36-2.86-1.45-3.49-5.27-5.16-7.8-3.43-6.63-7.04-13.18-11.07-19.47-.27,9.11-.46,18.22-.3,27.34.09,2.31.59,8.27-3.32,6.37v-.02Z"/>
  <path class="st0" d="M194.55,20.82c-2.35-.47-2.69-4.15-.64-5.24,10.22-3.25,21.33-2.96,31.97-2.89.68,0,1.36,0,2.04-.02,2.06.03,2.81,2.85,1.67,4.3-.98,1.33-2.83.82-4.26,1.07-6.3.85-12.66.77-18.99,1.25-3.95.24-7.86,1.4-11.78,1.52h0Z"/>
  <path class="st0" d="M212.02,82.12c-2.48-11.59-2.81-23.43-3.06-35.25.1-10.46-.94-21.04-.2-31.45,1.28-3.31,4.15-.91,4.12,1.73,1.3,15.26.87,30.62,1.92,45.91.17,3.44.6,6.86.72,10.3-.1,2.71-.26,5.42.17,8.12.4,2.68-3.28,3.57-3.68.65h0Z"/>
  <path class="st0" d="M252.95,66.76c-11.85-3.48-11.31-27.12-6.63-36.14,8.24-16.08,20.37-4.02,19.9,9.47.61,8.27-1.58,28.17-13.27,26.66h0ZM254.69,60.63c5.57-1.67,6.73-15.1,6.61-20.16-.21-3.88-1.91-13.22-7.5-10.75-5.99,5.69-6.1,16.03-4.53,23.64.87,2.73,1.89,7.35,5.42,7.28h0Z"/>
  <path class="st0" d="M297.45,72.87c-2-.73-2.17-3.99-.3-4.98,2.37-1.22,4.44-2.92,6.48-4.61,2.3-2.04,4.96-3.78,6.67-6.39,2.26-3.82,4.18-9.28,1.19-13.2-4.68-4.55-12.29-5.87-15.45-12.07-4.02-8.11,2.8-18.76,11.23-20.45,2.94-.9,8.78.4,7.11,4.53-.89,1.66-2.87.82-4.34,1-5.26.32-10.64,5.63-9.83,11.04,2.61,5.47,9.67,6.44,13.81,10.42,6.22,5.71,4.67,15.56.64,22.11-2.73,4.53-7.64,7.49-11.92,10.26-1.66.85-3.32,2.76-5.3,2.35h0Z"/>
</svg>