<?xml version="1.0" encoding="UTF-8"?>
<svg id="Capa_de_vector-5" data-name="Capa de vector" xmlns="http://www.w3.org/2000/svg" xmlns:xlink="http://www.w3.org/1999/xlink" viewBox="0 0 55 42">
  <defs>
    <style>
      .cls-1 {
        fill: none;
      }

      .cls-2 {
        fill: #0a4635;
      }
    </style>
    <clipPath id="clippath">
      <path class="cls-1" d="M-289.75,361.02c-4.17-6.51-12.23-7.01-15.22.74-.71-5.51-2.81-11.49-7.55-14.77-7.4-4.87-14.47-.72-16.95,7.15-.59-14.6.01-29.21.06-43.81,0-5.58.12-11.19-.56-16.74-.35-5.93-3.6-12.23-10.47-10.96-10.5,2.26-11.98,20.66-13,29.49-2.82,27.08-.54,54.23.14,81.36-6.43-7.59-12.74-15.99-22.29-19.76-9.41-4.42-23.83-.37-21.08,12.15,2.06,8.91,10.38,13.13,17.36,17.79,6.17,4.69,11.68,10.33,16.65,16.26,2.44,3.07,4.61,6.33,6.82,9.55,4.7,6.24,9.03,12.84,11.44,20.33,1.34,4.01,2.4,8.12,3.33,12.24.26.85.13,1.88.69,2.61,1.35,1.03,3.31.97,4.94,1.18,7.09-.1,14.18-.18,21.27-.29,2.08-.05,4.15-.07,6.23-.19,1.11.15,1.95-.62,2.11-1.69.93-6.52.4-13.19,1.67-19.68,1.29-7.99,4.24-15.51,7.24-22.98,5.41-14.88,11.01-30.29,10.63-46.35-.37-4.67-1.04-9.55-3.46-13.65ZM-289.88,367.1c.05.2.09.4.13.59-.05-.2-.08-.4-.13-.59-.61-2.19-1.44-4.4-3.08-6.02-1.15-1.23-2.84-2.08-4.49-2.21,1.65.13,3.34.98,4.49,2.21,1.64,1.63,2.48,3.84,3.08,6.02ZM-305.9,381.34c-.03,1.07-.07,2.31-1.19,2.44h0c1.12-.13,1.16-1.37,1.19-2.44ZM-332.05,346.16c-.04-2.78-.05-5.57-.05-8.35,0-2.78.03-5.57.07-8.35-.04,2.78-.06,5.57-.07,8.35,0,2.78,0,5.57.05,8.35ZM-328.59,362c.13-1.76.38-3.59.82-5.33-.44,1.74-.69,3.56-.82,5.33ZM-327.74,356.56c.14-.53.3-1.05.48-1.56-.18.51-.34,1.03-.48,1.56ZM-307.18,366.29c.03-3.62-.43-7.29-1.8-10.57,1.37,3.28,1.82,6.96,1.8,10.57ZM-315.13,348.64c-1.74-.81-3.7-1.11-5.62-.72,1.92-.39,3.87-.09,5.62.72ZM-329.03,376.23c.16-.91.24-1.83.29-2.76-.04.93-.13,1.85-.29,2.76-.14.34-.36.53-.61.6.25-.07.47-.26.61-.6ZM-329.73,376.84s-.07.02-.11.02c.04,0,.07-.01.11-.02ZM-331.86,319.58c.06-3.82.1-7.65.09-11.47-.04-2.01-.02-4.05-.04-6.09.02,2.04,0,4.08.04,6.09,0,3.82-.03,7.65-.09,11.47ZM-333.55,288.73c.81,2.35,1.24,4.78,1.47,7.24-.23-2.46-.67-4.89-1.48-7.24-.44-1.03-1.13-1.81-1.94-2.37.81.56,1.5,1.33,1.94,2.37ZM-344.37,287.99c.89-1.19,2.17-1.98,3.53-2.37-1.37.39-2.64,1.19-3.53,2.37-3.22,4.07-4.4,9.26-5.35,14.33.95-5.07,2.13-10.26,5.35-14.33ZM-350.92,393.12c.12,1.6.28,3.52-.6,4.21.88-.69.72-2.61.6-4.21ZM-359.37,390.31c1.23,1.41,2.44,2.84,3.64,4.28-1.2-1.44-2.41-2.86-3.64-4.28ZM-352.17,327.47c-.88,21.23.55,42.55,1.21,63.8h0c-.66-21.24-2.09-42.56-1.21-63.8ZM-391.41,391.02c-5.01-6.55-3.67-11.69.38-14.32-4.06,2.63-5.39,7.77-.38,14.32,1.18,1.56,2.59,2.88,4.12,4.06-1.52-1.18-2.94-2.5-4.12-4.06ZM-381.81,398.75c-.72-.44-1.44-.89-2.15-1.34.71.46,1.43.9,2.15,1.34,1.37.82,2.68,1.72,3.95,2.66-1.27-.94-2.58-1.84-3.95-2.66ZM-368.9,409.4c-.94-.97-1.9-1.92-2.89-2.84.98.93,1.94,1.88,2.89,2.84,2.4,2.18,4.59,4.55,6.65,7.03-2.06-2.48-4.25-4.85-6.65-7.03ZM-347.11,437.92c2.33,4.21,4.22,8.64,5.71,13.22-1.49-4.58-3.39-9.01-5.71-13.22ZM-336.38,462.94c1.47.16,2.95.14,4.43.09-1.48.05-2.96.07-4.43-.09ZM-307.88,460.77c.29-3.6.31-7.22.59-10.82-.28,3.6-.29,7.23-.59,10.82ZM-304.44,434.56c-.83,3.09-1.59,6.22-2.12,9.38.53-3.16,1.29-6.29,2.12-9.38,3.79-11.71,8.98-22.95,12.12-34.89.94-3.38,1.81-6.85,2.47-10.36-.66,3.51-1.53,6.98-2.47,10.36-3.14,11.94-8.33,23.17-12.12,34.89ZM-141.02,361.5c-.3.53-.56,1.07-.82,1.62.89-9.76,1.26-19.66,2.13-29.39,1.26-13.28,2.96-26.59,2.91-39.94.06-7.18-4.41-17.06-13.03-13.46-6.39,3.72-9.22,11.42-10.94,18.26-2.98,12.1-2.58,24.62-3.35,36.96-1.15,12.9-1.44,25.84-2.22,38.75-.17-1.04-.33-2.09-.49-3.14-2.94-22.13-3.91-44.56-6.85-66.72-.99-6.07-1.31-12.83-5.41-17.75-3.68-4.88-11.76-4.2-14.18,1.53-3.07,7.41-2.87,15.66-2.93,23.55.14,7.55.53,15.1,1.13,22.63,1.04,15.15,2.2,30.24,4.54,45.25-1.18-.22-2.98.57-3.92.88-13.01,7.65-12.65,24.54-6.45,36.63,3.08,6.24,7.82,11.41,11.88,16.99,3.44,4.88,6.56,10.05,8.51,15.73,1.19,3.38,2.08,6.87,2.78,10.38.42,1.83.56,3.82,1.62,5.43.55.84,1.52,1.03,2.45.89,2.11-.13,4.22-.31,6.33-.42,2.78-.15,5.68-.21,8.64-.16,4.52.04,9.05.3,13.57,0,1.55-.15,3.31-.12,4.58-1.15.99-.68.85-1.89.87-2.95.04-2.06.13-4.11.32-6.16.6-6.17,1.87-12.25,3.21-18.29,2.96-14.55,10.09-27.84,13.31-42.31,1.57-9.05,2.51-18.61-.17-27.53-2.29-8.81-11.57-15.7-18.01-6.12ZM-143,375.54c.04-.15.08-.3.12-.45-.04.16-.08.33-.12.49,0,.06,0,.12-.01.18,0-.07,0-.15.01-.22ZM-143.07,376.53c-.02.34-.05.69-.08,1.03.03-.34.05-.69.08-1.03ZM-143.24,378.49c-.03.28-.05.57-.08.85.03-.28.06-.57.08-.85ZM-143.87,382.87s0-.01,0-.02c0,0,0,.01,0,.02-.18.39-.54.71-1,.69h0c.45.02.81-.3,1-.69ZM-143.46,380.41c-.03.24-.06.47-.09.71.04-.24.06-.47.09-.71ZM-145.95,381.46c0-.06,0-.12.02-.18,0,.06-.01.12-.02.18ZM-145.73,379.08c.26-3.05.52-6.09.81-9.13-.29,3.04-.55,6.09-.81,9.13ZM-141.97,332.33c-.93,10.11-1.33,20.37-2.24,30.5.91-10.13,1.31-20.4,2.24-30.5ZM-142.68,374.3c.08-.32.15-.64.23-.96-.07.32-.15.64-.23.96ZM-142.16,372.06c.07-.31.14-.63.22-.94-.07.31-.15.63-.22.94ZM-141.69,370.09c.06-.25.12-.5.19-.75-.06.25-.13.5-.19.75ZM-141.23,368.34c.07-.23.13-.47.2-.7-.07.23-.14.47-.2.7ZM-140.68,366.63c.08-.21.15-.43.23-.64-.08.21-.15.43-.23.64ZM-139.99,364.92c.08-.17.15-.35.23-.52-.08.17-.15.35-.23.52ZM-139.18,297.82c-.02.63-.05,1.26-.08,1.89.03-.63.06-1.26.08-1.89ZM-158.57,299.66c-.02.1-.05.2-.08.3-1.16,4.96-1.76,9.99-2.13,15.04.37-5.05.97-10.08,2.13-15.04.02-.1.05-.2.08-.3ZM-167.03,384.03s.04.04.05.06c-.02-.02-.04-.04-.05-.06ZM-163.73,370.04c-.01.26-.02.53-.04.79-.1,1.84-.22,3.61-.36,5.37.14-1.75.26-3.53.36-5.37.01-.26.02-.53.04-.79ZM-165.18,384.13c.23-.29.34-.63.39-.99-.06.36-.16.7-.39.99-.42.55-1.18.55-1.64.14.46.41,1.22.41,1.64-.14ZM-173.66,326.96c.4,4.93.78,9.85,1.23,14.76.18,1.6.35,3.2.52,4.79-.17-1.6-.34-3.2-.52-4.79-.45-4.91-.82-9.84-1.23-14.76-.09-1.06-.18-2.13-.27-3.19.09,1.06.18,2.13.27,3.19ZM-177.94,294.45c-.86-3.02-2.42-6.22-5.32-7.65,2.89,1.43,4.46,4.64,5.32,7.65ZM-188.34,378.31c.7,4.79,1.6,9.54,2.47,14.3,0,.19.04.41.08.64.29,1.5,1.18,3.65-.45,4.02,1.63-.37.74-2.52.45-4.02-.04-.23-.08-.45-.08-.64-.87-4.76-1.77-9.52-2.47-14.31-1.84-11.6-2.86-23.3-3.74-35,.88,11.71,1.9,23.4,3.74,35ZM-186.54,397.3s-.08.01-.12.02h0s.08-.01.12-.02ZM-186.95,397.16c-.96-.6-.8-2.15-1.1-3.18.29,1.03.13,2.58,1.1,3.18ZM-184.6,286.29c-1.68-.33-3.38.09-4.71,1.04,1.34-.95,3.04-1.37,4.71-1.04ZM-193.8,305.56c.04-1.24.09-2.48.17-3.71-.08,1.24-.13,2.48-.17,3.71-.12,4.14-.06,8.28.09,12.42-.16-4.14-.22-8.28-.09-12.42ZM-189.99,383.14c.56,3.39,1.22,6.77,1.81,10.16-.59-3.39-1.25-6.76-1.81-10.16-.05-.29-.1-.58-.15-.88-.02.01-.05.02-.07.03.03-.01.05-.03.08-.04.05.3.09.6.14.89ZM-190.49,382.39c-.06.02-.11.04-.17.05.06-.01.11-.03.17-.05ZM-191.01,382.5c-.05,0-.1.02-.15.03.05,0,.1-.02.15-.03ZM-191.65,382.59c-.16.02-.31.04-.46.07.15-.03.3-.05.46-.07ZM-192.14,382.67s0,0,0,0c-3.8,1.06-6.49,4.66-8.39,7.95-.35.67-.64,1.36-.9,2.06.26-.7.55-1.39.9-2.06,1.89-3.28,4.59-6.89,8.39-7.95ZM-179.2,446.45c-.52-1.3-1.1-2.57-1.72-3.81.62,1.25,1.2,2.52,1.72,3.81,1.7,3.86,2.55,7.98,3.5,12.06-.94-4.08-1.8-8.2-3.5-12.06ZM-174.34,463.81h0c1.45-.1,2.89-.19,4.33-.28-1.44.09-2.88.18-4.33.28ZM-155.59,463.23c2.57.04,5.17.2,7.74.14-2.57.06-5.17-.11-7.74-.14ZM-130.38,411.49c3.84-10.64,7.14-21.5,6.65-32.95-.12-3.01-.44-6.1-1.25-9.03.82,2.93,1.13,6.02,1.26,9.03.49,11.45-2.81,22.31-6.65,32.95ZM22.33,318.03c-4.59-10.99-15.23-24.9-28.68-19.89-.34.14-.53.35-.63.58-2.11-2.23-4.47-4.13-7.15-5.57-6.55-3.26-16.81-3.36-20.27,4.26-4.02,9.01,8.27,23.16,12.19,31.5,6.12,11.19,11.18,23.13,14.28,35.53-11.06-14.4-32.95-17.56-44.96.31-5.69,8.96-8.39,24.64.95,32.06-7.31,2.88-6.16,12.53-4.52,18.72,4.1,13.01,12.89,19.6,24.99,24.66,4.41,2.22,8.56,5.16,11.32,9.34,1.82,2.87,3.37,5.94,4.51,9.15,1.09,5.01,1.5,4.79,6.55,4.96,6.75,0,13.52-.24,20.27-.5,1.22-.04,2.43-.02,3.65.03,1.87.34,3.39-.16,3.33-2.15-.59-9.76-.55-19.66,2.17-29.15,4.83-15.96,10.44-31.88,11.23-48.69.8-21.92-.1-44.85-9.21-65.14ZM13.08,371.86c.21-2.98.16-6.01.17-6.87-.19-5.93-.89-11.84-1.87-17.69.98,5.86,1.67,11.76,1.87,17.69,0,.86.04,3.89-.17,6.87ZM9.86,377.96c.41.41.77.59,1.08.59.51,0,.9-.47,1.21-1.24-.31.76-.7,1.24-1.21,1.24-.32,0-.67-.18-1.08-.59h0ZM8.79,334.42c.04.17.08.34.13.51-.04-.17-.08-.34-.13-.51ZM8.55,346.32c-.04-.21-.08-.41-.11-.62.04.21.08.41.11.62,0,0,0,0,0,0ZM-2.64,299.69c10.03-1.32,17.07,8.06,21.07,16.05,4.41,8.61,6.99,17.92,8.55,27.42-1.56-9.5-4.14-18.81-8.55-27.42-4-7.99-11.04-17.37-21.07-16.05-.81.15-1.6.41-2.37.72,0,0,0,0,0,0,0,0,0,0,0,0,.76-.32,1.55-.58,2.37-.72ZM8.29,332.43c-.02-.07-.04-.15-.06-.22.02.07.04.15.06.22ZM7.77,330.41c-.05-.19-.1-.38-.15-.57.05.19.1.38.15.57ZM7.07,327.81c-.03-.12-.07-.23-.1-.35.03.12.07.23.1.35ZM6.46,325.67c-.05-.18-.11-.36-.16-.54.05.18.11.36.16.54ZM5.68,323.06c-.05-.15-.09-.29-.14-.44.05.15.09.29.14.44ZM4.96,320.85c-.06-.17-.11-.34-.17-.51.06.17.11.34.17.51ZM4.07,318.27c-.06-.16-.12-.31-.17-.47.06.16.12.31.17.47ZM3.22,316.02c-.06-.15-.11-.3-.17-.45.06.15.12.3.17.45ZM2.21,313.54c-.07-.16-.14-.33-.21-.49.07.16.14.33.21.49ZM1.21,311.3c-.06-.12-.11-.25-.17-.37.06.12.11.24.17.37ZM.07,308.98c-.08-.16-.17-.32-.25-.48.08.16.17.32.25.48ZM-1.13,306.76c-.05-.08-.09-.16-.14-.24.05.08.09.16.14.24ZM-2.39,304.68c-.1-.15-.19-.3-.29-.45.1.15.19.3.29.45ZM-3.85,302.51s-.04-.06-.06-.08c.02.03.04.06.06.08ZM-5.33,300.52s-.03.01-.04.01c.06.07.11.14.16.21-.06-.07-.12-.14-.18-.22.02,0,.04,0,.06,0ZM-2.4,309.94c1.43,2.85,2.69,5.76,3.81,8.73-1.12-2.97-2.38-5.89-3.81-8.73-1.63-3.42-3.82-6.91-6.53-9.79,2.71,2.88,4.9,6.37,6.53,9.79ZM-2.01,377.05c-.16-.7-.34-1.38-.54-2.06.2.68.38,1.36.54,2.06ZM-4.46,369.67c0-.06,0-.11,0-.17,0,.06,0,.11,0,.17ZM-4.46,369.2c0-.06,0-.12,0-.18,0,.06,0,.12,0,.18ZM-4.5,368.71c0-.06-.01-.12-.02-.18,0,.06.01.12.02.18ZM-4.55,368.22c0-.06-.02-.13-.02-.19,0,.06.02.13.02.19ZM-4.62,367.74c0-.06-.02-.13-.03-.19,0,.06.02.13.03.19ZM-4.68,367.33c-.06-.38-.12-.72-.15-.99,0,0,0,0,0,0,.03.27.09.61.15.99ZM-24.21,293.53c5.47-.51,10.14,1.76,13.93,5.28.22.21.44.42.66.63-.22-.22-.44-.43-.66-.63-3.79-3.51-8.46-5.79-13.93-5.28-6.63.85-8.71,5.11-8.1,9.98-.61-4.88,1.47-9.13,8.1-9.99ZM-4.48,369.94s0,.04,0,.06c.06.12.11.24.16.36-.05-.11-.11-.22-.17-.34,0-.03,0-.05.01-.08ZM-2.76,374.37c-.15-.46-.3-.92-.46-1.37.16.45.32.91.46,1.37ZM-3.49,372.29c-.16-.42-.34-.83-.52-1.24.18.41.35.82.52,1.24ZM-16.91,359.23c5.22,3.36,8.84,8.69,11.16,14.36.89,1.81,1.01,3.97,1.98,5.7,1.61,1.16,2.09-.67,1.82-1.98.27,1.31-.21,3.14-1.82,1.98-.97-1.73-1.09-3.89-1.98-5.7-2.33-5.67-5.95-11-11.16-14.36-19.88-13.29-41.54,5.87-37.96,27.55.03.31.08.62.14.95-.06-.32-.11-.64-.14-.95-3.58-21.67,18.08-40.84,37.96-27.55ZM-36.49,384.24c2.57-3.43,5.55-4.87,8.43-4.87,5.4,0,10.48,5.08,11.92,11.71,1.61,7.23.83,21.96-8.5,23.2-9.95-.54-12.55-13-20.85-16.73,5.46-2.27,5.55-9.2,9-13.31ZM-43.88,401.44c4.11,3.75,7,8.95,11.47,12.45,4.3,3.44,11.1,4.08,14.9-.42,4.28-4.86,5.55-13.25,4.44-20.36,1.11,7.11-.16,15.5-4.44,20.36-3.81,4.5-10.6,3.86-14.9.42-4.47-3.5-7.36-8.7-11.47-12.45-6.38-5.49-11.44-.98-11.06,6.49.04,1.61.22,3.21.54,4.78-.31-1.57-.5-3.16-.54-4.78-.39-7.47,4.68-11.98,11.06-6.49ZM-2.4,309.94s.01.02.01.03c0,0,0-.02-.01-.02,0-.01-.01-.03-.02-.04,0,.01.01.02.02.04Z"/>
    </clipPath>
  </defs>
  <path class="cls-2" d="M5.01,4.01c14.04-.44,28.07-1.3,42.11-.48.51.04,1.04.03,1.57.02,1.28-.02,2.58-.05,3.67.68,2.25,1.66.2,4.57-2.07,4.8-3.36.07-6.72-.1-10.09-.26-3.51-.18-7.03-.35-10.54-.25-8.87.11-17.72.81-26.59.97-4.68-.77-2.11-6.33,1.94-5.47Z"/>
  <path class="cls-2" d="M2.02,23.75c-2.39-1.87.12-5.07,2.62-4.96,4.64-.01,9.28-.07,13.92-.21,9.63-.17,19.28-.1,28.91.12,2.05.18,4.37-.21,6.21.86,1.43.99.69,3.13-.73,3.73-.82.42-1.75.52-2.66.59-4.87.16-9.74.09-14.62.02-3.92-.06-7.83-.12-11.75-.05-5.96.11-11.92.35-17.88.45-.31,0-.62,0-.94.02-.28.01-.55.02-.83.02-.8,0-1.58-.1-2.25-.59Z"/>
  <path class="cls-2" d="M3.67,38.6c-1.42-.43-1.55-2.37-.39-3.19,2.88-1.84,6.85-1.6,10.15-2.05,11.16-.81,22.38-1.48,33.57-1.05,1.1.05,2.17.29,3.21.65,1.35.05,2.7.85,2.4,2.38-.33,1.61-2,2.12-3.45,2.06-.96.2-1.94.31-2.92.28-7.66-.25-15.33,0-22.99.33-5.03.12-10.13.8-15.17.8-1.47,0-2.94-.06-4.41-.21Z"/>
</svg>