<svg width="61" height="60" viewBox="0 0 61 60" fill="none" xmlns="http://www.w3.org/2000/svg">
<g clip-path="url(#clip0_600_2691)">
<path d="M60.4231 30.1674C60.3904 29.502 60.3904 28.8366 60.3495 28.1712C60.2254 27.3228 59.209 27.386 58.5407 27.3115C58.3854 27.292 58.2286 27.2775 58.0733 27.2629C58.1975 26.8274 58.1273 26.1652 58.191 25.8527C58.3119 23.3983 58.3331 20.939 58.3397 18.4797C58.3364 16.9578 58.3642 15.4343 58.2727 13.914C58.3626 13.9172 58.4557 13.9205 58.5521 13.9253C58.6975 13.9318 58.8462 13.9399 58.9933 13.9399C59.5293 13.9399 60.0325 13.846 60.1469 13.3133C60.0309 12.248 60.9934 9.64786 59.4296 9.44387C58.977 9.38558 58.5243 9.33701 58.0701 9.29653C58.0505 9.1832 58.0358 9.06825 58.0537 8.95006C58.1845 6.42438 58.1387 3.88898 57.9639 1.36977C57.6795 0.544061 56.655 0.620155 55.8756 0.735106C53.8592 0.791772 51.8444 0.952056 49.828 0.906724C46.4423 0.807963 43.0402 0.451776 39.648 0.390253C33.3635 0.155494 27.0512 0.124732 20.7586 0.0275906C16.8206 0.00978123 12.8793 -0.0420277 8.94291 0.0696853C8.43963 0.0842566 7.93308 0.0777805 7.4249 0.0729234C6.22715 0.0583521 5.02614 0.0453999 3.86271 0.299588C2.55221 0.647679 3.13229 2.30071 3.02772 3.30451C3.03589 5.19877 3.00321 7.10275 3.03589 8.99378C1.76461 8.95492 0.480261 9.14596 0.71066 10.7245C0.805434 11.5389 0.459019 13.8768 1.71559 13.8233C2.04893 13.7764 2.38227 13.7311 2.71725 13.6922C2.71725 13.7618 2.72052 13.8282 2.72215 13.8897C2.7483 16.8088 2.8349 19.7247 2.78098 22.6438C2.76627 23.9747 2.73849 25.265 2.66823 26.6023C2.67313 26.9197 2.61757 27.284 2.65843 27.6175C2.33489 27.632 2.00971 27.6418 1.69271 27.6401C1.26786 27.6013 0.789093 27.6337 0.612618 28.0886C0.411632 28.5517 0.530916 29.0762 0.60118 29.5538C0.738438 30.5463 0.790727 31.521 0.851187 32.528C0.903476 33.0169 0.79563 33.5609 1.07505 33.9964C1.42473 34.4044 2.02769 34.6084 2.69274 34.7185C2.31038 38.6706 2.44764 42.6906 2.53914 46.6621C2.54568 50.4895 2.72705 54.312 2.66986 58.1394C2.6862 58.5005 2.95582 58.6753 3.2287 58.6753C3.26955 58.6753 3.3104 58.6705 3.35125 58.6624C3.91826 58.8502 4.53103 58.8356 5.13725 58.8162C5.43464 58.8081 5.73204 58.7984 6.0229 58.8146C10.7256 58.698 15.4267 58.5231 20.136 58.6462C24.5169 58.6591 28.8961 58.6267 33.2753 58.7563C35.5106 58.8146 37.7476 58.7142 39.9846 58.7093C43.9161 58.7725 47.8312 59.2064 51.7643 59.2501C51.8215 59.2501 51.8787 59.2501 51.9375 59.2501C53.8837 59.2501 55.8494 59.1772 57.7759 58.923C57.8004 58.9101 57.8217 58.8955 57.8429 58.8826C58.2645 58.8453 58.3936 58.4066 58.3511 58.039C58.3315 54.9645 58.4753 51.8802 58.4018 48.7928C58.3838 46.2282 58.441 43.6621 58.4671 41.0975C58.5292 38.7013 58.8332 36.3019 58.5897 33.8783C58.5848 33.8556 58.5815 33.8329 58.5766 33.8103C58.7449 33.8038 58.9149 33.7957 59.0832 33.7908C59.8103 33.7941 60.1518 33.8313 60.3904 33.0428C60.6159 32.1054 60.4263 31.1194 60.4231 30.1658V30.1674ZM45.0125 23.0405C43.9978 22.8203 43.8213 20.8321 43.8605 19.9789C44.0648 19.9789 44.2707 19.9773 44.4766 19.974C45.0485 19.9659 45.6187 19.9578 46.1841 20.0388C46.189 20.9875 46.1237 22.7361 45.0125 23.0405ZM45.4096 24.1058C46.3116 23.8435 47.0322 22.7523 47.1825 21.721C47.2724 20.9859 47.6302 19.4462 46.8034 19.0625C46.1531 18.831 45.4488 18.8456 44.7543 18.8585C44.4913 18.8634 44.2315 18.8699 43.9765 18.8618C43.1742 18.7857 42.8131 19.0852 42.7363 19.872C42.6808 20.3788 42.7167 20.9309 42.9161 21.402C42.9896 22.1937 43.2282 23.0291 43.7984 23.6136C44.0419 23.8468 44.287 23.9973 44.5289 24.0815C44.5272 24.088 44.5256 24.0961 44.5239 24.1042C44.3426 25.0432 44.1677 26.0033 44.1465 26.9585C44.1465 26.9618 44.1465 26.965 44.1481 26.9666C43.171 27.0071 42.1938 27.0654 41.2183 27.1334C40.5287 27.1641 39.8392 27.1884 39.1512 27.2111C39.2199 26.9812 39.2231 26.6995 39.2346 26.4793C39.2362 26.0211 39.362 24.8667 39.264 24.0427C40.5859 23.7755 41.2216 21.9379 41.3621 20.7188C41.3915 20.1926 41.4797 19.3248 40.818 19.0981C40.4225 18.9783 39.9993 18.9816 39.5826 18.9848C39.4421 18.9848 39.2999 18.9848 39.1627 18.9832C38.6251 18.9848 38.0875 18.9832 37.5515 19.0123C37.3146 19.0091 37.0613 19.0722 36.9143 19.273C36.5924 19.8218 36.7754 20.5213 36.7917 21.1252C36.875 21.7129 36.8701 22.4091 37.3113 22.8591C37.5025 23.3416 37.8604 23.7755 38.3473 23.9682C38.2983 24.415 38.2542 24.8635 38.2117 25.3104C38.1659 25.7896 38.1316 26.2721 38.0875 26.7529C38.0466 26.91 38.045 27.088 38.0908 27.2419C36.4878 27.2856 34.8848 27.3099 33.2818 27.3196C33.4158 26.2024 33.3145 25.0465 33.3357 23.9196C34.0433 23.7755 34.6332 23.0113 34.8227 22.1727C34.9698 21.6805 35.0221 21.164 35.0547 20.6524C35.1528 20.11 34.9747 19.4948 34.3701 19.362C33.6364 19.1516 32.8586 19.1823 32.1037 19.2001C31.7899 19.2099 31.4582 19.1872 31.218 19.4268C30.7752 19.8688 30.9419 20.5261 31.0399 21.0717C31.2409 21.9023 31.437 22.7814 32.0318 23.4339C32.138 23.5424 32.2442 23.6298 32.352 23.701C32.3177 23.9455 32.3145 24.2029 32.2769 24.4345C32.2311 25.3929 32.1903 26.3676 32.2017 27.3228C28.1804 27.3341 24.1574 27.2629 20.1377 27.1803C20.172 26.8339 20.1311 26.4307 20.2096 26.1555C20.4089 24.4474 20.6834 22.7037 20.8583 20.9584C20.9432 20.9406 21.0282 20.905 21.1246 20.871C21.7488 20.7544 21.8142 21.4894 21.9531 21.9104C22.0789 22.2002 22.3861 22.3783 22.6966 22.3783C22.7521 22.3783 22.806 22.3734 22.8616 22.3605C24.1982 22.0059 23.6835 19.4997 22.8828 18.8019C22.4596 18.3647 21.6655 18.0571 21.0266 18.1996C21.0298 17.8774 21.0298 17.5552 21.0184 17.2346C20.9351 16.723 20.9351 15.9945 20.3599 15.7791C19.8011 15.7111 19.2455 15.737 18.6719 15.7646C18.3321 15.7791 17.984 15.7953 17.6278 15.7921C16.6686 15.8471 15.6702 15.7888 14.7437 16.0722C14.1816 16.247 14.1914 16.8477 14.2061 17.3285C14.1636 19.7538 14.0836 22.1792 13.9904 24.6028C13.961 25.346 13.9038 26.0891 13.9234 26.8306C13.9234 26.9116 13.9283 26.9958 13.9414 27.0783C11.9234 27.1075 9.90536 27.1722 7.88896 27.2775C7.92818 26.4194 7.88569 25.5613 7.8285 24.7032C7.72556 22.5499 7.65529 20.3917 7.603 18.2352C7.54255 16.6259 7.63078 15.0328 7.71412 13.4202C10.376 13.336 13.0378 13.3166 15.7013 13.3036C18.1164 13.3214 20.5347 13.2874 22.9515 13.2534C25.5218 13.2178 28.0921 13.1806 30.6608 13.2081C35.5613 13.3538 40.465 13.4445 45.3671 13.553C48.1123 13.6404 50.8575 13.7732 53.6043 13.8525C53.5569 15.601 53.6059 17.3512 53.6206 19.1014C53.6255 20.4743 53.5765 21.8294 53.5307 23.204C53.4964 24.3988 53.4343 25.5953 53.4817 26.7901C53.4866 26.8614 53.4882 26.9407 53.4964 27.0201C52.3755 26.9812 51.2529 26.9731 50.1319 27.0265C48.5028 26.9019 46.8721 26.8841 45.2413 26.9261C45.341 25.9887 45.4259 25.0448 45.408 24.1009L45.4096 24.1058ZM38.9519 22.9806C38.0483 22.8672 37.8996 20.8467 37.8653 20.1181C38.2967 20.1117 38.728 20.1019 39.1594 20.1019C39.5222 20.1019 39.8833 20.1084 40.2444 20.1262C40.3 20.9471 39.8719 22.7231 38.9519 22.9806ZM33.1462 22.8268L33.1527 22.83H33.1511C33.1037 22.8268 33.0579 22.8187 33.0122 22.8073L33.0073 22.7911C32.9632 22.7652 32.9207 22.7393 32.8798 22.7102C32.3161 22.0383 32.2066 21.1656 32.1592 20.314C32.3586 20.3124 32.5579 20.3076 32.7589 20.3076C33.156 20.3076 33.5531 20.3237 33.942 20.4079C33.8684 21.1737 33.8652 22.3313 33.1462 22.8268ZM14.8695 26.7772C14.9284 26.1587 14.9905 25.5403 15.0411 24.9202C15.2225 22.3087 15.2928 19.6875 15.3401 17.0695C16.8238 16.8655 18.3304 16.9173 19.8256 16.859C20.0821 18.729 19.7095 20.6362 19.5592 22.5062C19.3876 23.8678 19.167 25.2245 19.0347 26.591C19.0167 26.7594 18.9922 26.9634 18.9955 27.1593C17.6147 27.1301 16.234 27.101 14.8532 27.0751C14.8679 26.9715 14.8728 26.8662 14.8712 26.7756L14.8695 26.7772ZM21.0004 19.1046C21.2406 19.1791 21.507 19.2277 21.6655 19.2973C22.0854 19.4527 22.3714 19.8672 22.4678 20.2897C22.1361 19.9336 21.6344 19.7134 21.1426 19.7441C21.0854 19.7474 21.0233 19.7538 20.9628 19.7636C20.9776 19.5434 20.9906 19.3248 21.0021 19.1062L21.0004 19.1046ZM54.2742 26.2834C54.4033 25.2407 54.4883 24.1948 54.57 23.1473C54.8314 20.0647 54.668 16.974 54.7334 13.8865C55.534 13.9043 56.3347 13.914 57.137 13.9189C57.3053 17.4224 57.2057 20.9357 57.1991 24.4442C57.2432 25.3541 57.0978 26.3142 57.2547 27.2111C57.0668 27.203 56.8772 27.1949 56.6893 27.19C55.8412 27.1382 54.9916 27.0864 54.1386 27.0492C54.2203 26.7885 54.2481 26.4502 54.2742 26.2834ZM7.45758 1.19005C7.9772 1.19815 8.49682 1.20463 9.01317 1.18843C12.8973 1.07672 16.7814 1.13177 20.6687 1.14472C28.2457 1.26777 35.8276 1.27424 43.3997 1.67091C45.6694 1.82471 47.9407 1.98338 50.2153 2.03843C51.6058 2.04652 52.9964 1.9769 54.387 1.917C54.7089 2.07404 55.2252 1.98176 55.7269 1.88947C55.7808 1.87976 55.8363 1.87005 55.8903 1.85871C56.1239 1.85224 56.3576 1.84576 56.5913 1.8409C56.6681 1.83605 56.7334 1.81824 56.7923 1.79557C56.82 1.80043 56.8494 1.8069 56.874 1.815C56.9083 2.82042 56.9638 3.82421 56.9932 4.82801C56.8789 4.82639 56.7612 4.82801 56.6468 4.82963C56.4344 4.83287 56.2318 4.83773 56.0864 4.81506C53.4409 4.59811 50.7496 4.64182 48.0927 4.71306C45.939 4.70011 43.787 4.74544 41.635 4.79078C39.3424 4.83935 37.0466 4.88792 34.7524 4.86687C32.5432 4.87335 30.334 4.83287 28.1248 4.79239C25.7751 4.7503 23.4253 4.70659 21.0756 4.72116C17.6605 4.87173 14.247 4.93001 10.8302 4.83611C8.67166 4.81668 6.51637 4.76649 4.35782 4.64344C4.29246 4.63211 4.22056 4.6224 4.14866 4.61592C4.15356 3.54088 4.15193 2.46585 4.13722 1.39243C5.22386 1.16253 6.34153 1.1771 7.45594 1.19329L7.45758 1.19005ZM4.09311 8.47245C4.11762 7.46217 4.13396 6.45028 4.14376 5.43839C4.30716 5.45458 4.47547 5.45458 4.60946 5.46429C5.3268 5.46915 6.04577 5.48534 6.76311 5.50801C10.1309 5.56791 13.5019 5.69743 16.8696 5.64886C18.5674 5.61 20.2635 5.49343 21.9629 5.49667C25.9466 5.51286 29.9288 5.66991 33.9125 5.67153C39.4911 5.66181 45.0681 5.42867 50.6467 5.37363C52.7676 5.42867 54.8853 5.42544 57.0063 5.45782C57.0112 5.79943 57.0145 6.13943 57.0096 6.48104C57.0079 7.23227 56.9589 8.1454 56.9442 8.94521C56.9475 9.0294 56.9475 9.11682 56.9475 9.20587C55.4458 9.10549 53.9376 9.07473 52.431 9.05368C50.5797 8.99539 48.7316 8.87721 46.877 8.89178C44.4145 8.93387 41.9683 9.26901 39.5091 9.36292C34.491 9.58634 29.4533 9.48272 24.4352 9.32244C21.5674 9.20425 18.6981 9.26092 15.832 9.31596C13.8058 9.35482 11.7796 9.39368 9.75502 9.37263C7.99027 9.32244 6.22878 9.1832 4.46893 9.07311C4.34311 9.06825 4.20585 9.06016 4.06206 9.05044C4.07023 8.85778 4.08167 8.66349 4.09311 8.46921V8.47245ZM1.83978 10.2259C3.05223 9.94253 4.33331 10.2534 5.567 10.268C7.93962 10.4299 10.3139 10.5772 12.693 10.4946C20.0331 10.2064 27.3732 10.6031 34.7132 10.6241C38.447 10.6063 42.1644 10.3068 45.8867 10.0429C47.841 9.95386 49.797 10.0769 51.7496 10.1514C54.2497 10.221 56.6926 10.2097 59.1877 10.5432C59.2433 11.3057 59.0341 11.9955 59.0374 12.8066C54.0111 12.8714 48.9783 12.5314 43.9439 12.3824C39.6186 12.3646 35.2949 12.2043 30.9713 12.0975C30.2066 12.0829 29.4418 12.078 28.6771 12.078C25.7032 12.078 22.7292 12.1655 19.7569 12.1816C13.8238 12.2383 7.85955 12.0618 1.95089 12.6625C1.82507 11.8578 1.83161 11.0354 1.83814 10.2242L1.83978 10.2259ZM3.84637 25.2618C3.93624 22.8462 3.9346 20.4274 3.90192 18.0102C3.915 16.5368 3.82512 15.0668 3.86107 13.5951C3.86434 13.5951 3.86924 13.5951 3.87251 13.5951C4.77613 13.5416 5.67975 13.4979 6.585 13.4639C6.585 13.4801 6.585 13.4947 6.58827 13.5092C6.35134 16.6178 6.5082 19.7425 6.63076 22.8543C6.68304 24.1463 6.79089 25.4318 6.8873 26.7205C6.91181 26.9116 6.92161 27.1269 6.95429 27.3341C5.89054 27.3957 4.82679 27.4685 3.76466 27.5527C3.72872 27.5559 3.69277 27.5576 3.65682 27.5592C3.82512 26.7788 3.781 25.5969 3.84637 25.2618ZM40.9029 50.5899C40.898 49.1344 40.8817 47.6789 40.8506 46.2234C41.0778 46.2331 41.3114 46.2234 41.5255 46.2493C42.3213 46.2703 43.117 46.2784 43.9112 46.2784C46.4276 46.2784 48.9375 46.1926 51.4735 46.1473C53.3984 46.0744 55.3216 45.9012 57.2514 45.9983C57.2645 45.9983 57.2776 45.9983 57.2906 45.9983C57.2825 47.4959 57.2776 48.9919 57.2727 50.4879C52.6549 50.211 48.0355 50.4506 43.4095 50.5235C42.6824 50.5316 41.9144 50.5348 41.1758 50.5834C41.0908 50.5834 40.9977 50.5834 40.9046 50.5899H40.9029ZM27.396 50.4863H27.414C27.2424 50.4863 27.0496 50.4911 26.8715 50.4944H26.9238C25.9058 50.5186 24.8747 50.5154 23.8453 50.5154C23.574 50.5154 23.3044 50.5154 23.0348 50.5154C23.0413 50.4005 23.0479 50.2855 23.056 50.1722C23.1459 48.9077 23.2423 47.6076 23.3175 46.3043C24.3731 46.3626 25.4336 46.3642 26.4891 46.3675C26.7506 46.3723 27.012 46.3739 27.2751 46.3739C28.5088 46.3739 29.7441 46.3302 30.9762 46.2946C31.0546 46.2865 31.1494 46.2881 31.2491 46.2897C31.4027 46.2914 31.5693 46.293 31.7082 46.2606C31.6461 47.7193 31.5693 49.1781 31.4942 50.6368C30.12 50.5543 28.7359 50.4523 27.3617 50.4863H27.3944H27.396ZM3.56204 42.4122C3.56041 42.2503 3.56041 42.09 3.55878 41.9281C3.6176 41.9912 3.69604 42.0366 3.79571 42.0544C6.268 41.9216 8.75336 41.9864 11.2306 41.9329C11.711 41.9167 12.1669 41.8746 12.6407 41.8844C12.6375 42.1078 12.6473 42.3312 12.6734 42.5465C12.8646 43.1585 13.497 43.2654 14.1048 43.3043C14.1015 43.8968 14.1065 44.4878 14.0983 45.0803C14.0966 45.2034 14.0934 45.328 14.0917 45.4511C10.6227 45.3977 7.11116 45.2843 3.64211 45.6162C3.61924 44.5477 3.59309 43.4807 3.56041 42.4122H3.56204ZM24.6329 41.805C24.659 41.6966 24.6786 41.5881 24.6933 41.478C25.0888 41.4747 25.4858 41.4796 25.8829 41.4893C27.1705 41.5233 28.4532 41.5913 29.7425 41.5962C29.8536 41.5816 30.0464 41.5848 30.2703 41.5881C30.3749 41.5897 30.4843 41.5913 30.5971 41.5913C30.3209 42.4203 30.9059 42.9966 31.7017 43.131C31.736 43.1391 31.772 43.144 31.8063 43.1504C31.7932 43.9535 31.7703 44.7581 31.7393 45.5612C31.6658 45.5418 31.5857 45.5353 31.5105 45.5434C31.017 45.5434 30.5219 45.5256 30.0268 45.5239C27.8389 45.5126 25.6394 45.4592 23.458 45.6599C23.4302 45.6664 23.3927 45.6713 23.3518 45.6777C23.4008 44.7322 23.4351 43.7883 23.4466 42.859C24.0659 42.859 24.5348 42.4025 24.6345 41.8034L24.6329 41.805ZM23.4793 41.7257C21.3272 41.9135 19.1687 42.056 17.0134 42.2033C15.9317 42.2341 14.8369 42.294 13.7649 42.1305C13.7649 41.499 13.881 40.7559 14.2404 40.2006C14.9986 39.914 15.8892 40.0678 16.6948 39.9642C18.6605 39.914 20.6164 39.6096 22.5805 39.6096C22.8975 39.6096 23.2162 39.6177 23.5332 39.6355C23.592 40.3269 23.7113 41.0554 23.4793 41.7257ZM20.3109 43.1245C20.306 43.9162 20.2962 44.708 20.2847 45.4997C20.1442 45.4624 19.9743 45.4689 19.837 45.4721C18.9007 45.4964 17.9219 45.4689 16.9905 45.6178C16.9954 44.9298 16.9987 44.2417 17.0003 43.5536C16.9987 43.4678 16.9791 43.3917 16.9513 43.3253C18.0739 43.2735 19.1948 43.1699 20.3158 43.0808C20.3158 43.0954 20.3109 43.1083 20.3109 43.1229V43.1245ZM16.9872 46.2007C17.1441 46.2072 17.2846 46.2088 17.3565 46.2217C17.7046 46.2396 18.0543 46.2476 18.4023 46.2476C18.8598 46.2476 19.3157 46.2347 19.7733 46.2201C19.922 46.2201 20.1148 46.2266 20.2733 46.1845C20.2504 47.5607 20.2243 48.9369 20.2063 50.3114C20.1883 50.3098 20.1703 50.3066 20.154 50.3049C19.3272 50.2159 18.4987 50.1463 17.667 50.1398C17.5559 50.1495 17.435 50.1398 17.3108 50.1333C17.1833 50.1252 17.0559 50.1171 16.935 50.1301C16.9578 48.8203 16.9758 47.5105 16.9856 46.2007H16.9872ZM3.6993 50.1786C3.69604 48.8478 3.68133 47.5186 3.65518 46.1877C7.1324 46.1748 10.6031 46.042 14.0819 46.0566C14.0574 47.4328 14.0362 48.809 14.0166 50.1851C12.7159 50.1673 11.4119 50.1835 10.1129 50.1544C7.9723 50.1301 5.84479 50.2434 3.70094 50.2547C3.70094 50.2288 3.70094 50.2046 3.6993 50.1786ZM15.0885 56.2937C15.0624 51.9806 15.2388 47.6692 15.2013 43.3561C15.3434 43.3593 15.4856 43.3593 15.6294 43.3593C15.7225 43.3593 15.8156 43.3577 15.9104 43.3561C15.8892 43.416 15.8745 43.4791 15.8728 43.5536C15.8843 45.498 15.8516 47.4441 15.8304 49.3886C15.796 51.809 15.7879 54.2311 15.7813 56.6532C15.8091 56.8345 15.7797 57.1599 15.7781 57.4789C15.5526 57.4756 15.3271 57.474 15.1016 57.4708C15.1228 57.0709 15.0411 56.6013 15.0885 56.2921V56.2937ZM16.832 54.5662C16.8712 53.3649 16.899 52.1636 16.9235 50.9623C17.2944 50.9623 17.6654 50.9509 18.0379 50.9623C18.2046 50.9655 18.3696 50.9671 18.5363 50.9671C19.0919 50.9671 19.6475 50.9509 20.203 50.9331C20.1965 51.4965 20.1916 52.0583 20.19 52.6218C20.1687 54.0157 20.0805 55.4081 20.0739 56.8005C20.0935 57.0304 20.0788 57.2862 20.1099 57.5258C18.9546 57.5177 17.7994 57.5048 16.6441 57.4902C16.7307 56.5172 16.7895 55.5409 16.832 54.5662ZM21.3501 48.5726C21.3926 46.7576 21.4498 44.9427 21.4383 43.1245C21.4383 43.0841 21.4318 43.0468 21.4236 43.0112C21.7439 42.9918 22.0642 42.9707 22.3828 42.9464C22.3861 43.1262 22.3877 43.3059 22.3665 43.471C22.3273 44.5444 22.2554 45.6162 22.1884 46.6864C21.8844 50.2515 21.7554 53.849 21.5478 57.4222C21.5478 57.461 21.5527 57.4983 21.5593 57.5339C21.3599 57.5339 21.1606 57.5339 20.9628 57.5323C21.3076 54.563 21.3419 51.5629 21.3517 48.5726H21.3501ZM32.4092 55.5684C32.5302 53.4183 32.5661 51.2634 32.6805 49.1117C32.7524 47.164 32.9485 45.192 32.8194 43.2427C32.8472 43.2427 32.8749 43.2427 32.9027 43.2427C33.0596 43.2427 33.2181 43.2395 33.3766 43.2346C33.29 46.2995 33.3276 49.3659 33.022 52.421C32.9207 53.9235 32.8553 55.4292 32.8945 56.9332C32.9027 57.1615 32.9092 57.3882 32.9191 57.6165C32.7181 57.6132 32.5171 57.61 32.3161 57.6068C32.3471 56.9268 32.3815 56.2484 32.4109 55.5684H32.4092ZM34.4093 48.1743C34.4109 47.5542 34.4142 46.9325 34.4256 46.3108C34.5155 46.3108 34.5972 46.314 34.6609 46.3254C34.9371 46.3399 35.2149 46.3464 35.491 46.3464C36.3276 46.3464 37.1626 46.2897 37.9976 46.2476C37.947 47.7274 37.9045 49.2072 37.8718 50.6886C37.6953 50.6676 37.514 50.6449 37.3244 50.6223C36.3718 50.5219 35.4142 50.4749 34.455 50.4863C34.4077 50.4863 34.357 50.4863 34.3047 50.4879C34.3586 49.7286 34.4028 48.9611 34.4109 48.1727L34.4093 48.1743ZM38.0221 45.5077C37.6218 45.5466 37.2198 45.579 36.8179 45.5871C36.0352 45.5968 35.2279 45.6081 34.4387 45.6891C34.442 45.5515 34.4452 45.4138 34.4518 45.2746C34.4747 44.5881 34.5057 43.9017 34.5057 43.2136C35.7067 43.2071 36.9077 43.1974 38.1071 43.1553C38.0777 43.9389 38.0499 44.7225 38.0221 45.5061V45.5077ZM33.7295 42.1078C33.5743 42.1078 33.4158 42.1126 33.2589 42.1175C32.7132 42.1353 32.1592 42.1531 31.651 41.9475C31.7638 41.2902 31.9419 40.6442 32.0334 39.982C33.223 40.0111 34.4142 39.9529 35.6038 39.8962C36.9845 39.8282 38.3669 39.7618 39.7477 39.833C40.166 39.8703 40.7477 39.8978 41.0402 40.254C41.1105 40.7737 41.2444 41.2967 41.2363 41.8245C38.7607 42.1078 36.2247 42.0673 33.7279 42.1078H33.7295ZM42.3785 41.7921C42.4928 41.7921 42.6105 41.7775 42.7265 41.7646C42.867 41.7484 43.0059 41.7322 43.1383 41.7386C44.3295 41.6609 45.5223 41.601 46.7168 41.5427C49.1924 41.4407 51.6728 41.4132 54.1517 41.3339C54.4017 41.2821 56.3494 41.3307 57.338 41.1639C57.3151 42.5384 57.3021 43.9114 57.2923 45.2843C55.923 45.1856 54.5553 45.2519 53.1859 45.3199C52.3052 45.3637 51.4245 45.4058 50.5437 45.4058H50.5552C47.3312 45.4624 44.0648 45.4236 40.8376 45.6907C40.818 44.8229 40.7935 43.9535 40.7657 43.0857C40.7657 43.063 40.7624 43.0436 40.7591 43.0242C41.6317 42.9643 42.3425 42.7716 42.3801 41.7937L42.3785 41.7921ZM57.3576 40.751C56.3903 40.6944 55.3968 40.7008 54.4131 40.7089C54.0258 40.7106 53.6402 40.7138 53.2595 40.7138C50.1565 40.7429 47.0518 40.6798 43.952 40.8466C43.3965 40.8725 42.8474 40.9 42.2935 40.9097C42.1742 39.9804 42.0631 39.2664 40.9961 38.928C39.3849 38.486 37.6561 38.7273 36.0041 38.758C35.1511 38.8033 34.2982 38.8697 33.4436 38.8665C33.2736 38.8875 33.0481 38.8713 32.8079 38.8552C32.2001 38.8131 31.5023 38.7693 31.4076 39.3668C31.1053 39.8395 30.9321 40.3722 30.7817 40.9097C29.8422 40.8174 28.8961 40.7948 27.9516 40.7818C26.9875 40.7656 26.0234 40.7381 25.0594 40.6992C24.9793 40.6992 24.8862 40.6911 24.7881 40.6847C24.7734 40.6847 24.7571 40.683 24.7424 40.6814C24.7358 40.2961 24.6966 39.9108 24.659 39.5303C24.6443 39.0656 24.3796 38.6139 23.8812 38.5556C22.8011 38.4002 21.7031 38.5054 20.636 38.7013C19.4563 38.7337 18.2781 38.7904 17.0984 38.839C16.4104 38.873 15.7225 38.9005 15.0329 38.9361C14.4431 38.9539 13.7715 39.0073 13.3662 39.4914C13.0231 39.9788 12.8074 40.56 12.7077 41.1607C11.6047 41.1736 10.4969 41.1461 9.38573 41.1169C7.66673 41.0716 5.94446 41.0247 4.23527 41.138C4.06859 41.1477 3.88395 41.1428 3.72545 41.2076C3.65682 41.2319 3.60126 41.2691 3.55714 41.3145C3.56204 40.152 3.59473 38.9912 3.62741 37.8303C4.55554 37.8983 5.51961 37.7396 6.44284 37.6733C11.0606 37.1908 15.7094 36.8638 20.355 36.9949C21.5119 37.0305 22.6671 37.0839 23.8224 37.1438C26.1509 37.2734 28.4745 37.5243 30.8063 37.5761C33.2279 37.5437 35.6512 37.377 38.0712 37.3576C42.7151 37.3478 47.3476 37.7056 51.9866 37.8287C52.3526 37.8514 52.7186 37.8611 53.0846 37.8611C54.5569 37.8611 56.021 37.7073 57.4949 37.6555C57.4557 38.6868 57.4099 39.7181 57.356 40.7494L57.3576 40.751ZM3.99833 57.8043C3.9346 57.8156 3.86924 57.8237 3.80225 57.8318C3.83003 55.5619 3.78427 53.2937 3.72381 51.0238C4.0735 51.0238 4.42318 51.0335 4.7745 51.0351C4.9379 51.0384 5.1013 51.04 5.26471 51.04C6.30232 51.04 7.33993 50.9785 8.3759 50.9088C10.2534 50.8036 12.1391 50.823 14.0117 50.6563C13.9806 52.9359 13.9578 55.2155 13.9512 57.495C10.6325 57.5728 7.31215 57.631 3.99833 57.8043ZM22.6639 57.5371C22.6704 57.5015 22.6769 57.4627 22.6769 57.4222C22.8158 55.3984 22.8763 53.3714 22.9858 51.3444C25.4385 51.333 27.9238 51.2731 30.3765 51.1889C30.5334 51.1889 30.7425 51.1841 30.9108 51.1808C31.0808 51.176 31.2752 51.1727 31.4697 51.1679C31.4125 52.298 31.3602 53.428 31.3242 54.5597C31.2818 55.5684 31.2327 56.5787 31.187 57.5873C29.6134 57.5598 28.0415 57.5339 26.4679 57.5307C25.1999 57.5388 23.9335 57.5388 22.6671 57.5371H22.6639ZM33.7802 57.6262C33.7835 57.576 33.7867 57.529 33.79 57.4853C33.8864 56.4912 33.9648 55.4955 34.0139 54.4982C34.0612 53.428 34.1544 52.3886 34.2377 51.3427C34.5498 51.3427 34.8619 51.346 35.1773 51.346C36.0564 51.346 36.9486 51.333 37.8244 51.2537C37.8359 51.2537 37.8473 51.2505 37.8587 51.2488C37.8162 53.3779 37.8015 55.5053 37.8359 57.631C36.4829 57.6488 35.1315 57.6424 33.7802 57.6262ZM38.9584 57.6084C38.9584 57.597 38.9601 57.5889 38.9584 57.5776C38.9029 55.8064 38.9813 54.0352 38.9666 52.2623C38.9552 49.2121 39.1807 46.1586 39.0892 43.11C39.1725 43.1051 39.2558 43.1035 39.3408 43.0986C39.4372 43.0889 39.5352 43.0808 39.6349 43.0743C39.8572 47.9104 39.6856 52.7561 39.8653 57.5922C39.8228 57.5922 39.7804 57.5906 39.7362 57.5906C39.4764 57.5987 39.2182 57.6035 38.9584 57.61V57.6084ZM40.7755 57.6116C40.8098 57.1793 40.831 56.7471 40.8474 56.3148C40.885 54.7087 40.9029 53.1026 40.9046 51.4965C46.3835 51.3282 51.7529 50.9736 57.2694 50.9833C57.2629 53.2791 57.2531 55.5749 57.2253 57.8755C51.7725 58.5021 46.2511 57.7654 40.7771 57.6116H40.7755ZM57.5259 36.8298C57.4426 36.8378 57.3609 36.8459 57.2857 36.8459C53.4033 37.1098 49.5192 36.9657 45.6335 36.82C42.0206 36.684 38.4061 36.5497 34.7933 36.7439C30.1592 37.1244 25.5447 36.5011 20.9122 36.4023C18.2749 36.3165 15.6326 36.4023 12.9937 36.5723C9.87758 36.7423 6.75004 36.8799 3.64538 37.1924C3.66499 36.5092 3.68133 35.826 3.69113 35.1395C3.6797 35.0375 3.67643 34.929 3.67153 34.8189C4.19768 34.8497 4.70587 34.8529 5.11111 34.8772C5.24673 34.8772 5.38236 34.8772 5.51798 34.8772C8.36446 34.8772 11.2093 34.759 14.0542 34.6408C17.3369 34.5048 20.6213 34.3688 23.9106 34.4142C34.0269 34.4239 44.1563 34.6457 54.2595 34.0062C55.3772 33.956 56.4949 33.8993 57.6125 33.8491C57.588 34.8416 57.5602 35.8357 57.5259 36.8281V36.8298ZM59.325 32.664C56.0373 32.7741 52.7546 32.9813 49.4702 33.1497C44.3867 33.2857 39.3032 33.3683 34.2181 33.3569C28.5284 33.3197 22.8371 33.2177 17.1507 33.3893C14.0166 33.4541 10.8923 33.7406 7.7566 33.739C7.30725 33.7342 6.85298 33.7439 6.39872 33.7536C4.92156 33.786 3.42479 33.8184 2.01789 33.3715C1.94762 31.8302 1.85938 30.2873 1.63062 28.7589C5.91832 28.5759 10.2354 28.189 14.5509 28.189C14.8679 28.189 15.1849 28.1906 15.5019 28.1955C20.5838 28.3007 25.6656 28.4675 30.7523 28.4464C35.7868 28.4869 40.8114 28.2635 45.8377 28.0255C49.0796 27.9607 52.3166 28.3137 55.5602 28.4513C56.1125 28.495 56.6648 28.4772 57.2171 28.4577C57.8936 28.4367 58.5685 28.4124 59.24 28.5063C59.2384 29.8922 59.4345 31.2862 59.325 32.6656V32.664Z" fill="#0A4635"/>
</g>
<defs>
<clipPath id="clip0_600_2691">
<rect width="60" height="59.25" fill="white" transform="translate(0.5)"/>
</clipPath>
</defs>
</svg>
