<?xml version="1.0" encoding="UTF-8"?>
<svg id="CRUCES" xmlns="http://www.w3.org/2000/svg" viewBox="0 0 534.95 427.97">
  <defs>
    <style>
      .cls-1 {
        fill: #0a4635;
      }
    </style>
  </defs>
  <path class="cls-1" d="M534.12,363.38c-6.68-15.45-14.16-30.57-20.07-46.36-2.83-7.29-5.54-14.62-7.74-22.13-1.1-4.84-4.05-15.2-11.01-11.55-18.09.14-36.16-.93-54.2-2.04-18.5-1.14-37.05-1.29-55.54-2.54-.05-1.7-.1-3.4-.05-5.1.52-14.03.77-28.41.91-42.69.46-26.01.49-52.54-.15-78.71-.58-16.67.27-33.64-2.77-50.1-.45-2.23-1.19-3.95-2.08-5.25-.23-1.7-1.38-3.26-3.63-3.61-18.37-3.16-36.96-4.74-55.52-6.38-.11-.01-.24-.03-.36-.04,1.25-6.76,2.44-13.53,3.72-20.27,1.9-13.38,8.67-36.66,1.79-48.59-3.23-4.86-9.49-4.69-14.7-4.62-1.85.11-3.75.06-5.62.15-4.3-7.79-15.06-6.94-22.65-9.22-15.86-3.44-32.57-6.63-48.51-2.04-20.48,4.93-19.88,15.8-22.72,33.73-2.49,17.3-6.44,34.54-8.3,51.97-.6,0-1.21.04-1.77.02-11.16.45-22.05,3.2-33.02,5.11-4.18.75-8.36,1.53-12.51,2.45-1.35.29-3.17.59-4.49,1.32-4.8,0-9.85,1.05-11.52,6.22-3.73,15.48-3.97,31.66-6.11,47.42-1.55,15.05-3.58,30.05-4.8,45.13-.71,8.8-1.36,17.59-2.53,26.34-.32-2.69-.78-5.36-1.46-7.97-4.92-12.73-18.2-9.88-24.1.45-4.69-13.32-19.23-8.31-23.81,2.13-5.15-9.45-16.71-5.74-21.57,1.83-.93-10.99-8.39-19.76-19.81-10.72-4.67,4.25-6.29,10.33-7.26,16.47-6.06-5.32-17.41-5.4-22.05,1.5-4.63,6.33-4.24,13.89-4.69,21.58-.07,8.09-.76,16.27,1.71,24.06-1.46,1.06-2.76,2.3-3.79,3.8-3.12,4.43.18,9.63.72,14.38,2.71,13.08,3.77,26.37,5.22,39.62,1.62,13.95,3.97,27.77,6,41.66.97,6.95,1.64,13.93,2.32,20.91,1.16,6.81.52,20.68,7.67,23.87,1.67.39,3.37.65,5.08.83,5.58.58,11.34.29,16.91.77,17.44.71,34.95.63,52.29-1.43,5.11-.93,11.39-.75,16.24-3.03,45.51,4.53,91.39,2.72,137.05,4.64,16.16.08,32.22,1.8,48.28,3.5,14.64,1.56,29.28,3.12,44,3.45,2.29.13,4.88-.89,6.12-2.65.25.03.5.06.76.08,42.54,4.43,85.24,6.23,128.01,6.23,9.81-.49,14.57-11.46,19.6-18.52,6.09-9.23,11.25-18.98,16.32-28.78,3.03.22,6.06.39,9.09.43,3.3-.59,5.68-3.15,7.7-5.64,2.84-3.34,5.68-7.68,3.4-12.09ZM361.5,123.98c-.02-4.49-.01-8.97-.05-13.46.04-1.06.02-2.16-.2-3.2,4.73-1.13,9.39-2.81,14.05-4.1,1.42,4.8.98,10.21,1.53,15.14.69,13.81.74,27.63.91,41.44.92,29.24.17,57.94-.13,87.27,0-.02,0-.04,0-.06.08,10.04-.9,20.75-.67,31.07-.53-.05-1.06-.08-1.6-.13-1.55-.09-2.92.64-4.04,1.62-3.19,2.72-6.28,5.57-9.45,8.33-2.86,2.33-5.61,4.77-8.27,7.29.28-1.55.55-3.11.78-4.67,5.41-34.29,8.32-69.12,8.84-103.84.35-20.76-1.73-41.86-1.7-62.68ZM336.95,96.02c8.1,1.16,16.22,2.2,24.32,3.36-2.38.93-4.77,1.86-7.17,2.75-1.1-.14-2.23-.2-3.34-.26-.98-.05-1.94-.1-2.85-.19-5.57-.39-11.12-.89-16.65-1.69-3.86-.56-7.72-1.21-11.57-1.85.37-1.78.74-3.56,1.09-5.34,5.33,1.35,10.75,2.33,16.17,3.22ZM320.43,22.33c3.51,8.52.32,19.33-.6,28.26-1.98,11.26-4.19,22.5-6.23,33.74-.77,4.15-1.51,8.32-2.37,12.45-2.71-.41-5.42-.79-8.14-1.09.1-1.15.18-2.26.34-3.19.95-8.03,1.71-16.08,2.6-24.11,1.24-11.44,3.09-22.81,3.62-34.31.19-4.62.33-9.42-.5-14.01,4.02.44,8.22.73,11.27,2.25ZM213.89,84.95c1.51-12.92,4.19-25.74,6.36-38.6,1.91-9.63,2.2-19.67,5.52-28.95,3.36-4.79,9.67-5.9,14.95-7.46,10.2-2.4,20.76-1.14,31.04.57,4.38.81,8.7,1.79,13.06,2.7,4.26.87,8.58,1.64,12.75,2.88.88.23,1.61.75,2,1.59,3.28,9.61.96,20.16.29,30.06-1.56,13.16-3.17,26.32-4.5,39.52-.29,2.58-.55,5.16-.88,7.75-.37-.02-.73-.05-1.1-.07-2.86.01-5.72.08-8.58.17,1.26-15.27,2.89-30.5,5.08-45.67,2.87-16.07,2.54-19.6-14.95-20.8-8.29-.33-16.58-.88-24.85-1.6-4.49-.15-9.81-1.59-13.2,2.24-4.16,4.8-4.31,11.68-5.58,17.64-2.53,15.66-3.76,31.52-4.68,47.36-.07.94.12,1.73.46,2.4-4.81-.16-9.62-.34-14.43-.49.38-3.74.66-7.51,1.24-11.22ZM277.81,83.88c-8.14-.15-16.54-.14-24.53,1.48,2.21-16.32,4.53-32.62,7.27-48.87.32.02.63.05.95.07,7.07.56,14.35.06,21.26,1.89-2.11,15.09-3.94,30.22-4.94,45.42ZM250.62,43.84c-2.59,17.5-5.6,35.24-4.99,52.97-3.33.08-6.66.12-9.99.08-.33,0-.66-.02-.99-.02.27-.49.46-1.05.54-1.71.68-12.41,1.7-24.8,3.19-37.13,1.35-7.57,1.47-15.7,4.69-22.76,2.84.06,5.74.28,8.69.53-.47,2.82-.48,6.01-1.14,8.05ZM252.54,90.44c.53.14,1.08.23,1.63.31.3.04.6.07.9.1,7.41.77,14.87.42,22.32.57-.06,1.33-.13,2.65-.17,3.98-8.55.39-17.09.93-25.64,1.25.33-2.06.66-4.13.96-6.2ZM202.54,93.57c.48-.13,1.15-.24,1.87-.37-.07.92-.14,1.84-.2,2.76-4.06-.07-8.12-.08-12.18,0,.49-.11.98-.2,1.47-.31,2.95-.67,6.03-1.38,9.05-2.06ZM122.63,274.11c5.35-17.62,8.12-36.77,20.58-50.87,1.19,1.5,2.79,2.91,3.38,4.8-.67,4.37-2.91,8.41-4.27,12.61-3.87,10.68-7.78,21.67-10.29,32.71-3.15-.1-6.31.15-9.4.75ZM32.21,262.64c1.2-6.81,2.33-19.63,9.31-22.79,6.51,1.21,8.36,6.43,8.68,12.08-2.66,8.13-3.44,17.84-4.52,24.12-.52,3.87-.98,7.73-1.52,11.59-1.32-1.38-2.55-2.86-3.66-4.42-3.25-3.86-5.88-8.73-9.36-12.55.35-2.68.65-5.36,1.08-8.04ZM53.24,284.75c1.5-10.38,2.17-21.04,5.49-31.04,1.52-2.81,2.64-7.15,6.12-7.96,2.96.36,6.03,1.63,8.12,3.78.72.77.55,1.83.47,2.8-.23,1.94-.45,3.89-.67,5.83-1.79,6.63-2.8,13.65-3.47,18.65-1.1,7.64-1.9,15.33-3.17,22.95-5.15-1.03-10.11-3.07-14.55-5.95,1.28-2.55,1.15-6.54,1.66-9.06ZM77.32,281.61c2.3-11.15,1.92-24.1,9.3-33.35,1.66-1.9,6.58,2.13,8.03,3.47-1.54,10.98-3.49,21.9-5.02,32.89-.02,3.44-2.62,9.45-1.57,13.21-.5.18-1.01.36-1.52.52-3.85,1.39-7.83,2.09-11.8,2.18,1.02-6.29,1.72-12.62,2.59-18.92ZM98.37,289.29c3.2-14.55,4.05-29.72,9.48-43.72.7-1.38,1.2-3.19,2.66-3.95,2.72-.24,5.6.95,8.03,2.15-1.64,11.76-4.88,23.31-6.5,35.04-.43.46-.83.95-1.17,1.51-4.02,4.37-8.36,8.82-13.3,12.36.24-1.25.48-2.44.8-3.39ZM108.65,221.52c10.34-18.69,11.53,2.37,11.61,11.83v-.25c.01.65,0,1.31.01,1.96-5.47-2.6-10.78-3.02-14.91-.29.9-4.47,1.88-8.93,3.29-13.26ZM83.97,229.78c1.46-5.55,1.94-13.64,9.01-14.81,4.88,7.13,2.16,16.38,2.49,24.73.03.59,0,1.2-.03,1.81-6.49-3.9-11.34-2.86-15.01.8,1.93-3.74,2.56-9.93,3.55-12.54ZM63.26,224.12c9.04-12.19,9.75,2.17,9.99,9.8,0,1.42-.05,3.68-.17,5.54-2.17-1.05-4.51-1.77-6.83-2.16-3.4-.06-6.17.9-8.45,2.57-.01-.24-.06-.49-.16-.74,1.77-5.04,3.24-10.22,5.62-15ZM38.53,220.61c.82-3.22,7.29-12.36,9.3-5.7,1.37,5.92.84,12.24.53,18.44-.01.06-.02.12-.04.18-3.6-2.1-7.78-2.96-11.6-.98-.88.55-1.68,1.16-2.43,1.81-.06-.68-.14-1.35-.23-2.02,2.16-3.5,2.77-8,4.46-11.73ZM25.37,231.54c1.33,5.49,1.24,11.13.87,16.78-1.3,4.59-1.99,9.45-2.66,13.87-.02,1.01-.2,2.09-.41,3.2-3.42-.4-6.94.81-10.17,1.85-.42.17-.83.34-1.25.52,1.38-12.04-4.28-49.42,13.63-36.24ZM32.37,407.98c-1.82-.09-3.66-.14-5.47-.36-2.96-10.08-2.76-20.77-4.2-31.11-.88-7.08-1.95-14.12-3.07-21.18-4.52-25.1-4.8-50.84-10.99-75.63,3.41-3.63,8.63-4.34,13.09-6.05,7.72,6.58,11.62,16.77,19.68,23.14,14.25,13.41,36.55,15.89,53.92,7.33,9.23-4.6,16.83-12.07,23.43-19.87,6.7-2.82,14.3-2.91,21.3-1.05-2.02,14.41-7.46,28.19-10.42,42.44-5.21,26.52-13.82,52.25-18.57,78.86-25.53,6.28-52.58,4.43-78.69,3.49ZM249.23,339.18c-7.58-1.14-15.19-2.25-22.81-3.2,4.83-17.43,13.75-43.45,32.41-38.36,14.24,6.54,19.12,26.68,20.58,46.67-9.62-2.31-20.36-3.54-30.18-5.11ZM166.72,334.19c.12-.54.22-1.08.34-1.62,3.21-12.95,8.19-26.38,18.13-35.68,11.49-11.53,20.99,2.05,22.67,13.67,1.56,7.87,2.19,15.77,2.32,23.69-14.45-1.24-28.94-1.55-43.46-.06ZM165.25,341.4s.05,0,.07,0c3.89.05,7.82.05,11.78.05-1.3,9.87-2.4,20.94,1.32,30.24,1.02,1.59,2.55,2.39,4.18,2.56,2.35.24,4.91-.84,6.46-2.79,6.84-8.12,6.14-19.54,6.58-29.79,4.87.17,9.71.49,14.5,1.01-.43,16.75-2.58,33.56-2.88,50.36-.17,4.26-.59,9.16-.86,13.61-.01.32-.03.71-.04,1.14-16.04-.24-32.08-.43-48.12-.7.42-5.9.47-11.84.73-17.74,1.19-16.08,3.24-32.11,6.29-47.95ZM215.62,407.94c.03-.25.06-.49.09-.74,2.13-20.98,3.23-42.13,8.41-62.65,5.43.72,10.87,1.4,16.31,2.1-1.22,8.68-1.19,25.44,3.47,29.03,1.19.64,2.28,1,3.29,1.1,9.16.95,10.97-18.7,11.63-27.55,7.06,1.12,14.08,2.43,21.04,4.1.29,10.35-.11,20.08-.34,27.16-.49,9.84-1.53,19.63-2.74,29.41-5.56-.45-11.13-.77-16.71-.87-14.82-.52-29.64-.84-44.46-1.09ZM285.34,410.67c3.6-32.95,7.46-71.56-5.42-102.52-8.07-18.52-27.66-27.48-43.59-11.98-9.65,8.94-13.27,22.48-17.44,34.56-.84-12.17-1.65-25.09-7.66-35.97-14.87-22.92-36.08-5.41-44.35,13.12-9.83,19.47-11.48,41.58-14.12,63.07-.97,9.88-1.38,19.83-.42,29.73.26,2,.2,4.26.61,6.33-5.84-.1-11.67-.22-17.51-.36-5.29.09-10.68-.17-16.05-.22.96-3.25,1.16-6.76,2-10.04,4.19-20.05,10.49-39.6,14.62-59.68,3.24-17.1,9.16-33.58,12.44-50.66,1.01-5.63-1.08-10.72-7.23-11.46-.32-.08-.64-.13-.96-.2.47-1.83.84-3.71,1.48-5.43,2.62-9.22,5.79-18.27,9.24-27.21,1.9-5.84,6.2-12.25,3.02-18.37-2.22-3.51-4.83-7.14-8.45-9.27-2.58-1.28-5.42.04-8.17,2.62,2.34-19.93,3.29-40.05,6.08-59.95.85-7.57,1.59-15.15,2.45-22.72,1.42-9.38,1.16-19.4,4.06-28.41,17.16.06,34.29-1.18,51.45-1.15,23.29.86,46.87,1.62,70.18-.24,7.38-.2,14.76-.78,22.15-.71,9.13.61,18.17,2.03,27.2,3.46,10.57,1.66,21.14,3.32,31.87,3.7-.52,26.85,2.23,53.61,1.79,80.44-.56,37.2-4.45,74.81-8.78,111.81-9.42,10.01-17.96,20.86-26.99,31.23-2.82,2.9-5.47,5.96-8.41,8.72-2.58,2.27-5.59,4.55-6.42,8.06-.41,8.98-2.24,15.82,8.89,17.55,0,.01.02.03.02.04,5.43,10.27,9.69,21.08,12.94,32.24,1.41,4.68,2.77,9.41,4.4,14.03.03.11.08.21.11.31-10.05-.59-20.08-1.71-30.11-2.84-4.99-.56-9.97-1.13-14.97-1.62ZM490.6,404.42c-3.42,5.17-6.52,10.91-11.5,14.76-4.03.53-8.16.06-12.24.13-22.81-.65-45.81-.44-68.64-2.13-19.97-1.84-40.1-2.74-59.95-5.63-4.7-14.25-8.47-29.16-16.66-41.9.8.09,1.59.19,2.39.27,18.62,1.94,37.43,1.94,56.11,3.18,36.19,2.96,72.47,4.39,108.76,5.67,5.25.13,10.5.61,15.74,1.1-4.36,8.36-8.79,16.63-14.02,24.55ZM521.51,372.59c-2.74-.27-5.48-.5-8.22-.73-.91-.39-1.93-.51-2.89-.26-26.61-2.1-53.32-2.48-79.99-3.79-18.37-.85-36.68-2.58-55.03-3.63-17.68-.88-35.4-1.34-53.02-3.06-3.34-.42-6.71-.72-9.96-1.64-.03-2.24-.02-4.48.11-6.71,14.07-12.64,25.03-28.16,37.73-42.1,8.07-8.63,17.2-16.18,26.01-24.04,22.18,2.05,44.48,1.92,66.7,3.32,17.79,1.24,35.59,1.46,53.41,1.82,7.19,25.93,19.12,50.53,29.84,75.15-1.3,2.07-2.78,4.15-4.7,5.65Z"/>
  <path class="cls-1" d="M207.13,239.88c-6.15-1.61-12.39,1.42-18.01,3.63-9.52,3.66-17.62,9.9-23.74,18.04-2.89,3.15-4.97,6.86-6.94,10.61-.56,1.08-.95,2.2-1.09,3.42-.32.79-.36,1.6,0,2.4.37.83,1.22,1.3,2.1,1.39,1.25.13,2.58-.47,2.78-1.81,10.15-12.66,25.25-20.64,41.07-24.04,2.61-1.01,7.2-.73,8.67-3.84,1.33-3.72-.72-8.96-4.84-9.8Z"/>
  <path class="cls-1" d="M288.94,266.39c-12.81-11.93-28.33-23.21-45.83-26.4-5.07-2.9-6.54,4.92-7.85,8.27-.88,2.11-.46,4.7,1.46,6.09,6.37,3.28,14,3.45,20.7,6.06,10.45,3.44,19.79,9.48,28.68,16.12.64.46,1.34.71,2.04.78,2.64.28,5.32-1.95,4.86-4.89-.44-2.49-2.42-4.24-4.05-6.03Z"/>
  <path class="cls-1" d="M165.76,185.46c1.76.18,3.66-.88,3.83-3.09-.17-6.29-.3-12.58-.39-18.87,11.3-.86,21.49-15.51,15.66-26.1-4.23-7.9-17.87-9.92-23.01-2.05-.68,1.37-.67,2.88-.69,4.38-.29,13.85.61,28.95,1.64,43.02.33,1.68,1.6,2.56,2.96,2.7ZM169.37,146.94c.04-1.38.08-2.76.13-4.14.03-1.1.03-2.22.09-3.32,1.1-.4,2.29-.56,3.45-.44,1.1.12,2.16.51,3.07,1.19,5.4,4.75-1.75,13.11-6.92,14.77.04-2.68.09-5.37.18-8.05Z"/>
  <path class="cls-1" d="M213.13,142.95c-2.48-15.27-14.38-15.76-16.5.02-2.7,12.51-4.55,25.24-5.37,38.01-.52,2.81,1.38,4.49,3.42,4.71,1.94.2,3.99-.92,4.21-3.66.4-5.46,1.05-10.96,1.89-16.46,1.15.05,2.32.11,3.72.22,1.4.14,2.53-.49,3.26-1.43.5,4.01.97,8.05,1.51,12.11.19,1.57.41,3.34.61,4.99.17,1.35.27,4.09,1.72,5.13,2.63,2.53,7.56.21,7.14-3.46-1.74-13.04-3.03-26.9-5.61-40.18ZM206.98,158.69c-1.54-.98-3.31-.66-5.04-.23.84-4.66,1.79-9.3,2.82-13.87.93,4.72,1.64,9.42,2.27,14.13-.02-.01-.03-.03-.05-.04Z"/>
  <path class="cls-1" d="M237.29,185.25c2.2-.42,3.69-2.7,3.27-4.82-.25-5.88-.2-11.78-.34-17.68,8.22-4.09,20.38-9.01,19-20.16-1.34-12.11-22.64-19.81-27.97-6.91-.2,15.14.89,30.41,1.13,45.58-.03,2.12,1.76,3.84,3.76,4.05.38.04.76.02,1.15-.05ZM243.08,137.74c3.62.38,7.28,3.06,7.67,6.61-1.01,5.08-6.62,6.27-10.71,8.94-.04-1.7-.1-3.39-.15-5.09-.1-3.32-.31-6.67-.33-9.99,1.08-.46,2.3-.59,3.53-.47Z"/>
  <path class="cls-1" d="M265.25,152.56c1.43,9.6.98,20.65,6.92,28.76,1.82,1.4,3.47,2.12,4.97,2.28,13.12,1.36,14.34-40.75,15.56-49.24.3-5.66-8.01-6.28-8.59-.67-1.39,13.44-1.79,27.41-6.77,40.11-2.11-6.17-2.79-12.21-3.64-18.73-.6-6.88-1.85-13.98-.53-20.73-.1-3.69-5.07-5.4-7.42-2.58-.87.99-1.27,2.42-.97,3.72-.42,5.69.04,11.4.47,17.08Z"/>
  <path class="cls-1" d="M309.98,192.85c0,2.23,1.9,3.74,3.9,3.95,1.29.13,2.62-.27,3.51-1.38,1.4-1.53,1-3.66,1.07-5.56.03-12.53-.07-25.06-.06-37.58.03-3.93-.12-7.85-.1-11.78,4.15.05,8.3.08,12.42.34,2.29.06,4.34-1.5,4.52-3.87.17-2.17-1.57-4.48-3.87-4.52-9.86-.37-19.74.54-29.57-.31-3.23-1.7-5.54.51-5.88,2.92-.28,2,.82,4.15,3.92,4.32,1.27.2,2.55.36,3.82.5,2.46.26,4.93.4,7.4.49-.92,17.47-.69,34.92-1.09,52.49Z"/>
</svg>