<?xml version="1.0" encoding="UTF-8"?>
<svg id="CRUCES" xmlns="http://www.w3.org/2000/svg" viewBox="0 0 352.4 484.4">
  <defs>
    <style>
      .cls-1 {
        fill: #fae922;
      }

      .cls-2 {
        fill: #030304;
      }

      .cls-3 {
        fill: #ffc62d;
        stroke: #030304;
        stroke-miterlimit: 10;
        stroke-width: 2.28px;
      }

      .cls-4 {
        fill: #f7d47e;
      }

      .cls-5 {
        fill: #ffe6c1;
      }

      .cls-6 {
        fill: #e5383d;
      }

      .cls-7 {
        fill: #0a4635;
      }

      .cls-8 {
        fill: #a5634d;
      }

      .cls-9 {
        fill: #787266;
      }

      .cls-10 {
        fill: #f0a448;
      }

      .cls-11 {
        fill: #80aa42;
      }
    </style>
  </defs>
  <path class="cls-2" d="M56.45,227.73c-9.5-2.79-15.54-11.98-19-20.75-.68-1.4,1.53-2.44,2.17-1.02.45,1.09.94,2.17,1.43,3.25,2.19,5.15,5.65,9.75,10.07,13.19,3.33,2.69,10.19,5.66,11.32-.63,1.67-8.23-3.12-16.15-7.78-22.56-3.33-4.56-8.84-8.72-14.78-7.57-5.34,1.81-7.68,8.03-8.52,13.16-.23,1.95-.23,3.93-.04,5.88.14,1.88.99,3.68,1.06,5.54-.07.59-.73.98-1.29.78-.63-.21-.78-.94-1-1.5-1.02-2.71-1.38-5.61-1.28-8.49.07-3.49.92-6.98,2.51-10.09,4.53-9.82,13.61-9.87,21.3-3.49,2.68,2.23,4.63,5.19,6.57,8.06,2.46,3.92,4.72,8.13,5.55,12.72,1.34,6.21.13,15.25-8.29,13.52Z"/>
  <path class="cls-2" d="M77.82,193.13c4.32,8.04,4.92,19.24.95,26.27-.18.32-.37.63-.57.94-.22.31-.44.61-.68.92-2.16,2.77-5.19,5.29-8.82,5.28-2.49-.07-4.56-1.76-6.01-3.64-.4-.79.28-1.77,1.16-1.69.76.06,1.14.84,1.65,1.31,3.37,3.69,7.93.19,10.26-2.88,3.98-5.6,3.84-13.05,2.18-19.46-1.26-4.99-3.95-10.02-8.41-12.8-4.39-2.53-10.33-2.06-13.87,1.71-.87.85-1.65,1.8-2.26,2.85-.54.9-.92,2.66-2.34,2.01-2.08-1.12,1.71-5.29,2.7-6.35,3.5-3.81,9.18-5.19,14.07-3.54,3.6,1.15,6.54,3.7,8.76,7.02.44.66.85,1.34,1.23,2.06Z"/>
  <path class="cls-2" d="M96.95,207.39c.09,4.73-.62,9.53-2.37,13.86-1.86,3.2-4.87,6.85-8.95,6.54-3.33.02-5.76-2.6-7.36-5.26-.16-.35-.47-.8-.76-1.28-.51-.84-.95-1.75-.35-2.38.52-.47,1.03-.16,1.6.53,1.38,1.68,3.11,5.61,6.15,5.96,2.64.59,4.78-1.35,6.27-3.3,2.94-3.79,3-8.97,3.38-13.56.09-4.17-.49-8.56-2.99-12.02-3.26-4.34-8.99-6.06-13.77-3.35-.19.1-.37.22-.56.34-1.29.86-2.62-1.19-1.3-2.02.2-.13.41-.26.62-.37,1.95-1.08,4.21-1.59,6.42-1.72,7.14.26,12.38,6.22,13.56,12.98.11.79.19,1.59.26,2.4.07.88.12,1.77.13,2.65Z"/>
  <path class="cls-2" d="M124.19,235.23c.53,6.11-3.5,10.55-8.48,13.28-.69.38-1.39.72-2.1,1.03-.1.05-.21.09-.31.13-1.36.58-2.75,1.03-4.17,1.39-.76.19-1.52.36-2.29.51-2.25.43-4.55.7-6.82.98-4.55.43-9.12.75-13.69.73-10.17-.03-20.34-.13-30.5-.84-6.85-.37-13.76-.26-20.58-1.02-.77-.08-1.53-.18-2.29-.29-1.55-.22-3.09-.49-4.62-.83-.94-.24-1.93-.52-2.92-.87-1.14-.4-2.27-.88-3.32-1.47-2.05-1.16-3.78-2.73-4.57-4.92-.14-.37-.24-.76-.32-1.17-.06-.26-.11-.53-.15-.79-.63-3.64-.18-7.43,1.31-10.81,2.33-5.78,7.15-10.03,11.53-14.27,2.86-2.59,5.84-5.05,9.03-7.22,1.02-.81,2.56.16,1.73,1.35-1.61,1.42-3.37,2.69-5.02,4.07-3.22,2.62-6.21,5.5-9.11,8.46-3.18,3.31-5.9,7.12-6.99,11.65-.47,3.03-.73,6.64.99,9.32,5.94,6.41,20.74,5.72,29.07,6.17,6.8.17,13.58.74,20.38.97,12.84-.19,35.09,1.72,45.85-5.11,8.56-5.09,6.64-13.32,2.03-20.54-3.46-5.6-8.74-9.77-13.97-13.64-2.15-1.58-4.48-2.98-6.92-4.07-.56-.25-1.14-.48-1.71-.7-.96-.38-.88-1.9.09-2.21.58-.18,1.03.04,1.49.26.2.09.4.18.62.25,6.93,3.12,12.92,8.04,18.21,13.4,4.31,4.63,7.83,10.47,8.54,16.85Z"/>
  <path class="cls-2" d="M109.77,254.41c.11,1.32.15,3.16-1.31,3.75-4.36.61-8.88.2-13.29.25-6.71-.1-13.42-.36-20.12-.64-1.43-.06-2.86-.12-4.29-.19-9.37-.41-18.74-.81-28.11-.83-3-.12-6.17.71-9.08-.17-1.75-.86-.69-3.39-.68-4.92.01-.16.03-.35.06-.55.16-1.04.59-2.35,1.81-1.56.39.54.49,1.18.48,1.85-.02,1.03-.31,2.14-.25,3.1,8.49-.13,17.01-.35,25.49.3,15.62.55,31.26,1.49,46.89,1.14.08-1.27-.09-2.57-.41-3.8-.09-.19-.13-.39-.14-.59,0-.5.26-.99.77-1.16.77-.18,1.23.13,1.52.66.5.91.48,2.49.64,3.35Z"/>
  <path class="cls-2" d="M115.72,248.51c.37,1.35.27,3.19.19,4.08-.3,2.19-1.16,4.03-2.41,5.57-.51.63-1.08,1.2-1.71,1.73-3.89,3.3-9.78,4.77-14.64,5.2-8.48.78-17.28-1.29-24.42-5.97-6.39,5.8-15.55,7.85-24,7.34-7.68-.75-15.89-3.07-20.88-9.33-1.58-1.89-2.98-3.91-4.22-6.03-.46-1.04-1.46-1.99-1.52-3.14,0-.03,0-.06,0-.08.15-1,1.59-1.36,2.16-.49.28.43.52.88.78,1.33.13.24.26.47.39.71,3.06,5.42,7.2,10.35,13.24,12.43,10.29,3.68,22.63,3.13,31.52-3.67.21-.23.4-.43.58-.6,1.95-1.9,2.46-1,4.29.19.3.2.64.4,1.03.6,7.02,3.77,15.23,5.32,23.11,4.04,5.83-.88,13.45-3.56,14.38-10.23.12-.89.11-1.77.03-2.65-.04-.57-.11-1.13-.18-1.7,0-.53.41-.99.95-.97.7.15,1.1.8,1.33,1.63Z"/>
  <path class="cls-2" d="M113.72,267.94c3.75-.47,1.2-4.7-.26-6.38-.46-.7-1.13-1.14-1.67-1.67-.35-.34-.64-.71-.78-1.2-.14-1.01,1.21-1.72,1.96-1.03.17.16.35.33.52.49,2.21,2.11,4.44,4.74,4.61,7.87-.36,3.32-2.36,4.3-4.75,4.28-.78,0-1.6-.12-2.42-.3-1.28-.28-2.56-.71-3.68-1.11-2.95-1.07-4.28-.95-5.2,2.24-.79,2-2.67,3.66-4.94,3.34-2.86-.03-5.3-3.64-8.1-2.68-1.79,1.21-3.31,3.46-5.72,3.24-1.68-.22-2.89-1.44-4.1-2.5-1.75-.73-2.95,4.9-6.92,4.38-4.67-.34-4.97-5.42-8.4-5.58-2.76,1.05-4.86,4.31-8.1,3.81-2.18-.19-3.77-2.08-5.94-2.25-2.34.25-4.45,1.38-6.78,1.69-3.98.65-7.08-2.21-8.91-5.44-.98-1.32-2-.96-3.25-.27-1.5.78-3.51,1.24-5.02.27-2.68-1.59-2.74-4-3.15-6.76-.4.17-.79.35-1.19.52-.9.39-1.81.77-2.77,1-.02,0-.04.01-.06.02-2.85.62-6.48-.59-6.39-4-.3-3.02,1.55-5.61,2.7-8.25-11.71-1.27-5.58-9.06,2.01-10.6.12-.02.23-.05.35-.07,1.6-.48,2.39,1.28.74,1.82-.2.07-.41.14-.61.21-2.44.87-4.82,2.06-6.47,4.11-.9,1.67,2.87,1.72,3.84,2.06,1.45.13,2.99.66,2.63,2.42-.63,2.67-2.83,4.88-2.82,7.73-.03,1.79.61,2.13,2.28,2.29,2.25.24,4.05-1.69,6.22-1.76,2.88.55,1.55,4.33,2.79,6.16,2.66,3.59,5.64-2.38,8.99.59,1.54,1.12,2.16,3.06,3.57,4.32,3.33,2.9,7.37-.13,11.02-.47,2.03-.13,3.71,1.14,5.46,1.96,3.31,1.47,5.58-3.34,8.8-3.54,3.05-.14,4.57,2.48,6.35,4.46,4.94,4.48,5.21-6,10.45-2.77.99.73,1.81,1.94,3.12,2.03,2.12-.7,3.26-3.26,5.62-3.46,3.29-.8,7.61,5.11,9.93,1.95,1.29-2.22,1.48-4.7,4.55-5.23,3.41-.28,6.44,2.11,9.85,2.03Z"/>
  <path class="cls-2" d="M112.07,268.1c1.27.08,1.46,1.1,1.29,2.21-.14.86-.5,1.76-.76,2.32-.41.78-.91,1.52-1.48,2.2-.56.65-1.18,1.24-1.88,1.74-.22.16-.45.31-.69.45-9.44,5.12-25.25,5.46-35.98,5.55-7.92.12-15.88-.25-23.68-1.43-8.39-1.16-23.74-2.57-28.77-10.75-.4-.64-.73-1.32-.99-2.05-.13-.35-.24-.72-.33-1.09-.29-1.35-.24-2.46-.01-3.33.77-2.93,3.64-3.17,2.84-1.16-.02.06-.05.11-.07.17-2.79,7.01,5.78,11.28,11.35,12.84,4.94,1.53,10.08,2.25,15.2,2.87,9.92,1.56,19.95,1.7,29.96,1.5,5.07-.13,10.11-.49,15.13-1.19,4.26-.68,8.72-1.32,12.62-3.22,2.32-.94,4.34-2.84,5.06-5.28.03-.13.04-.28.06-.42.08-.84.05-1.82,1.13-1.91Z"/>
  <path class="cls-2" d="M111.11,274.82c1.03,1.67.8,3.97.34,5.81-.99,2.88-3.84,4.56-6.33,6.04-7.54,3.91-16.09,4.76-24.53,4.95-.75.02-1.5.03-2.25.03-1.95.02-3.9.01-5.82.02-10.55-.41-21.1-1.41-31.48-3.32-5.33-.84-10.55-2.29-15.48-4.51-4.54-1.92-9.34-5.69-8.76-11.15.2-1.26.59-2.55,1.45-3.52.18-.27.5-.59.87-.84.81-.56,1.84-.8,2.01.41-.19.61-.63,1.11-1.03,1.64-.35.46-.67.94-.77,1.54-1.75,7.89,9.8,10.88,15.49,12.69,17.16,3.9,55.23,8.63,70.2-.67,2.82-1.65,5.25-4.01,4.2-7.38-.06-.2-.14-.4-.22-.61-1.19-.99.44-2.82,1.57-1.81.21.21.38.44.53.68Z"/>
  <path class="cls-2" d="M87.82,340.34c.26.8-.28,1.4-.91,1.54.17-.39.11-.84-.35-1.16-.39-.24-.75-.05-1.14-.02-1.87-6.13-3.76-12.28-4.8-18.62-1.24-6.97-1.8-14.01-2.14-21.07-.13-2.84-.11-5.68-.13-8.51,0-.24,0-.54-.01-.86-.02-1.1.08-2.39,1.42-2.07,0,0,0,0,0,0,.74.34.82,1.19.82,2.04,0,.53-.04,1.07.04,1.49.07,2.36.08,4.73.18,7.09.4,7.61.98,15.25,2.4,22.73,1.05,5.93,2.87,11.67,4.61,17.42Z"/>
  <path class="cls-2" d="M54.79,340.81s-.08,0-.12,0c-1.17.09-1.41,1.55-.64,2.14-.47.08-.97-.1-1.23-.63-4.4-12.19-6.14-25.17-6.77-38.05-.3-4.71-.26-9.43-.27-14.14.03-.32-.01-.65-.04-.99-.06-.6-.1-1.2.27-1.7.34-.41.95-.49,1.4-.25.66.37.74,1.36.74,2.31,0,.59-.03,1.17.02,1.58-.04,11.63.57,23.34,2.7,34.78.85,4.33,1.9,8.62,3.23,12.83.21.72.48,1.41.72,2.12Z"/>
  <path class="cls-2" d="M154.89,226.5c.17.8-.6,1.56-1.4,1.39-.65-.21-1.1-.78-1.78-.97-3.02-1.04-6.69.16-8.55,2.74-.92,1.2-1.54,2.59-2.15,3.96-.26.6-1.04.83-1.61.55-1.68-.83.47-3.49.96-4.64,1.81-3.31,5.4-5.45,9.19-5.37,1.54-.04,4.88.67,5.34,2.34Z"/>
  <path class="cls-2" d="M270.26,222.11c.84,1.31-1.12,2.63-2,1.32-2.31-4.11-5.62-7.46-10.5-8.05-.89-.1-1.78-.14-2.67-.05-.44.11-.93-.09-1.17-.47-.39-.55-.13-1.4.5-1.63,4.67-1.1,9.8,1.23,12.93,4.7,1.1,1.3,1.99,2.76,2.92,4.18Z"/>
  <path class="cls-2" d="M195.73,168.98c.71,1.64.43,5.53-.33,7.15-.2.36-.57.5-.95.59-.54.14-1.1.19-1.64.3-1.25.24-2.49.48-3.73.74-3.6.81-7.13,1.94-10.46,3.51-5.31,2.52-9.36,6.9-13.23,11.19-.24.54-.7,1.01-1.06,1.49-.48.59-.9,1.22-1.38,1.81-.37.39-1.02,1.5-1.64,1.15-.99-.69.87-4.04,1.29-4.93,2.24-4.58,5.29-8.64,9.16-11.94,2.06-1.74,4.16-3.39,6.46-4.77,2.92-1.73,6.02-3.18,9.18-4.43,1.71-.68,3.48-1.2,5.26-1.69.66-.18,1.31-.35,1.98-.48.4-.11.88-.07,1.11.32Z"/>
  <path class="cls-2" d="M242.57,194.95c.39.77,2.1,3.1.53,3.31-1.01-.16-1.46-1.28-1.99-2.03-.72-1.18-1.57-2.35-2.57-3.29-3.68-3.76-8.11-6.65-12.63-9.29-4.3-2.52-9.15-4.1-14.04-4.92-1.12-.13-2.24-.24-3.37-.26-.52.08-1.12-.08-1.23-.67-.25-1.24-.29-2.52-.49-3.78-.13-.82-.25-1.65-.3-2.48-.1-1.05.14-1.66,1.32-1.64,2.53.01,4.99.6,7.41,1.25,2.57.7,5.08,1.62,7.34,2.99,2.91,1.68,5.67,3.67,8.19,5.9,2.14,1.81,4,3.94,5.73,6.14,1.53,1.99,3.1,3.96,4.46,6.07.56.9,1.08,1.85,1.62,2.73Z"/>
  <path class="cls-2" d="M200.6,220.25c0-.56-.01-1.13,0-1.69-.04-1.16-.08-2.32-.13-3.48-.15-2.17-.23-4.35-.59-6.51-.23-1.11-.52-2.2-.85-3.28-.49-1.28-1.08-2.52-1.81-3.73-1.89-3.38-4.15-5.57-7.74-7.1-1.91-.83-4.04-.82-6.07-.57-2.42.33-4.72,1.01-6.85,2.19-3.72,2.18-5.73,6.22-7.37,10.04-1.4,3.28-2.36,6.83-3,10.37,5.07,1.59,10.29,2.61,15.54,3.37,3.62.43,7.27.79,10.92.78,2.66.02,5.32-.13,7.97-.38ZM200.91,226.96c0-.12,0-.23-.02-.32-.02-.5-.04-.99-.06-1.49-.07-.83-.13-1.67-.16-2.5-4.29.39-8.59.52-12.9.21-.07.6-.16,1.19-.29,1.78-.66,3.24-2.97,10.46-7.37,7.26-1.71-1.43-2.05-3.7-2.04-5.81-.06-1.45.22-2.87.37-4.3-4.28-.68-8.51-1.64-12.65-2.91-.08.59-.16,1.19-.22,1.78-.65,5.72-.77,11.5-.59,17.25.03.63.06,1.25.07,1.88.02.22.02.46-.03.67,4.39,2.44,9,4.99,14.07,5.28,8.12.1,10.74-8.6,15.01-13.92,1.88-2.61,4.27-4.29,6.81-4.86ZM229.62,214.95c2.33-.76,4.63-1.62,6.8-2.74-1.77-4.72-4.18-9.2-7.2-13.22-2.93-3.72-7.29-6.31-11.93-7.21-5.7-.7-10.73,3.67-12.11,9.02-2.15,6.08-2.14,12.64-2.22,19.01,0,.06,0,.12,0,.18,2.73-.32,5.45-.74,8.16-1.19,2.72-.4,5.45-.71,8.15-1.2,3.5-.69,6.96-1.56,10.35-2.66ZM240.91,233.87c-.02-.1-.03-.19-.03-.29-.67-4.66-1.28-9.35-2.26-13.96-.39-1.77-.87-3.52-1.43-5.24-.1.06-.2.12-.3.18-1.35.78-2.82,1.35-4.29,1.87-2.05.75-4.14,1.41-6.25,1.98.03.57.03,1.14.04,1.71.09,2.51-.07,10.48-4.06,9.45-.58-.14-1.07-.51-1.51-.9-.66-.59-1.26-1.25-1.71-2.01-1.23-1.84-1.67-4.04-2.09-6.18,0-.03,0-.05,0-.08-1.97.29-3.95.54-5.92.83-2.68.46-5.38.86-8.09,1.17.04,1.2.1,2.41.13,3.62.01.21.03.47.03.73,2.31.09,4.65,1.11,6.77,3.2,3.74,3.27,5.87,7.98,9.79,11.06,4.07,3.48,10.21,2.14,14.05-1.04,2.39-1.78,4.73-3.95,7.13-6.1ZM264.25,240.1c.7-5.77-2.1-14.86-9.52-12.49-7.61,2.56-12.92,9.29-19.17,14.03-5.24,4.62-13.83,5.49-18.77-.01-5.87-5.91-11.86-19.24-20.65-8.51-3.88,4.66-5.96,11.54-11.95,13.98-5.75,2.51-11.84-.15-17.08-2.72-3.92-1.92-7.44-4.74-11.64-6.01-8.07-2.28-11.19,5.01-9.61,11.87,1.83,6.94,6.51,12.57,10.81,18.12,2.83,3.52,6.77,5.87,10.31,8.58,3.63,2.81,6.87,6.13,10.95,8.34,2.96,1.91,6.14,3.48,9.16,5.28-.35-1.89-.74-3.77-1.15-5.64-.69-3.91-1.83-7.74-3.88-11.16-3.99-6.63-9.84-11.84-15.77-16.69-3.15-2.43-6.48-4.58-9.77-6.8-1.26-.83.04-2.9,1.34-1.99,12.19,8.14,26.58,18.52,29.91,33.65.82,3.53,1.49,7.09,2.1,10.66.04.11.06.22.06.33.97,5.75,1.78,11.53,2.76,17.27,1.71,9.47,4.03,18.82,5.61,28.32,1.03,5.51,1.89,11.54,5.56,15.99,3.69,1.42,6.85-14.79,7.39-17.58,3.97-24.89,5.7-51.5,20.29-72.96,6.25-8.69,14.02-16.17,21.47-23.82,1.26-1.73,3.58-.58,2.18,1.17-5.14,5.08-10.04,10.39-14.98,15.66-8.65,9.23-14.29,20.69-17.95,32.74,9-6.18,18.11-12.39,25.15-20.87,6.26-7.26,15.28-19.32,16.85-28.73ZM256.01,224.9c8.36-.95,11.55,9.07,10.59,15.84-1.33,7.5-5.87,13.96-9.96,20.23-9.01,13.34-21.58,23.77-35.3,31.93-.9,3.3-1.67,6.64-2.31,9.97-1.18,7.1-2.59,14.17-3.47,21.33-.41,2.49-1.17,9.42-2.59,16.28-.58.22-.94.6-.88,1.28.09.35.24.58.45.74-1.88,8.3-4.78,15.81-9.24,14.32-3.53-2.03-5.44-8.07-6.75-14.41.39.01.79.07,1.18.07,1.7-.21,1.15-2.57-.45-2.22-.38,0-.76.01-1.15.01-.93-4.99-1.56-9.9-2.37-12.96-2.12-9.41-3.95-18.88-5.27-28.43-.25-1.73-.52-3.45-.81-5.17-4.1-2.63-8.49-4.74-12.58-7.4-3.32-1.97-6.03-4.75-9.05-7.12-4.99-3.62-10.15-7.14-13.56-12.4-4-5.08-7.83-10.6-9.15-17.03-1.39-8.07,2.91-15.92,12.01-13.92,2.67.51,4.98,1.92,7.3,3.27-.02-.59-.05-1.17-.07-1.76-.12-3.07-.05-6.15.07-9.22.24-7.99,1.34-16.09,4.56-23.47,1.84-4.24,4.28-8.61,8.5-10.86,3.7-1.91,8.01-2.86,12.16-2.32,1.99.34,3.84,1.26,5.54,2.34,2.81,1.69,4.78,4.42,6.3,7.27.74,1.33,1.36,2.73,1.83,4.17,1.05-6.12,3.43-11.96,8.99-14.62,3.83-1.98,8.35-1.56,12.12.35,4.83,1.99,8.47,5.86,11.07,10.3,3.89,6.16,6.44,13.08,7.76,20.24.54,3.04.98,6.1,1.43,9.16.06.44.13.87.19,1.29,3.92-3.34,8.08-6.28,12.94-7.08Z"/>
  <path class="cls-2" d="M198.75,249.11c.02,1.58-.78,3.02-1.75,4.23-.16.21-.3.39-.43.51-.06.05-.11.11-.17.17h0c-.17.2-.34.39-.52.58,0,0,0,0,0,0-.53.57-1.13,1.08-1.91.82-1.45-.61-.53-2.21-.14-3.39,0,0,0,0,0,0,.02-.07.04-.15.07-.22.02-.08.04-.16.06-.24.4-1.18.91-2.47,2.01-3.17.61-.31,1.31-.68,1.99-.43.33.13.54.36.66.65.09.15.14.31.14.49Z"/>
  <path class="cls-2" d="M212.1,247.82c1.04,1.54,1.83,4.37.72,6.02-.37.52-1.1.9-1.71.6-.62-.4-.84-1.18-1.18-1.81-.6-1.36-1.34-2.84-1.08-4.37.13-.71.79-1.32,1.53-1.23.69-.17,1.38.19,1.72.79Z"/>
  <path class="cls-2" d="M111.93,109.04c-.29-.22-.59-.43-.89-.64-2.65-1.7-5.36-3.41-8.19-4.88-1.28,1.15-2.59,2.3-3.76,3.54-1.92,2.01-3.65,4.21-5.26,6.47,0,0,0,0,0-.01-1.37,1.92-2.68,3.89-3.66,6.03-.08.17-.16.35-.25.52,2.13,2.69,4.33,5.32,6.56,7.92.12-.19.23-.38.35-.56,1.43-2.44,2.99-4.79,4.73-7.02,1.33-1.73,2.74-3.39,4.16-5.04,1.95-2.21,3.86-4.52,6.19-6.32ZM132.31,74.26c-2.06-2.01-4.25-3.87-6.59-5.52-.45.22-.9.43-1.34.67-4.42,2.29-8.26,5.57-11.63,9.21,0,0,.01-.01.02-.02-1.68,1.77-3.22,3.63-4.72,5.55-.52.65-1.01,1.33-1.5,2,1.91,2.29,3.95,4.43,5.68,6.39.1-.15.21-.3.31-.44,1.44-1.98,3.02-3.86,4.66-5.68,1.99-2.2,4.01-4.43,6.35-6.27,2.8-2.12,5.63-4.28,8.76-5.9ZM177.59,48.15c.57-.03,1.15-.09,1.73-.08-1.26-3.12-2.71-6.17-4.37-9.1-4.07-.31-8.15.13-12.13,1.01-4.01.83-8.06,1.68-11.96,2.96-2.27.72-4.48,1.65-6.62,2.7-.26.13-.52.26-.78.4.16,1.41.37,2.71.62,3.84.57,2.68,1.35,5.31,2.18,7.92.44-.34.92-.66,1.35-.93,3.24-2.06,6.83-3.49,10.46-4.69,4.57-1.46,9.2-2.87,13.97-3.52,1.84-.23,3.69-.39,5.54-.5ZM239.03,44.09c.29-4.65.63-9.3.68-13.96-2.17-.66-4.46-.88-6.69-1.28-6.12-.87-12.35-.75-18.5-.27-2.85.3-5.75.51-8.53,1.23-.95,4.81-1.66,9.66-2.22,14.52.28-.09.56-.17.83-.25,4.46-1.14,9.11-1.43,13.7-1.57,4.47-.14,8.98,0,13.38.71,2.46.39,4.88.98,7.28,1.6.02-.25.03-.49.05-.74ZM299.17,59.08c-.59-.62-1.33-1.14-1.91-1.69-1.85-1.63-3.74-3.18-5.72-4.65-3.23-2.42-6.61-4.66-10.15-6.61-2.16-1.13-4.37-2.28-6.68-3.06l-.23.27c-3.08,3.58-5.86,7.39-8.44,11.33.36.12.72.25,1.07.38,1.68.66,3.33,1.41,4.96,2.19,3.31,1.56,6.56,3.29,9.59,5.36,4.04,2.73,7.85,5.81,11.33,9.24.88-1.53,1.74-3.07,2.54-4.64,1.31-2.66,2.53-5.37,3.64-8.12ZM312.55,111.77c.16-.26.32-.52.48-.78-.02-.02-.04-.04-.05-.06-.36-.45-.71-.9-1.07-1.35-1.31-1.57-2.68-3.08-4.13-4.52-2.43-2.5-5.03-4.86-7.86-6.88-1.67-1.13-3.38-2.31-5.25-3.09-3.02,2.73-5.66,5.93-8.14,9.15.18.06.36.12.54.19,4.11,1.58,7.7,4.35,10.93,7.29,3.13,2.97,6.08,6.11,8.74,9.5,2.01-3.11,3.88-6.31,5.81-9.46ZM321.62,92.71c.6,2.04.43,4.2-.09,6.24-1.54,6.28-5.5,11.54-8.73,17.03-1.4,2.37-2.85,4.72-4.35,7.03-2.99,4.49-5.81,9.07-8.53,13.73-3.99,6.78-7.72,13.8-10.3,21.19-1.54,4.44-2.78,8.97-3.82,13.55-2.29,9.9-4.4,19.85-5.8,29.92-2.66,20.7-2.58,41.54-2.31,62.35.52,16.09.65,32.2,2.25,48.23.84,8.23,1.79,16.47,3.65,24.54.1.38.27.76.15,1.15-.14.48-.61.8-1.1.73-.22-.03-.41-.13-.57-.26.34-.13.61-.39.66-.84.07-.88-.64-1.18-1.6-1.23-.18-.67-.32-1.35-.46-2.04-.79-3.75-1.38-7.54-1.9-11.34-1.68-12.76-2.55-25.62-2.86-38.48-.64-18.48-1.11-36.97-.4-55.45.3-9.43.89-18.86,2.19-28.21,1.27-9.04,3.11-17.98,5.15-26.87,1.28-5.84,2.75-11.64,4.77-17.27,3.3-8.98,7.98-17.41,13.02-25.57-2.64-3.14-5.76-5.83-8.79-8.56-3.76-3.25-7.74-6.39-12.32-8.4-4.54,6.73-8.55,13.82-12.17,21.09-2.63,5.34-5.04,10.8-6.97,16.44-1.31,3.73-2.42,7.53-3.68,11.27-.32.8-.45,1.75-1.12,2.35-.46.37-1.17.31-1.58-.1-.78-.81-.07-1.99.11-2.91,1.14-3.8,2.4-7.57,3.63-11.35,2.77-8.38,5.81-16.66,8.89-24.93,1.52-4.17,3.04-8.34,4.82-12.41,1.61-3.76,3.19-7.54,5.01-11.21,2.95-5.86,6.11-11.61,9.26-17.36-5.56-5.84-12.05-10.79-19.15-14.61-2.48-1.3-4.95-2.62-7.56-3.62-1.48,2.7-2.92,5.42-4.34,8.15-9.92,18.39-17.94,37.79-23.74,57.86-.97,3.38-1.85,6.79-2.74,10.2-.16.63-.85,1.01-1.48.84-.64-.18-1-.84-.84-1.48.22-.85.44-1.7.66-2.55.21-1.84.45-3.67.71-5.5.62-4.38,1.45-8.72,2.02-13.1.51-4.56,1.03-9.12,1.6-13.68,1.57-12.83,4.31-25.49,5.94-38.31.31-2.92.61-5.86.89-8.82-.1.04-.21.06-.32.03-9.31-1.94-18.86-2.75-28.34-2.04-2.2.18-4.44.29-6.6.8-.11,1.46-.21,2.92-.32,4.37-1.73,25.07-2.14,50.2-1.81,75.32-.02.68.09,1.41-.25,2.03-.38.66-1.38.81-1.91.25-.58-.65-.53-1.6-.7-2.41-1.55-11.95-3.17-23.89-4.68-35.84-1.2-10.35-2.57-20.74-5.38-30.8-.94-3.37-2.05-6.69-3.19-9.99-1.63-.09-3.35-.15-4.94-.14-8.33.22-16.74,1.64-24.4,5-1.53.67-3.03,1.51-4.45,2.38-.15.1-.31.19-.46.29,1.93,5.96,3.99,11.85,6.03,17.78,3.01,9.13,5.82,18.33,8.95,27.42,2.73,8.01,5.43,16.05,7.68,24.21.41,1.73,1.05,3.44,1.14,5.22,0,.38-.14.71-.4.99-.41.43-1.16.47-1.62.08-.57-.51-.79-1.3-1.14-1.96-1.61-3.6-2.92-7.32-4.38-10.98-3.06-7.46-5.83-15.05-9.44-22.26-3.91-7.82-8.74-15.11-13.61-22.35-1.13-1.67-2.3-3.31-3.53-4.93-3.45,1.39-6.54,3.57-9.37,5.95h0s0,0,0,0c-3.18,2.59-6.2,5.42-9.04,8.39-.71.76-1.39,1.54-2.05,2.34-.16.2-.32.4-.48.61,1.06,1.27,2.09,2.56,3.09,3.88,1.91,2.54,3.64,5.21,5.38,7.88,2.66,4.02,5.15,8.16,7.78,12.2,3.36,5.1,6.81,10.15,9.92,15.42,3.15,5.23,6.06,10.61,8.55,16.19.21.56.03,1.19-.5,1.5-.54.32-1.33.15-1.63-.43-.79-1.76-1.63-3.5-2.5-5.22-2.19-2.89-4.13-5.97-6.22-8.94-2.02-2.84-4.19-5.58-6.37-8.31-5.15-6.08-10.26-12.38-15.99-17.96-1.85,1.24-3.34,2.93-4.85,4.53-1.99,2.09-4.08,4.08-5.85,6.36-1.8,2.33-3.57,4.7-5.17,7.18-.34.52-.72,1.08-1.05,1.61,1.49,1.66,2.96,3.36,4.31,5.14,3.15,4.06,5.81,8.47,8.32,12.95,3.7,6.4,6.46,13.31,8.19,20.5,1.15,4.73,1.97,9.54,2.66,14.36,1.34,8.73,2.31,17.51,2.52,26.35.16,5.79.47,11.58.89,17.36.31,5.48.49,10.97.73,16.46.2,4.98.31,9.96.52,14.94.37,9.86,1.05,19.73.46,29.59-.47,8.57-1.63,17.08-2.92,25.56-.4,2.46-.78,4.93-1.12,7.41-.32,2.19-.71,4.37-1.08,6.55-.19-.17-.43-.3-.72-.38-.48.02-.81.55-.63.99.04.75-.06,1.5-.22,2.24-.14,1.23-1.14,3.76-.93,5.44-.04.04-.07.07-.1.12-.33.86.09,1.27.76,1.45-.25.18-.56.28-.88.23-.64-.09-1.12-.71-1.02-1.35.62-4.66,1.41-9.3,2.2-13.93,1.11-7.84,2.49-15.64,3.33-23.51.88-7.56,1.3-15.17,1.16-22.78-.15-6.21-.51-12.4-.72-18.6-.31-8.78-.6-17.56-1.01-26.34-.13-3.36-.39-6.71-.62-10.06-.46-8.06-.49-16.11-1.24-24.11-1.09-9.36-2.29-18.81-4.49-27.97-1.73-7.01-4.51-13.72-8.16-19.94-2.08-3.7-4.3-7.33-6.81-10.76-2.35-3.26-5.1-6.19-7.74-9.21-4.82-5.74-9.91-11.28-14.2-17.44-1.64-2.45-3.38-4.88-4.51-7.62-1.42-3.9-.71-7.63,2.84-10.14,2.73-1.87,6.22-2.43,9.46-1.93,3.45.54,6.76,1.68,9.88,3.23,4.28,2.15,8.47,4.55,12.28,7.46,5.71,4.43,10.68,9.77,15.45,15.18,2.3,2.67,4.61,5.34,6.86,8.06-.6-.91-1.21-1.82-1.82-2.73-4.31-6.44-8.27-13.1-12.61-19.53-4.29-6.5-9.78-12.28-14.91-17.99-3.13-3.59-6.36-7.2-8.43-11.53-1.38-2.88-2.09-6.14-1.64-9.33,1.11-6.5,5.79-11.39,12.71-10.58,16.01,2.67,27.75,15.51,36.18,28.55,3.61,5.38,7.15,10.8,10.26,16.49,3.61,6.47,6.42,13.33,9.13,20.21-5.3-15.29-9.94-30.81-15.31-46.07-2.17-6.26-4.07-12.6-6.12-18.9-1.51-4.65-2.93-9.36-3.43-14.24-.6-6.89-.34-17.44,4.59-22.74.83-.88,1.67-1.79,2.7-2.45,1.75-1.02,3.75-1.79,5.8-1.62,4.08.37,7.86,2.28,11.22,4.54,4.67,3.16,8.12,7.76,10.77,12.68,1.51,2.71,3.05,5.41,4.29,8.25,1.14,2.61,2.17,5.38,3.1,8.04,3.08,8.97,6.44,17.87,8.28,27.19,2.84,14.18,3.95,28.63,6.06,42.93,0-23.41.82-46.85,2.76-70.18.94-9.69,1.95-19.42,4.44-28.86,1.4-5.02,3-10.03,5.68-14.52,1.65-2.81,3.68-5.57,6.55-7.21,4.38-2.62,9.46-2.1,13.84.27,3.58,1.88,6.19,5.17,7.94,8.75,1.05,2.17,1.67,4.52,2.21,6.86,1.55,8.04.76,16.31.34,24.43-.67,9.77-1.46,19.55-2.62,29.27-1.13,8.09-2.65,16.11-3.9,24.18-1.6,8.95-2.43,18.01-3.57,27.03,6.08-18.5,14.01-36.36,23.44-53.41,3.41-6.74,7.29-13.22,11.62-19.41,4.58-6.43,9.63-13.01,16.74-16.78,3.78-2,8.09-3.34,12.41-2.97,1.63.1,3.16.71,4.62,1.41,1.06.48,2.01,1.16,2.86,1.95,2.33,2.16,3.36,5.5,3.21,8.62-.15,2.58-.8,5.1-1.43,7.6-1.66,6.33-4.2,12.39-7.04,18.27-2.76,5.5-6.18,10.64-9,16.11-3.76,7.11-7.86,14.07-11.29,21.32-3.35,7.27-6.39,14.68-9.07,22.23,4.67-8.82,10.19-17.17,16.35-25.01,2.65-3.48,5.5-6.81,8.79-9.7,3.37-2.96,7.32-5.33,11.65-6.54,3.18-.89,6.71-1.01,9.84.11,2.99.93,5.55,3.34,6.45,6.36Z"/>
  <path class="cls-10" d="M86.57,340.72c.46.32.52.77.35,1.16-.18.4-.59.73-1.08.82-1.42.3-2.89.21-4.33.21-1.87,0-3.75-.01-5.62,0-6.39.12-12.81.34-19.2.35-.72-.02-1.44,0-2.15-.09-.21-.04-.38-.12-.52-.22-.77-.59-.52-2.06.64-2.14.04,0,.08,0,.12,0-.24-.7-.51-1.4-.72-2.12-1.33-4.21-2.38-8.5-3.23-12.83-2.12-11.44-2.74-23.15-2.7-34.78-.05-.41-.02-.99-.02-1.58,8.08,1.17,16.24,1.84,24.4,2.16,1.92,0,3.86,0,5.82-.02,0,.32.02.62.01.86.02,2.84,0,5.68.13,8.51.35,7.06.9,14.09,2.14,21.07,1.03,6.34,2.92,12.49,4.8,18.62.39-.02.75-.22,1.14.02Z"/>
  <path class="cls-10" d="M153.49,227.89c.8.17,1.57-.59,1.4-1.39-.46-1.67-3.8-2.38-5.34-2.34-3.79-.08-7.38,2.06-9.19,5.37-.49,1.15-2.63,3.81-.96,4.64.57.28,1.35.05,1.61-.55.61-1.37,1.23-2.76,2.15-3.96,1.86-2.58,5.53-3.78,8.55-2.74.68.19,1.13.75,1.78.97ZM195.4,176.13c.75-1.62,1.04-5.51.33-7.15-.23-.39-.71-.43-1.11-.32-.67.13-1.33.3-1.98.48-1.78.48-3.54,1.01-5.26,1.69-3.15,1.25-6.25,2.71-9.18,4.43-2.3,1.38-4.4,3.04-6.46,4.77-3.87,3.3-6.92,7.36-9.16,11.94-.42.89-2.28,4.24-1.29,4.93.62.34,1.27-.76,1.64-1.15.47-.59.9-1.22,1.38-1.81.36-.48.81-.95,1.06-1.49,3.87-4.3,7.92-8.67,13.23-11.19,3.33-1.56,6.87-2.7,10.46-3.51,1.24-.26,2.49-.5,3.73-.74.55-.11,1.1-.15,1.64-.3.38-.09.75-.23.95-.59ZM243.1,198.26c1.57-.2-.14-2.54-.53-3.31-.54-.88-1.06-1.83-1.62-2.73-1.36-2.11-2.93-4.08-4.46-6.07-1.73-2.2-3.59-4.33-5.73-6.14-2.52-2.22-5.28-4.21-8.19-5.9-2.27-1.38-4.77-2.29-7.34-2.99-2.42-.65-4.88-1.23-7.41-1.25-1.18-.02-1.42.6-1.32,1.64.05.83.17,1.66.3,2.48.2,1.25.24,2.53.49,3.78.11.59.71.75,1.23.67,1.13.02,2.25.13,3.37.26,4.89.81,9.74,2.4,14.04,4.92,4.51,2.65,8.95,5.53,12.63,9.29.99.94,1.85,2.12,2.57,3.29.53.75.98,1.87,1.99,2.03ZM268.26,223.44c.88,1.3,2.84-.01,2-1.32-.93-1.42-1.82-2.88-2.92-4.18-3.12-3.47-8.26-5.79-12.93-4.7-.63.23-.89,1.08-.5,1.63.25.38.73.57,1.17.47.89-.09,1.78-.05,2.67.05,4.89.59,8.19,3.94,10.5,8.05ZM291.84,122.27c3.03,2.74,6.16,5.43,8.79,8.56-5.04,8.16-9.72,16.59-13.02,25.57-2.02,5.63-3.5,11.43-4.77,17.27-2.04,8.89-3.88,17.84-5.15,26.87-1.3,9.35-1.89,18.78-2.19,28.21-.71,18.48-.24,36.98.4,55.45.31,12.86,1.18,25.73,2.86,38.48.52,3.8,1.11,7.59,1.9,11.34.14.68.28,1.36.46,2.04.96.06,1.67.36,1.6,1.23-.05.44-.32.7-.66.84-.26.1-.56.13-.85.11-4.34.32-8.67.71-13.02,1.02-7.12.59-14.21.99-21.33,1.36-8.05.49-15.83,1.21-23.83,1.61-2.26.11-4.51.22-6.77.34-1.11-.14-2.86.63-3.74-.07-.2-.16-.36-.4-.45-.74-.06-.68.31-1.07.88-1.28,1.41-6.86,2.17-13.79,2.59-16.28.87-7.15,2.28-14.22,3.47-21.33.65-3.34,1.41-6.67,2.31-9.97,13.72-8.16,26.29-18.6,35.3-31.93,4.09-6.26,8.63-12.73,9.96-20.23.96-6.77-2.22-16.79-10.59-15.84-4.86.8-9.02,3.74-12.94,7.08-.06-.43-.13-.86-.19-1.29-.45-3.06-.89-6.12-1.43-9.16-1.31-7.16-3.86-14.08-7.76-20.24-2.6-4.43-6.25-8.31-11.07-10.3-3.76-1.91-8.29-2.33-12.12-.35-5.57,2.66-7.94,8.5-8.99,14.62-.47-1.44-1.09-2.84-1.83-4.17-1.53-2.85-3.49-5.58-6.3-7.27-1.69-1.07-3.54-2-5.54-2.34-4.15-.54-8.46.41-12.16,2.32-4.22,2.25-6.66,6.62-8.5,10.86-3.22,7.37-4.31,15.48-4.56,23.47-.12,3.07-.19,6.15-.07,9.22.02.59.05,1.17.07,1.76-2.32-1.35-4.63-2.76-7.3-3.27-9.1-1.99-13.4,5.85-12.01,13.92,1.33,6.44,5.16,11.95,9.15,17.03,3.41,5.26,8.57,8.78,13.56,12.4,3.02,2.37,5.73,5.15,9.05,7.12,4.09,2.66,8.48,4.77,12.58,7.4.29,1.72.56,3.44.81,5.17,1.33,9.55,3.15,19.02,5.27,28.43.81,3.06,1.44,7.98,2.37,12.96.38,0,.76,0,1.15-.01,1.61-.35,2.15,2.01.45,2.22-.39,0-.79-.06-1.18-.07-.05,0-.1,0-.16,0-8.48.22-16.97-.34-25.42-.06-12.06.38-24.12.87-36.18.72-2.46-.13-4.88-.14-7.33-.1-.62,0-1.73.09-2.51-.13-.66-.18-1.08-.59-.76-1.45.03-.04.07-.08.1-.12-.21-1.68.79-4.21.93-5.44.16-.73.26-1.48.22-2.24-.18-.44.14-.97.63-.99.29.08.53.21.72.38.37-2.18.76-4.36,1.08-6.55.33-2.47.72-4.94,1.12-7.41,1.29-8.48,2.45-16.99,2.92-25.56.59-9.87-.09-19.73-.46-29.59-.21-4.98-.32-9.96-.52-14.94-.24-5.49-.42-10.98-.73-16.46-.42-5.78-.73-11.57-.89-17.36-.2-8.84-1.18-17.62-2.52-26.35-.69-4.82-1.52-9.63-2.66-14.36-1.74-7.19-4.49-14.1-8.19-20.5-2.51-4.48-5.17-8.89-8.32-12.95-1.35-1.78-2.82-3.48-4.31-5.14.33-.54.71-1.09,1.05-1.61,1.6-2.48,3.36-4.85,5.17-7.18,1.77-2.28,3.86-4.27,5.85-6.36,1.5-1.6,3-3.29,4.85-4.53,5.73,5.59,10.84,11.88,15.99,17.96,2.18,2.73,4.34,5.47,6.37,8.31,2.09,2.97,4.03,6.04,6.22,8.94.87,1.72,1.7,3.46,2.5,5.22.3.58,1.09.75,1.63.43.53-.31.71-.94.5-1.5-2.49-5.58-5.4-10.96-8.55-16.19-3.11-5.27-6.55-10.32-9.92-15.42-2.63-4.04-5.12-8.18-7.78-12.2-1.74-2.66-3.47-5.33-5.38-7.88-1-1.32-2.03-2.61-3.09-3.88.16-.2.32-.41.48-.61.66-.8,1.34-1.58,2.05-2.34,2.83-2.97,5.85-5.8,9.04-8.39,0,0,0,0,0,0h0c2.83-2.38,5.92-4.56,9.37-5.95,1.23,1.61,2.4,3.26,3.53,4.93,4.87,7.24,9.7,14.53,13.61,22.35,3.61,7.22,6.37,14.81,9.44,22.26,1.46,3.66,2.77,7.38,4.38,10.98.35.66.57,1.45,1.14,1.96.46.38,1.21.35,1.62-.08.26-.28.39-.61.4-.99-.1-1.78-.73-3.49-1.14-5.22-2.26-8.16-4.95-16.2-7.68-24.21-3.13-9.09-5.94-18.29-8.95-27.42-2.03-5.92-4.1-11.81-6.03-17.78.15-.1.31-.19.46-.29,1.42-.88,2.91-1.71,4.45-2.38,7.66-3.36,16.07-4.78,24.4-5,1.59-.02,3.31.05,4.94.14,1.14,3.3,2.25,6.62,3.19,9.99,2.81,10.06,4.18,20.44,5.38,30.8,1.52,11.95,3.14,23.89,4.68,35.84.17.81.12,1.76.7,2.41.53.57,1.53.41,1.91-.25.34-.62.23-1.35.25-2.03-.33-25.12.08-50.25,1.81-75.32.1-1.46.21-2.92.32-4.37,2.15-.51,4.4-.62,6.6-.8,9.49-.71,19.03.1,28.34,2.04.11.02.22,0,.32-.03-.28,2.95-.58,5.9-.89,8.82-1.63,12.82-4.38,25.48-5.94,38.31-.57,4.55-1.09,9.11-1.6,13.68-.57,4.38-1.4,8.72-2.02,13.1-.26,1.83-.51,3.66-.71,5.5-.22.85-.44,1.7-.66,2.55-.17.63.2,1.3.84,1.48.62.17,1.31-.21,1.48-.84.89-3.41,1.76-6.82,2.74-10.2,5.79-20.07,13.82-39.48,23.74-57.86,1.42-2.73,2.86-5.45,4.34-8.15,2.61,1.01,5.09,2.33,7.56,3.62,7.1,3.82,13.59,8.77,19.15,14.61-3.15,5.75-6.31,11.5-9.26,17.36-1.83,3.67-3.4,7.44-5.01,11.21-1.78,4.07-3.3,8.24-4.82,12.41-3.08,8.27-6.12,16.55-8.89,24.93-1.24,3.78-2.49,7.55-3.63,11.35-.18.92-.89,2.1-.11,2.91.41.42,1.13.47,1.58.1.67-.6.8-1.55,1.12-2.35,1.26-3.75,2.37-7.54,3.68-11.27,1.93-5.64,4.34-11.1,6.97-16.44,3.62-7.27,7.63-14.36,12.17-21.09,4.57,2.01,8.56,5.15,12.32,8.4Z"/>
  <path class="cls-10" d="M236.42,212.21c-2.17,1.12-4.47,1.98-6.8,2.74-3.39,1.1-6.86,1.97-10.35,2.66-2.7.49-5.43.8-8.15,1.2-2.71.45-5.43.87-8.16,1.19,0-.06,0-.12,0-.18.08-6.37.07-12.93,2.22-19.01,1.38-5.35,6.42-9.72,12.11-9.02,4.64.9,9,3.49,11.93,7.21,3.02,4.02,5.43,8.5,7.2,13.22Z"/>
  <path class="cls-10" d="M200.59,218.56c0,.56,0,1.13,0,1.69-2.65.25-5.3.4-7.97.38-3.65.02-7.29-.34-10.92-.78-5.25-.75-10.47-1.78-15.54-3.37.64-3.55,1.6-7.1,3-10.37,1.65-3.82,3.65-7.87,7.37-10.04,2.13-1.19,4.43-1.86,6.85-2.19,2.04-.25,4.16-.26,6.07.57,3.59,1.53,5.84,3.72,7.74,7.1.73,1.21,1.32,2.45,1.81,3.73.33,1.08.62,2.18.85,3.28.36,2.15.44,4.33.59,6.51.05,1.16.09,2.32.13,3.48Z"/>
  <path class="cls-10" d="M91.59,196.48c2.49,3.46,3.08,7.85,2.99,12.02-.39,4.59-.44,9.77-3.38,13.56-1.49,1.95-3.63,3.89-6.27,3.3-3.04-.35-4.77-4.28-6.15-5.96,3.96-7.03,3.36-18.23-.95-26.27,4.78-2.71,10.51-.99,13.77,3.35Z"/>
  <path class="cls-10" d="M77.94,200.18c1.66,6.4,1.8,13.86-2.18,19.46-2.33,3.07-6.89,6.58-10.26,2.88-.21-.2-.4-.45-.61-.68.5-2.45.36-5.25-.15-7.63-.84-4.59-3.1-8.8-5.55-12.72-1.94-2.86-3.89-5.82-6.57-8.05.31-.46.53-1.08.78-1.5.61-1.06,1.39-2,2.26-2.85,3.54-3.77,9.48-4.24,13.87-1.71,4.45,2.78,7.15,7.81,8.41,12.8Z"/>
  <path class="cls-10" d="M54.66,199.21c4.67,6.41,9.46,14.33,7.78,22.56-1.13,6.28-7.99,3.32-11.32.63-4.42-3.44-7.88-8.04-10.07-13.19-.49-1.08-.98-2.16-1.43-3.25-.64-1.42-2.85-.37-2.17,1.02.28.72.59,1.45.91,2.17-2.2,1.53-4.3,3.2-6.33,4.95-.28-1.13-.63-2.26-.72-3.42-.18-1.96-.18-3.93.04-5.88.85-5.13,3.18-11.35,8.52-13.16,5.93-1.15,11.45,3.01,14.78,7.57Z"/>
  <path class="cls-9" d="M196.99,253.33c.97-1.21,1.77-2.64,1.75-4.23,0-.18-.06-.34-.14-.49-.11-.29-.32-.51-.66-.65-.69-.26-1.39.12-1.99.43-1.09.69-1.6,1.99-2.01,3.17-.01.08-.03.15-.06.24-.03.08-.05.15-.07.22,0,0,0,0,0,0-.4,1.18-1.31,2.78.14,3.39.78.27,1.38-.25,1.91-.82,0,0,0,0,0,0,.18-.19.35-.38.52-.57h0c.06-.07.11-.12.17-.18.12-.13.27-.3.43-.51ZM212.81,253.83c1.11-1.65.32-4.48-.72-6.02-.35-.6-1.04-.96-1.72-.79-.75-.09-1.4.52-1.53,1.23-.26,1.53.48,3.01,1.08,4.37.34.62.56,1.41,1.18,1.81.62.3,1.34-.08,1.71-.6ZM254.73,227.6c7.42-2.37,10.22,6.72,9.52,12.49-1.57,9.41-10.59,21.48-16.85,28.73-7.03,8.48-16.14,14.68-25.15,20.87,3.66-12.04,9.3-23.5,17.95-32.74,4.94-5.27,9.84-10.58,14.98-15.66,1.39-1.76-.92-2.9-2.18-1.17-7.45,7.64-15.21,15.13-21.47,23.82-14.6,21.46-16.32,48.07-20.29,72.96-.54,2.79-3.69,19-7.39,17.58-3.66-4.45-4.53-10.48-5.56-15.99-1.58-9.5-3.9-18.85-5.61-28.32-.98-5.75-1.79-11.53-2.76-17.27,0-.11-.02-.23-.06-.33-.61-3.57-1.28-7.13-2.1-10.66-3.33-15.13-17.72-25.51-29.91-33.65-1.3-.91-2.6,1.16-1.34,1.99,3.29,2.22,6.63,4.37,9.77,6.8,5.93,4.85,11.78,10.06,15.77,16.69,2.05,3.42,3.19,7.25,3.88,11.16.41,1.88.79,3.76,1.15,5.64-3.02-1.8-6.2-3.37-9.16-5.28-4.07-2.21-7.31-5.53-10.95-8.34-3.55-2.72-7.48-5.06-10.31-8.58-4.3-5.55-8.99-11.18-10.81-18.12-1.57-6.86,1.54-14.14,9.61-11.87,4.2,1.27,7.72,4.1,11.64,6.01,5.24,2.57,11.32,5.23,17.08,2.72,5.99-2.44,8.07-9.32,11.95-13.98,8.78-10.73,14.77,2.61,20.65,8.51,4.94,5.5,13.54,4.63,18.77.01,6.25-4.74,11.57-11.47,19.17-14.03Z"/>
  <path class="cls-5" d="M240.88,233.59c0,.1.02.19.03.29-2.4,2.14-4.74,4.32-7.13,6.1-3.84,3.18-9.98,4.52-14.05,1.04-3.92-3.08-6.05-7.79-9.79-11.06-2.12-2.09-4.46-3.11-6.77-3.2,0-.27-.01-.52-.03-.73-.03-1.21-.09-2.41-.13-3.62,2.71-.31,5.41-.71,8.09-1.17,1.97-.29,3.95-.54,5.92-.83,0,.03,0,.05,0,.08.42,2.14.86,4.34,2.09,6.18.45.77,1.05,1.43,1.71,2.01.44.4.93.76,1.51.9,3.99,1.03,4.15-6.94,4.06-9.45,0-.57,0-1.14-.04-1.71,2.11-.57,4.2-1.23,6.25-1.98,1.47-.52,2.93-1.09,4.29-1.87.1-.06.2-.12.3-.18.56,1.72,1.04,3.47,1.43,5.24.98,4.61,1.59,9.3,2.26,13.96Z"/>
  <path class="cls-5" d="M200.89,226.64c.02.09.02.21.02.32-2.54.57-4.93,2.25-6.81,4.86-4.27,5.32-6.88,14.02-15.01,13.92-5.07-.28-9.68-2.84-14.07-5.28.05-.22.05-.45.03-.67-.01-.63-.05-1.26-.07-1.88-.18-5.75-.06-11.53.59-17.25.07-.59.14-1.18.22-1.78,4.14,1.27,8.37,2.22,12.65,2.91-.15,1.43-.43,2.85-.37,4.3-.01,2.11.33,4.38,2.04,5.81,4.4,3.2,6.71-4.02,7.37-7.26.13-.59.22-1.18.29-1.78,4.3.31,8.61.18,12.9-.21.04.83.09,1.67.16,2.5.02.5.04.99.06,1.49Z"/>
  <path class="cls-5" d="M313.03,110.99c-.16.26-.32.52-.48.78-1.93,3.16-3.8,6.35-5.81,9.46-2.66-3.39-5.61-6.53-8.74-9.5-3.23-2.93-6.82-5.71-10.93-7.29-.18-.06-.36-.13-.54-.19,2.48-3.22,5.12-6.43,8.14-9.15,1.87.78,3.57,1.96,5.25,3.09,2.84,2.02,5.43,4.38,7.86,6.88,1.45,1.44,2.82,2.95,4.13,4.52.36.44.71.9,1.07,1.35.02.02.03.04.05.06Z"/>
  <path class="cls-5" d="M297.27,57.39c.58.56,1.32,1.08,1.91,1.69-1.11,2.75-2.33,5.46-3.64,8.12-.8,1.57-1.66,3.11-2.54,4.64-3.47-3.43-7.29-6.51-11.33-9.24-3.03-2.07-6.27-3.8-9.59-5.36-1.63-.77-3.28-1.53-4.96-2.19-.36-.13-.71-.27-1.07-.38,2.58-3.94,5.36-7.75,8.44-11.33l.23-.27c2.31.78,4.52,1.93,6.68,3.06,3.54,1.95,6.92,4.18,10.15,6.61,1.98,1.47,3.87,3.02,5.72,4.65Z"/>
  <path class="cls-5" d="M239.71,30.13c-.06,4.66-.39,9.32-.68,13.96-.02.25-.03.49-.05.74-2.41-.63-4.83-1.21-7.28-1.6-4.4-.72-8.91-.85-13.38-.71-4.59.15-9.23.44-13.7,1.57-.27.08-.55.16-.83.25.56-4.87,1.27-9.72,2.22-14.52,2.78-.72,5.68-.92,8.53-1.23,6.15-.48,12.38-.6,18.5.27,2.23.4,4.52.61,6.69,1.28Z"/>
  <path class="cls-5" d="M179.32,48.07c-.58,0-1.16.05-1.73.08-1.85.12-3.7.27-5.54.5-4.77.65-9.39,2.07-13.97,3.52-3.63,1.2-7.22,2.63-10.46,4.69-.44.27-.91.59-1.35.93-.83-2.61-1.61-5.24-2.18-7.92-.25-1.13-.46-2.43-.62-3.84.26-.14.52-.27.78-.4,2.13-1.06,4.34-1.98,6.62-2.7,3.9-1.27,7.94-2.13,11.96-2.96,3.98-.87,8.06-1.32,12.13-1.01,1.66,2.93,3.11,5.98,4.37,9.1Z"/>
  <path class="cls-5" d="M125.72,68.74c2.34,1.65,4.54,3.51,6.59,5.52-3.13,1.61-5.96,3.78-8.76,5.9-2.34,1.84-4.36,4.07-6.35,6.27-1.65,1.82-3.22,3.7-4.66,5.68-.1.15-.21.3-.31.44-1.73-1.97-3.77-4.11-5.68-6.39.49-.67.98-1.35,1.5-2,1.5-1.92,3.04-3.78,4.72-5.55,0,0-.01.01-.02.02,3.37-3.63,7.21-6.92,11.63-9.21.44-.23.89-.45,1.34-.67Z"/>
  <path class="cls-5" d="M111.05,108.39c.3.21.59.43.89.64-2.34,1.81-4.24,4.11-6.19,6.32-1.43,1.65-2.83,3.31-4.16,5.04-1.74,2.23-3.3,4.58-4.73,7.02-.12.19-.23.38-.35.56-2.23-2.61-4.43-5.24-6.56-7.92.08-.17.17-.34.25-.52.98-2.14,2.29-4.11,3.66-6.03,0,0,0,0,0,.01,1.61-2.26,3.35-4.46,5.26-6.47,1.17-1.25,2.48-2.39,3.76-3.54,2.82,1.47,5.54,3.19,8.19,4.88Z"/>
  <path class="cls-4" d="M117.84,225.1c4.61,7.22,6.53,15.45-2.03,20.54-10.76,6.83-33.01,4.92-45.85,5.11-6.8-.23-13.58-.8-20.38-.97-8.33-.45-23.13.24-29.07-6.17-1.72-2.68-1.45-6.28-.99-9.32,1.09-4.52,3.82-8.34,6.99-11.65,2.9-2.96,5.89-5.84,9.11-8.46,1.21-1.01,2.48-1.96,3.7-2.96,3.62,7.32,9.15,14.17,17.12,16.5,3.98.82,6.35-.77,7.6-3.33,1.28,1.2,2.86,2.09,4.65,2.14,3.62,0,6.65-2.51,8.82-5.28.29.47.6.92.76,1.28,1.6,2.66,4.03,5.28,7.36,5.26,4.08.3,7.09-3.34,8.95-6.54,1.75-4.33,2.45-9.13,2.37-13.86,2.44,1.08,4.77,2.48,6.92,4.07,5.23,3.87,10.51,8.05,13.97,13.64Z"/>
  <path class="cls-4" d="M109.24,276.56c1.05,3.37-1.39,5.73-4.2,7.38-14.97,9.31-53.04,4.57-70.2.67-5.69-1.81-17.24-4.79-15.49-12.69.09-.59.42-1.08.77-1.54,5.03,8.18,20.38,9.59,28.77,10.75,7.8,1.18,15.76,1.55,23.68,1.43,10.73-.09,26.55-.43,35.98-5.55.24-.14.46-.29.69-.45Z"/>
  <path class="cls-8" d="M110.94,270c-.01.15-.03.29-.06.42-.72,2.44-2.74,4.34-5.06,5.28-3.89,1.9-8.36,2.54-12.62,3.22-5.02.71-10.06,1.06-15.13,1.19-10.02.2-20.04.06-29.96-1.5-5.12-.62-10.26-1.35-15.2-2.87-5.58-1.56-14.15-5.83-11.35-12.84.4-.17.79-.35,1.19-.52.4,2.76.47,5.17,3.15,6.76,1.52.97,3.52.51,5.02-.27,1.26-.69,2.27-1.05,3.25.27,1.83,3.23,4.93,6.08,8.91,5.44,2.33-.31,4.44-1.44,6.78-1.69,2.17.17,3.76,2.06,5.94,2.25,3.24.5,5.34-2.76,8.1-3.81,3.43.15,3.73,5.24,8.4,5.58,3.96.52,5.17-5.11,6.92-4.38,1.21,1.06,2.42,2.28,4.1,2.5,2.41.21,3.93-2.03,5.72-3.24,2.8-.96,5.24,2.66,8.1,2.68,2.26.32,4.14-1.34,4.94-3.34.92-3.2,2.25-3.32,5.2-2.24,1.11.41,2.39.84,3.68,1.11Z"/>
  <path class="cls-11" d="M113.45,261.56c1.47,1.68,4.01,5.91.26,6.38-3.41.07-6.45-2.31-9.85-2.03-3.07.53-3.26,3.01-4.55,5.23-2.31,3.16-6.63-2.75-9.93-1.95-2.36.2-3.5,2.75-5.62,3.46-1.32-.09-2.14-1.3-3.12-2.03-5.24-3.23-5.5,7.25-10.45,2.77-1.78-1.98-3.3-4.6-6.35-4.46-3.22.2-5.49,5-8.8,3.54-1.75-.82-3.43-2.1-5.46-1.96-3.65.34-7.69,3.37-11.02.47-1.41-1.25-2.04-3.2-3.57-4.32-3.35-2.97-6.32,3-8.99-.59-1.24-1.83.08-5.61-2.79-6.16-2.17.06-3.97,2-6.22,1.76-1.67-.16-2.32-.5-2.28-2.29,0-2.85,2.19-5.06,2.82-7.73.36-1.76-1.18-2.29-2.63-2.42-.97-.35-4.74-.39-3.84-2.06,1.65-2.06,4.03-3.24,6.47-4.11.79,2.19,2.52,3.77,4.57,4.92.06,1.15,1.06,2.1,1.52,3.14,1.24,2.12,2.64,4.15,4.22,6.03,4.99,6.27,13.2,8.58,20.88,9.33,8.45.51,17.61-1.54,24-7.34,7.14,4.68,15.94,6.75,24.42,5.97,4.86-.43,10.75-1.9,14.64-5.2.54.52,1.21.97,1.67,1.67Z"/>
  <path class="cls-6" d="M70.77,257.59c-.18.18-.37.38-.58.6-8.88,6.81-21.23,7.35-31.52,3.67-6.05-2.08-10.18-7.01-13.24-12.43.99.35,1.98.63,2.92.87,1.53.34,3.07.61,4.62.83-.03.2-.05.38-.06.55-.02,1.53-1.08,4.05.68,4.92,2.91.87,6.08.05,9.08.17,9.38.02,18.74.42,28.11.83Z"/>
  <path class="cls-6" d="M113.61,249.54c.07.88.09,1.77-.03,2.65-.93,6.67-8.55,9.35-14.38,10.23-7.89,1.28-16.1-.27-23.11-4.04-.39-.2-.73-.41-1.03-.6,6.7.29,13.41.55,20.12.64,4.41-.06,8.92.35,13.29-.25,1.45-.6,1.42-2.43,1.31-3.75-.16-.86-.14-2.44-.64-3.35,1.42-.36,2.82-.81,4.17-1.39.1-.04.21-.09.31-.13Z"/>
  <path class="cls-1" d="M106.97,252.16c.32,1.23.49,2.53.41,3.8-15.63.36-31.27-.58-46.89-1.14-8.49-.65-17-.43-25.49-.3-.06-.97.23-2.07.25-3.1,6.82.75,13.73.64,20.58,1.02,10.15.71,20.32.81,30.5.84,4.57.03,9.14-.29,13.69-.73,2.27-.28,4.57-.55,6.82-.98,0,.2.05.41.14.59Z"/>
  <path class="cls-3" d="M1.14,333.71h350.12v106.5c0,23.76-19.29,43.05-43.05,43.05H44.19c-23.76,0-43.05-19.29-43.05-43.05v-106.5h0Z"/>
  <path class="cls-2" d="M56.45,227.73c-9.5-2.79-15.54-11.98-19-20.75-.68-1.4,1.53-2.44,2.17-1.02.45,1.09.94,2.17,1.43,3.25,2.19,5.15,5.65,9.75,10.07,13.19,3.33,2.69,10.19,5.66,11.32-.63,1.67-8.23-3.12-16.15-7.78-22.56-3.33-4.56-8.84-8.72-14.78-7.57-5.34,1.81-7.68,8.03-8.52,13.16-.23,1.95-.23,3.93-.04,5.88.14,1.88.99,3.68,1.06,5.54-.07.59-.73.98-1.29.78-.63-.21-.78-.94-1-1.5-1.02-2.71-1.38-5.61-1.28-8.49.07-3.49.92-6.98,2.51-10.09,4.53-9.82,13.61-9.87,21.3-3.49,2.68,2.23,4.63,5.19,6.57,8.06,2.46,3.92,4.72,8.13,5.55,12.72,1.34,6.21.13,15.25-8.29,13.52Z"/>
  <path class="cls-2" d="M77.82,193.13c4.32,8.04,4.92,19.24.95,26.27-.18.32-.37.63-.57.94-.22.31-.44.61-.68.92-2.16,2.77-5.19,5.29-8.82,5.28-2.49-.07-4.56-1.76-6.01-3.64-.4-.79.28-1.77,1.16-1.69.76.06,1.14.84,1.65,1.31,3.37,3.69,7.93.19,10.26-2.88,3.98-5.6,3.84-13.05,2.18-19.46-1.26-4.99-3.95-10.02-8.41-12.8-4.39-2.53-10.33-2.06-13.87,1.71-.87.85-1.65,1.8-2.26,2.85-.54.9-.92,2.66-2.34,2.01-2.08-1.12,1.71-5.29,2.7-6.35,3.5-3.81,9.18-5.19,14.07-3.54,3.6,1.15,6.54,3.7,8.76,7.02.44.66.85,1.34,1.23,2.06Z"/>
  <path class="cls-2" d="M96.95,207.39c.09,4.73-.62,9.53-2.37,13.86-1.86,3.2-4.87,6.85-8.95,6.54-3.33.02-5.76-2.6-7.36-5.26-.16-.35-.47-.8-.76-1.28-.51-.84-.95-1.75-.35-2.38.52-.47,1.03-.16,1.6.53,1.38,1.68,3.11,5.61,6.15,5.96,2.64.59,4.78-1.35,6.27-3.3,2.94-3.79,3-8.97,3.38-13.56.09-4.17-.49-8.56-2.99-12.02-3.26-4.34-8.99-6.06-13.77-3.35-.19.1-.37.22-.56.34-1.29.86-2.62-1.19-1.3-2.02.2-.13.41-.26.62-.37,1.95-1.08,4.21-1.59,6.42-1.72,7.14.26,12.38,6.22,13.56,12.98.11.79.19,1.59.26,2.4.07.88.12,1.77.13,2.65Z"/>
  <path class="cls-2" d="M124.19,235.23c.53,6.11-3.5,10.55-8.48,13.28-.69.38-1.39.72-2.1,1.03-.1.05-.21.09-.31.13-1.36.58-2.75,1.03-4.17,1.39-.76.19-1.52.36-2.29.51-2.25.43-4.55.7-6.82.98-4.55.43-9.12.75-13.69.73-10.17-.03-20.34-.13-30.5-.84-6.85-.37-13.76-.26-20.58-1.02-.77-.08-1.53-.18-2.29-.29-1.55-.22-3.09-.49-4.62-.83-.94-.24-1.93-.52-2.92-.87-1.14-.4-2.27-.88-3.32-1.47-2.05-1.16-3.78-2.73-4.57-4.92-.14-.37-.24-.76-.32-1.17-.06-.26-.11-.53-.15-.79-.63-3.64-.18-7.43,1.31-10.81,2.33-5.78,7.15-10.03,11.53-14.27,2.86-2.59,5.84-5.05,9.03-7.22,1.02-.81,2.56.16,1.73,1.35-1.61,1.42-3.37,2.69-5.02,4.07-3.22,2.62-6.21,5.5-9.11,8.46-3.18,3.31-5.9,7.12-6.99,11.65-.47,3.03-.73,6.64.99,9.32,5.94,6.41,20.74,5.72,29.07,6.17,6.8.17,13.58.74,20.38.97,12.84-.19,35.09,1.72,45.85-5.11,8.56-5.09,6.64-13.32,2.03-20.54-3.46-5.6-8.74-9.77-13.97-13.64-2.15-1.58-4.48-2.98-6.92-4.07-.56-.25-1.14-.48-1.71-.7-.96-.38-.88-1.9.09-2.21.58-.18,1.03.04,1.49.26.2.09.4.18.62.25,6.93,3.12,12.92,8.04,18.21,13.4,4.31,4.63,7.83,10.47,8.54,16.85Z"/>
  <path class="cls-2" d="M109.77,254.41c.11,1.32.15,3.16-1.31,3.75-4.36.61-8.88.2-13.29.25-6.71-.1-13.42-.36-20.12-.64-1.43-.06-2.86-.12-4.29-.19-9.37-.41-18.74-.81-28.11-.83-3-.12-6.17.71-9.08-.17-1.75-.86-.69-3.39-.68-4.92.01-.16.03-.35.06-.55.16-1.04.59-2.35,1.81-1.56.39.54.49,1.18.48,1.85-.02,1.03-.31,2.14-.25,3.1,8.49-.13,17.01-.35,25.49.3,15.62.55,31.26,1.49,46.89,1.14.08-1.27-.09-2.57-.41-3.8-.09-.19-.13-.39-.14-.59,0-.5.26-.99.77-1.16.77-.18,1.23.13,1.52.66.5.91.48,2.49.64,3.35Z"/>
  <path class="cls-2" d="M115.72,248.51c.37,1.35.27,3.19.19,4.08-.3,2.19-1.16,4.03-2.41,5.57-.51.63-1.08,1.2-1.71,1.73-3.89,3.3-9.78,4.77-14.64,5.2-8.48.78-17.28-1.29-24.42-5.97-6.39,5.8-15.55,7.85-24,7.34-7.68-.75-15.89-3.07-20.88-9.33-1.58-1.89-2.98-3.91-4.22-6.03-.46-1.04-1.46-1.99-1.52-3.14,0-.03,0-.06,0-.08.15-1,1.59-1.36,2.16-.49.28.43.52.88.78,1.33.13.24.26.47.39.71,3.06,5.42,7.2,10.35,13.24,12.43,10.29,3.68,22.63,3.13,31.52-3.67.21-.23.4-.43.58-.6,1.95-1.9,2.46-1,4.29.19.3.2.64.4,1.03.6,7.02,3.77,15.23,5.32,23.11,4.04,5.83-.88,13.45-3.56,14.38-10.23.12-.89.11-1.77.03-2.65-.04-.57-.11-1.13-.18-1.7,0-.53.41-.99.95-.97.7.15,1.1.8,1.33,1.63Z"/>
  <path class="cls-2" d="M113.72,267.94c3.75-.47,1.2-4.7-.26-6.38-.46-.7-1.13-1.14-1.67-1.67-.35-.34-.64-.71-.78-1.2-.14-1.01,1.21-1.72,1.96-1.03.17.16.35.33.52.49,2.21,2.11,4.44,4.74,4.61,7.87-.36,3.32-2.36,4.3-4.75,4.28-.78,0-1.6-.12-2.42-.3-1.28-.28-2.56-.71-3.68-1.11-2.95-1.07-4.28-.95-5.2,2.24-.79,2-2.67,3.66-4.94,3.34-2.86-.03-5.3-3.64-8.1-2.68-1.79,1.21-3.31,3.46-5.72,3.24-1.68-.22-2.89-1.44-4.1-2.5-1.75-.73-2.95,4.9-6.92,4.38-4.67-.34-4.97-5.42-8.4-5.58-2.76,1.05-4.86,4.31-8.1,3.81-2.18-.19-3.77-2.08-5.94-2.25-2.34.25-4.45,1.38-6.78,1.69-3.98.65-7.08-2.21-8.91-5.44-.98-1.32-2-.96-3.25-.27-1.5.78-3.51,1.24-5.02.27-2.68-1.59-2.74-4-3.15-6.76-.4.17-.79.35-1.19.52-.9.39-1.81.77-2.77,1-.02,0-.04.01-.06.02-2.85.62-6.48-.59-6.39-4-.3-3.02,1.55-5.61,2.7-8.25-11.71-1.27-5.58-9.06,2.01-10.6.12-.02.23-.05.35-.07,1.6-.48,2.39,1.28.74,1.82-.2.07-.41.14-.61.21-2.44.87-4.82,2.06-6.47,4.11-.9,1.67,2.87,1.72,3.84,2.06,1.45.13,2.99.66,2.63,2.42-.63,2.67-2.83,4.88-2.82,7.73-.03,1.79.61,2.13,2.28,2.29,2.25.24,4.05-1.69,6.22-1.76,2.88.55,1.55,4.33,2.79,6.16,2.66,3.59,5.64-2.38,8.99.59,1.54,1.12,2.16,3.06,3.57,4.32,3.33,2.9,7.37-.13,11.02-.47,2.03-.13,3.71,1.14,5.46,1.96,3.31,1.47,5.58-3.34,8.8-3.54,3.05-.14,4.57,2.48,6.35,4.46,4.94,4.48,5.21-6,10.45-2.77.99.73,1.81,1.94,3.12,2.03,2.12-.7,3.26-3.26,5.62-3.46,3.29-.8,7.61,5.11,9.93,1.95,1.29-2.22,1.48-4.7,4.55-5.23,3.41-.28,6.44,2.11,9.85,2.03Z"/>
  <path class="cls-2" d="M112.07,268.1c1.27.08,1.46,1.1,1.29,2.21-.14.86-.5,1.76-.76,2.32-.41.78-.91,1.52-1.48,2.2-.56.65-1.18,1.24-1.88,1.74-.22.16-.45.31-.69.45-9.44,5.12-25.25,5.46-35.98,5.55-7.92.12-15.88-.25-23.68-1.43-8.39-1.16-23.74-2.57-28.77-10.75-.4-.64-.73-1.32-.99-2.05-.13-.35-.24-.72-.33-1.09-.29-1.35-.24-2.46-.01-3.33.77-2.93,3.64-3.17,2.84-1.16-.02.06-.05.11-.07.17-2.79,7.01,5.78,11.28,11.35,12.84,4.94,1.53,10.08,2.25,15.2,2.87,9.92,1.56,19.95,1.7,29.96,1.5,5.07-.13,10.11-.49,15.13-1.19,4.26-.68,8.72-1.32,12.62-3.22,2.32-.94,4.34-2.84,5.06-5.28.03-.13.04-.28.06-.42.08-.84.05-1.82,1.13-1.91Z"/>
  <path class="cls-2" d="M111.11,274.82c1.03,1.67.8,3.97.34,5.81-.99,2.88-3.84,4.56-6.33,6.04-7.54,3.91-16.09,4.76-24.53,4.95-.75.02-1.5.03-2.25.03-1.95.02-3.9.01-5.82.02-10.55-.41-21.1-1.41-31.48-3.32-5.33-.84-10.55-2.29-15.48-4.51-4.54-1.92-9.34-5.69-8.76-11.15.2-1.26.59-2.55,1.45-3.52.18-.27.5-.59.87-.84.81-.56,1.84-.8,2.01.41-.19.61-.63,1.11-1.03,1.64-.35.46-.67.94-.77,1.54-1.75,7.89,9.8,10.88,15.49,12.69,17.16,3.9,55.23,8.63,70.2-.67,2.82-1.65,5.25-4.01,4.2-7.38-.06-.2-.14-.4-.22-.61-1.19-.99.44-2.82,1.57-1.81.21.21.38.44.53.68Z"/>
  <path class="cls-2" d="M154.89,226.5c.17.8-.6,1.56-1.4,1.39-.65-.21-1.1-.78-1.78-.97-3.02-1.04-6.69.16-8.55,2.74-.92,1.2-1.54,2.59-2.15,3.96-.26.6-1.04.83-1.61.55-1.68-.83.47-3.49.96-4.64,1.81-3.31,5.4-5.45,9.19-5.37,1.54-.04,4.88.67,5.34,2.34Z"/>
  <path class="cls-2" d="M270.26,222.11c.84,1.31-1.12,2.63-2,1.32-2.31-4.11-5.62-7.46-10.5-8.05-.89-.1-1.78-.14-2.67-.05-.44.11-.93-.09-1.17-.47-.39-.55-.13-1.4.5-1.63,4.67-1.1,9.8,1.23,12.93,4.7,1.1,1.3,1.99,2.76,2.92,4.18Z"/>
  <path class="cls-2" d="M195.73,168.98c.71,1.64.43,5.53-.33,7.15-.2.36-.57.5-.95.59-.54.14-1.1.19-1.64.3-1.25.24-2.49.48-3.73.74-3.6.81-7.13,1.94-10.46,3.51-5.31,2.52-9.36,6.9-13.23,11.19-.24.54-.7,1.01-1.06,1.49-.48.59-.9,1.22-1.38,1.81-.37.39-1.02,1.5-1.64,1.15-.99-.69.87-4.04,1.29-4.93,2.24-4.58,5.29-8.64,9.16-11.94,2.06-1.74,4.16-3.39,6.46-4.77,2.92-1.73,6.02-3.18,9.18-4.43,1.71-.68,3.48-1.2,5.26-1.69.66-.18,1.31-.35,1.98-.48.4-.11.88-.07,1.11.32Z"/>
  <path class="cls-2" d="M242.57,194.95c.39.77,2.1,3.1.53,3.31-1.01-.16-1.46-1.28-1.99-2.03-.72-1.18-1.57-2.35-2.57-3.29-3.68-3.76-8.11-6.65-12.63-9.29-4.3-2.52-9.15-4.1-14.04-4.92-1.12-.13-2.24-.24-3.37-.26-.52.08-1.12-.08-1.23-.67-.25-1.24-.29-2.52-.49-3.78-.13-.82-.25-1.65-.3-2.48-.1-1.05.14-1.66,1.32-1.64,2.53.01,4.99.6,7.41,1.25,2.57.7,5.08,1.62,7.34,2.99,2.91,1.68,5.67,3.67,8.19,5.9,2.14,1.81,4,3.94,5.73,6.14,1.53,1.99,3.1,3.96,4.46,6.07.56.9,1.08,1.85,1.62,2.73Z"/>
  <path class="cls-2" d="M198.75,249.11c.02,1.58-.78,3.02-1.75,4.23-.16.21-.3.39-.43.51-.06.05-.11.11-.17.17h0c-.17.2-.34.39-.52.58,0,0,0,0,0,0-.53.57-1.13,1.08-1.91.82-1.45-.61-.53-2.21-.14-3.39,0,0,0,0,0,0,.02-.07.04-.15.07-.22.02-.08.04-.16.06-.24.4-1.18.91-2.47,2.01-3.17.61-.31,1.31-.68,1.99-.43.33.13.54.36.66.65.09.15.14.31.14.49Z"/>
  <path class="cls-2" d="M212.1,247.82c1.04,1.54,1.83,4.37.72,6.02-.37.52-1.1.9-1.71.6-.62-.4-.84-1.18-1.18-1.81-.6-1.36-1.34-2.84-1.08-4.37.13-.71.79-1.32,1.53-1.23.69-.17,1.38.19,1.72.79Z"/>
  <g>
    <g>
      <path class="cls-7" d="M85.24,378.57c0,14.7-14.2,21.88-28.82,21.88-1.65,0-3.72-.08-5.86-.25,0,6.44.08,12.72.25,18.58-5.86.83-11.73.83-17.51,0,.41-19.32.41-36.42,0-56.81,8.09-1.16,14.86-2.06,22.38-2.06,8.09,0,29.56.91,29.56,18.66ZM66.49,379.4c0-12.39-4.87-15.94-11.4-15.94-1.16,0-2.73.17-4.29.33-.25,10.82-.33,21.97-.33,32.7,1.49.25,2.89.33,4.05.33,6.52,0,11.97-4.21,11.97-17.42Z"/>
      <path class="cls-7" d="M140.29,418.54c-7.27.83-11.89.83-20.23,0-1.16-4.29-2.56-9.33-4.05-14.7-6.77-.17-13.87-.17-20.56.08l-4.05,14.7c-3.96.83-7.6.74-11.56-.08,7.27-16.52,15.52-38.56,22.87-57.8,6.52-.83,10.49-.83,17.01,0,6.44,19.24,12.55,38.48,20.56,57.8ZM114.78,399.3c-3.06-10.74-6.44-22.21-9.33-31.13-2.97,9.91-5.95,20.81-8.75,31.13,5.95.08,12.14.08,18.08,0Z"/>
      <path class="cls-7" d="M199.66,378.57c0,14.7-14.2,21.88-28.82,21.88-1.65,0-3.72-.08-5.86-.25,0,6.44.08,12.72.25,18.58-5.86.83-11.73.83-17.51,0,.41-19.32.41-36.42,0-56.81,8.09-1.16,14.86-2.06,22.38-2.06,8.09,0,29.56.91,29.56,18.66ZM180.92,379.4c0-12.39-4.87-15.94-11.4-15.94-1.16,0-2.73.17-4.29.33-.25,10.82-.33,21.97-.33,32.7,1.49.25,2.89.33,4.05.33,6.52,0,11.97-4.21,11.97-17.42Z"/>
      <path class="cls-7" d="M208,394.01c0-11.15,0-22.13-.33-33.28,5.86-.74,11.81-.74,17.67,0-.33,11.15-.33,22.05-.33,33.2,0,14.37,2.97,21.64,10.32,21.64s10.24-7.27,10.24-21.55c0-11.15,0-22.13-.33-33.28,5.86-.74,11.81-.74,17.67,0-.33,11.15-.33,22.05-.33,33.2,0,16.02-9.99,26.09-27.33,26.09s-27.25-10.07-27.25-26.01Z"/>
      <path class="cls-7" d="M289.34,364.7c-5.62,3.22-13.3,6.28-18.5,9.25-.17-4.54,0-9.41.83-13.54,7.18.41,14.29.66,26.18.58,10.4,0,19.49-.17,26.67-.58.74,4.13.99,9,.74,13.54-5.45-2.97-13.3-6.61-18.5-9.25-.41,17.67-.33,36.42.08,54.09-5.78.83-11.73.83-17.59,0,.41-17.75.5-36.5.08-54.09Z"/>
    </g>
    <g>
      <path class="cls-7" d="M108.3,440.33c-1.77-.3-5.39-.99-6.29,1.04-.22.57-.02,1.02.06,1.62.1,1.14.18,2.28.14,3.42-.06,3.01-.3,6.01-.47,9.02.03,1.38-.64,3.2.66,4.19,1.1.76,2.36-.07,3.24-.79,1.75-1.34,3.43-2.81,4.76-4.57,4.23-5.27,6.42-11.91-2.09-13.93ZM110.39,448.66c-1.34,2.7-3.28,5.11-5.63,7,.21-4.01.61-8.04.35-12.06-.01-.19-.03-.39-.05-.58,2.04.05,4.59.33,5.86,2.12.54,1.2-.09,2.4-.53,3.52Z"/>
      <path class="cls-7" d="M130.66,439.69c-1.61-.08-3.8-.83-5.14.31-2.07,1.89-1.37,6.33-1.55,8.94-.04,2.11-.25,4.21-.39,6.32-.23,1.62-.04,3.64,1.87,4.06,1.36.22,2.73-.22,4.01-.64,1.12-.28,2.23-1.11,1.67-2.39-1.02-1.87-3.07,0-4.58.03.11-1.87.29-3.74.39-5.62.69-.11,1.45-.45,2.04-.66,1.18-.48,3.79-.99,2.91-2.77-.85-1.14-2.5-.49-3.62-.16-.36.14-.8.26-1.25.4,0-1.72-.07-3.45.41-5.11,1.57-.04,4.02.52,5.21-.7.78-1.31-.92-1.98-1.97-2.03Z"/>
      <path class="cls-7" d="M151.4,451.35c-1.8.29-3.48,1.21-5.3,1.32-.22-4.01.11-8.05,0-12.05-.17-1.15-1.76-1.57-2.41-.57-.46.7-.45,1.57-.52,2.37-.15,3.27-.21,6.55-.12,9.83,0,1.14.06,2.52,1.23,3.1,1.77.8,3.76.12,5.5-.42,1.27-.52,3.66-.39,3.38-2.36-.15-.8-.96-1.37-1.76-1.21Z"/>
      <path class="cls-7" d="M164.63,438.74c-.05-1.19-1.05-2.39-2.23-1.52-.92.84-.53,2.27-.47,3.37.28,2.43.57,4.85.77,7.29.1,1.16.25,2.32.4,3.47.05.38.31.74.62.96.66.48,1.65.31,2.11-.37.59-.94.02-2.1.01-3.13-.32-3.37-.62-6.74-1.2-10.07Z"/>
      <path class="cls-7" d="M184.88,434.22c-.53,5.13-.61,10.33-1.87,15.37-.81-2.64-1.49-5.32-2.05-8.03-.4-1.26-.4-3.6-1.71-4.21-.72-.28-1.37.4-1.48,1.07-.19,1.25.2,2.52.35,3.77.52,3.22,1.42,6.36,2.35,9.48.49,1.24.59,3.14,2.11,3.53,2.69.57,3.19-4.56,3.7-6.4.93-4.39,1.16-8.86,1.49-13.31.73-2.57-2.19-3.58-2.89-1.27Z"/>
      <path class="cls-7" d="M203.78,442.18c-.3.09-.61.18-.91.28,0-1.4,0-2.8.02-4.2,1.24.12,2.65.51,3.8-.15.91-.56.61-1.79-.29-2.16-.94-.42-2-.48-3.01-.66-1.97-.5-3.15-.16-3.46,2.03-.16,3.25-.02,6.53-.12,9.79-.04,1.86-.17,4.02-.33,5.91-.15,1.08-.2,2.33,1.02,2.79,1.09.37,2.12-.46,3.05-.94,1.03-.55,2.08-1.08,3.13-1.59,1.77-.91.53-3.53-1.3-2.73-.94.44-1.86.92-2.78,1.4.16-2.1.22-4.2.25-6.3.74-.29,1.49-.57,2.24-.85,1.09-.43,4.12-1.25,2.57-2.82-1.17-.65-2.66-.06-3.88.2Z"/>
      <path class="cls-7" d="M233.76,449.03c-.31-.23-.61-.47-.91-.72-2.02-1.77-4.3-3.47-6.7-4.73,2.13-1.46,4.04-3.78,4.09-6.47.24-2.07-.8-4.48-3.13-4.61-2.85-.16-5,2.38-5.86,4.86-.55,1.69-.69,3.48-.75,5.24-.14,3.42-.08,6.85.08,10.27-.29,1.57,1.78,2.46,2.7,1.15.25-.35.31-.75.24-1.16-.03-.49-.02-.99-.05-1.48-.09-1.93-.06-3.86-.03-5.78,2.01.93,3.9,2.12,5.66,3.47.97.81,1.91,1.65,2.92,2.41.66.5,1.64.29,2.11-.36.49-.69.29-1.62-.37-2.11ZM223.58,441.56c.14-1.7.35-3.52,1.46-4.88.42-.53,1.27-1.36,1.99-1.08.37.71.22,1.86-.04,2.6-.73,1.46-1.93,2.69-3.41,3.37Z"/>
      <path class="cls-7" d="M250.14,429.16c-.85-.07-1.69.67-1.6,1.55.04.28,0,.55-.04.82-.46,2.28-.83,4.58-1.27,6.87-1.48-1.64-3.03-3.22-4.78-4.58-.29-.25-.55-.59-.93-.71-.95-.36-2.07.42-1.98,1.45.15,1.19,1.39,1.77,2.16,2.55,1.68,1.47,3.1,3.2,4.69,4.77.03.03.06.06.1.08-.9,4.58-2.01,9.13-2.59,13.77-.18,1.37-.3,2.75-.5,4.12-.25.84.23,1.79,1.11,1.98.78.17,1.66-.33,1.81-1.14.18-.99.27-2.01.39-3.01.15-1.29.32-2.57.51-3.86.6-3.68,1.51-7.31,2.15-10.99.73-3.29,1.23-6.62,1.66-9.96.11-.58.15-1.17.36-1.72.36-.9-.32-1.91-1.26-1.99Z"/>
    </g>
  </g>
  <path class="cls-9" d="M190.68,303.75l26.37,2.41-4.97,35.62s-4.49,13.69-7.17,13.99-6.28-9.27-6.28-9.27l-7.95-42.74Z"/>
  <path class="cls-2" d="M200.6,220.25c0-.56-.01-1.13,0-1.69-.04-1.16-.08-2.32-.13-3.48-.15-2.17-.23-4.35-.59-6.51-.23-1.11-.52-2.2-.85-3.28-.49-1.28-1.08-2.52-1.81-3.73-1.89-3.38-4.15-5.57-7.74-7.1-1.91-.83-4.04-.82-6.07-.57-2.42.33-4.72,1.01-6.85,2.19-3.72,2.18-5.73,6.22-7.37,10.04-1.4,3.28-2.36,6.83-3,10.37,5.07,1.59,10.29,2.61,15.54,3.37,3.62.43,7.27.79,10.92.78,2.66.02,5.32-.13,7.97-.38ZM200.91,226.96c0-.12,0-.23-.02-.32-.02-.5-.04-.99-.06-1.49-.07-.83-.13-1.67-.16-2.5-4.29.39-8.59.52-12.9.21-.07.6-.16,1.19-.29,1.78-.66,3.24-2.97,10.46-7.37,7.26-1.71-1.43-2.05-3.7-2.04-5.81-.06-1.45.22-2.87.37-4.3-4.28-.68-8.51-1.64-12.65-2.91-.08.59-.16,1.19-.22,1.78-.65,5.72-.77,11.5-.59,17.25.03.63.06,1.25.07,1.88.02.22.02.46-.03.67,4.39,2.44,9,4.99,14.07,5.28,8.12.1,10.74-8.6,15.01-13.92,1.88-2.61,4.27-4.29,6.81-4.86ZM229.62,214.95c2.33-.76,4.63-1.62,6.8-2.74-1.77-4.72-4.18-9.2-7.2-13.22-2.93-3.72-7.29-6.31-11.93-7.21-5.7-.7-10.73,3.67-12.11,9.02-2.15,6.08-2.14,12.64-2.22,19.01,0,.06,0,.12,0,.18,2.73-.32,5.45-.74,8.16-1.19,2.72-.4,5.45-.71,8.15-1.2,3.5-.69,6.96-1.56,10.35-2.66ZM240.91,233.87c-.02-.1-.03-.19-.03-.29-.67-4.66-1.28-9.35-2.26-13.96-.39-1.77-.87-3.52-1.43-5.24-.1.06-.2.12-.3.18-1.35.78-2.82,1.35-4.29,1.87-2.05.75-4.14,1.41-6.25,1.98.03.57.03,1.14.04,1.71.09,2.51-.07,10.48-4.06,9.45-.58-.14-1.07-.51-1.51-.9-.66-.59-1.26-1.25-1.71-2.01-1.23-1.84-1.67-4.04-2.09-6.18,0-.03,0-.05,0-.08-1.97.29-3.95.54-5.92.83-2.68.46-5.38.86-8.09,1.17.04,1.2.1,2.41.13,3.62.01.21.03.47.03.73,2.31.09,4.65,1.11,6.77,3.2,3.74,3.27,5.87,7.98,9.79,11.06,4.07,3.48,10.21,2.14,14.05-1.04,2.39-1.78,4.73-3.95,7.13-6.1ZM264.25,240.1c.7-5.77-2.1-14.86-9.52-12.49-7.61,2.56-12.92,9.29-19.17,14.03-5.24,4.62-13.83,5.49-18.77-.01-5.87-5.91-11.86-19.24-20.65-8.51-3.88,4.66-5.96,11.54-11.95,13.98-5.75,2.51-11.84-.15-17.08-2.72-3.92-1.92-7.44-4.74-11.64-6.01-8.07-2.28-11.19,5.01-9.61,11.87,1.83,6.94,6.51,12.57,10.81,18.12,2.83,3.52,6.77,5.87,10.31,8.58,3.63,2.81,6.87,6.13,10.95,8.34,2.96,1.91,6.14,3.48,9.16,5.28-.35-1.89-.74-3.77-1.15-5.64-.69-3.91-1.83-7.74-3.88-11.16-3.99-6.63-9.84-11.84-15.77-16.69-3.15-2.43-6.48-4.58-9.77-6.8-1.26-.83.04-2.9,1.34-1.99,12.19,8.14,26.58,18.52,29.91,33.65.82,3.53,1.49,7.09,2.1,10.66.04.11.06.22.06.33.97,5.75,1.78,11.53,2.76,17.27,1.71,9.47,4.03,18.82,5.61,28.32,1.03,5.51,1.89,11.54,5.56,15.99,3.69,1.42,6.85-14.79,7.39-17.58,3.97-24.89,5.7-51.5,20.29-72.96,6.25-8.69,14.02-16.17,21.47-23.82,1.26-1.73,3.58-.58,2.18,1.17-5.14,5.08-10.04,10.39-14.98,15.66-8.65,9.23-14.29,20.69-17.95,32.74,9-6.18,18.11-12.39,25.15-20.87,6.26-7.26,15.28-19.32,16.85-28.73ZM256.01,224.9c8.36-.95,11.55,9.07,10.59,15.84-1.33,7.5-5.87,13.96-9.96,20.23-9.01,13.34-21.58,23.77-35.3,31.93-.9,3.3-1.67,6.64-2.31,9.97-1.18,7.1-2.59,14.17-3.47,21.33-.96,5.77-3.79,35.46-12.27,32.63-6.69-3.84-7.58-22.1-9.54-29.51-2.12-9.41-3.95-18.88-5.27-28.43-.25-1.73-.52-3.45-.81-5.17-4.1-2.63-8.49-4.74-12.58-7.4-3.32-1.97-6.03-4.75-9.05-7.12-4.99-3.62-10.15-7.14-13.56-12.4-4-5.08-7.83-10.6-9.15-17.03-1.39-8.07,2.91-15.92,12.01-13.92,2.67.51,4.98,1.92,7.3,3.27-.02-.59-.05-1.17-.07-1.76-.12-3.07-.05-6.15.07-9.22.24-7.99,1.34-16.09,4.56-23.47,1.84-4.24,4.28-8.61,8.5-10.86,3.7-1.91,8.01-2.86,12.16-2.32,1.99.34,3.84,1.26,5.54,2.34,2.81,1.69,4.78,4.42,6.3,7.27.74,1.33,1.36,2.73,1.83,4.17,1.05-6.12,3.43-11.96,8.99-14.62,3.83-1.98,8.35-1.56,12.12.35,4.83,1.99,8.47,5.86,11.07,10.3,3.89,6.16,6.44,13.08,7.76,20.24.54,3.04.98,6.1,1.43,9.16.06.44.13.87.19,1.29,3.92-3.34,8.08-6.28,12.94-7.08Z"/>
</svg>