<?xml version="1.0" encoding="UTF-8"?>
<svg id="CRUCES" xmlns="http://www.w3.org/2000/svg" viewBox="0 0 136.24 136.88">
  <defs>
    <style>
      .cls-1 {
        fill: #ffc62d;
      }
    </style>
  </defs>
  <path class="cls-1" d="M136.16,68.76c-.34-8.49-1.16-17.09-4.59-24.96-4.84-11.41-11.28-22.8-21.2-30.51-8.71-5.94-18.99-9.57-29.26-11.7-10.43-2.2-21.51-2.38-31.66,1.2-14.19,5.71-26.83,15.56-35.86,27.9C1.77,47.32-4.53,69.81,3.8,89.28c3.34,7.2,5.48,15.44,11.83,20.74,9.11,8.84,18.64,17.89,30.51,22.86,6.02,2.28,12.51,3.19,18.88,3.93,8.58.36,17.4-.55,25.45-3.65,12.02-5.09,22.75-13.09,31.83-22.41,10.21-11.05,14.58-27.17,13.85-41.99ZM121.79,104.05c-7.78,9.4-17.64,16.84-28.41,22.56-7.8,4.26-16.78,5.46-25.56,5.58-9.08-.54-18.38-2.16-26.29-6.86-9.43-6.04-17.94-13.65-25.6-21.9-2.87-3.89-4.79-8.43-6.26-13.01-.79-2.85-1.49-5.92-2.84-8.59-.23-1.12-.49-2.22-.82-3.31-.39-1.33-.74-2.67-1.06-4.01C2.67,45.85,23.69,19.03,49.41,7.88c18.6-7.13,41.66-1.13,58.03,9.12,11.7,9.28,21.71,27.85,23.32,42.69,2.02,15.21.17,31.63-8.97,44.38Z"/>
  <path class="cls-1" d="M86.08,52.94c3.82.35,4.82-5.26,1.41-6.64-2.65-1.08-5.03,1.78-4.79,4.31.13,1.7,2.04,2.07,3.38,2.33Z"/>
  <path class="cls-1" d="M101,60.51c-.06-3.12-.25-6.24-.56-9.35-.29-3-.85-5.98-2.32-8.41-2.02-5.66-7.68-7.67-13.69-7.64-2.24-.03-4.47-.1-6.7-.21-.06,0-.12,0-.18,0-.03,0-.06,0-.1,0-2.45-.12-4.91-.27-7.36-.44-7.57-.23-15.45-1.04-22.81,1.14-6.75,2.75-9.58,10.37-9.73,17.2-.57,11.29-.72,22.63.68,33.86,1.36,11.27,9.25,13.46,19.26,13.42,6.54.18,13.06-.32,19.59-.69,7.31-.67,16.7-.36,21.48-6.89,4.65-7.29,3.55-16.52,3.07-24.75-.19-2.42-.39-4.84-.62-7.26ZM75.41,39.76c1.24.02,2.48.01,3.73,0,1.98.14,3.94.38,5.87.85,4.67,1.19,7.22,2.22,8.73,4.17,1.14,3,1.23,6.9,1.75,9.62.49,3.77.91,7.54,1.24,11.33-.02.31-.03.62-.05.94-.29,3.91-1.1,7.77-1.12,11.7.3,11.6-4.47,12.17-14.59,13.22-6.65.72-13.6,1.52-20.34,1.83-4.25.34-8.75.43-12.6-1.67-3.56-2.76-3.66-7.81-4.35-11.91-.85-7.04-1.58-14.19-1.51-21.37.3-3.89.4-7.94,1.95-11.58.91-1.7,1.98-3.41,3.51-4.62,1.28-.77,2.65-1.32,4.06-1.71.62.01,1.29-.16,1.88-.33,1.04-.22,2.09-.38,3.15-.52,1.43-.12,2.87-.18,4.28-.24,1.51-.03,3.03-.03,4.54-.03,3.29.2,6.58.52,9.89.32Z"/>
  <path class="cls-1" d="M54.12,61.95c-1.06,3-.81,6.2-.42,9.3.81,6.98,5.6,11.89,12.72,12.22,8.54.59,16.58-4.5,19.36-12.66,2.27-5.79-1.21-12.18-5.82-15.74-.09-.08-.19-.15-.28-.23-.83-.75-1.75-1.4-2.75-1.9-2.83-1.62-6.06-2.52-9.33-2.24-6.19.71-11.81,5.19-13.49,11.24ZM78.03,59.64c.84,1.02,1.5,2.18,1.97,3.38.74,7.1-4.83,15-12.29,15.11-1.14-.07-2.37-.11-3.35-.76-.88-.6-1.8-1.17-2.58-1.91-.73-.79-1.12-1.79-1.51-2.76-1.55-3.71-1.35-6.9.59-10.42,2.2-4.19,7.39-6.54,12.04-5.83.31.05.61.13.91.23,1.48.75,2.95,1.77,4.23,2.97Z"/>
</svg>