<?xml version="1.0" encoding="UTF-8"?>
<svg id="CRUCES" xmlns="http://www.w3.org/2000/svg" viewBox="0 0 1381.34 1080">
  <defs>
    <style>
      .cls-1 {
        fill: #0a4635;
      }

      .cls-2 {
        fill: #ffc62d;
      }
    </style>
  </defs>
  <polygon class="cls-2" points="1104.39 855.43 1088.92 861.86 1090.62 872.08 1103.47 874.44 1121.31 870.38 1127.6 860.54 1117.64 855.43 1104.39 855.43"/>
  <polygon class="cls-2" points="1048.53 711.25 1023.59 715.78 1005.02 717.05 998.62 735.99 988.61 745.66 967.54 752.61 951.5 770.2 944.21 790.41 970.25 809.63 1005.02 819.3 1020.11 825.87 1037.13 840.37 1057.81 846.75 1083.95 839.4 1108.06 812.87 1122.56 778.31 1123.91 762.86 1111.15 762.47 1092.98 744.88 1061.86 754.55 1052.2 746.6 1055.29 723.04 1048.53 711.25"/>
  <polygon class="cls-2" points="1073.41 675.65 1058.44 697.32 1052.22 709.58 1056.84 725.36 1051.59 750.21 1063.85 754.99 1092.21 743.84 1109.42 759.93 1125.1 760.95 1124.24 727.81 1114.68 699.17 1092.69 681.7 1073.41 675.65"/>
  <polygon class="cls-2" points="950.9 412.11 947.68 432.49 949.29 451.14 947.68 469.35 933.37 488.97 930.34 504.91 948.11 533.96 947.25 545.67 932.17 567.29 932.17 579.16 936.97 591.34 948.37 606.35 944.79 616.35 930.34 638.5 921.69 652.8 924.78 678.52 917.88 691.79 898.82 701.44 876.43 713.31 869.52 729.73 859.81 741.64 853.78 747.59 865.26 762.6 882.15 773.63 902.34 773.63 916.92 772.13 936.4 783.08 943.12 789.49 949.56 771.65 962.42 755.69 985.52 745.21 995.76 738.14 1003.79 718.88 1024.59 715.98 1043.16 715.98 1056.26 699.38 1070.35 673.99 1048.4 667.32 1036.2 653.03 1048.4 641.36 1068.41 645.62 1085.93 654.94 1108.43 661.61 1122 675.42 1132.96 695.43 1143.44 699.38 1157.73 686.62 1157.73 669.96 1148.21 660.42 1130.82 656.37 1124 633.5 1111.76 619.45 1093.18 608.97 1091.99 596.58 1085.93 579.16 1066.75 567.76 1062.7 557.04 1073.18 542.04 1077.23 528.46 1069.13 525.36 1045.07 531.08 1027.44 534.65 1021.01 522.98 1033.97 513.22 1060.79 501.78 1062.22 487.25 1052.69 479.16 1030.06 475.82 1029.35 467.72 1042.21 447 1043.88 430.57 1025.06 418.89 1025.06 401.27 1007.67 397.46 985.05 407.04 957.89 412.46 950.9 412.11"/>
  <g>
    <path class="cls-1" d="M419.63,602.67c-15.21.03-27.69-9.94-40.21-17.31-14.74-8.23-31.48,3.12-45.24,8.74-9.8,4.53-20.28,7.86-31.18,7.54-10.91.45-21.94-3.2-30.51-9.94-9.01-7.38-11.03-18.52-9.57-29.57,1.83-9.97,6.68-19.23,12.28-27.59,4.92-7.89,11.56-15.13,14.02-24.26.55-3.29.96-6.79.44-9.94-.64-3.18-1.82-5.32-3.16-8.11-7.25-12.61-13.57-23.37-9.96-38.52,1.03-6.47,7.18-16.42,3.29-22.25.05.06.09.11.14.17.06.1.13.21.19.31-1.05-1.71-2.92-2.57-4.71-3.29-5.18-1.76-10.71-2-16.08-2.85-10.19-1.72-20.38-5.78-27.88-13.04-6.16-5.97-9.71-13.99-12.25-22.07-4.84-13.78,1.25-30.15,13.21-38.25,6.51-4.77,13.78-8.3,20.5-12.72,7.42-5.15,12.52-12.78,16.79-20.6,3.26-6.07,5.44-12.7,9.12-18.54,6.6-11.25,20.62-16.72,33.24-14.15,9.52,1.27,18.42,6.3,28.03,6.49,8.76-.79,14.62-7.94,21.79-12.18,5.94-3.81,13.05-6,20.11-6.16,14.47.12,25.69,10.4,37.68,17.1,8.48,5.07,16.93.41,24.29-4.22,15.33-10.5,32.2-19.92,51.2-13.68,25.55,6.86,35.45,29.01,64.18,11.94,19.99-12.04,39.02-26.65,62.18-32.06,4.73-1.33,9.67-1.91,14.56-1.32,13.34,1.45,24.04,8.89,33.3,18.13,6.1,5.46,11.32,13.56,20.1,14.56,7.11-1.24,11.77-12.36,14.25-18.42,5.82-15.9,9.43-33.32,20.4-46.69,3.87-4.01,9.12-7.05,14.59-8.19,3.38-.47,7.17-.67,10.27.91,6.05,3.84,10.01,12.29,11.5,19.13,1.6,7.99-.1,16.13-2.12,23.88-2.85,9.93-5.95,19.79-8.11,29.9-1.63,7.13-6.99,33.54,4.97,33.31.5.01.99.05,1.47-.12,4.31-2.94,6.77-7.45,8.59-12.18,2.51-6.47,4.15-13.24,6.56-19.74,2.18-5.8,5.72-12.87,12.84-12.9,6.69.49,9.73,7.87,10.98,13.59,2.31,12.2-3.72,23.94-3.8,36.05.12,1.94.35,3.85.67,5.77.47,1.84.59,4.08,2.24,5.3,11.8,7.67,18.31-17.46,20.71-25.2,2.52-8.16,4.74-16.39,6.64-24.71,1.42-6.14,3.13-12.42,7.17-17.4,4.28-5.25,10.03-9.47,16.41-11.77,6.43-2.02,14.06.45,17.71,6.21,2.43,3.54,3.51,7.79,4.62,11.89,1.2,4.56,2.17,9.18,2.71,13.87,1.17,12.41-.3,24.98-3.22,37.06-1.78,8.58-5.17,17.43-4.52,26.27.52,3.65.22,8.37,3.58,10.71,2.38,1.49,4.34,2.46,6.89,2.33,3.68-.76,6.9-2.85,10.08-4.76,9.54-6.23,17.9-14.17,27.82-19.83,6.67-3,16.16-3.91,21.88,1.36,6.27,6.15,9.27,16.72,9.56,25.31,0,8.09-.82,16.16-.43,24.25.14,5.89,1.5,12.18,6.31,16.05,2.79,2.06,6.47,2.27,9.8,2.69,7.76.56,15.13-2.33,22.26-5.02,11.35-3.94,32.07-15.53,43.01-9.2,3.97,3.02,6.05,8.33,6.11,13.22.31,3.44-2.35,7.17-.47,10.37,3.6,2.6,8.26,3.12,12.2,5.07,3.59,1.87,6.67,4.99,8.16,8.77,2.02,5.8-.45,12.1-3.27,17.23-4.23,7-11.21,12.2-14.42,19.83-.22.94.01,1.95.77,2.58,1.44,1.32,3.21,2.24,5.13,2.6,6.98,1.65,14.84.1,21.01,4.37,6.44,3.78,8.74,12.34,7.05,19.3-1.29,3.89-4.51,6.69-7.53,9.28-4.77,4.18-10.69,6.61-16.47,9.02-5.86,2.51-12.35,4.43-17,9-.81.58-.27,1.61-.12,2.36.06.16.12.32.01.28,2.45,5.9,21.3-.26,26.3-1.59,6.85-1.96,13.69-5.6,20.98-4.99,8.47,1.7,10.14,7.48,8.32,15.23-1.04,4.92-4.4,8.89-7.57,12.64-1.83,2.6-8.64,8.59-7.14,11.71,1.85,4.02,4.53,7.68,8.15,10.28,1.89,1.51,5.96,2.77,4.76,5.85-1.43,2.85-4.88.81-7.04.04-6.74-2.53-11.79-8.63-14.03-15.36-1.98-12.1,17.13-19.46,15.39-31.59-2.9-1.99-6.63-.13-9.69.59-6.76,2.26-13.5,4.62-20.49,6.08-8.41,1.88-21.04,4.09-25.21-5.75-5.08-11.42,9.07-17.09,17.41-20.59,8.14-3.22,17.46-6.76,22.86-13.88,1.37-2.48.42-5.69-.43-8.21-1.14-2.27-3.58-3.73-5.95-4.41-7.52-1.33-16.1-.21-22.51-5.08-13.48-10.07,3.72-23.65,9.91-32.61,1.77-2.57,3.34-6.41,3.59-9.27.25-2.29-1.26-4-2.82-5.47-4.26-2.93-9.82-3.22-14.12-6.18-3.67-2.18-5.13-6.67-4.85-10.75.3-2.4.99-4.64,1.17-7.04-.27-2.32-1.06-5.34-3.18-6.56-4.26-.62-8.53.36-12.57,1.67-11.78,3.71-22.81,9.51-34.74,12.77-7.84,2.06-16.46,2.11-24.06-.88-7.08-3.16-11.46-10.85-12.45-18.34-1.48-10.55.08-21.19-.14-31.77-.55-5.9-2.43-12.03-5.83-16.88-2.37-3.3-6.72-2.89-10.1-2.45-1.72.34-3.38.85-4.88,1.77-6.43,4.09-12.41,8.82-18.45,13.47-5.37,4.1-11.03,7.95-17.35,10.42-6.74,2.71-14.84-.43-19.38-5.76-3.23-4.44-3.53-10.21-3.85-15.51-.24-12.45,5.01-24.19,6.75-36.4,1.96-12.1,2.2-24.6-1.15-36.48-1.46-4.84-2.18-11.42-7.53-13.47-5.35-1.61-10.07,2.48-14.07,5.5-6.19,4.89-7.97,12.8-9.61,20.11-1.94,8.46-4.33,16.81-6.89,25.11-2.75,8.75-5.34,18.11-11.95,24.82-6.14,7.05-17.91,7.18-23.36-.75-2.68-4.63-3.08-10.3-3.29-15.55-.32-12.04,9.54-30.56.53-40.52-4.39,1.62-7.17,14.95-8.84,19.42-1.07,3.34-2.2,6.69-3.54,9.93-3.32,7.41-9.55,17.28-18.96,15.33-19.08-2.6-13.12-32.28-10.02-45.29,1.86-8.32,4.22-16.51,6.73-24.65,2.1-7.51,4.29-15.39,2.93-23.15-.73-4.17-2.95-8.36-5.36-11.7-.86-.98-1.69-2.37-3.14-2.35-.82-.05-1.62-.08-1.92-.11-4.08-.07-6.99,2.19-10.16,4.01-8.91,8.31-12.54,21.91-16.56,33.09-4.08,12.81-12.33,40.87-30.46,35.82-9.5-2.41-15.43-10.73-22.29-17.07-9.4-9.41-22.47-17.32-36.24-14.57-14.29,3.16-27.6,9.5-39.91,17.31-13.1,7.81-25.4,18.38-40.67,21.51-7.83,1.29-16.1.24-23.2-3.37-12.73-6.45-24.8-15.81-39.63-16.32-15.24-.33-27.45,10.23-39.93,17.37-12.44,7.35-22.47,5.74-33.9-2.36-9.35-5.84-19.4-13.82-31.08-11.89-21.7,4.09-24.68,25.03-51.63,15.61-7.34-2.11-14.72-4.89-22.46-4.67-6.95.51-13.89,3.87-17.76,9.79-3.61,5.31-5.66,11.45-8.56,17.14-4.49,8.79-9.99,17.33-17.75,23.56-9.41,7.54-21.94,11.22-29.57,20.92-4.48,6.77-6.53,15.56-3.59,23.34,2.55,8.12,6.4,16.26,13.5,21.35,4.97,3.34,10.56,5.79,16.37,7.23,9.14,2.12,19.78,1.11,27.42,7.39,10.99,9.8.13,23.92-.59,35.56-2.18,17.04,16.03,28.92,14.13,45.87-.12,9.64-5.62,17.81-10.87,25.47-6.99,10.34-14.77,21.09-16.32,33.79-.8,10.03,2.09,18.45,11.5,23.3,4.05,2.09,8.29,3.87,12.8,4.63,5.04.74,10.21.51,15.27.1,15.99-2.04,29.51-11.89,44.7-16.58,13.72-4.62,23.92-2.22,35.5,5.94,15.25,10.05,28.17,16.39,46.31,8.51,6.87-3.28,13.21-7.5,19.27-12.08,6.75-4.92,13.14-10.54,20.79-14.07,14.93-7.28,24.57-6.33,38.89,1.81,10.1,5.99,18.17,14.86,28.5,20.48,9.12,4.36,19.85,3.75,29.62,2.33,8.59-1.71,16.69-5.22,25.25-7.06,6.64-1.55,13.66-2.38,20.3-.42,7.63,2.43,14.82,7.14,19.72,13.48.2.37.23.82.07,1.19-.32.71-1.32.91-1.87.37-1.6-1.19-3.46-2.12-4.97-2.95-4.17-2.22-8.57-3.97-13.14-5.16-15.36-3.38-29.66,5.91-44.44,8.43-8.36,1.42-17.04,1.55-25.39-.06-21.02-4.4-32.98-28.81-55.4-29.48-15.57,1.71-26.94,13.55-39.28,21.96-10.46,7.31-21.88,13.08-34.95,12.71Z"/>
    <path class="cls-1" d="M1097.29,827.51c-1.6-1.06-2.02-3.3-.96-4.88,1.91-3.1,3.66-6.28,5.37-9.5,3.49-6.17,7.06-13,9.6-19.37,12.17-27.98,10.85-58.31-.11-86.39-3.28-7.4-8.71-13.97-15.23-18.75-10.27-6.42-22.06-9.9-33.5-13.64-9.84-3.92-21.91-6.94-27.21-17.02-2.8-5.18-.6-11.67,3.17-15.76,3.44-3.69,8.61-5.01,13.46-5.48,12.74-.91,22.07,9.24,33.07,13.85,7.73,3.16,16.16,4.02,24.02,6.77,15.11,4.74,18.5,18.75,24.78,31.37,2.74,4.81,8.19,12.54,13.27,5.91,3.73-5.63,5.98-12.14,6.73-18.82.79-4.82-2.37-9.65-7.12-10.81-6.69-1.99-15.16-.83-19.89-6.92-4.95-6.88-4.51-15.84-7.21-23.57-3.8-10.31-10.68-11.66-20.17-14.67-6.18-1.61-10.22-7.34-10.79-13.54-1.54-12.56,1.63-21.75-13.07-27.14-6.15-2.52-10.31-6.37-11.92-12.98-.19-.46-.45-1.27.26-1.33,1.87.71,3.7,1.55,5.58,2.29,2.98,1.95,6.13,3.58,9.45,4.89,4.96,1.91,9.83,4.55,12.73,9.18,7.49,10.3,1.61,23.72,7.4,29.65,4.24,2.49,9.36,2.99,13.76,5.2,7.19,2.7,11.88,9.22,14.49,16.21,1.72,4.73,2.07,9.82,3.31,14.68.98,3.36,1.97,7.47,5.98,8.15,7.07,1.22,15.24,1.38,20.42,7.05,4.07,3.92,5.55,9.93,4.62,15.41-.74,5.26-1.93,10.26-4.32,14.96-1.79,3.88-3.82,7.93-7.42,10.43-4.77,3.17-11.33,3.04-15.62-.9-11.52-9.23-11.45-27.95-23.67-35.28-9.11-4.66-19.8-4.79-29.11-9-10.07-3.74-18.24-13.69-29.62-13-2.6.46-5.45.86-7.42,2.77-1.76,1.9-3.36,5.04-1.68,7.43,4.12,6.32,12.1,8.28,18.67,11.12,7.8,2.81,15.83,5.01,23.48,8.25,7.96,3.04,15.85,6.78,21.9,12.93,3.39,3.3,6.1,7.22,8.8,11.09,3.1,4.87,4.74,10.5,6.46,15.97,3.33,10.91,5.54,22.19,5.96,33.61.8,22.26-5.68,44.41-16.37,63.71-2.71,4.73-5.93,9.12-8.74,13.79-.91,2.16-3.47,3.52-5.57,2.07Z"/>
    <path class="cls-1" d="M1055.95,850.07c-13.34.03-23.98-7.98-33.21-16.7-5.01-4.22-10.69-7.65-17.02-9.45-16.48-4.29-30.64-6.63-44.65-17.4-1.11-.85.04-2.76,1.34-1.85,1.12.94,2.43,1.59,3.73,2.23,4.2,1.93,8.67,3.11,13.18,4.03,16.05,3.44,33.89,3.83,46.93,15.05,7.62,6.35,15.06,14.16,25.35,15.66,14.16,2.49,32.2-5.8,41.32-16.58,3.01-3.72,5.79-7.64,8.38-11.67,1.28-2.33,2.79-4.5,4.76-6.32,2.35-2.59,6.84.15,5.48,3.44-1.42,3.77-3.39,7.28-5.74,10.54-3.43,4.98-6.93,10.03-11.51,14.03-9.92,8.71-24.98,15.48-38.34,14.96Z"/>
    <path class="cls-1" d="M1007.23,822.41c-8.81-2.54-18.21-2.37-26.95-5.35-20.53-6.06-37.2-20.38-52.14-35.16-8.7-7.97-12.75-8.9-23.87-5.34-32.43,10.73-43.93-11.53-56.6-33.94.45-.88.91-1.75,1.37-2.62.45-.69.88-1.39,1.3-2.1.65-1.12,1.35-2.22,1.99-3.34,8.78,15.77,18.31,35.53,33.57,36.55,9.02,1.14,17.34-3.34,26.09-4.56,7.43-.85,14.38,3.11,19.79,7.86,14.09,13.77,29.05,27.28,47.59,34.73,6.81,2.87,13.15,5.1,19.79,7.7,2.91,1.01,5.96,2.32,8.88,3.03.71.18,1.09,1,.88,1.66-.17.56-.72.94-1.28.94-.13,0-.26-.02-.38-.06Z"/>
    <path class="cls-1" d="M764.91,722.52c-7.98-.21-16.45-5.31-21.64-11.19-4.51-5.39-6.25-12.27-7.59-19.01-2.02-8.36-.68-18.47-6.12-25.59-1.93-1.53-4.24-3.03-6.79-2.93-5.54.3-11.05,1.22-16.6,1.26-7.55.19-15.01-2.57-20.81-7.37-3.8-2.94-5.67-7.48-7.34-11.84-4.44-13.38-8.77-16.8-19.16-25.59-1.63-1.43-1.95-3.91-.54-5.62,1.36-1.64,3.98-1.97,5.62-.53,2.03,1.78,4.07,3.56,6.11,5.33,6.88,5.37,11.79,12.85,14.5,21.1,1.32,3.25,2.32,6.75,4.43,9.6,2.98,3.05,6.98,5.19,11.08,6.32,6.75,1.42,13.63-.1,20.41-.54,4.95-.69,9.83,1.11,13.66,4.21,12.21,10.55,4.62,35.51,16.55,47.47,3.32,2.82,7.15,5.29,11.35,6.54,2.61.44,5.26.46,7.91.29-.06,1.06-.09,2.12-.13,3.17-.04,1.09-.1,2.18-.11,3.28,0,.52,0,1.02.02,1.53-1.38.07-2.75.11-4.13.11-.23,0-.45,0-.68,0Z"/>
    <path class="cls-1" d="M745.07,709.6c-.33-.42-.2-1.07.22-1.37.45-.32,1.04-.2,1.37.23.83,1.12,1.89,2.03,3,2.86,5.9,4.06,13.44,3.84,20.29,2.91-.07,1.13-.1,2.26-.14,3.39-.01.33-.03.67-.04,1.01-.66.03-1.32.04-1.97.04-8.57,0-16.99-2.22-22.73-9.05Z"/>
    <path class="cls-1" d="M678.15,642.05c-2.64-4.53-6.16-8.41-9.88-12.07-4.18-4.44-8.48-9.08-12.74-13.18-14.14-13.54-30.81-26.75-50.65-29.66-2.01-.16-4.02-.16-6.02.13-1.28.52-2.93.23-3.28-1.31-.31-1.35.79-2.49,2.11-2.53,18.86-4.94,35.79,4.01,49.96,15.82,9.82,7.97,19.15,16.73,27.23,26.45,2.08,2.89,4.03,5.85,5.35,9.18.86,2.34,3.7,6,.88,7.9-1,.52-2.33.23-2.96-.73Z"/>
    <path class="cls-1" d="M1224.45,579.85c-5.09-1.04-9.39-4.14-13.84-6.66-18.38-11.03-24.85-37.78-27.68-57.68-3.98-31.62,3.66-65.18,24.04-90.08,5.02-6.41,10.38-12.57,16.3-18.17,2.85-2.81,5.96-5.37,9.35-7.5.81-.54,1.61-1.15,2.47-1.6.78-.48,1.93.38,1.55,1.29-7.92,11.96-17.62,22.6-26.07,34.2-17.88,24.15-23.8,55.75-19.1,85.09,2.14,12.75,5.4,25.57,12.44,36.57,3.58,5.83,8.68,10.56,14,14.78,2.85,2.05,5.85,3.9,8.42,6.32.67.6.93,1.54.54,2.38-.44.94-1.47,1.3-2.41,1.06Z"/>
    <path class="cls-1" d="M1216.93,629.1c-3.51-.48-4.64-4.99-1.85-7.12,1.21-.95,2.48-1.8,3.74-2.69,4.18-2.96,8.23-6.09,12.18-9.35,17.47-15.23,31.94-33.7,44.32-53.22,12.18-19.45,21.95-40.6,28.02-62.69,4.11-15.13,6.71-30.64,9.39-46.07,2.71-15.71,4.35-31.64,4.78-47.58-.33-11.99-.6-23.34-3.78-34.82-4.17-17.82-13.04-31.67-27.74-42.64-6.42-4.69-13.05-9.41-20.34-12.64-11.69-4.08-24.95-4.36-35.42,3-9.26,6.97-17.23,16.03-28.23,20.4-8.5,3.24-17.71,4.76-26.66,2.58-4.78-.81-9.26-2.79-14.03-3.59-4.72-.45-9.74-.75-14.06,1.54-4.26,2.12-8.35,4.92-11.28,8.71-5.36,8.53-7.67,17.59-6.76,27.64.45,6.29,3.09,12.25,6.21,17.66,3.48,4.75,7.79,9.18,13.05,11.93,3.12,1.43,6.34,2.65,9.71,3.34,4.93.69,9.94.31,14.9.13,6.97-.49,13.75-2.51,20.36-4.67,9.46-3.29,18.76-7.14,27.54-12,6.32-3.53,12.39-7.53,17.87-12.29,5.55-4.9,11.4-9.64,15.85-15.61.15-.64.86-1.04,1.5-.77,1.15.54.49,1.7.09,2.52-3.04,5.75-6.89,11.05-11.07,16.02-11.21,13.49-27.55,21.27-43.57,27.59-7.9,2.95-15.98,5.6-24.34,6.8-6.86.66-13.92,1.12-20.76.09-10.78-2.08-19.36-7.85-26.15-16.39-4.32-5.71-7.06-12.66-8.65-19.6-1.2-8.5-1.03-17.5,2.08-25.6,3.13-8.1,6.43-14.29,13.9-19.18,7.32-5.36,14.85-6.98,23.77-5.9,5.2.57,10.02,2.74,15.14,3.73,12.01,2.92,24.53-1.56,33.93-9.12,8.3-6.65,15.71-14.97,26.28-17.97,11.48-3.6,24.36-1.88,35.16,3.1,10.24,5.64,20.15,12.24,28.43,20.55,6.96,6.96,12.75,15.1,16.4,24.26,3.92,10.16,6.83,20.83,7.67,31.71,2.79,27.76-1.4,55.6-6.44,82.87-3.16,17.39-6.85,34.73-13.16,51.29-8.56,23.26-21.07,44.99-35.82,64.87-10.26,13.65-21.55,26.69-34.75,37.61-3.61,2.93-7.32,5.75-11.11,8.43-1.99,1.22-3.77,3.41-6.29,3.12Z"/>
    <path class="cls-1" d="M1212.73,321c-.02-.59.46-1.16,1.07-1.16s1.14.45,1.16,1.07c.02.59-.46,1.16-1.07,1.16s-1.14-.45-1.16-1.07Z"/>
    <path class="cls-1" d="M1213.46,321.57c-.02-.46.36-.91.84-.91s.89.35.91.84c.02.46-.37.91-.84.91s-.89-.35-.91-.84Z"/>
    <path class="cls-1" d="M1212.35,323.25c-1.69-1.3-1.72-3.71-1.79-5.66-.11-4.33-.08-8.67-.23-13-1-36.42-.48-72.86-.87-109.29.3-25.98.94-51.96,1.36-77.95.19-5.18,7.86-5.28,8,.06-.46,23.77-.85,47.54-1.3,71.32.02,30.44.16,60.87.28,91.32.08,9.84.42,19.67.44,29.51-.02,3.2-.11,6.41-.38,9.6-.1,1.19-.18,2.52-.97,3.48-1.14,1.36-3.12,1.71-4.54.61Z"/>
    <path class="cls-1" d="M937.44,154.48c-.11-2.12,1.61-4.15,3.79-4.2,6.68-.27,13.34-1.01,20.01-1.36,15.14-1.13,30.29-2.12,45.39-3.77,38.45-3.47,76.54-9.87,114.48-16.87,31.22-5.6,62.41-12.08,93.77-16.62,3.08.09,5.02,3.81,2.86,6.23-1.34,1.54-3.6,1.4-5.43,1.89-4.76.93-9.53,1.77-14.3,2.68-14.68,2.48-29.32,5.15-43.98,7.75-52.94,10.26-106.12,19.69-159.91,24.2-11.14,1.05-22.33,1.65-33.48,2.55-6.34.34-12.66,1.05-19,1.3-2.17.05-4.09-1.57-4.2-3.79Z"/>
    <path class="cls-1" d="M940.35,158.41c-9.54-2.72-19.25-4.62-29.17-5.11-12.19-1.1-24.3-2.98-36.37-4.99-25.59-4.35-51.91-9.49-77.47-12.98-36.6-4.05-71.69-15.69-107.57-23.45-3.54-.74-7.08-1.59-10.69-1.96-1.25.12-2.58-.3-3.34-1.34-2.67-3.56.95-7.47,4.95-6.46,30.29,5.37,59.79,14.59,89.85,21.06,39.49,5.77,78.82,12.49,118.14,19.27,17.75,3.05,36,2.72,53.31,8.13,5,1.11,3.55,8.88-1.63,7.83Z"/>
    <path class="cls-1" d="M389.42,162.9c-2-.41-3.33-2.64-2.6-4.59.79-2.2,3.3-2.9,5.36-3.42,1.73-.43,3.46-.79,5.21-1.11,3.22-.61,6.43-1.23,9.67-1.78,19.91-3.75,39.72-8.06,59.88-10.27,16.59-1.74,32.91-5.15,49.19-8.69,9.95-1.74,20.03-2.49,29.96-4.32,8.02-1.48,15.67-4.5,23.68-6.05,19.75-3.63,39.59-6.79,59.31-10.64,11.22-2.04,22.23-5.07,33.36-7.57,4.54-1.03,9.13-1.83,13.76-2.39,1.06-.13,2.07.02,2.96.63,2.88,1.82,1.93,6.8-1.54,7.24-10.68,1.26-21.58,4.27-31.91,6.69-8.77,2.26-17.72,3.71-26.61,5.36-9.81,1.81-19.61,3.65-29.45,5.33-7.58,1.21-15.19,2.28-22.64,4.18-6.47,1.55-12.73,3.92-19.3,5.05-9.91,1.84-19.98,2.6-29.91,4.32-9.79,1.89-19.46,4.39-29.32,5.93-13.32,2.16-26.76,3.45-40.08,5.61-16.02,2.39-31.78,6.2-47.79,8.65-2.66.45-5.33.85-7.97,1.46-1.04.27-2.16.66-3.24.38Z"/>
    <path class="cls-1" d="M386.1,162.86c-27.8-5.79-56.06-8.78-83.95-13.96-24.67-4.79-49.51-8.72-74.19-13.45-24.23-4.78-48.45-9.63-72.82-13.62-3.18-.53-6.37-1.06-9.55-1.62-2.15-.38-3.53-2.65-3.1-4.73.45-2.18,2.59-3.48,4.73-3.1,5.9,1.04,11.81,1.99,17.72,2.96,24.47,4.24,48.81,9.22,73.2,13.92,24.48,4.31,48.96,8.61,73.39,13.25,20.74,3.59,41.55,5.88,62.15,9.92,4.47.95,9,1.78,13.32,3.28,1.6.6,3.35,1.15,4.39,2.59.74,1.02.49,2.48-.29,3.39-1.2,1.42-3.31,1.38-5.01,1.17Z"/>
    <path class="cls-1" d="M134.28,736.28c-26.91-2.32-56.59-16.61-73.89-37.41-14.55-19.58-27.33-42.27-28.89-67.08-1.18-13.41,1.23-26.75,3.89-39.84,6.43-29.34,18.28-58.64,39.04-80.81,7.07-7.1,14.62-13.75,22.67-19.73,10.77-7.72,22.46-14.12,32.8-22.45,7.66-6.05,13.83-13.7,20.13-21.1,7.14-8.64,13.6-18.45,23.77-23.81,6.4-3.66,13.93-1.22,19.67,2.59,8.05,5.86,14.45,16.47,16.34,26.22,1.39,8.69.42,17.68-2.89,25.84-3.6,9.26-8.27,18.13-14.04,26.22-14.84,20.24-39.74,39.83-64.87,44.27-3.12.38-6.63.49-9.39-1.24-2.32-1.41,0-4.74,2.07-3.03,6.81-.19,13.16-3.33,19.27-6.06,16.42-7.86,30.98-19.47,42.65-33.41,6-7.47,10.86-15.78,14.8-24.5,3.63-7.9,5.93-16.48,4.77-25.22-.7-5.87-3.55-11.12-6.9-15.89-2.49-3.56-5.57-6.73-9.67-8.37-2.87-1.45-5.89-1.78-8.72-.02-3.52,2.12-6.69,4.79-9.45,7.83-5.36,6.09-10.13,12.5-15.42,18.62-4.33,5.02-8.7,10.03-13.68,14.42-9.73,8.55-20.99,15.06-31.73,22.23-9.64,6.44-18.38,14.14-26.59,22.31-25.03,26.7-39.16,70.7-40.82,106.85-.64,24.22,10.81,46.52,24.27,65.95,14.17,20.06,40.05,33.31,63.79,37.7,2.56.42,5.14.64,7.71.98,1.07.16,2.02.57,2.73,1.43,2.27,2.52,0,6.94-3.41,6.51Z"/>
    <path class="cls-1" d="M120.59,547.98c-1.11-.28-2.48.24-3.2-.96-.83-1.19.15-2.91,1.56-2.94-.01,0-.02,0-.03,0,0,0-.02,0-.03,0,17.68-2.67,34.29-9.17,48.58-19.99.88-.58,1.8.83.88,1.4-6.9,5.59-13.93,11.03-21.99,14.9-8.01,4.1-16.93,7.84-26.05,7.54,0,0,.28.04.28.04Z"/>
    <path class="cls-1" d="M125.77,711.33c-1.71-2.34.93-3.85,2.47-5.23,1.55-1.47,3.02-3.01,4.54-4.5,5.14-5.07,9.61-10.87,13.07-17.22,13.62-27.16,16.24-67.53-1.41-93.41-3.25-4.61-6.91-8.93-11.03-12.79-4.72-4.54-10.14-8.45-13.87-13.91-.73-.33-.82-1.58.11-1.79,8.85.49,19.75,10.07,25.49,16.53,22.97,25.51,23.53,63.93,13.62,95.2-4.15,12.46-10.66,24.79-21.81,32.28-1.94,1.39-3.97,2.62-5.94,3.96-1.49,1.18-3.64,2.84-5.24.87Z"/>
    <path class="cls-1" d="M140.51,464.87c-2.56-.3-3.93-2.81-3.47-5.22.18-4.6.21-9.2.45-13.79.51-10.16.58-20.35.16-30.51-.31-10.95-1.28-21.87-1.46-32.82-.46-22.15.93-44.28,1.79-66.41-.13-29.54,1.63-59.02,2.31-88.54,1.08-21.53,1.43-43.09-.13-64.61-.79-15.37-2.03-31.01.7-46.24.39-1.32.98-2.94,2.28-3.61,2.14-1.16,4.25.59,4.43,2.86.56,9.44-.89,18.91-.3,28.36.42,14.34,1.76,28.63,1.92,42.98.49,18.11-1,36.2-1.35,54.3-.1,14.8-1.17,29.56-1.53,44.35-.32,11.19-.15,22.38-.42,33.57-.89,18.36-1.8,36.73-1.75,55.11.09,24.58,2.98,49.13,1.24,73.72-.2,4.33-.16,8.66-.44,12.98-.14,2.18-2.35,3.75-4.43,3.51Z"/>
    <path class="cls-1" d="M137.21,578.78c.04-5.58.37-11.16.52-16.75.31-6.28.01-12.66,1.04-18.87.83-4.4,6.35-4.37,6.8.19.83,11.74-.31,23.56-.36,35.32-.12,5.26-7.77,5.37-8,.1Z"/>
    <path class="cls-1" d="M136.73,895.4c-.74-40.49-.29-81.01-1.54-121.5-.4-17.19-.92-34.38-.87-51.57.3-4.94-.47-20.51,3.08-23.2,1.39-.87,2.98.32,3.39,1.73,1.26,4.86.7,10.06,1.03,15.05.36,11.33.5,22.66.72,33.99,1.46,40.83,1.47,81.7,1.95,122.55.02,7.62,0,15.23.24,22.84.07,2.18-1.8,4.02-3.95,4.05-2.21.02-3.99-1.77-4.05-3.95Z"/>
    <path class="cls-1" d="M395.7,948.45c-10.49-1.45-20.71-4.42-31.1-6.43-24.07-4.53-47.88-10.3-71.92-14.95-35.19-6.69-70.64-11.82-105.98-17.59-11.23-1.75-22.47-3.44-33.55-5.96-4.57-1.02-9.14-2.09-13.71-3.12-1.03-.23-1.93-.73-2.55-1.6-2.08-2.71.52-7.05,3.94-6.28,4.21.95,8.42,1.93,12.63,2.88,16.84,3.81,33.98,5.96,50.97,8.89,38.54,6.02,77.2,11.72,115.29,20.25,23.89,5.38,47.99,9.68,71.76,15.55,2.24.54,4.5,1.02,6.76,1.45,1.09.19,2.18.53,2.95,1.36,1.27,1.28,1.06,3.33-.15,4.54-1.34,1.35-3.57,1.2-5.34,1.02Z"/>
    <path class="cls-1" d="M138.08,898.47c-5.14-.79-.85-21.95-.84-26.33.38-1.71-.31-4.72,2.05-4.83,2.1.23,1.34,2.71,1.38,4.16-.23,5.35-.55,10.7-.68,16.06-.08,1.89-.2,3.78-.24,5.67-.19,1.47.36,5.14-1.67,5.27Z"/>
    <path class="cls-1" d="M400.21,949.15c-.79-.12-1.53-.27-2.25-.64-.58-.29-1.09-.72-1.48-1.23-4.22-1.05-8.38-2.35-12.61-3.37-1.22-.29-2.01-1.52-1.73-2.76.29-1.26,1.52-1.96,2.76-1.73,4.46.8,8.64,1.46,13.11,1.89,24.75.35,49.61-3.5,74.2-6.76,22.8-2.65,45.47-6.16,68.18-9.44,23.19-3.3,46.5-5.66,69.77-8.27,14.68-1.92,29.3-4.27,43.89-6.79,2.88-.22,6.12-1.9,8.78-.23,1.3.98,1.93,2.94,1.03,4.41-.56,1.08-1.62,1.72-2.76,2.07-2.36.72-4.78,1.18-7.2,1.66-29.75,5.98-59.99,8.46-90.07,12.13-32.51,4.03-64.83,9.5-97.38,13.26-12.97,1.69-25.91,3.68-38.96,4.7-9.06.56-18.2,1.8-27.27,1.08Z"/>
    <path class="cls-1" d="M925.78,966.03c-24.58-4.24-48.92-9.82-73.26-15.26-23.34-5.02-47.01-8.21-70.5-12.42-35.68-5.92-70.78-15.15-106.57-20.37-3.09-.4-6.19-.79-9.3-.95-2.95.13-6.95-.18-7.05-3.99-.05-2.1,1.73-4.14,3.91-4.09,35.25,2.17,69.38,12.81,104.14,18.51,30.87,6.13,62.2,9.82,92.91,16.79,21.31,5.01,42.77,9.37,64.24,13.64,1.31.29,2.66.34,3.94.71,4.44,1.71,2.22,8.53-2.46,7.43Z"/>
    <path class="cls-1" d="M925.31,962.83c-.03-3.49,3.3-4.36,6.1-4.25,5.48-.52,10.94-1.33,16.41-1.97,11.5-1.18,22.9-3.06,34.24-5.28,27.2-4.4,53.99-10.91,81.16-15.5,23.16-3.77,46.03-9.24,69.3-12.34,22.98-2.88,46.5-7.35,69.01-12.08,5.73-1.33,11.48-2.57,17.2-3.95,2.12-.39,4.38-1.55,6.44-.46,3.07,1.71,1.84,6.24-1.45,6.87-33.01,9.29-67.07,14.39-100.98,19.12-27.1,4.93-54.17,10.08-81.27,14.96-26.81,5.63-53.71,10.9-80.77,15.15-8.16,1.04-16.34,1.95-24.51,2.99-3.82.31-10.33,2.32-10.87-3.26Z"/>
    <path class="cls-1" d="M1221.98,910.98c-2.22-.03-3.93-1.87-3.95-4.05-.05-4.5-.3-9-.48-13.5-1.03-22.09-1.19-44.21-1.45-66.32-2.03-71.17.48-142.39-3.8-213.49-.21-11.36-.84-22.78-1.23-34.11.27-2.99-1.14-6.58,1.07-9.03,4.22-3.16,6.54,2.05,6.43,5.8,1.81,35.85,3.45,71.72,4.45,107.6-.26,53.66.2,107.32,1.31,160.97.1,14.76.39,29.51,1.04,44.26.15,5.39.52,10.77.63,16.16.44,2.67-.97,5.77-4.03,5.69Z"/>
    <path class="cls-1" d="M1224.21,911.63c-1.36-2.59-1.01-6.06-1.65-8.8-1.39-7.62-1.55-15.37-2.28-23.05-.15-.93.54-1.86,1.44-2.08.98-.24,2.11.37,2.32,1.39,1.29,5.36,1.65,10.87,2.19,16.34.44,4.5.73,9.03.65,13.55-.04.93-.02,2.41-1.01,2.89-.55.26-1.22.21-1.65-.25Z"/>
    <path class="cls-1" d="M937.05,191.89c-.54,0-1.1-.2-1.3-.73-.5-1.39,1.25-2.19,2.29-2.59,3.7-1.39,7.62-2.08,11.5-2.79,10.33-1.95,20.74-3.47,31.19-4.62,46.81-6.22,93.51-13.15,140.01-21.37,18.05-3.19,36.21-5.67,54.41-7.88,2.74-.37,5.47-.88,8.2-1.34,3.87-.49,4.93,5.42.84,6.08-15.08,2.58-30.32,4.01-45.44,6.34-15.69,2.15-31.18,5.47-46.82,7.93-25.88,3.75-51.56,8.74-77.52,11.98-15.71,2.42-31.44,4.66-47.27,6.13-10,1.1-20.01,2.67-30.08,2.85Z"/>
    <path class="cls-1" d="M1186.28,333.27c-1.58-10.71-.86-21.68-1.31-32.48-.29-13.4-1.4-26.45-1.96-39.79-.84-19.43.2-39.5-.57-58.79-.58-13.93-2.3-27.83-2.34-41.78.04-2.07-.05-4.14.07-6.21.27-4.61,7.03-4.59,7.12.18.13,18.03.72,36.06.55,54.09,0,16.85-.58,33.71-.05,50.55.4,11.77,1.43,23.51,1.95,35.27.34,8.36.37,16.73.35,25.1,0,3.71.11,7.42-.14,11.12-.12,1.09-.13,2.28-.77,3.21-.79.99-2.46.74-2.91-.47Z"/>
    <path class="cls-1" d="M1211.14,421.52c.11-7.14.06-14.32.4-21.46.38-2.91-.24-6.76,2.46-8.68,1.38-.86,3.08-.43,4.11.74,1.04,1.18,1.02,3.09,1.08,4.57.08,8.42.34,16.9-.23,25.29-.96,4.17-7.33,3.81-7.82-.45Z"/>
    <path class="cls-1" d="M1192.21,459.53c-1.42-.41-1.15-3.6-1.43-4.86-.49-5.44-.82-10.9-1.09-16.35-.59-11.41-2.31-22.72-2.22-34.16.14-2,2.77-3.09,4.32-1.85,1.6,1.28,1.15,3.65,1.48,5.46.53,5.2.85,10.41.96,15.64.23,11,.35,22.03-.79,32.99-.24.91,0,3.13-1.24,3.13Z"/>
    <path class="cls-1" d="M937.1,192.08c-9.18-1.15-17.9-4.89-26.92-6.93-14.46-3.73-28.65-7.53-43.22-10.61-16.57-3.84-33.44-6.12-50.07-9.66-11.29-2.6-22.57-5.27-33.93-7.55-11.21-2.34-22.2-5.61-33.28-8.5-14.38-4.02-28.99-6.82-43.59-9.87-9.57-2.21-19.35-4.1-28.47-7.83-.76-.31-1.59-1.09-.98-1.89.88-.89,2.35-.38,3.46-.31,4.11.68,8.17,1.64,12.24,2.49,25.46,5.2,50.93,10.44,75.99,17.32,11.16,2.87,22.53,4.8,33.72,7.5,5.63,1.34,11.26,2.69,16.93,3.86,16.69,3.24,33.52,5.79,50.09,9.63,12.93,2.89,25.73,6.33,38.62,9.38,8.37,2,16.72,4.04,24.93,6.63,3.5.75,6.53,2.89,10.12,2.04,3.01-.47,6-1.11,8.97-1.76.75-.17,1.51.34,1.67,1.09.16.76-.34,1.49-1.09,1.67-5.18.94-10.23,3.18-15.5,3.31,0,0,.32,0,.32,0Z"/>
    <path class="cls-1" d="M387.82,187.47c-2.31-1.55,1.02-3.12,2.5-3.57,4.15-1.51,8.43-2.66,12.69-3.8,17.68-4.9,35.99-6.48,54.04-9.4,17.98-2.72,35.72-6.69,53.61-9.88,16.75-2.87,33.62-5.02,50.27-8.48,28.75-6.25,57.72-11.38,86.75-16.09,7.66-1.55,14.99-4.25,22.42-6.59,1.84-.59,3.7-1.06,5.55-1.57,1.22-.34,2.52.4,2.85,1.62.76,3.31-4.1,3.27-6.14,4.39-9.37,3.27-18.71,6.33-28.48,8.08-21.44,3.45-42.8,7.31-64.13,11.39-20.99,4.77-42.04,8.15-63.31,11.23-17.86,2.95-35.63,6.42-53.46,9.57-15.23,2.69-30.77,4.2-45.91,7.25-5.08,1.07-10.15,2.15-15.19,3.38-4.64.89-9.32,2.71-14.06,2.48Z"/>
    <path class="cls-1" d="M692.27,134.67c-5.73-.84-11.5-1.54-16.93-3.66-.45-.21-.78-.61-.89-1.09-.36-3.56,6.27-1.74,8.24-1.33,3.52.78,6.8,2.29,10.25,3.29,1.69.5,1.06,3.12-.67,2.79Z"/>
    <path class="cls-1" d="M694.87,135.17c-6.31-1.06-12.69-1.69-18.9-3.29-.43,0-.84-.26-1-.68-.45-1.65,1.68-1.55,2.75-1.45,5.92.59,11.66,2.31,17.52,3.28,1.39.26,1.03,2.37-.37,2.14Z"/>
    <path class="cls-1" d="M384.82,188.59c-36.77-3-72.8-11.24-108.74-19.21-33.53-6.24-67.17-11.96-100.51-19.15-2.53-.66-5.27-.75-7.61-1.95-1.38-1-1.13-3.37.5-3.99,1.45-.44,3.03-.2,4.52-.1,12.79,1.7,24.87,5.03,37.4,7.59,7.17,1.42,14.39,2.77,21.52,4.3,12.74,2.73,25.64,4.63,38.43,7.05,12.5,2.32,24.89,5.23,37.26,8.19,20.1,4.53,39.96,8.85,60.4,10.73,3.58.4,7.16.83,10.72,1.4,5.19.87,10.38,2.25,15.6.85,7.02-1.48,13.7-4.18,20.58-6.17.54-.17,1.12.2,1.27.73.15.57-.19,1.09-.73,1.27-3.62,1.24-7.52,2.58-11.11,3.73-4.3,1.56-8.6,3.15-13.07,4.15-2.09.52-4.27.99-6.42.59Z"/>
    <path class="cls-1" d="M161.94,441.28c-1.18-.04-2.26-1.1-2.17-2.32.18-3.55.01-6.86.02-10.37.23-15.06-.52-30.12-.21-45.18.52-18.94.95-37.89,1.21-56.84.97-37.45,4.52-74.8,4.9-112.27.32-15.05.72-30.1.77-45.16.06-6.55-.02-13.16,1.26-19.62.18-1.68,1.35-4.6,3.41-3.28.55.45.82,1.18.93,1.87.36,2.22.35,4.49.36,6.73,0,5.97-.34,11.92-.67,17.87-1.27,27.49-1.3,55.04-2.82,82.52-1.15,25.21-3.08,50.39-3.31,75.63-.07,23.63-1.47,47.82-1,71.31.44,9.1.51,18.21.02,27.31-.06,3.22-.34,6.42-.39,9.64,0,1.22-1.13,2.2-2.32,2.16Z"/>
    <path class="cls-1" d="M168.5,161.26c-.69-.02-1.19-.6-1.19-1.27,0-1.65-.05-3.26-.09-4.74.08-3.07-.92-6.38.03-9.33.29-.8,1.55-.81,1.89-.03.57.96.47,2.18.56,3.28.14,2.31.18,4.58.21,6.88,0,1.34-.1,2.69-.14,4.03-.02.67-.61,1.21-1.27,1.18Z"/>
    <path class="cls-1" d="M159.24,615.27c-1.62-.06-1.44-2.01-1.49-3.05-.12-4.52-.23-8.99-.2-13.5.15-19.71,1.49-39.39,1.57-59.11.1-3.18.05-6.39.47-9.54.19-1.28,2.05-1.61,2.63-.42,1.14,3.78.86,7.9,1.12,11.82.26,19.74-.38,39.49-1.63,59.2-.19,3.32-.42,6.63-.7,9.93-.34,1.56.45,4.52-1.79,4.68Z"/>
    <path class="cls-1" d="M160.91,875.13c-1.58-21.02-.71-42.4-1.16-63.42-1.26-30.19-1-60.2-.52-90.37.07-22.03,0-44.07.34-66.1-.2-.59.29-1.29.95-1.26.62.02,1.04.64.9,1.2.21,2.11.53,4.22.73,6.33,3.1,40.17,1.14,80.52,1.93,120.77.75,25.74,1.2,51.48,1.36,77.23.07,2.95.18,5.46.29,8.36.09,2.26.24,4.52.34,6.79.03.7-.13,1.35-.58,1.89-1.37,1.74-4.42.85-4.58-1.41Z"/>
    <path class="cls-1" d="M392.18,924.18c-14.46-5.34-29.68-7.89-44.78-10.62-8.67-1.65-17.28-3.67-25.92-5.48-14.45-2.79-29.02-4.9-43.56-7.17-13.09-2.23-26.02-5.25-39.05-7.63-17.98-3.73-35.78-6.89-53.7-10.74-6.07-1.26-12.19-2.34-18.1-4.23-1.28-.53-2.88-.74-3.75-1.89-1.65-3.83,11.91-.95,13.73-.88,9.68,1.47,19.16,3.88,28.72,5.93,22.2,4.63,44.33,9.72,66.53,14.3,16.89,3.31,33.98,5.52,50.87,8.88,15.28,3.38,30.57,6.61,45.91,9.73,8.2,1.79,16.44,3.37,24.56,5.5,2.93.87,1.64,5.42-1.45,4.3Z"/>
    <path class="cls-1" d="M172.94,879.3c-3.16-.63-6.52-.49-9.54-1.69-2.37-.94-1.75-3.28.82-2.76,2.5.22,5.2,1.14,7.59,1.54.78.23,1.78.12,2.35.78.74.87-.08,2.33-1.21,2.13Z"/>
    <path class="cls-1" d="M393.81,922.27c-.32-1.21.43-2.66,1.7-2.92,2.46-.51,4.93-1.03,7.4-1.5,13.18-2.51,26.48-4.27,39.7-6.54,24.91-4.08,49.94-7.44,75.04-10.12,11.24-1.08,22.49-2.17,33.71-3.44,8.3-1.12,16.54-2.65,24.86-3.63,22.11-2.75,44.2-5.62,66.32-8.36,4.73-.59,9.45-1.28,14.22-1.43.61-.02,1.36-.02,1.77.52.64,1.14-.48,1.77-1.51,1.96-26.56,6.31-53.83,9.03-80.84,12.71-8.38,1.07-16.65,2.82-25.02,3.95-19.52,2.2-39.11,3.73-58.58,6.39-22.15,2.8-44.21,6.16-66.29,9.45-9.07,1.33-18.18,2.51-27.2,4.16-1.87.42-4.55,1.31-5.28-1.2Z"/>
    <path class="cls-1" d="M393.42,924.45c-1.04-.16-2.35-.35-2.97-1.3-.62-1.06.39-2.51,1.61-2.25.96.25,1.91.64,2.92.58,1.4-.12,2.78-.39,4.19-.32.37-.1.79.08.93.47.28.77-.56,1.04-1.07,1.34-1.72.82-3.7,1.53-5.61,1.49Z"/>
    <path class="cls-1" d="M390.8,922.37c-1.75-.04-3.28-.55-4.94-.92-.7-.16-1.13-.95-1.02-1.63.13-.81.88-1.29,1.67-1.2,1.5.15,3.17.39,4.64.53,2.03-.03,3.92.02,5.9.28.56-.14,1.17.26,1.23.87.06,1.2-1.34,1.1-2.14,1.46-1.75.38-3.55.9-5.36.6h.02Z"/>
    <path class="cls-1" d="M928.65,945.24c-9.17-1.5-18.13-4.43-27.18-6.4-9.1-2.36-18.43-3.45-27.61-5.39-9.33-2.14-18.47-5-27.71-7.49-8.18-2.08-16.11-3.65-24.32-5.29-6.34-1.3-12.62-2.88-18.95-4.24-12.65-2.56-25.49-4.04-38.18-6.38-12.59-2.37-25.09-5.17-37.68-7.55-16.07-2.54-31.76-6.84-47.45-11.07-6.98-1.76-13.46-4.06-20.58-3.79-4.24.48-8.27,2.1-12.53,2.55-5.87.66-11.82.51-17.66,1.5-1.87.25-3.52.47-5.23.77-.84.14-1.68-.31-1.88-1.18-.18-.8.34-1.72,1.18-1.87,6.65-1.5,13.35-2.69,20.18-2.73,3.23-.17,6.31-.49,9.37-1.4,2.08-.64,4.03-1.6,6.04-2.37,2.04-.69,4.22-.39,6.3-.11,14.25,2.54,28.06,7.07,42.15,10.34,7.91,1.9,15.93,3.2,23.88,4.85,13.12,2.71,26.06,6.23,39.23,8.64,11.09,2.05,22.33,3.27,33.41,5.36,7.03,1.37,13.46,3.05,20.29,4.45,18.22,3.84,36.14,9.08,54.21,13.5,17.78,3.21,35.51,6.67,52.8,12,.62.18,1.36.38,1.8.88.69.73.45,2.09-.55,2.42-1.08.32-2.24.11-3.34,0Z"/>
    <path class="cls-1" d="M636.47,890.13c-1.18-.65-.88-2.62.46-2.86,1.38-.25,2.76-.52,4.14-.81,6.33-1.46,12.7-2.99,19.22-3.28.36,0,.7-.07,1.06-.05,1.06.17,1.02,1.71,0,1.87-4.78,1.92-9.89,2.68-14.89,3.79-2.92.59-5.88,1.08-8.83,1.52-.4.07-.8.04-1.16-.19Z"/>
    <path class="cls-1" d="M930.06,945.73c-.79-2.79,1.33-4.01,3.77-4.41,2.48-.56,4.95-1.14,7.42-1.75,13.27-3.03,26.96-6.19,40.39-8.03,19.29-2.89,38.54-5.97,57.66-9.82,13.88-2.54,27.81-4.82,41.62-7.72,22.27-4.25,44.51-8.72,66.87-12.42,14.42-2.04,28.04-7.85,42.6-9.08,2.37-.08,4.91-.93,7.19-.12,1.9,1.83-1.58,2.91-2.98,3.31-3.88,1.27-7.86,2.15-11.81,3.16-5.34,1.39-10.66,2.79-15.99,4.19-11.17,2.9-22.64,4.31-33.95,6.53-16.45,3.32-32.9,6.59-49.44,9.45-22.07,4.41-44.25,8.35-66.32,12.73-14.28,2.58-28.65,4.48-42.87,6.97-10.34,1.86-20.44,4.78-30.71,6.9-2.66.55-5.31,1.1-7.97,1.64-.9.09-1.75.43-2.65.48-1.24,0-2.41-.84-2.83-2.01Z"/>
    <path class="cls-1" d="M929.31,947.41c-5.37-1.46-10.68-3.47-15.82-5.47-2.24-1.15-4.67-1.83-7.09-2.46-1.58-.42-1.06-2.89.56-2.62,4.28.75,8.49,1.8,12.61,3.21,4.18,1.38,8.59,2.23,12.54,4.23.78.16,1.31.91,1.21,1.72-.24,1.9-2.65,1.65-4,1.38Z"/>
    <path class="cls-1" d="M1195.23,889.2c-.91-9.91-.88-19.87-.22-29.8-.18-12.62.19-25.23.38-37.81-.97-57.39-.9-114.78-1.06-172.17-.1-15.06-.27-30.12-1.57-45.13-1.8-19.73-4.3-39.46-4.07-59.32-.04-4.72.08-9.43.02-14.15-.1-.37.11-.77.48-.88.39-.12.87.14.92.56,1.7,6.83,1.94,13.94,2.65,20.92,1.51,22.51,4.65,44.91,6.18,67.41.64,30.64-.33,61.31.07,91.96-.12,42.12,2.35,84.23,1.85,126.34-.2,8.56.34,17.17.24,25.71-.15,6.18-.49,12.35-.29,18.53.05,2.39.15,4.8.44,7.18.22,3.52-5.34,4.51-6.02.65Z"/>
    <path class="cls-1" d="M1173.84,897.99c-.24-.88.29-1.89,1.2-2.11,1.9-.45,3.79-.93,5.68-1.43,5.18-1.46,10.66-1.71,15.47-4.11.51-1.77.11-5.67,2.88-5.23,2.6.98,2.18,4.48,1.66,6.67,0,1.05-.62,2.05-1.55,2.56-4.66,1.76-9.85,1.93-14.69,3.12-2.13.45-4.28.84-6.35,1.26-1.45.24-3.68,1.28-4.3-.73Z"/>
    <path class="cls-1" d="M1172.97,898.79c-.3-1.03.36-2.15,1.39-2.43,2.55-.85,4.97-1.55,7.28-2.36l-.06.02s-.02,0-.02,0c2.45-.84,4.94-1.54,7.42-2.28,2.43-.73,4.89-1.35,7.37-1.86.92-.88,2.46.31,1.85,1.42-.45.88-1.51,1.27-2.33,1.75-2.43,1.21-5.1,2.16-7.62,3.05-4.24,1.46-8.55,2.77-12.84,4.08-1.01.32-2.16-.37-2.43-1.39Z"/>
    <path class="cls-1" d="M942.98,790.61c-3.64-.98-1.79-5.11-.94-7.57,1.57-4.47,3.28-8.92,5.43-13.15,5.09-9.14,12.71-17.42,21.98-22.32,5.97-3.53,13.17-4.28,19.08-7.83,5.13-3.66,6.43-10.08,8.87-15.52,1.88-4.44,5.07-8.83,9.74-10.53,12.08-4.93,27.36,2.98,37.72-3.83,4.57-3.68,7.02-9.2,9.62-14.31,2.68-5.48,5.47-10.99,9.39-15.7,2.19-2.58,8.56-9.92,10.86-4.31.36,1.87-1.24,2.53-2.38,3.55-2.37,2.48-4.6,5.74-6.24,8.49-6.72,10.95-9.95,26.64-23.51,31.19-10.84,3.63-22.3-.67-33.3,1.09-6.08,1.99-6.69,9.63-8.96,14.73-2.41,7.19-8.28,12.65-15.47,14.72-6.08,1.99-12.31,3.92-17.58,7.67-5.06,4.01-9.68,8.71-13.13,14.19-2.57,4.38-4.49,8.81-6.36,13.42-1.11,2.29-1.39,6.6-4.84,6.02Z"/>
    <path class="cls-1" d="M1109.92,765.52c-4.16-1.56-7.44-4.68-10.32-7.96-3.14-3.66-6.59-9.01-12.01-8.77-9.07,1.27-15.49,8.64-24.37,10.04-5.77,1.29-11.38-.26-14.48-5.55-2.74-4.12-1.98-9.44-.9-13.99,1.69-6.91,4.65-14.3,2.13-21.38-.43-2.41-6.18-6.49-2.71-8.11,6.72-.4,10.58,8.05,10.91,13.8.13,3-.09,6.05-.63,9-.61,5.22-7.31,19.83,2.77,18.79,6.04-.58,10.78-4.83,16.14-7.26,3.89-1.81,8.14-3.21,12.47-3.02,3.66.2,6.9,2.21,9.74,4.37,4.34,3.34,7.09,8.31,11.47,11.64,3.77,3.44,6.44,2.06,10.87,1.78,1.31.06,2.47,1.03,2.87,2.26,1.49,6.13-10.4,6.04-13.95,4.36Z"/>
    <path class="cls-1" d="M854.45,746.24c-2.51-2.49,1.33-4.02,3.08-5.24,3.91-2.74,6.48-6.73,8.37-11.04,7.35-19.98,12.44-26.68,33.25-32.84,6-1.98,12.44-3.58,17.08-8.15,4.66-3.8,6.48-10.11,4.66-15.81-1.37-5.77-3.17-11.53-2.98-17.53.67-9.04,6.97-17.1,12.92-23.52,6.15-7.11,14.91-14.58,14.42-24.8-1.81-6.02-6.33-10.64-10.31-15.31-8.49-9.86-8.37-17.86-3.04-29.31,3.27-6.24,8.33-11.39,11.28-17.84,3.48-6.79.25-12.55-3.86-18.08-3.01-4.14-6.27-8.1-8.95-12.46-5.27-8.32-5.23-19.28-.4-27.79,4.01-7.87,10.17-14.4,14.3-22.2,3.62-7.6,2.11-16.23.81-24.21-1.16-9.36-.15-19.58,5.33-27.51,1.88-2.42,6.01-.52,4.83,2.66-.93,2.01-1.91,3.99-2.58,6.11-1.38,4.7-1.71,9.68-1.38,14.55.34,3.27,1.03,6.48,1.64,9.71,1.19,6.81.95,14.12-1.74,20.57-6.15,13.67-24.16,26.62-15.71,43.06,5.12,9.85,16.31,17.82,15.79,29.82-.58,10.39-9.47,17.55-14.1,26.23-3.09,6.84-5.09,13.59.19,19.95,4.99,6.62,11.82,12.27,14.1,20.54,1.34,7.1-2.03,14.26-6.02,19.96-6.85,9.79-18.36,17.19-20.75,29.53-.69,10.07,7.11,19.7,3.03,29.61-1.81,5.86-6.48,10.25-11.41,13.64-6.97,4.23-15.31,5.34-22.86,8.21-7.97,2.7-12.81,6.43-16.53,14.13-3.52,8.39-5.57,18.37-13.86,23.49-2.43,1.55-5.92,3.4-8.62,1.88Z"/>
    <path class="cls-1" d="M678.13,636.87c-3.25-.63-2.78-5.49.52-5.48,6.98-.11,14.01-6.5,17.46-12.21,4.28-8.95,3.47-19.11,4.91-28.69.8-4,1.63-8.1,3.35-11.82,2.64-4.75,5.8-9.24,7.81-14.32,3.53-8.52.83-17.8-3-25.72-2.94-5.9-3.16-10.57-.21-16.52,3.49-7.07,9.8-12.35,12.57-19.85,1.33-3.68,1.12-7.71,1.28-11.57.02-2.39-.38-4.73-.91-7.06-2.04-8.54-9.11-14.97-17.2-17.87-11.22-3.97-23.96-.83-33.21,6.3-6.16,4.92-11.05,11.2-17.03,16.32-6.64,6.2-15.8,8.6-22.48,14.73-9.08,10.13-7.54,24.62-19.78,33.49-11.92,9.24-29.09,12.02-33.07,28.86-1.51,7.24-1.2,15.2,1.71,22.06,1.82,2.59-2.32,4.88-3.59,1.99-6.54-11.36-5.87-27.08,1.73-37.78,3.34-4.28,7.5-7.91,12.25-10.54,9.05-5.31,20.06-9.79,23.95-20.4,5.85-16.5,8.31-24.05,24.92-32.2,11.11-5.33,17.63-16.18,27.35-23.22,12.11-9.01,29.4-11.83,43.09-4.84,7.35,3.27,13.19,9.47,16.57,16.71,3.3,8.08,3.29,17.29,1.52,25.73-2.16,6.8-6.8,12.41-11.16,17.92-7.25,9.81-2.65,12.47.72,22.17,5.48,16.85-.64,24.98-8.51,38.98-1.29,3.59-1.97,7.45-2.47,11.21-.79,10.1-.57,20.89-5.89,29.89-5.01,7.28-13.85,14.84-23.22,13.73Z"/>
    <path class="cls-1" d="M760.05,520.89c-10.97-1.15-20-8.91-31.3-8.17-2.8.07-5.57.45-8.29,1.1-.85.34-1.81-.3-1.86-1.19-.05-.76.55-1.42,1.28-1.47,3.62-1.46,7.41-2.79,11.35-2.96,8.15-.99,15.64,2.61,23.21,4.99,16.33,5.05,21.21-5.24,32.95-13.53,7.15-5.3,15.99-9.1,25.04-7.87,9.52,1.28,18.49,5.39,27.75,7.74,4.16.97,8.39,2.25,12.7,1.82,7.45-1.02,11.74-8.19,15.23-14.12,2.84-4.76,6.44-8.99,10.35-12.9,4.09-4.14,9.49-6.61,14.89-8.58,9.09-3.5,19.7-2.78,28.23,1.89,4.72,2.3,8.91,5.67,12.27,9.71,1.69,2.07,4.93,5.38,1.81,7.64-3.64,2.07-4.67-2.64-6.8-4.5-3.81-3.87-8.57-6.6-13.56-8.65-4.8-1.51-10.01-1.91-14.95-.84-5.24,1.56-10.47,3.65-14.91,6.88-5.03,4.35-9.08,9.73-12.36,15.49-10.24,17.68-20.78,18.14-38.82,12.26-9.57-2.52-19.22-7.78-29.33-6.02-11.22,2.36-18.8,11.66-28.02,17.7-4.97,3.19-11.04,4.42-16.88,3.59Z"/>
    <path class="cls-1" d="M508.28,568.64c-1.68-.92-2.11-3.11-1.02-4.65.99-1.34,1.57-2.95,2.09-4.52,3.29-9.24,1.54-18-.45-27.25-1.39-7.98.94-16.02,4.61-23.07,5.94-11.28,12.05-20.68,8.41-33.97-6.7-25.75-6.69-21.08-.74-46.82,1-4.99.72-10.08-.43-15.02-3.8-14.71-5.37-21.63-.39-36.55,1.86-5.72,4.32-11.08,7.59-16.05,3.42-5.11,7.57-9.69,11.45-14.45,9.46-10.74,14.23-18.92,12.89-33.77-.43-4.34-1.22-8.62-2.58-12.77-.28-.73-.46-1.5-.98-2.09-1.08-1.65,1.01-3.88,2.74-2.82.53.29.86.77.99,1.32,1.29,2.64,2.18,5.47,3.02,8.27,2.54,8.98,3.03,18.8.1,27.75-5.08,13.35-17.02,22.52-23.61,35.03-4.22,8.6-7.77,18.6-7.1,28.28.84,7.72,3.66,15.1,4.21,22.87.92,10.51-3.65,20.4-4.78,30.68-.28,5.65,1.71,11.06,3.17,16.44,6.67,22.01,1.55,29.84-8.62,48.81-7.73,14.91,2.67,26.54-1.66,41.75-.88,4.03-2.53,7.85-4.64,11.38-.86,1.5-2.79,2.08-4.29,1.25Z"/>
    <path class="cls-1" d="M690.17,460.59c-2.73-.38-2.44-3.23-2.04-5.28.49-3.06,1.15-6.08,1.71-9.13,1.22-8.09,5.11-16.63.92-24.44-3.15-6.14-6.79-7.54-13.38-7.74-5.64-.37-12.47.78-16.86-3.56-8.14-9.61,4.88-23.95-2.28-34.5-1.93-1.56-4.75-1.59-7.13-1.94-4.82-.1-9.17,2.41-13.47,4.27-18.61,9.57-36.77,12.39-41.73-12.88-2.75-21.35,13.34-42.47,18.48-62.75,2.53-10.78.75-23.31-6.83-31.73-1-1.02-1.97-2.07-3.11-2.94-.75-.38-1.18-1.32-.85-2.17.38-.98,1.61-1.39,2.48-.87,12.42,6.75,16.27,22.36,14.29,35.45-3.34,20.11-21.64,44.95-17.91,64.7,5.7,24.96,26.87,7.61,41.72,3.08,5.82-1.71,13.06-1.04,18,2.63,4.87,4.96,4.95,12.94,3.69,19.38-.62,5.02-4.22,11.38-.99,15.98,1.72,1.35,4.11,1.06,6.17,1.28,4.18.1,8.38.13,12.5.95,11.87,2.58,16.83,17.49,13.73,28.22-1.09,5.72-2.54,11.93-3.53,17.5-.58,2.41-.17,6.63-3.61,6.47Z"/>
    <path class="cls-1" d="M927.82,868.34c-8.97-.7-17.46-5.55-22.12-13.31-10.85,4.35-21.89,4.61-29.73-5.22-7.33,6.17-16.77,9.7-26.32,9.94-.91.08-1.76-.49-1.89-1.43-.13-.91.53-1.76,1.43-1.89,1.86-.27,4.14-.8,5.83-1.14,6.84-1.36,12.88-5.14,18.06-9.69,7.77-6.62,7.49,12.09,28.61,5.17,3.71-1.35,6.5-2.15,9.12,1.55,2.62,3.13,5.44,6.14,8.88,8.38,4.18,2.53,8.82,4.81,13.76,5.17.56-.27,1.33.04,1.51.68.51,2.29-5.72,1.92-7.12,1.79Z"/>
    <path class="cls-1" d="M907.31,830.58c-8.36-1.66-11.29-2.91-17.5-8.8,0,0,0,0,0,0-8.57,6.47-19.62,8.62-30.14,7.94-.87.08-1.96-.03-1.98-1.14,0-.8.82-1.38,1.57-1.12,9.76,0,19.22-4.29,27.21-9.65,5.9-4.19,9.69,4.35,14.68,6.19,2.31,1.06,4.75,1.8,7.21,2.39,2.71.76,1.72,4.79-1.05,4.18Z"/>
    <path class="cls-1" d="M1100.33,490.98c-1.52-.19-5.03.14-5.23-1.87,0-.59.39-1.12.99-1.22,4.95.21,9.87-.71,14.45-2.62,4.65-1.83,8.64-4.87,12.37-8.14,1.66-1.4,3.27-2.98,5.41-3.6,3.56-.97,7.07.83,10.38,1.95,5.41,2.11,11.08,3.58,16.91,3.77,2.94.32,2.59,4.67-.4,4.52-7.13-.08-14.17-.95-20.96-3.2-1.41-.32-2.88-1.07-4.35-.78-2.27,1.46-4.33,3.24-6.64,4.67-6.83,4.37-14.88,6.51-22.92,6.52Z"/>
    <path class="cls-1" d="M1069.38,357.58c-3.73-1.5-5.63-11.62-7.35-15.43-2.7-7.58-5.67-15.06-8.13-22.72-.56-1.71-1.1-3.43-1.61-5.15-.89-2.05-.8-5.26-3.11-6.25-10.32-3.2-20.48-5.23-30.93-7.64-3.96-.79-7.93-1.47-11.89-2.22-2.38-.17-4.58-2.71-3.02-4.96,2.49-2.66,6.46-3.36,9.72-4.76,3.86-1.4,7.8-2.61,11.7-3.89,10.7-4.02,21.85-6.51,32.98-8.97,3.11-17.67,7.42-35.18,12.42-52.43.86-2.81,1.66-9.66,5.98-6.88.88.75,1.16,2,1.43,3.07.72,2.97,1.23,5.99,1.71,9,1.04,6.28,1.7,12.57,2.6,18.85.8,5.2,1.78,10.37,2.69,15.55.45,2.78.71,5.14,1.23,7.76.24.97.23,2.07.74,2.94.5.57,1.22.9,1.85,1.3,8.91,3.7,19.03,5.12,28.18,7.53,4.03.97,8.19,2.24,12.28,2.69,2.76.07,5.91,1.12,4.49,4.52-1.45,2.91-4.38,4.69-7.02,6.42-6.5,4.18-14.11,6.47-21.77,7.21-3.14.35-6.28.37-9.32.43-1.44.16-3.14-.22-4.39.65-2.14,2.17-3.01,5.31-4.25,8.03-1.46,3.74-2.72,7.55-3.92,11.38-2.51,7.89-4.48,15.93-6.7,23.89-1.3,3.28-1.57,11.41-6.61,10.07ZM1057.64,315.82c3.73,11.8,7.58,23.59,12.26,35.05,2.4-11.53,5.51-22.91,9.34-34.04,1.94-5.3,3.59-10.89,6.88-15.53,1.28-1.63,3.27-2.76,5.34-2.89,3.74-.22,7.5-.2,11.23-.44,9.62-.38,18.96-3.93,26.57-9.79-10.02-1.34-19.92-3.56-29.82-5.59-5.21-1.5-11.1-2.15-15.41-5.7-2.75-2.55-1.85-6.81-2.52-10.18-.49-6.11-2.01-12.03-3.3-18-1.51-7.19-3.03-14.82-4.08-21.97-2.79,11.39-6.63,22.48-8.64,34.06-.92,4.04-1.91,8.07-2.82,12.11-.63,2.35-1,5.39-3.51,6.47-.17.47-.66.77-1.17.68-.1-.02-.19-.05-.28-.09-6.19,2.14-12.67,3.28-18.95,5.12-8.58,2.82-17.15,5.7-25.67,8.71,10.09,1.59,20.08,3.84,29.91,6.62,12.36,3.54,10.9,3.93,14.62,15.41Z"/>
    <path class="cls-1" d="M1084.62,301.96c-3.78-2.09-7.05-5-10.45-7.64-5.52-4.72-11.49-9.26-15.6-15.34-1.08-1.33-1.52-4.65,1.07-4.17,1.99.86,3.47,2.61,5.17,3.91,7.6,6.4,15.7,12.2,23.23,18.68,2.11,2.29-.62,5.91-3.41,4.55Z"/>
    <path class="cls-1" d="M1052.14,309.53c-4.07-1.61,5.51-10.3,6.94-12.2,3.69-3.93,7.46-7.72,11.24-11.54,3.81-3.74,7.58-7.57,11.4-11.26,2.65-1.82,5.94,1.39,4.19,4.09-8.23,8.66-17.42,16.54-26.11,24.78-1.66,1.53-3.29,3.09-4.96,4.6-.8.6-1.54,1.92-2.7,1.53Z"/>
    <path class="cls-1" d="M1066.34,352.8c-.11-11.48,1.68-22.89,2.15-34.36.6-13.67.74-27.37.04-41.04-.33-7.94.41-15.86.95-23.78.55-7.98.83-15.98,1.91-23.91.49-3.82,1.17-7.6,1.87-11.38-.04-.86.79-1.6,1.69-1.32.76.23,1.15,1.2.73,1.87-.27,1.39-.42,2.79-.58,4.19-.8,8.05-.77,16.16-1.21,24.23-.47,8.58-.87,17.19-.67,25.78.28,7.86,1.01,15.71.8,23.59-.54,11.78-1.53,23.54-2.44,35.3-.64,6.89-1.35,13.8-1.22,20.73-.08,2.4-3.79,2.6-4.01.09Z"/>
    <path class="cls-1" d="M1006.76,295.2c-.03-.68.6-1.22,1.28-1.11,4.31-.3,8.53-1.07,12.81-1.63,11.76-1.65,23.57-3.17,35.43-3.85,11.63-.75,23.28-.4,34.92-.43,11.66-.24,23.29-1.2,34.96-1.04,1.84.29,5.59-.59,5.87,1.86.04.82-.57,1.57-1.38,1.71-14.73,2.17-29.99,2.63-44.82,2.66-10.05-.34-20.11-1.23-30.17-.62-11.79.61-23.53,1.77-35.3,2.62-4.06.38-8.14.57-12.21.81-.65.15-1.36-.28-1.38-1Z"/>
    <path class="cls-1" d="M1077.32,283.41c-.88-.81-.77-2.26.21-2.93,1.4-1.58,2.77-3.18,4.2-4.73,8.31-8.94,16.27-18.23,25.3-26.45-7.4,3.6-14.91,6.97-22.3,10.59-1.91.85-3.24-1.93-1.36-2.9,8.96-4.8,17.39-10.21,26.85-13.86,2.04-.85,5.82-2.29,6.69.71.11,2.25-2.4,3.71-3.62,5.36-3.85,4.34-7.52,8.85-11.46,13.11-6.53,7.08-13.81,13.37-20.87,19.9-.24.23-.47.46-.69.71-.52,1.11-2.08,1.3-2.94.51Z"/>
    <path class="cls-1" d="M1096.12,281.08c-1.65-.84-1.03-2.7-.32-3.96,1.16-2.87,2.63-5.59,3.88-8.42,3.25-7.29,7.01-14.37,11.7-20.85.93-.97,3.43-6.04,4.6-3.27-.16,3.41-2.14,6.55-3.43,9.66-2.78,5.94-5.97,11.65-9.12,17.4-1.42,2.58-2.7,5.23-4.17,7.78-.44,1.31-1.77,2.38-3.14,1.66Z"/>
    <path class="cls-1" d="M1026.35,334.1c-2.64-1.99-.04-5.77.8-8.13,1.58-3.44,3.41-6.75,5.06-10.16,2.15-4.34,3.56-8.46,5.93-12.58,1.27-2.35,4.71-1.84,4.38,1.05-.98,3.36-3.12,6.27-4.72,9.35-2.07,3.76-3.89,7.63-5.61,11.56,5.23-5.37,10.6-10.6,16.19-15.6,1.63-1.48,3.25-3,4.95-4.41.36-.29.75-.59,1.23-.62.48-.02.89.21,1.16.59.67.93-.31,2.03-.85,2.75-6.75,8.57-14.38,16.37-22.69,23.42-1.54,1.41-3.49,4.2-5.83,2.78Z"/>
    <path class="cls-1" d="M1027.31,334.06c-.91-.47-1.03-1.72-.26-2.38.82-.63,1.86-.96,2.78-1.43,6.52-3.18,13.34-5.7,20.2-8.03,2.43-.83,4.83-1.78,7.28-2.55,1.29-.38,2.7.18,3.28,1.43.61,1.32.04,3-1.3,3.6-6.34,2.7-12.98,4.54-19.53,6.67-2.91.98-5.83,1.96-8.84,2.6-1.18.17-2.46.62-3.61.1Z"/>
    <path class="cls-1" d="M1061.3,280.99c-8.81-6.15-15.85-14.48-23.46-21.99-2.43-2.41-4.89-4.78-7.38-7.12-1.03-1.08-2.39-2.03-2.91-3.48-.38-1.34.47-2.73,1.85-2.96.97-.17,1.92.33,2.79.7,9.5,4.43,19.39,7.99,28.87,12.45,2.71,1.49.6,5.56-2.19,4.19-6.9-3.66-13.86-7.22-21.21-9.91,6.48,6.07,13.09,12.02,18.92,18.73,2.06,2.36,4.17,4.96,5.79,7.6.68.88.06,2.13-1.07,1.79Z"/>
    <path class="cls-1" d="M1041.22,280.71c-4.29-10.9-10.29-21.37-13.96-32.48-.97-2.62,3.01-3.64,3.45-.9,1.84,4.23,4.02,7.78,6.1,11.79,3.5,6.41,6.16,13.22,8.39,20.17.67,2.45-2.97,3.77-3.99,1.42Z"/>
    <path class="cls-1" d="M1120.37,329.24c-1.23-.13-2.08-1.19-3.09-1.82-2.42-1.66-5.1-3.62-7.23-5.42-5.17-4.16-10.04-8.65-14.89-13.19-4.6-4.63-10.28-8.13-14.67-12.92-.66-1.88,2.15-1.35,3.12-.93,5.66,1.69,10.06,5.9,14.48,9.63,5.24,4.94,10.46,9.91,16.08,14.43-2.03-3.53-3.94-7.13-5.87-10.71-.71-1.76-2.49-3.34-2.25-5.33.44-2.26,3.75-2.6,4.65-.48,2.75,5.63,5.7,11.16,8.45,16.8.87,2.29,6,9.73,1.21,9.94Z"/>
    <path class="cls-1" d="M1118.1,328.87c-12.05-4.22-23.65-9.71-35.71-13.86-1.66-1.11-.84-3.91,1.17-3.93,1.51.08,2.95.74,4.4,1.12,8.92,2.83,17.73,6.13,26.16,10.2,1.94.95,3.85,1.96,5.71,3.04.66.38,1.48.71,1.82,1.45,0,0-.01,0-.02,0,.77,2.47-1.87,2.69-3.53,1.97Z"/>
    <path class="cls-1" d="M906.19,279.52c-.4-2.54,2.5-2.68,4.22-3.1,1.89-.46,3.74-1.02,5.56-1.7,3.9-1.62,7.34-4.17,10.32-7.13,1.83-1.8,3.54-4.18,6.35-4.29,1.27-.14,2.52.48,3.6,1.05,6.07,3.54,11.7,5.26,18.76,4.21,4.75-.44,9.19-2.52,13.53-4.11,2.57-1.03,5.38.12,7.65,1.25,4.61,1.69,9.08,4.15,13.95,4.93.76-.67,1.65.64.71,1.1-4.5,2.39-9.97-.07-14.49-1.36-2.69-.86-4.69-2.45-7.3-.41-11.26,6.96-25.76,8.12-36.41-.61-4.48,4.94-10.05,9.05-16.71,10.36-2.08.49-4.16.95-6.25,1.37-1.4.52-3.2.1-3.5-1.57Z"/>
    <path class="cls-1" d="M972.43,340.41c-.74-2.69,2.59-2.91,4.34-3.68,2.66-1.16,5.36-2.35,7.73-4.04,1.67-1.26,3.22-2.9,5.32-3.4,1.59-.36,3.15.22,4.58.89,3.57,1.44,7.21,2.79,11.01,3.5.21.02.41.06.6-.05.77-.3,1.64.29,1.78,1.07.17.89-.62,1.75-1.53,1.62-3.74.92-7.61,0-11.26-.9-1.4-.18-2.87-1.02-4.24-.85-2.42,1.62-4.7,3.48-7.43,4.58-2.66,1.1-5.47,1.82-8.23,2.63-1.08.31-2.3-.23-2.66-1.37Z"/>
    <path class="cls-1" d="M1115.05,213.66c-.05-2.33,2.12-2.64,3.96-2.68,2.65-.37,5.27-.95,7.8-1.82,2.74-1.1,4.92-3.11,7.34-4.73,3.52-2.28,7.74-.42,11.46.29,3.67.84,7.35,1.66,11.08,2.22,1.3.43,3.41-.52,3.85,1.24.2,1.84-2.14,1.76-3.39,2.1-6.64,1.06-13.19-.95-19.6-2.16-1.84.6-3.14,2.35-4.78,3.37-1.71,1.27-3.62,2.29-5.67,2.91-3.09.93-6.3,1.41-9.52,1.57-1.3.06-2.48-.97-2.54-2.29Z"/>
    <path class="cls-1" d="M522.09,218.21c-.24-1.8,1.27-3.36,3-3.48,4.35-.77,8.53-2.22,12.52-4.11,3.36-1.64,6.2-4.1,9.17-6.34,2.28-1.89,5.25-3.19,8.22-2.29,10.85,3.25,18.04,3.68,27.61-3.12,3.05-2.32,7.07-3.24,10.72-1.87,8.36,2.33,17,6.06,25.81,4.24.79-.38,1.79.03,2.1.84,1.09,2.88-6.23,3.54-8.07,3.82-5.13.42-10.23-.74-15.13-2.15-3.36-.57-7.37-3.38-10.61-1.41-4.22,2.95-8.36,6.3-13.44,7.63-5.32,1.53-10.84.63-16.15-.47-2-.1-4.28-1.81-6.09-.54-3.95,2.79-7.56,6.16-12.08,8.03-4.45,2.11-9.3,3.19-14.14,3.95-1.65.29-3.26-1.13-3.43-2.74Z"/>
    <path class="cls-1" d="M529.64,246.56c-.38-1.51.57-3.21,2.14-3.55,4.4-.94,8.88-2.19,12.96-4.04,16.55-9.13,12.97-5.25,30.32-2.87.82.36,1.08,1.4.54,2.11-3.16,2.52-11.73-.01-15.83.18-3.67.42-6.65,2.99-9.86,4.63-2.29,1.3-4.71,2.34-6.82,3.03-3.26,1.05-6.55,1.93-9.9,2.63-1.52.33-3.15-.54-3.55-2.13Z"/>
    <path class="cls-1" d="M258.06,211.45c-6-.13-10.15-5.09-14.5-8.29-3.7,1.15-7.16,3.01-10.93,4.01-3.68,1.03-7.52,1.38-11.29,1.95-1.31.19-2.58-.76-2.89-2.01-.34-1.35.52-2.98,1.95-3.24,1.8-.33,3.57-.75,5.33-1.22,4.5-.98,8.7-2.77,12.85-4.71,10.68-5.39,11.39,5.75,20.36,6.6,2.87.24,5.74-.12,8.5-.95,6.08-1.7,12.34-7.66,18.76-4.15,5.3,2.81,10.66,6.27,16.64,7.3,2.89.16,2.59,4.48-.36,4.17-6.29-.82-12.05-3.58-17.94-5.76-1.82-.94-3.59-.16-5.27.68-2.53,1.23-5.04,2.58-7.67,3.59-4.29,1.69-8.94,2.49-13.55,2.03Z"/>
    <path class="cls-1" d="M216.48,641.23c-.03-.76.61-1.55,1.41-1.53,1.38-.03,2.73-.55,4.03-.96,7.33-2.56,12.79-8.11,18.11-13.48,5.71-3.2,8.86,5.12,13.13,7.4,2.97,1.81,6.45,2.43,9.82,3.02,1.07.18,1.8,1.29,1.71,2.33-.1,1.14-1.19,2.17-2.37,2-2.94-.44-5.9-.85-8.8-1.55-4.5-1.15-7.86-4.48-11.09-7.61-4.06,3.82-8.67,7.15-13.99,8.94-3.32,1.27-6.74,2.46-10.28,2.84-.84.12-1.64-.54-1.68-1.39Z"/>
    <path class="cls-1" d="M607.24,647.69c-8.31-2.17-15.23-7.42-21.68-12.87-14.49,8.52-24.63,10.37-38.9.14-8.35,4.79-16.33,9.99-26.02,11.88-4.39.57-8.85.34-13.27.38-1.11,0-2.02-.96-2.01-2.07.17-2.62,3.22-1.91,5.04-2.09,3.83-.3,7.75-.44,11.44-1.6,3.85-1.3,7.41-3.25,10.79-5.48,5.33-3.02,10.45-10.51,17.28-7.55,2.97,1.41,5.73,3.25,8.88,4.28,4.12,1.69,8.68,1.68,12.88.24,3.12-1.05,6.09-2.45,9.03-3.93,3.37-2.02,7.37-1.74,10.14,1.16,8.27,7.6,18.29,14.6,29.93,14.82,1.02,0,2.49-.22,2.7,1.14.02,1.74-2.35,1.89-3.63,2.24-4.2.84-8.49.33-12.61-.71Z"/>
    <path class="cls-1" d="M462.66,686.28c-.18-.69.25-1.42.95-1.59,1.46-.36,2.88-.78,4.31-1.23,4.26-1.3,8.06-3.62,11.76-6.04,4.1-2.91,8.82-7.08,14.17-4.8,2.9,1.1,5.61,2.71,8.68,3.33,8.19,2.28,15.32-3.03,22.39-6.27,5.89-2.67,11.31,2.24,16.43,4.57,6.35,3.05,13.16,5.28,20.2,5.92.97.06,1.93.1,2.9.06.47-.06.96.16,1.17.67.78,2.45-5.83,2.61-7.38,2.87-6.38.41-12.85-.67-18.86-2.8-3.21-1.2-6.2-2.88-9.22-4.48-1.03-.55-2.09-.93-3.21-.37-11.9,5.22-20.08,10.31-33.22,4.37-1.74-.47-3.11-2.31-5-1.86-4.09,1.45-7.58,4.28-11.73,5.65-3.65,1.41-7.59,2.14-11.42,2.69-1.02.2-2.5.68-2.89-.7Z"/>
    <path class="cls-1" d="M1101.45,877.72c-3.61-.09-7.35-.23-10.75-1.56-4.7-1.97-8.95-6.89-7.78-12.26,2.22-7.37,10.81-9.82,17.44-11.7,7.41-1.84,15.8-2.36,22.64,1.57,5.19,2.65,7.98,9.49,4.6,14.6-3.93,5.62-11.54,6.7-17.83,7.85-2.67.96-5.48,1.58-8.33,1.5ZM1104.25,871.24c1.4-.86,3.91-.55,5.25-1.03,3.44-.82,6.87-1.96,9.87-3.87,6.1-4.22-3.19-7.66-7.04-7.53-6.06-.26-17.65,1.97-21.59,6.8,1.43,4.53,9.4,5.48,13.51,5.63Z"/>
    <path class="cls-1" d="M464.21,825.89c-6.15-1.01-18.47-3.08-19.12-10.68-.07-8.81,1.04-17.86,3.9-26.22,1.63-4.28,3.85-8.3,6.27-12.19,12.57-20.16,38.03-29.75,61.09-26.05,18.54,3.07,34.74,14.23,47.47,27.65,6.56,6.92,11.48,15.38,13.53,24.74.96,4.36,2.32,8.92,1.68,13.4-.89,2.23-3.35,3.26-5.39,4.17-7.6,3.32-16.05,4.18-24.26,4.18-3.75-.39-10.59.33-12.43-3.7-2-11.87-6.31-22.44-16.38-29.65-5.58-4.18-13.17-4.4-19.4-1.6-6.65,3.32-10.92,9.58-13.4,16.38-2.52,5.42-4.13,18.33-10.53,19.72-4.33.46-8.71.52-13.02-.16ZM475.24,821.26c2.51.04,3.76-8.03,4.68-10.15.72-2.26,1.55-4.48,2.4-6.69,2.57-6.46,6.52-12.68,12.16-16.86,22.08-15.84,46.21,8.83,47.37,31.34,4.31.96,8.78.64,13.14.19,6.55-.43,12.72-2.51,18.66-5.15-.32-4.12-2.15-7.89-3.46-11.76-1.91-6.05-4.69-11.8-8.54-16.86-11.83-15.48-30.94-27.41-50.4-29.8-20.21-2.22-41.76,7.22-51.7,25.36-2.98,5.1-5.58,10.5-6.91,16.28-1.09,5.88-1.75,11.91-1.64,17.89,2.62,2.5,6.32,3.19,9.7,4.06,4.8.95,9.61,2.2,14.53,2.15Z"/>
    <path class="cls-1" d="M464.29,838.44c-7.23-.66-14.61-1.77-21.33-4.63-10.05-4.31-17.75-13.44-10.54-24.01,1.64-3.16,13.05-12,14.76-5.72.26,3.05-3.09,2.6-4.99,3.58-3.58,1.89-6.75,5.11-7.77,9.11-2.01,10.36,16.83,16.07,24.54,18.21,1.78.46,3.55.97,5.35,1.37.56-.08,1.1.37,1.17.92.08.66-.53,1.3-1.19,1.17Z"/>
    <path class="cls-1" d="M484.37,833.77c-.3-.77.23-1.59,1.03-1.7,4.24-2.67,5.73-6.2,3.39-10.84-1.17-2.03-2.28-4.38-4.29-5.7-2.93-.49-3.59-4.39-.6-5.29,3.28-.49,5.89,2.46,7.55,4.93,3.17,4.36,4.29,10.7.74,15.18-1.46,1.94-3.65,3.19-5.92,3.97-.65.45-1.61.22-1.91-.55Z"/>
    <path class="cls-1" d="M549.43,838.09c-3.68-.1-7.32-.76-11-.98-.96-.07-1.68-1.02-1.68-1.93,0-1.02.9-1.98,1.95-1.92,14.22.2,31.89-.14,43.43-9.35.39-.72,1.3-1.09,2.11-.62,2.15,1.71-1,3.85-2.2,5.1-9.03,7.44-21.13,10.09-32.63,9.7Z"/>
    <path class="cls-1" d="M300.47,821.67c-5.43-.81-10.69-2.32-15.82-4.25-1.38-.42-3.39-1.14-2.89-2.96.61-2.05,2.94-1.26,4.43-.79,14.4,3.37,30.85,6.31,44.41-1.32.2-.55.86-.9,1.46-.65,2.45,1.41-2.83,4.17-3.88,5.07-8.23,4.77-18.34,6.34-27.71,4.91Z"/>
    <path class="cls-1" d="M288.67,816.95c-4.24-9.88-7.6-20.19-13.7-29.14-7.22-10.48-16.62-19.23-26.68-26.94-4.41-3.5-9.22-6.47-13.55-10.07-3.05-2.2-4.37-6.62.22-7.93,4.72-.72,9.6.56,14.26,1.32,10.98,2.2,21.12,7.19,30.79,12.71,16.44,9.45,31.08,22.48,40.75,38.9,2.52,4.61,8.34,15.14,6.16,20.09-1.08.89-1.75-.35-2.05-1.28-1.12-2.69-2.38-5.34-3.68-7.95-6.12-12.14-14-23.95-24.26-32.87-7.67-6.84-16.65-12.34-25.76-16.97-9.87-5.16-21.07-8.67-32.16-9.16,8.9,6.49,18.01,12.78,25.92,20.52,10.65,10.44,19.74,22.77,24.95,36.84,1,2.69,1.95,5.95,2.46,8.65.4,1.52.7,3.75-1.25,4.27-.9.25-1.94-.14-2.4-.98Z"/>
    <path class="cls-1" d="M321.4,804.87c-1.61-1.66,1.58-4.29,2.53-5.68,2.66-3.12,5.48-6.1,8.5-8.88-5.62-1.48-11.47-1.86-17.21-2.69-1.42-.12-2.83-.37-4.25-.44-.95,0-1.74-.79-1.74-1.73,0-1.03.95-1.88,1.97-1.72,7.8.75,15.72.25,23.31,2.31,5.38,1.75,4.67,5.85.92,9.05-3.42,3.62-7.4,6.65-11.44,9.54-.57.87-1.88,1-2.6.25Z"/>
    <path class="cls-1" d="M305.02,779.95c-.6-1.45.33-3.31.56-4.82,1.45-5.18,3.29-10.26,5.44-15.19-4.75-.48-9.49.78-14.15,1.59-3.09.7-6.32,1.27-9.1,2.85-2.26,1.21-4.15-1.98-1.97-3.37,5.56-2.48,25.34-8.92,29.72-3.9,1.24,1.42.94,3.46.2,5.05-.93,2.32-1.99,4.59-3.07,6.84-.71,1.25-6.33,12.98-7.62,10.95Z"/>
    <path class="cls-1" d="M278.51,758.42c-1.07-1.08-.71-2.88-.98-4.28-.42-4.34-.02-8.73-.22-13.06-2.11.3-4.12,2.18-5.62,3.37-2.43,2.19-4.94,4.31-7.2,6.68-1.39,1.72-4.02-.29-2.68-2.07,3.9-4.5,10.21-13.13,16.87-12.01,2.02.59,3.07,2.71,3.12,4.69.2,4.13-.21,8.27-.48,12.39-.28,1.4.23,3.19-.88,4.28-.51.45-1.43.45-1.94,0Z"/>
    <path class="cls-1" d="M266.45,822.04c-12.74-11.26,2.17-24.95,15.34-23.39,2.27.33,1.81,3.75-.48,3.48-3.97-.28-7.88,1.31-11.19,3.24-4.83,3-6.7,10.26-2.7,14.66,1.57.72.5,2.96-.98,2.01Z"/>
    <path class="cls-1" d="M303.5,839.24c.01-1.11,1.09-1.4,2.01-1.29,1.58-.11,3.15-.47,4.7-.76,12.69-3.28,38.1-11.3,29.39-28.78-2.04-2.24.92-5.4,3.2-3.32,4.24,4.46,5.71,11.56,3.26,17.25-5.53,11.63-21.4,16.23-33.27,17.74-2.66.26-5.33.41-8,.46-.7.01-1.29-.6-1.29-1.29Z"/>
    <path class="cls-1" d="M657.12,828.5c.27-1.07,1.39-1.1,2.26-.78,1.56.27,3.17.29,4.75.37,13.11-.2,39.69-2,35.35-21.05-1.45-2.66,2.16-5.03,3.89-2.48,3.07,5.33,2.82,12.58-.89,17.53-8.11,10-24.62,10.73-36.52,9.4-2.65-.37-5.27-.86-7.89-1.44-.68-.15-1.11-.88-.95-1.56Z"/>
    <path class="cls-1" d="M361.06,824.83c-1.07-.14-1.84-1.16-1.69-2.22.35-3.08,1.05-6.21.49-9.3-1.01-3.94-2.89-7.82-5.65-10.83-1.23-.21-.89-2.23.36-2,3.18.91,5.15,4.52,6.96,7.09,1.94,3.25,2.5,7.31,2.2,11-.41,2.06.46,6.42-2.68,6.26Z"/>
    <path class="cls-1" d="M719.65,815.65c-1.07-.14-1.84-1.16-1.69-2.22.35-3.08,1.05-6.21.49-9.3-1.01-3.94-2.89-7.82-5.65-10.83-1.23-.21-.89-2.23.36-2,3.18.91,5.15,4.52,6.96,7.09,1.94,3.25,2.5,7.31,2.2,11-.41,2.06.46,6.42-2.68,6.26Z"/>
    <path class="cls-1" d="M252.24,800.99c-1.78-1.13-.32-3.1.84-4.07,1.06-.93,2.32-2.35,3.62-.89.63.82.31,1.98-.58,2.43-.22.16-.4.36-.59.55-.82,1.1-1.65,2.91-3.3,1.98Z"/>
    <path class="cls-1" d="M413.49,822.87c-2.18-7.29-2.76-15.14,3.48-20.63,1.1-.85,4.28-3.77,5.41-2.08.73,1.29-.6,1.82-1.47,2.43-5.96,4.52-6.18,12.63-4.17,19.24.66,2.13-2.58,3.16-3.26,1.04Z"/>
    <path class="cls-1" d="M601.22,821.57c-2.74-.44-1.27-3.81-1.28-5.66.14-1.69.5-3.44.11-5.11-.11-.6.26-1.21.84-1.4.8-.28,1.71.43,1.61,1.28.24,1.39.47,2.78.58,4.19-.13,2.01,1.26,6.69-1.86,6.7Z"/>
    <path class="cls-1" d="M572.34,798.36c2.14-5.73,6.46-10.66,9.15-15.95-2.91-.51-6.04.25-8.86.74-2.49.48-4.75,1.01-7.07,1.86-1.09.41-2.33-.04-2.79-1.14-.46-1.08.07-2.33,1.14-2.79,4.45-1.89,9.17-3.25,14-3.68,8.23-.89,11.56,3.94,6.43,10.8-2.6,3.91-5.38,7.7-8.23,11.43-.21.72-.8,1.33-1.63,1.45-1.49.23-2.67-1.33-2.13-2.73Z"/>
    <path class="cls-1" d="M553.34,774.11c-.32-.4-.35-.87-.19-1.27-.1-6.82,1.24-13.69,2.63-20.18-6.45,2.33-12.62,5.66-18.51,8.91-2.45,1.08-4.51-2.38-2.38-4.03,3.22-1.99,6.57-3.78,9.81-5.74,4.08-2.2,8.3-4.85,12.99-5.32,6.22.14,4.55,6.66,3.27,10.64-1.06,3.79-2.26,7.54-3.42,11.3-.75,1.61-1.46,7.98-4.21,5.68Z"/>
    <path class="cls-1" d="M525.31,756c-2.65-6.04-4.31-12.44-5.32-18.81-3.15,3.98-5.44,8.74-7.48,13.35-.43,1.05-1.64,1.59-2.7,1.18-1.07-.42-1.59-1.65-1.18-2.71,1.55-3.95,3.31-7.86,5.5-11.5,1.66-3.02,5.89-8.2,9.34-4.58.97,1.2,1.31,2.8,1.65,4.28.82,3.51,1.61,7.02,2.28,10.57.47,2.33.82,4.7,1.19,7.05.38.77.05,1.8-.7,2.22-.95.58-2.29.01-2.57-1.05Z"/>
    <path class="cls-1" d="M478.41,757.49c-.96-1.62-.58-3.63-.59-5.42.23-5.58.62-11.19,1.49-16.71.66-4.9,4.55-4.92,6.99-1.08,4.39,5.5,8.4,11.39,11.6,17.66.47.81-.47,1.85-1.33,1.35-.72-.54-1.3-1.26-1.88-1.93-3.64-4.18-7.26-8.38-10.84-12.61-.32,4.76-.7,9.72-.98,14.41-.08,1.41.02,2.99-.64,4.29-.76,1.47-3,1.48-3.81.05Z"/>
    <path class="cls-1" d="M450.32,784.88c-4.93-5.49-8.6-12.26-10.82-19.28-1.83-7.89,5.57-5.41,10.35-5.05,5.68.53,11.3,1.51,16.86,2.76,1.71.14,2.21,2.02.3,2.36-7.48.49-15-.77-22.48-1,2.82,5.86,6.05,11.79,9.73,17.11,1.51,2.45-1.89,5.12-3.93,3.1Z"/>
    <path class="cls-1" d="M515.87,819.62c-1.63-1.49-.98-4.13-.34-5.97,1.91-5.05,7.14-7.85,12-9.48,2.44-.69,9.3-3.74,9.96-.07.14,2.19-1.71,2.46-3.46,2.42-3.99.5-7.9,1.81-11.31,3.91-2.64,1.78-4.85,4.17-5.13,7.41.91,1.06-.61,2.66-1.71,1.78Z"/>
    <path class="cls-1" d="M634.15,813.88c-1.63-1.49-.98-4.13-.34-5.97,1.91-5.05,7.14-7.85,12-9.48,2.44-.69,9.3-3.74,9.96-.07.14,2.19-1.71,2.46-3.46,2.42-3.99.5-7.9,1.81-11.31,3.91-2.64,1.78-4.85,4.17-5.13,7.41.91,1.06-.61,2.66-1.71,1.78Z"/>
    <path class="cls-1" d="M384.22,704.2c-7.18-1.39-13.22-5.85-19.43-9.44-.54-.34-1.13-.2-1.69-.02-2.23.88-4.31,2.1-6.53,3.02-5.7,2.44-12.39,3.15-18.26.87-2.09-.85-4.12-1.84-6.09-2.92-1.3-.67-2.47-1.75-3.97-1.89-4.1.29-7.62,2.87-11.36,4.36-2.98,1.33-6.09,2.38-9.21,3.32-2.28.65-3.52-2.85-1.26-3.73,5.65-1.96,10.58-5.38,15.8-8.19,2.56-1.34,5.6-2.35,8.49-1.61,4.32,1.39,8.04,4.37,12.56,5.25,3.3.6,6.7.2,9.86-.84,4.32-1.27,8.78-5.05,13.4-2.96,5.58,3.49,10.66,7.84,16.53,10.9,1.09.57,2.25,1.02,3.4,1.46,1.04.45,1.03,1.93,0,2.38-.68.29-1.53.2-2.24.06Z"/>
    <path class="cls-1" d="M423.5,659.17c-5.81-1.55-10.9-4.99-16.13-7.78-.58-.3-1.21-.52-1.86-.57-4.31-.07-8.06,2.67-12.14,3.76-3.02.98-6.14,1.73-9.32,1.86-1.28.05-2.35-1.13-2.34-2.37,0-1.3,1.09-2.32,2.37-2.34,4.2-.02,8.15-1.7,11.91-3.41,3.29-1.58,6.95-3.16,10.66-2.32,2.9.63,5.08,2.78,7.53,4.31,2.75,1.77,5.52,3.53,8.45,4.98,1.21.56,2.44,1.07,3.72,1.46,1.35.53,1.09,2.68-.38,2.82-.82.09-1.68-.2-2.46-.4Z"/>
    <path class="cls-1" d="M848.57,839.79c-.69-.53-.68-1.46-1.04-2.2-.88-2.93-2.27-5.88-3.65-8.41-6.82-11.93-17.12-22.35-28.53-29.72-10.04-6.35-21.94-8.55-31.82-15.05-4.67-3-9.4-6.57-12.08-11.54-.28-.79-1.09-2.13,0-2.59.43-.13.87.12,1.01.54.28.73.79,1.35,1.21,2,3.77,5.5,9.49,8.89,15.37,11.56,7.88,3.52,16.31,5.52,24.23,8.93,16.45,7.82,29.87,22.09,35.76,39.4.72-14.74-8.17-28.69-20.53-36.17-8.63-5.03-20.18-6.79-25.49-16.14-1.64-2.6-1.46-5.82-2.76-8.54-4.16-7.9-8.84,1.54-14.37,1.39-3.52.27-6.61-1.66-9.05-4.04-2.79-2.67-4.79-6.37-8.75-7.14-2.09-.27-4.64-.62-5.4,1.92-.44,1.21-1.86,1.9-3.08,1.43-4.52-2.55,1.69-7.78,5.07-7.34,6.47-.74,10.54,4.71,14.79,8.61,3.42,3.04,7.42,2.39,10.89-.14,4.2-2.95,9.27-2.7,12.36,1.68,2.14,2.48,2.85,5.73,3.71,8.77,2.42,6.13,7.08,7.94,12.6,10.21,16.4,6.46,29.69,20.87,32.57,38.52.56,3.78,1.45,7.73.49,11.5-.29,1.55-1.75,3.72-3.51,2.58Z"/>
    <path class="cls-1" d="M806.59,849.71c-.38-.42-.22-.95-.16-1.3.09-1.69.48-3.34.53-5.04.34-6.23-.19-12.45-1.98-18.4-2.51-7.2-6.17-14.41-10.34-20.73-5.05-7.15-11.04-13.55-16.51-20.36-2.26-2.86-4.49-5.75-6.48-8.57-1.04-1.29-2.63-4.02.14-4.26,1.18.14,1.51,1.48,2.16,2.3,4.53,5.31,10.05,9.99,16.31,13.07.08.02.18.1.25.08.25-.06.46.31.2.45-1.55.08-3.04-.89-4.44-1.5-1.9-.97-3.65-2-5.37-3.11,11.25,12.29,23.15,25.48,26.28,42.42-.04-.61.42-1.18,1.03-1.28.69-.12,1.29.35,1.43,1.01.93,3.84,1.58,7.85,1.49,11.79,0,4.24-1.03,8.33-2.48,12.29-.15,1-1.11,2.14-2.05,1.14Z"/>
    <path class="cls-1" d="M831.79,851.75c-3.19-2.32-4.91-6.21-6.62-9.67-2.08-4.13-3.88-8.39-5.52-12.7-2.4-5.6-3.55-12.17-8.5-16.18-6.58-5.07-13.94-9.2-19.54-15.46-.95-.98-1.83-2.01-2.59-3.14-.24-.35-.17-.86.12-1.16,1.08-.92,2.24.74,3.16,1.23,4.58,3.99,9.51,7.42,14.38,11.03,5.21,3.39,10.29,7.62,12.73,13.5,1.53,3.9,2.19,8.12,3.24,12.11,1.48,5.5,4.67,10.6,8.1,14.99-.06-1.52-.56-3.95.93-4.9.92-.25,1.67.07,2.59.06-10.25-7.42-8.71-22-16.86-30.77-6.61-6.77-16.33-9.39-22.79-16.38-2.78-2.76-5.04-5.83-7.6-8.76-.58-.23-.83-1.02-.45-1.54.44-.61,1.32-.51,1.69.07,2.36,2.29,4.65,4.65,7.16,6.77,8.87,7.32,21.32,10.65,27.87,20.58,5.03,6.89,5.04,16.5,10.35,23.17,1.89,2.66,3.91,5.35,6.5,7.33.62.94,1.84,2.04.36,2.91-2.16.34-4.87-.68-7.09-.98.36,2.05.69,4.07,1.16,6.03.49,1.63-1.45,2.8-2.79,1.89Z"/>
    <path class="cls-1" d="M829.78,849.12c-5.37-3.64-7.55-10.04-9.55-15.91-1.03-3.13-1.56-6.14-2.31-9.23-.5-2.07-1.06-4.33-1.81-6.27-.21-.71-.71-1.43-.6-2.18.43-1,1.4-.18,1.67.51,3.79,8.34,5.33,17.96,9.94,25.91,1.15,2.1,2.29,3.96,3.91,5.63.89.8-.27,2.26-1.25,1.55Z"/>
    <path class="cls-1" d="M809.18,832.9c-1.22-2.34-1.73-5.11-2.59-7.63-1.6-5.98-3.83-11.75-6.77-17.2-1.04-.86-1.55-2.45-1.64-3.77.08-1.27,1.69-1.99,2.69-1.22,0,0,0,0,0,0,.29.2.51.47.71.76.55-.03,1.08.37,1.17.94.61,1.06,1.19,2.13,1.7,3.24,1.58,3.58,3.31,7.13,4.34,10.93.57,1.49,3.24,15.02.39,13.96Z"/>
    <path class="cls-1" d="M796.36,792.75c-.88.03-1.52-.82-1.92-1.5,0,0,0,0,0,0-.64-1.22,1.07-2.52,2.07-1.55.43.4.66.94.9,1.47,0,0,0,0,0,0,.08.24.08.51,0,.77-.01.03-.02.06-.04.09.4.63-.54,1.3-1.01.72Z"/>
    <path class="cls-1" d="M802.77,797.59c-.71-1.01-4.26-6.53-2.58-7.16.41-.2.88-.04,1.14.32,1.19,2.04,1.95,4.34,2.84,6.5.16.87-1.15,1.18-1.4.33Z"/>
    <path class="cls-1" d="M804.05,857.61c-4.67-3.28-2.74-13.62-3.32-18.84-.16-5.65-1.03-11.34-3.16-16.5-5.33-13.11-16.88-22.08-26.82-31.61-3.85-3.92-7.31-8.25-9.86-13.14-1.89-3.25-3.57-6.95-2.89-10.79.14-.91.38-1.82.87-2.6.89-1.38,3.19-.58,3.01,1.07-.17,1.48-.63,2.92-.65,4.42-.31,4.38,2.66,8.01,4.97,11.44,5.09,7.28,13.04,11.64,19.32,17.74,8.94,8.81,15.96,20.16,16.8,32.92.62,5.65.42,11.36.99,17.02.19,2.06.44,4.26,1.63,6,.19.2.45.47.72.56.25,0,.49-.13.69-.26,3.98-4.05,5.19-9.85,6.17-15.22,1.48-10-.04-20.64-4.1-29.84-.25-.29-.18-.75.14-.95.39-.25.88,0,1,.43,1.24,2.38,2.15,4.93,3.04,7.46,3.48,10.84,4.69,23.19.16,33.89-1.55,3.22-4.34,9.06-8.73,6.79Z"/>
    <path class="cls-1" d="M797.44,789c-3.42-.64-6.49-2.65-9.5-4.3-3.75-1.85-7.84-3.1-11.22-5.63.93,1.5,2.15,2.78,3.23,4.16.53.7-.55,1.57-1.12.91-2.48-2.89-4.98-5.8-7.4-8.72-.96-.95-1.67-2.07-2.18-3.31-.28-.62-.5-1.29-.26-1.96,1.21-2.81,3.85-.37,4.68,1.4,1.48,2.89,4.17,4.97,6.67,6.87,3.81,3.16,8.04,5.79,12.6,7.68,1.57.79,3.36,1.09,4.85,2,.54.22.24,1.1-.33.9Z"/>
    <path class="cls-1" d="M803.11,797.27c-.37-1.1-.9-2.13-1.37-3.2-.25-.65-.55-1.33-.47-2.04.16-.66.93-.36,1.2.06,1.1,1.31,1.23,3.12,2.15,4.52.52,1.01-1.1,1.74-1.51.66Z"/>
    <path class="cls-1" d="M813.61,827.64c-.39-2.7-.76-5.43-1.28-8.06-.79-2.74-2.01-5.4-2.49-8.21-.44-.82.93-1.3,1.09-.37,2.17,3.17,2.39,7.11,2.95,10.78.35,1.89.72,3.78,1.04,5.68.09.79-1.17.98-1.31.19Z"/>
    <path class="cls-1" d="M813.61,831.52c-.45-6.29-1.31-12.54-3.02-18.62-.44-1.18,1.35-1.96,1.91-.83,1.04,3.82,1.95,7.73,2.64,11.64.38,2.64.39,5.08.39,7.66-.03,1.09-1.72,1.23-1.91.15Z"/>
    <path class="cls-1" d="M759.67,769.86c-.03-2.72.35-5.87,2.35-7.89,2.43-2.28,6.34-1.99,8.77.1.83.66,2.15,1.02,2.54,2.08.07.33-.3.68-.64.5-.22-.1-.4-.31-.57-.48-1.61-2.07-3.99-2.2-6.23-1.21-1.41.43-2.95,1.23-3.78,2.46-.82,1.28-.98,2.87-.89,4.32.05,1.01-1.46,1.13-1.55.12Z"/>
    <path class="cls-1" d="M763.13,780.97c-.95-.87-1.75-1.86-2.37-2.99-.56-.75-1.22-1.41-1.67-2.23-2.27-4.62-4.03-11.4.49-15.19.7-.6,1.68.45,1.02,1.11-3.21,5.01.12,10.48,2.32,15.14.72.9,1.27,1.89,1.73,2.95.19.4.12.87-.21,1.18-.34.32-.95.37-1.3.04Z"/>
    <path class="cls-1" d="M794.12,767.7c-.52-.38-.69-1.11-.39-1.68.15-.28.41-.49.71-.61,3.28-4.69,6.1-10.32,5.84-16.17-.55-3.32-2.63-6.6-5.8-7.92-6.39-2.11-10.96,5.48-13.26,10.33-1.66,3.77-2.77,7.8-3.03,11.92-.05.65-.02,1.26-.24,1.89-.53,1.54-2.9,1.68-3.53.14-1.25-9.3,4.13-19.36,10.7-25.69,7.17-7.29,18.21-3.71,20.24,6.18,1.67,7.7-3.72,16-9.24,20.96-.25.82-1.32,1.15-2,.64Z"/>
    <path class="cls-1" d="M805.28,777.56c-.63-1.57,1.37-1.97,2.39-2.5,3.25-2.06,5.75-4.98,8.26-7.84,4.73-5.61,5.36-15.34-3.36-17.04-2.78-.5-5.49.53-7.93,1.75-1.41.39-1.76-1.36-1.13-2.32,3.05-5.71,11.52-5.14,15.68-1,5.19,4.57,4.02,12.56.85,17.97-2.43,4.65-6.67,7.9-11.14,10.44-1.08.6-2.73,2.18-3.63.54Z"/>
    <path class="cls-1" d="M783.53,765.85c-.97-1.02.03-2.4.27-3.52,1.05-3.8,2.95-7.34,5.25-10.54,1.35-1.92,3.16-3.43,4.73-5.14.65-.82,2.16-.56,2.6.32.25.58.06,1.1-.05,1.5-.41,1.41-1.14,3.06-1.64,4.34-1.06,2.79-7.45,15.71-11.15,13.04Z"/>
    <path class="cls-1" d="M803.66,769.6c-.91-1.03.43-2.36.71-3.42,1.13-2.79,2.84-5.25,4.84-7.49,1.01-.82,2.35-3.91,3.82-2.5.45.52.23,1.22.01,1.79-.56,1.34-1.26,2.62-1.91,3.91-1.2,1.84-4.86,9.45-7.47,7.71Z"/>
    <path class="cls-1" d="M802.94,770.42c-.4-2.44,1.4-4.49,2.5-6.5,1.8-2.74,3.89-5.3,5.94-7.85.55-.56,1.24-1.31,2.12-1.03.54.18.84.66.84,1.21-.08.58-.34,1.13-.52,1.68-1.67,3.23-3.17,6.58-5.48,9.41-1.06,1.14-4.07,6.08-5.38,3.06ZM807.38,765.07c1.47-1.73,2.67-3.59,3.68-5.59-.54.43-.79,1.14-1.49,1.15-.95,1.39-1.63,2.96-2.19,4.44Z"/>
    <path class="cls-1" d="M665.86,818.27c-5.65-.82-12.07-1.84-16.37-5.87-.96-1.02-.79-3.05.95-2.6,8.27,4.44,18.21,4.45,27.29,4.18,6.42-37.15,47.71-49.64,78.36-32.14,4.33,2.29,8.41,4.16,13.01,5.55,1.96.72,5.29.36,5.45,3.13-.21,5.93-14.01-.26-16.98-1.54-6.41-3.22-12.92-6.56-20.1-7.68-16.95-3.09-35.68,1.93-46.43,15.91-3.37,4.29-5.49,9.39-7.43,14.45-.84,1.88-1.46,4.03-3.14,5.33-.65.5-1.36.73-2.16.88-4.1.7-8.31.86-12.45.4Z"/>
    <path class="cls-1" d="M651.83,800.14c-.47-.13-.66-.64-.49-1.07,1.5-5.35,3.82-10.45,6.47-15.32,8.17-15.52,22.87-26.61,38.97-33,7.05-3.16,14.62-5.15,22.34-5.66,13.37-1.29,29.53,2.47,39.55-8.84,10.6-11.13,8.07-25.58,6.8-39.43-.27-5.69-.26-11.43.24-17.11,1.47-18.29,17.57-19.65,22.8-2.12-.02-4.44-.37-9.6,2.51-13.29,3.6-4.27,10.37-3.15,14.2.23,4.43,4.41,6.44,10.72,6.73,16.85,1.45-7.5,9.01-15.76,16.68-10.07,2.24,1.63,3.09,4.37,3.95,6.89,1.43,3.8,1.4,7.89,1.32,11.89-.14,11.2-2.91,22.17-6.27,32.8-.79,2.51-1.71,4.98-2.7,7.43-.65,1.76-1.58,4.38-3.96,3.44-1.08-.46-1.57-1.61-1.32-2.71,1.56-5.6,3.91-10.94,5.51-16.53,1.93-6.49,2.9-13.17,3.28-19.6.16-6.44.89-13.75-2.94-19.31-5.83-3.87-9.29,5.92-10.12,10.28-2.35,12.53-4.17,25.36-9.54,37.05-.71,1.45-1.36,2.99-2.34,4.27-1.22,1.28-3.43-.23-2.68-1.83,2.04-4.26,3.63-8.97,4.55-13.55,2.01-11.45,3.36-23.31,1.4-34.85-1.28-4.09-3.22-9.12-7.7-10.46-1.69-.58-3.66-.49-4.91.93-2.02,3.65-1.39,8.43-1.37,12.4,1.08,11.68.42,23.67-2.54,35.01-.72,1.65-.82,6.36-3.3,5.82-.68-.2-1.16-.87-1.11-1.55,1.37-5.1,1.72-10.23,1.62-15.46.03-8.41-.8-16.83-3.68-24.77-2.66-7.74-9.37-12.9-11.99-1.74.02-.1.04-.18.05-.27-1.36,6.62-1.01,13.45-.73,20.17.72,10.01,2.47,20.48-1.4,30.09-7.71,17.81-20.36,22.77-38.84,22.96-8.94.28-18.12-.21-26.69,2.8-16.94,6.18-33.02,15.75-43.12,31.01-3.13,4.83-6.12,9.82-8.16,15.22-.11.54-.43,1.2-1.09,1.02Z"/>
    <path class="cls-1" d="M807.8,784.23c-.49-.84-.22-2.03.65-2.5.33-.17.67-.31,1-.48,4.79-2.48,9.02-5.56,13.1-9,9.63-8.06,16.5-18.55,23.7-28.68,6.19-9.41,10.36-20.13,13.27-30.98,1.1-5.15.09-16.37-5.76-6.78-5.15,7.9-8.9,16.68-14.8,24.11-.98,1.24-1.83,2.64-3,3.71-.94.77-2.33-.45-1.68-1.48,0,0,0,0,0,0,5.74-10.74,11.91-21.79,12.9-34.15-.23-3.25.6-8.63-3.03-9.81,0,0,0,0,0,0-2.1,1.39-3.39,4.13-4.48,6.15-1.78,3.61-3.39,7.29-4.9,11.03-2.72,6.77-5.08,13.71-8.48,20.19-1.06,2.03-2.13,4.07-3.41,5.97-.26.38-.64,1.09-1.19.86-.34-.12-.53-.6-.25-.91,2.45-6.81,4.94-13.62,6.71-20.64,2.26-8.22,3.94-16.89,8.58-24.19,3.87-6.19,10.25-6.93,14.37-.55,1.96,3.93,1.49,8.7.92,12.85,2.27-2.77,6.63-3.21,9.48-1.11,2.79,2.03,3.32,5.77,3.66,8.97.5,7.43-2.38,14.6-5.13,21.36-2.11,4.99-4.15,10.06-7.1,14.63-3.36,5.41-7.72,10.36-11.05,15.75-5.62,8.12-13.05,15.06-21.45,20.23-2.64,1.66-5.28,3.29-7.93,4.94-1.42.75-3.49,2.44-4.71.53Z"/>
    <path class="cls-1" d="M670.09,817.35c-6.96-.39-14.09-1.22-20.49-4.14-1.07-.64-1.46-1.94-1.33-3.12,2.99-20.64,14.38-36.53,31.33-48.21,10.51-8.06,21.54-11.76,34.53-13.38,11.64-1.11,23.57-1.2,34.77-4.88,3.12-1.07,6.39-2,9.13-3.9.15-.28.54-.36.81-.2,1.95,2.12-11.26,6.38-12.91,6.98-10.51,3.41-21.6,3.83-32.46,5.37-8.16,1.45-16.21,3.95-23.25,8.39,0,0,0,0,.01,0,.08-.05.15-.1.24-.15-20.99,13.76-31.27,25.32-37.61,49.89,7.99,2.41,16.67,3.91,24.95,2.46,1.05-.13,2.06.59,2.3,1.61.28,1.16-.45,2.26-1.56,2.57-2.75.65-5.63.79-8.45.74Z"/>
    <path class="cls-1" d="M692.27,753.63c-2.1-2.43.59-9.22,1.71-11.94,2.06-4.93,6.14-8.48,11.05-4.37,3.87,2.79,7.61,5.77,11.26,8.78,1.11,1.53-.71,3.66-2.39,2.79-4.2-2.95-8.68-5.65-13.08-8.37-2.01,2.96-2.99,6.66-3.78,10.12-.11,1.04-.17,2.1-.91,2.93-1.01,1.13-2.83,1.22-3.86.06Z"/>
    <path class="cls-1" d="M659.49,784.5c-.7-.14-1.24-.54-1.68-1.1-1.35-1.81-2.31-3.88-3.37-5.87-3.2-5.57-6.78-16.37,3.53-15.66,5.79.21,11.6.59,17.29,1.68,2.06-.06,2.25,3.04.17,3.22-6.21.76-12.5-.03-18.73.22.91,4.88,3.75,9.19,5.66,13.73.96,1.89-.75,4.25-2.86,3.78Z"/>
    <path class="cls-1" d="M651.42,811.07c-.67-.05-1.08-.65-1.04-1.24-.44-8.72,4.15-16.58,8.2-23.98,7.64-13.01,18.61-24.75,32.51-31.01,9.9-4.24,20.39-6.82,30.9-8.99,12.9-2.74,28.63-2.71,37.29-14.23,7.13-8.58,5.88-19.99,4.97-30.29-.42-6.3-1.24-12.64-.45-18.94.76-6.06,2.44-13.21,7.99-16.61,5.87-2.97,11.72,2.17,14.5,7.08,1.49,2.46,2.48,5.17,3.68,7.79.47,1.06.09,2.32-.98,2.85-1.03.5-2.37.08-2.86-.98-3.36-8.16-11.24-21-15.83-5.51-4.57,17.38,5.56,36.47-3.43,53.03-7.75,14.91-24.32,16.8-39.24,19.07-8.41,1.41-16.73,3.39-24.87,5.9-11.43,3.22-21.82,9.49-29.73,18.39-7.34,8.62-13.38,18.39-18.29,28.57-1.07,2.56-1.62,5.25-2.09,7.97-.01.61-.58,1.19-1.23,1.14Z"/>
    <path class="cls-1" d="M789.46,687.39c-1.66-6.91-3.62-17.94,1.15-23.9,4.51-5.15,12.97-3.79,16.86,1.41,3.98,4.68,6.1,10.79,6.36,16.88.02,1.08-.65,2.06-1.75,2.27-2.03.4-2.74-1.72-2.97-3.31-.6-2.41-1.1-4.86-2.08-7.15-1.33-2.95-3.18-6.12-6.25-7.5-5.09-1.99-7.85,2.1-8.29,6.71-.45,3.38-.69,6.8-.75,10.18.02,1.19-.06,2.4.22,3.56.12,1.35-1.78,2-2.5.84Z"/>
    <path class="cls-1" d="M831,690.71c-.4-5.63-1.51-11.91-6.35-15.36.06.04.11.09.17.13.03.02.05.04.08.07-6.27-3.91-10.23,6.26-11.77,10.78-1.9,1.3-1.98-1.33-1.84-2.6.35-3.97,1.22-8.27,3.99-11.29,6.01-6.12,13.93-2.57,17.32,4.34,1.89,4.35,2.5,9.25,2.46,13.96-.03,1-.93,1.82-1.9,1.88-1.11.07-2.07-.79-2.16-1.9Z"/>
    <path class="cls-1" d="M848.91,698.86c-.29-3.69-.92-7.69-3.61-10.44-4.06-4.11-9.61,7.39-11.05,10.34-.25.54-.45,1.17-1.05,1.41-.55.22-1.17-.19-1.28-.74-.01-.68.26-1.35.34-2.04,1.37-6.5,6.02-17.52,14.35-14.14,3.92,2.12,5.84,6.74,6.43,10.97.19,2.2,1.43,6.29-1.76,6.73-1.2.08-2.3-.87-2.37-2.09Z"/>
    <path class="cls-1" d="M814.15,781.4c-.43-.64-.26-1.58.41-2,1.23-.77,2.4-1.63,3.41-2.39,7.43-5.6,14.61-12.2,20.26-19.52,8.75-11.45,17.11-23.86,20.69-37.97,1.23-5.18,2.98-10.91.85-16.05-3.01-6.97-7.66.46-10.66,3.07-1.1.27-.9-1.15-.68-1.79,1.39-6.89,8.23-12.47,13.96-6.06,4.98,6.61,2.47,15.49.21,22.69-3.18,10.26-8.3,19.84-14.53,28.53-5.37,7.74-11.21,15.25-18.38,21.41-2.88,2.56-5.95,4.97-9.02,7.26-1.48,1.11-3,2.15-4.5,3.23-.64.46-1.58.23-2-.41Z"/>
    <path class="cls-1" d="M810.15,785.03c-1.83-1.29,5.32-4.43,6.24-5.24,6.26-4.09,12.13-8.85,16.87-14.66.53-.66,1.57.18,1.01.84-4.42,5.48-9.58,10.4-15.31,14.47-2.38,1.72-4.59,3.87-7.46,4.65-.42.11-.96.19-1.35-.07Z"/>
    <path class="cls-1" d="M849.7,840c-4.27-.52-10.2-17.22-13.7-21.39-4.04-5.56-9.15-10.15-14.82-13.99-6.77-5.16-14.14-9.84-22.5-11.78-1.29-.47-2.44-.83-3.59-1.32-1.37-.85-.02-2.84,1.33-1.92,5.19,2.15,10.77,3.17,15.83,5.58,8.63,4.61,16.24,10.92,22.92,17.99,2.72,3.33,5.27,6.68,7.28,10.45,2.01,3.86,3.75,7.86,6.24,11.44,2.47-16.32-11.27-35.6-25.62-42.46-7.86-3.73-17.14-7.36-20.9-15.78-1.1-2.38-1.7-4.94-2.47-7.43-.4-1-.83-2.12-1.87-2.6-1.21.39-1.4-1.63-.11-1.46,4.05.88,5,6.2,6.65,9.29,1.37,2.97,3.55,5.45,6.29,7.24,7.41,4.96,16.51,7.21,23.12,13.4,7.76,7.15,14.3,16.07,17.14,26.34.79,4.09,5.27,17.89-1.21,18.37Z"/>
    <path class="cls-1" d="M831.49,851.9c-2.07-.83-3.48-2.8-4.81-4.53-2.21-2.99-4.38-6.07-5.77-9.54-3.07-7.75-3.05-16.49-6.87-23.93-.36-.31-.24-.92.14-1.15.9-.46,1.14.71,1.56,1.24,3.18,4.34,4.35,9.59,5.67,14.7,1.75,5.88,4.01,11.93,7.36,17.05.95,1.66,2.58,2.75,4.1,3.7,1.04.99.01,2.83-1.38,2.46Z"/>
    <path class="cls-1" d="M804.73,859.49c-5.18-1.85-4.52-14.21-4.86-18.93-.17-4-.78-8.13-1.67-11.99-1.98-9.21-9.1-16.06-15.32-22.59-5.63-5.78-11.47-11.66-16.96-17.52-6.23-6.98-15.23-16.77-9-26.42,3.11-3.71,8.7-5.04,13.25-3.5,3.42,1.43,5.89,4.37,8.36,7.02,1.55,1.82,3.5,3.48,5.98,3.71,1.85.44,1.53,3.26-.36,3.26-2.94-.3-5.59-2.01-7.82-3.87-2.36-2.11-4.33-4.76-7.29-6.06-4.26-1.77-10.15,1.7-10.2,6.43-.2,4.59,3.31,8.24,5.38,12.06,4.45,6.7,10.76,11.73,16.84,16.86,8.39,8.01,17.04,16.96,19.91,28.53,1.42,5.3,1.47,10.77,1.68,16.2.23,2.47-.56,14.43,3.19,13.26,2.5-3.03,3.78-6.99,5.1-10.65,1.36-3.79,1.9-7.95,1.97-11.9.22-5.36-.04-10.87-1.88-15.94-.74-2.59-1.87-5.08-2.63-7.61.02-.51.61-.81,1.06-.64.6.3.89.99,1.28,1.51,5.24,8.52,6.3,18.75,5.08,28.52-.57,5.05-3.74,22.68-11.09,20.25Z"/>
    <path class="cls-1" d="M766.89,682.74c-.23-1.61,1.6-1.88,2.74-2.14,4.09-1.16,8.27-1.83,12.52-1.65,1.54.3,4.02-.32,4.77,1.42,1.7.58.36,3.03-1.05,1.91-1.81,0-3.61-.87-5.48-.79-2.05-.11-4.38.5-6.31.86-1.37.31-2.72.69-4.03,1.19-1.17.57-2.8.86-3.16-.8Z"/>
    <path class="cls-1" d="M769.8,681.9c-4.18-2.61-1.14-7.6,2.55-8.86-.93-8.63,13.83-3.61,10.9,3.04,1.14.4,2.46.77,3.39,1.55.48.42.64,1.16.22,1.76-.63.88-1.8.43-2.71.6-3.73.47-7.35,1.55-11.07,2.13-1.08.32-2.26.32-3.27-.22Z"/>
    <path class="cls-1" d="M767.77,691.73c-.53-1.7.9-3.03,2.46-3.34,2.53-.86,5.16-1.45,7.83-1.72,2.56-.16,9.2-1.64,10.72.69.73.19,1.27,1,.96,1.8-.15.4-.47.66-.83.78-1.06,2.1-3.64,1.12-5.5,1.13-1.73-.04-3.47.08-5.17.37-2.06.51-4.11,1.02-6.17,1.52-1.58.73-3.69.74-4.29-1.23Z"/>
    <path class="cls-1" d="M808.01,682.54c-1.6-1.47-4.29-1.65-6.19-2.09-3.67-.67-7.42-1.05-11.13-.52-1.78.91-3.01-1.75-1.23-2.58.73-.55,1.67-.81,2.52-1.09-.17-.24-.32-.5-.44-.76-.6-1.31-.39-2.79.33-3.97-3.03-3.04.19-7.18,3.75-7.65,5.22-1.14,15.12,4.15,11.03,10.24,2.2,1.08,4.57,2.62,5.35,5.08.9,2.36-1.83,4.95-3.99,3.34Z"/>
    <path class="cls-1" d="M808.74,693.54c-3.48-1.72-7.19-1.68-10.9-2.27-1.71-.16-3.47-.69-5.17-.54-1.1.24-2.08.77-3.22.84-4.83-.08-9.62.05-14.32,1.32-3.21.55-4.35-4.28-1.2-5.21,3.62-.9,7.33-1.59,11.07-1.59,1.96-.03,3.93.46,5.78-.33,1.05-.2,2.14-.23,3.2-.23.88-.43,1.84-.72,2.79-.95,2.74-.62,5.68-.55,8.35.35,2.78,1,6.04,2.08,7.59,4.79,1.23,2.64-1.72,5.1-4.18,3.72,0,0,.22.1.22.1Z"/>
    <path class="cls-1" d="M842.52,710.44c-1.49-1.55-2.64-3.4-4.07-5.01-1.72-1.84-3.94-3.06-6.19-4.15-2.5-.92-4.57-2.62-7.02-3.68-4.1-1.54-8.31-2.91-12.59-3.85-1.19-.12-2.97-.72-2.39-2.25.71-1.62,2.79-2.06,4.37-2.3,6.55-.89,14.95.6,18.5,6.76,4.1,1.38,7.86,3.66,10.88,6.76,2.03,1.91,5.63,5.17,2.66,7.83-1.15.96-3.07,1.01-4.14-.11Z"/>
    <path class="cls-1" d="M847.85,701.64c-3.11-2.28-6.08-4.79-9.39-6.77-.97-.16-1.57-1.2-1.16-2.11.41-.88,1.73-1.19,2.4-.42.26.12.51.25.77.37,0-.74.25-1.48.72-2.03-3.21-3.57,1.73-7.71,5.13-4.64,1.19.88,2.21,2.27,1.91,3.83.56,1.59,1.06,3.66-.35,4.95,1.2,1.58,2.82,3.26,2.89,5.34,0,1.43-1.78,2.31-2.93,1.48Z"/>
    <path class="cls-1" d="M829.69,687.88c-4.35-2.33-9.18-4.16-14.17-3.83-2.05.84-2.75-2.5-.51-2.52-2.06-3.18,2.19-5.35,4.9-5.53-.01-1.28.84-2.44,2.11-2.75,2.89-.49,4.86,2.31,6.84,3.96.74.7,1.41,1.46,2.2,2.1,1.1,1.05,1.06,3.05-.13,4,1.73,1.67,1.77,4.97-1.24,4.57Z"/>
    <path class="cls-1" d="M859.55,713.98c-1.5-.31-2.45-1.83-3.69-2.65-1.36-1.43-4.37-2.44-3.81-4.82-1.06-2.02.74-4.29,2.88-4.26,1.97-2.07,5.22.19,5.82,2.44.99,1.45,1.88,2.98,2.28,4.71.3,1.15.2,2.53-.71,3.39-.84.58-1.68,1.37-2.78,1.19Z"/>
    <path class="cls-1" d="M857.22,722.98c-1.18-.43-1.82-1.66-2.73-2.47-.73.08-1.53-.81-1.92-1.18-2.39-2.21-5.09-4.05-7.9-5.7-.89-.52-1.5-1.46-2.1-2.28-1.91-2.59-3.91-5.11-5.9-7.64-.45-.58-1.09-1.18-1.05-1.96.05-1.08,1.27-1.8,2.22-1.19,3.68,2.54,6.43,6.33,9.45,9.5.53-.28,1.16-.15,1.57.24,4.4,2.29,8.19,5.87,10.8,10.07,0,0,0,0,0,0,.63,1.51-.92,3.11-2.44,2.63Z"/>
    <path class="cls-1" d="M856.57,723.39c-2.66-2.26-4.85-5-7.39-7.39-.98-.98.51-2.57,1.56-1.66.62.52,1.25,1.03,1.87,1.53,1.79.97,3,2.6,4.41,4.01.58.79,1.62,1.49,1.68,2.54,0,1.05-1.33,1.64-2.13.96Z"/>
    <path class="cls-1" d="M801.83,733.2c-5.29-2.26-11.36-2.01-17.01-1.94-1.19.4-1.68-1.44-.43-1.68,2.71-1.45,5.92-1.5,8.92-1.8,3.49-.24,7.06-.01,10.31,1.36,2.64,1.2.89,5.18-1.79,4.06Z"/>
    <path class="cls-1" d="M826.72,751.82c-1.17-2.95-2.62-5.89-5.02-8.03-1.02-.99-3.35-2.05-2.14-3.74,1.84-2.4,5.72,3.61,6.97,4.93,1.48,1.87,2.74,4.08,3.13,6.44.11.41.08.83-.15,1.21-.73,1.3-2.88.67-2.8-.81Z"/>
    <path class="cls-1" d="M408.51,420.56c-3.24.14-6.02-1.83-8.01-4.23-3.54-4.43-3.03-10.72-2.3-16.01.61-8.5-3.31-7.85-9.01-12-7.92-5.22-10.68-16.23-6.27-24.61,5.52-9.94,17.09-15.31,28.13-16.03,8.07-.28,16.99,1.55,22.46,7.94,2.81,3.61,4.77,7.95,5.79,12.41,1.04,7.51-2.08,15.29-7.2,20.73-7.25,6.14-4.96,8.42-6.34,16.69-1.22,8.79-8.07,15.73-17.26,15.11ZM411.7,414.38c9.45-1.41,7.89-12.73,9.34-19.74.49-2.06,1.52-3.95,2.8-5.62,5.41-5.72,12.9-12.17,10.03-20.86-1.82-4.01-3.89-8.31-7.76-10.7-7.09-4.51-16.51-3.94-24.09-.95-8.39,3.05-18.12,11.86-12.99,21.41,2.02,3.48,5.75,5.35,8.81,7.78,4.3,2.91,5.24,7.4,5.35,12.27-.23,4.02-.33,8.1.6,12.06.41,1.96,2.06,3.48,3.82,4.3,1.34.3,2.73.14,4.09.05Z"/>
    <path class="cls-1" d="M399.77,377.61c-2.41-.22-4.11-2.73-3.56-5.06.66-3.39,5.16-5.26,8.02-3.32,4.67,3.53.99,9.94-4.46,8.37Z"/>
    <path class="cls-1" d="M420.77,379.28c-3.38.08-6.35-3.71-5.28-6.95.8-2.81,2.89-5.01,5.91-5.19,2.96-.25,5.3,2.23,5.7,5.04.77,3.71-2.67,7.21-6.32,7.1Z"/>
    <path class="cls-1" d="M408.25,404.12c-1.07-1.65-.58-3.65-.14-5.43.44-1.34.68-3.02,2-3.78,1.7-.79,2.74,1.19,2.71,2.65,2.28,1.25,1.59,6.25-.38,7.54-1.36.88-3.38.45-4.2-.99Z"/>
    <path class="cls-1" d="M369.31,374.04c-18.48-3.15-20.15-21.83-12.69-36.06,1.2-2.09,2.43-4.26,4.26-5.87,1.19-.98,3.07-2.13,4.56-1.07,1.62,1.14.7,2.86,0,4.22-2.51,8.55.24,16.81,9.17,19.71,3.65,1.07,7.49,1.22,11.28,1.18,2.44.25,7.82-.86,8.16,2.54.07,1.21-.91,2.33-2.12,2.4-2.11.6-4.3.84-6.48,1.03-13.25.86-25.13-6.57-23.97-21-8.49,17.42-.67,27.85,18.17,27.67,1.7-.12,3.94.07,4.28,2.14.21,1.18-.51,2.57-1.73,2.88-4.23.82-8.65,1.1-12.89.23Z"/>
    <path class="cls-1" d="M437.76,375.7c-3.86-.41-3.73-6.14.16-6.33,11.67,1.64,27.63-5.23,26.93-18.82-4.72,11.95-20.27,15-31.3,10.6-1.68-.77-6.67-2.77-4.67-5.12.68-.52,1.48-.54,2.3-.55,2.51.02,5.15.38,7.6.44,16.18.07,21.16-4.12,24.48-19.73,4.9-4.18,6.37,10.74,6.74,13.52,2.09,17.66-17.17,26.45-32.23,25.99Z"/>
    <path class="cls-1" d="M347.34,461.81c-3.95-3.58-2.75-14.51-3.37-19.37-.18-5.12-1.9-11.63,3.19-14.96,4.09-2.82,9.26-3.19,14.07-3.45,3.95.2,11.46-1.59,11.77,4.18-.04,2.1-1.88,4.08-4.06,3.94-4.93-.32-10-.38-14.82.83-2.16.69-2.97,1.01-2.59,3.33.11,2.23.23,4.37.29,6.59.08,3.96.02,7.93.17,11.89.37,3.13-.02,9.1-4.66,7.02Z"/>
    <path class="cls-1" d="M350.28,450.66c-3.27-.77-3.86-5.63-.85-7.14,1.99-.91,4.21-.75,6.34-.98,2.91-.08,6.05-.28,8.75,1.04,1.38.56,1.96,2.31,1.2,3.58-.59,1.11-1.84,1.13-2.83,1.62-3.93,1.24-8.49,2.24-12.61,1.87Z"/>
    <path class="cls-1" d="M388.62,459.3c-4.14-1.84.74-9.63,1.56-12.71,4.3-9.24,8.58-22.08,20.04-11.42,3.02,3.33,11.19,15.1,10.51,19.32-.85,3.37-5.64,3.89-7.29.87-3.15-5.47-5.44-12.3-10.82-15.97-2.83,4.67-5.51,9.43-8.02,14.27-1.41,2.24-2.49,6.89-5.98,5.64Z"/>
    <path class="cls-1" d="M393.29,451.57c-4.53-4.2,7.14-6.79,9.82-7.61,3.13-.68,6.31-1.49,9.52-1.54,4.52.1,5.29,6.65.89,7.73-6.66.74-13.6,2.11-20.22,1.41Z"/>
    <path class="cls-1" d="M434.91,458.85c-4.14.61-3.67-17.03-3.67-20.09-.32-6.49,5.09-10.71,10.88-12.18,4.16-1.48,8.77-1.68,12.98-.28,7.28,2.28,7.52,9.13,3.47,14.64-2.16,2.86-5.46,4.65-8.77,5.87,2.94,1.37,6,2.52,8.8,4.18,3.75,2.24,1.29,8.1-2.92,6.92-6.04-2.24-11.75-5.31-17.56-8.07-.4,2.51.32,8.83-3.21,9.01ZM441.24,441.67c4.02-1.13,10.87-3.25,12.19-7.63-4.46-1.62-9.73-.32-13.56,2.28-1.37,1.4-.91,3.66-1.19,5.24.85,0,1.7.11,2.55.1Z"/>
    <path class="cls-1" d="M339.12,508.69c-1.83-.96-2.63-2.99-3.46-4.78-2.79-5.79-4.3-12.05-5.98-18.23-1.4-1.75,1.12-4.03,2.76-2.54,1.41,1.1,2.18,2.87,3.09,4.38,1.88,3.7,3.82,7.39,5.77,11.06.97-2.31,1.51-4.86,2.96-6.94,5.2-5.46,11.35,2.18,14.52,6.25,1.55-3.41,1.65-7.26,2.26-10.91.91-5.15,8.42-4.09,7.86,1.13-1.03,6.19-1.7,17.9-9.92,18.25-4.21-.38-6.76-4.36-9.5-7.13-1.52,4.38-4.4,12.31-10.38,9.44Z"/>
    <path class="cls-1" d="M388.98,510.63c-8.9-.31-15.27-3.11-12.15-13.18,2.8-13.3,3.98-20.59,19.79-17.51,2.87-1.43,5.6,2.45,3.29,4.68-.68.67-1.68.97-2.61.78-2.63.64-5.35.74-8.03,1.14-2.79.35-3.22,6.93-4.02,9.27-.47,2.09-1.1,4.14-1.58,6.22,3.26,1,6.77.67,10.07.58,4.88.09,5.24,7.31.39,7.9-1.71.13-3.44.19-5.15.12Z"/>
    <path class="cls-1" d="M380.46,495.31c-.2-5.13,6.21-3.75,9.54-3.62,1.72.18,3.57.44,5.07,1.34.69.53.97,1.27.68,2.09-.62,1.35-2.4,1.46-3.65,1.87-2.06.43-4.13.69-6.2,1.03-2.29.68-5.1.03-5.44-2.73Z"/>
    <path class="cls-1" d="M416.3,510.61c-2.52-1.35-1.95-5.48.87-6.07,2.54-.48,5.22-1.53,6.7-3.76-.17-.79-.81-1.24-1.5-1.57-3.41-1.62-7.53-2.46-9.84-5.73-3.05-3.84-.72-9.53,3.73-11,3.64-1.37,8-1.63,11.52.22,1.13.46,2.08,2.1.91,3.02-3.12,1.26-7.32,1.16-10.21,3.22,4.84,3.4,12.54,4.89,12.42,12.29-.49,4.7-5.18,7.72-9.35,8.99-1.69.44-3.59,1.36-5.25.39Z"/>
    <path class="cls-1" d="M461.72,484.61c-5.65-.22-11.42-.08-16.98-1.15-.38-.13-.68-.4-.78-.8-.34-2.28,5.34-2.44,6.93-2.97,6.91-1.22,13.88-2.28,20.92-2.25,2.67-.12,6.41-.18,6.46,3.4-.07,3.31-3.74,3.43-6.25,3.46-3.43.21-6.87.38-10.31.3Z"/>
    <path class="cls-1" d="M457.33,502.33c-1.99-.29-3.62-2.27-3.23-4.32.55-2.97,1.51-5.86,2.41-8.74.72-2.19,1.36-4.41,2.22-6.55.31-.73.74-1.45,1.45-1.84,2.95-1.17,3.15,2.96,3.16,4.91.06,2.98-.41,5.95-.86,8.89-.52,3.14-.77,8.16-5.16,7.63Z"/>
    <path class="cls-1" d="M575.89,810.31c-4.29-8.36-8.79-16.61-14.48-24.13-4.61-6.11-9.12-11.76-15.41-16.03-18.38-12.46-44.28-17.73-65.06-8.83-11.94,6.64-24.05,16.76-26.68,30.8-1.09,4.72-1.31,9.56-1.58,14.38-.05,1.05-.91,1.91-1.98,1.89-1.04-.02-1.94-.93-1.89-1.98.18-3.63.34-7.26.74-10.87.91-6.82,2.62-13.83,6.73-19.47,3.16-4.47,6.99-8.42,11.29-11.79,4.22-3.36,8.66-6.66,13.77-8.54,29.65-10.65,67.48,1.46,84.17,28.49,3.87,6,7.62,12.15,9.9,18.96.84,1.89.72,4.16,1.68,5.94.9.75-.29,2.19-1.18,1.18Z"/>
    <path class="cls-1" d="M505.37,754.85c-.92-.55-1.09-1.7-.6-2.52.68-2.11,1.65-4.08,2.61-6.08,1.74-3.83,7.61-14.64,12.02-14.97,5.86.05,7.82,15.2,9.41,19.88.52,2.33-2.91,3.19-3.54.88-1.41-5.31-2.33-10.96-5.17-15.72-4.07,5.77-7.08,12.33-11.91,17.54-.59.95-1.73,1.67-2.81,1Z"/>
    <path class="cls-1" d="M479.15,757.74c-2.33-.52-1.12-3.35-1.05-4.98.36-2.96.59-5.91.55-8.89.14-3.35-.62-6.91.52-10.12.77-1.83,3.13-2,4.53-.78,6.71,5.45,12.39,12.45,16.6,19.97.07.61-.29,1.21-.87,1.44-1.35.49-2.11-1.14-3.11-1.77-4.95-4.42-9.48-9.28-13.81-14.28-.31,4.54-.58,9.09-.96,13.62-.4,1.85.45,5.96-2.41,5.81Z"/>
    <path class="cls-1" d="M451.68,789.9c-5.08-3.9-17.35-24.66-7.24-27.76,7.75-.72,15.56.94,23.27.81.99-.93,2.77-.35,3.06.97.22.91-.27,1.86-1.13,2.21-1.03.35-1.99-.32-3.09-.07-5.46.28-10.93.25-16.38-.18-1.61-.11-3.24-.29-4.86-.26-.25-.02-.5.12-.6.32,0,.02-.02.04-.02.07-.02.04-.04.08-.06.13.04-.07.07-.14.11-.21-1.43,5.65,3.85,14.33,7.36,18.55.85.97,1.78,1.88,2.42,3,1.04,1.74-1.27,3.71-2.83,2.42Z"/>
    <path class="cls-1" d="M450.41,816.64c-1.16-1.01-.68-3.08-.88-4.48-.28-8.59.69-17.25,3.51-25.4.63-1.87,1.42-3.68,2.16-5.51.25-.61.89-.98,1.55-.76,1.68.73.27,2.28-.15,3.38-1.36,3.04-2.04,6.29-2.65,9.55-.97,6.4-.49,12.95-1,19.41-.09,1.5-.25,4.91-2.54,3.82Z"/>
    <path class="cls-1" d="M290.72,817.86c-6.25-17.73-14.97-35.14-29.41-47.61-4.7-4.04-9.59-7.84-14.48-11.65-3.14-2.44-6.3-4.87-9.17-7.63-1.54-1.24-3.55-4.16-.73-5.2,6.81-.75,13.63,1.71,20.18,3.35,12.05,3.52,23.52,8.93,33.64,16.38,10.43,7.34,20.09,15.95,27.03,26.75,1.77,2.62,3.38,5.36,4.86,8.17,2.19,4.38,4.83,8.86,5.11,13.85.18,1.24-.77,3.31-2.21,2.14-.93-1.13-1.35-2.62-2-3.92-1.74-3.97-3.75-7.8-5.87-11.58-4.97-9.22-11.3-17.63-19.24-24.51-10.19-9.04-22.12-15.91-34.53-21.4-7.46-3.45-15.59-6.09-23.86-6.19,9.63,8,20.13,15.04,28.62,24.34,8.38,9.28,15.32,19.91,21.01,31.04,1.78,3.43,3.13,7.07,4,10.84.44,1.28.74,3.22-.96,3.67-.75.2-1.61-.15-1.99-.84Z"/>
    <path class="cls-1" d="M335.52,790.08c-7.41-1.58-15.13-.74-22.57-2.02-1.76.06-1.93-2.59-.16-2.71,3.04-.45,6.02-.45,9.09-.19,4.76.45,9.49,1.27,14.03,2.78.66.08,1.1.83.86,1.45-.18.51-.74.81-1.26.7Z"/>
    <path class="cls-1" d="M303.78,777.26c-.61-1.59.45-3.32.82-4.88,1.3-3.87,2.76-7.72,4.85-11.24-4.91-.31-10.23.74-14.91,1.92-1.41.38-2.82.76-4.23,1.12-1.63.45-4.16,1.44-4.95-.75-.32-.96.12-2.09,1.06-2.52,7.13-2.34,14.65-3.89,22.13-4.42,2.71-.12,6.64.52,6.79,3.89-.15,2.74-1.85,5.18-2.93,7.66-1.14,1.94-5.88,12.23-8.63,9.22Z"/>
    <path class="cls-1" d="M277.47,757.15c-.49-2.36-.74-4.76-.85-7.17-.1-2.35-.15-4.69-.11-7.03-3.64,1.52-6.85,3.92-10.07,6.16-.7.54-1.42,1.1-1.88,1.87-.5.78-1.59,1.01-2.39.59-2.42-1.51.16-4.04,1.6-5.23,3.16-2.49,6.34-5.04,9.92-6.9,3.52-2.1,7.66-1.82,7.94,3.04.3,3.84-.21,7.69-.8,11.48-.39,1.36-.12,4.43-1.91,4.62-.83.05-1.46-.69-1.44-1.44Z"/>
    <path class="cls-1" d="M929.61,322.42c2.27-21.71,2.92-43.57,2.55-65.39-.36-17.66-1.33-35.34.25-52.96.59-7.93,1.71-15.82,2.44-23.74.29-4.66.57-9.33.77-13.99.45-3.08-.97-9.65,3.34-10.04,3.85.47,2.72,5.57,2.73,8.32-.12,4.28-.36,8.56-.81,12.83-1,9.53-1.89,19.03-2.25,28.6-1.05,17.6-.86,35.22-1.14,52.84-.95,21.37-3.06,42.57-6.01,63.71,0-.04,0-.07.01-.11-.01-.08-.02-.16-.03-.24h0s-.02-.03-.03-.04c.41,1.41-1.79,1.67-1.81.22Z"/>
    <path class="cls-1" d="M933.35,962.53c-2.61-.28-2.48-2.42-2.09-4.45.13-1.17.2-2.24.27-3.15.58-8.52-.27-16.9-.77-25.32-.79-8.25-2.29-16.4-3.19-24.63-1.74-16.69-2.61-33.76-3.68-50.45-.54-10.85-.8-21.73-.48-32.59.07-2.53.06-5.06.19-7.59.04-.76.7-1.36,1.47-1.25.88.13,1.29,1.06.97,1.85.05,8.3.42,16.63.75,24.93.84,16.76,2.81,33.43,4.41,50.12,1.36,14.33,3.76,28.55,4.97,42.88.25,5.55.16,11.12.21,16.68.08,3.15-.14,6.28-.57,9.4.1,1.68-.42,3.56-2.46,3.56Z"/>
    <path class="cls-1" d="M662.05,912.28c-2.05,0-3.36-2.1-2.93-3.94.11-1.98.21-3.23.36-5.05.62-12.98,1.03-25.99,1.39-38.98.19-9.01.73-18.01,1.81-26.95.04-1.44,2.3-1.31,2.11.17-.59,11.15,1.86,22.04,1.93,33.16.16,8.82-.63,17.61-.93,26.42-.15,4.21,0,8.43-.71,12.59-.21,1.49-1.56,2.61-3.05,2.59Z"/>
    <path class="cls-1" d="M665.18,726.34c-.66-7.59-.09-15.3-.28-22.92.15-8.29-.23-16.59-.1-24.88.03-1.41,1.22-2.58,2.64-2.55,4.08.39,2.06,5.65,2.34,8.36-.09,5.53-.5,11.04-.77,16.56-.12,7.83-.75,15.6-1.5,23.32-.3,1.02.16,2.88-1.18,3.15-.6.07-1.16-.43-1.14-1.04Z"/>
    <path class="cls-1" d="M676.46,247.13c-.48-.06-.64-.55-.52-.97-.19-14.81-.48-29.62-.39-44.43-.72-27.73-1.82-55.46-3.34-83.16-.15-3.24-.13-6.48-.21-9.73.03-5.12,7.7-5.32,7.88-.11.11,9.12.84,18.22,1.24,27.33,1.45,22.21.01,44.54-1.12,66.61-.91,14.59-1.38,29.21-2.82,43.76.04.4-.33.75-.72.7Z"/>
    <path class="cls-1" d="M390.7,262.73c-1.45-.19-1.46-1.69-1.32-2.84.07-2.46,0-4.92-.06-7.39-.16-7.61-.42-15.22-.88-22.82-1.45-17.39-3.28-34.72-2.42-52.19.1-4.52-.03-9.05-.12-13.57-.02-1.73,1.4-3.19,3.13-3.21,1.76-.03,3.14,1.4,3.21,3.13.15,4.7.07,9.42-.13,14.12-.31,10.05-.48,20.13-.07,30.19.69,10.15.93,20.31.84,30.48,0,4.96-.13,9.91-.22,14.87-.05,2.62-.05,5.24-.21,7.86-.05.86-.94,1.48-1.75,1.38Z"/>
    <path class="cls-1" d="M394.95,941.92c-1.17-28.02-.93-56.08-.61-84.11-.77-23.99-2.33-48-1.65-72,.53-14.42,2.25-28.76,3.22-43.15.5-7.86,1.3-15.71,1.32-23.58-.01-.49.4-.9.89-.91.48,0,.91.39.91.89-.07,4.79-.08,9.58.06,14.38.97,19.05-.24,38.07-.36,57.12.17,23.93,1.16,47.85,1.49,71.78,0,14.14-.52,28.27-.85,42.4-.15,12.23-.06,24.45.32,36.67.55,3.31-4.53,4.03-4.73.52Z"/>
    <path class="cls-1" d="M392.81,621.82c.05-1.98.26-3.99.07-5.97-.16-.63.22-1.28.88-1.38.67-.1,1.22.42,1.25,1.07.23,2.02.61,4.01.89,6.02.12.84-.46,1.64-1.31,1.77-.88.14-1.82-.58-1.79-1.52Z"/>
    <path class="cls-1" d="M1074.33,726.89c-3.36-3.57,1.32-6.84,3.84-9.02,5.13-4.49,10.6-8.58,15.83-12.96.98-1.18,2.82-1.3,3.92-.2,2,2.08-.31,4.14-1.85,5.59-2.38,2.33-4.7,4.71-6.93,7.18-2.98,3.24-6.11,6.35-9.27,9.41-1.54,1.49-4.02,1.53-5.55,0Z"/>
    <path class="cls-1" d="M1087.41,725.77c-4.92-7.15-8.92-14.91-11.86-23.07-.69-.94-.56-2.36.58-3.03,2.15-1.14,3.23,1.43,4.4,2.71,3.44,4.45,6.75,8.99,9.79,13.73,1.59,3.09,6.2,7.18,2.42,10.34-1.57,1.21-4.17,1.02-5.33-.69Z"/>
    <path class="cls-1" d="M998.42,788.44c-1.32-1.32-1.41-3.69,0-4.99,4.05-3.71,8.1-7.43,12.2-11.09,4.3-3.84,8.7-7.61,13.3-11.09,1.96-1.16,6.1-5.74,7.7-2.15.23.83-.14,1.63-.8,2.06-1.97,1.91-3.83,3.93-5.76,5.89-5.9,6.09-11.64,12.34-17.98,17.98-2.37,2-5.41,6.45-8.66,3.39Z"/>
    <path class="cls-1" d="M1031.53,799.61c-1.02-.14-1.88-.68-2.52-1.46-3.81-4.53-7.21-9.36-10.6-14.2-4.87-6.73-9.12-13.26-13.88-19.78-.69-.55-.98-1.54-.47-2.41,1.43-2.04,3.34-.26,4.55.99,8.18,7.72,15.24,16.47,22.18,25.29,1.44,1.8,2.85,3.62,4.31,5.4,2.14,2.55-.3,6.74-3.57,6.17Z"/>
    <path class="cls-1" d="M970.7,668.97c-1.33-1.28-1.3-3.53,0-4.81,3.66-3.96,7.26-7.99,10.89-11.98,6.67-7.3,13.2-14.73,20.06-21.84,2.86-2.88,5.58-5.93,8.57-8.68.81-.7,2.13-.36,2.64.52.4.69.28,1.55-.22,2.11-3.36,4.44-7.1,8.59-10.58,12.94-6.14,7.56-12.31,15.09-18.61,22.51-2.61,3.11-5.18,6.26-7.94,9.25-1.26,1.36-3.54,1.28-4.81,0Z"/>
    <path class="cls-1" d="M1007.68,673.82c-.84-.23-1.47-.78-1.95-1.5-3.37-4.87-5.84-10.27-8.09-15.73-4.55-10.82-8.75-21.81-14.42-32.12-1.14-3.06,3.75-4.24,4.07-.95,7.03,11.39,12.67,23.69,18.74,35.42,1.94,3.69,3.24,6.77,5.31,10.1,1.52,2.38-.99,5.63-3.68,4.78Z"/>
  </g>
</svg>