<?xml version="1.0" encoding="UTF-8"?>
<svg id="CRUCES" xmlns="http://www.w3.org/2000/svg" viewBox="0 0 135.94 135.93">
  <defs>
    <style>
      .cls-1 {
        fill: #0a4635;
      }

      .cls-2 {
        fill: #ffc62d;
      }
    </style>
  </defs>
  <path class="cls-1" d="M135.89,74.63c-.25-2.33-.95-4.57-.68-6.92.32-11.37-2.22-22.96-7.89-32.87-3.94-6.67-10.1-11.58-15.52-16.99-7.98-8.76-19.17-14.62-30.85-16.61-9.27-1.27-18.77-1.95-28.01-.11-9.36,2.05-18.56,5.53-26.74,10.54-3.2,2.15-5.46,5.35-7.74,8.4-4.55,6.01-8.57,12.4-11.59,19.31-14.21,28.97-5.83,63.8,19.72,83.42,10.29,8.52,24,12,37.11,12.99,11.95.54,20.4-.51,30.95-6.57,16.6-9.66,30.21-24.34,38.65-41.59,1.83-4.06,2.87-8.54,2.59-13.01Z"/>
  <path class="cls-2" d="M98.53,50.71c-.87-2.33-3.73-2.35-5.6-3.53-1.83-.95-3.5-2.23-4.91-3.74-2.38-2.59-3.59-5.93-4.9-9.13-.93-3.01-2.86-3.92-5.86-3.34-2.19.33-4.74.24-6.49,1.8-1.77,1.9-.24,4.72-.36,7.01.13,2.16.17,4.34.22,6.51.18,6.12.5,12.24.83,18.36.15,7.62,1.89,20.15-5.77,24.64-5.6,2.71-16.34-1.12-15.66-8.4,0-1.96.72-3.48,2.44-4.49,2.92-1.87,6.2-3.03,9.4-4.33,1.96-.65,3.49-1.58,3.22-3.9.13-2.42.32-5.15.04-7.69-.23-1.04-.08-2.16-.41-3.15-.34-.4-.65-.79-.96-1.22-1.68-2.47-4.58-.76-6.58.27-6.28,2.53-12.84,6.15-15.99,12.42-1.84,3.93-3.71,7.99-3.44,12.43.26,9.37,6.09,18.88,15.65,20.98,6.48,1.32,13.66.12,19.19-3.55,5.27-3.98,8.59-10.34,9.89-16.74.79-4.92.24-9.94.39-14.9-.21-4.49-1.38-8.87-2.04-13.3,3.88,3.07,11.84,7.02,16.79,6.77,1.75-.25,2.81-2.06,2.34-3.73-.49-2.01-.73-4.11-1.44-6.06Z"/>
</svg>