<?xml version="1.0" encoding="UTF-8"?>
<svg id="CRUCES" xmlns="http://www.w3.org/2000/svg" viewBox="0 0 275.29 32.83">
  <defs>
    <style>
      .cls-1 {
        fill: #0a4635;
      }
    </style>
  </defs>
  <path class="cls-1" d="M11.45,14.93c-.2-1.96-.3-3.93-.51-5.9-.07-.65-.63-1.15-1.3-1.1-.64.05-1.16.64-1.1,1.29.12,1.16.21,2.32.3,3.48.29,4.6,1.08,9.14,1.67,13.7-2.16-3.12-4.29-6.25-6.51-9.32-.76-.91-1.3-2.03-2.17-2.83-.83-.59-2.06.24-1.8,1.23,1.41,5.53,1.25,11.39,2.89,16.86.28.58,1.11.63,1.49.14.45-.86-.11-1.96-.12-2.89-.48-3.2-.73-6.42-1.13-9.63,2.01,2.9,4.05,5.78,6.01,8.71.56.84,1.07,1.71,1.67,2.52.45.61,1.42.69,1.92.1.67-1.05.36-2.44.31-3.62-.43-4.26-1.24-8.47-1.62-12.74Z"/>
  <path class="cls-1" d="M27.93,7.14c-.32.45-.15,1-.08,1.5.24,1.63.33,3.27.43,4.91,0,3.62.96,8.81-1.07,11.93-3.02-3.8-3.17-10.09-4.09-14.76-.09-.48-.16-.99-.53-1.34-.63-.6-1.77.06-1.55.9,1.04,5.57.87,11.91,4.36,16.65,2.32,2.41,4.59-.52,4.96-2.9.93-5.25.34-10.69-.2-15.95.09-1.28-1.45-2.06-2.25-.95Z"/>
  <path class="cls-1" d="M49.37,22.59c-1.97.53-3.8,1.6-5.7,2.34-.05-2.24-.02-4.5-.03-6.76.59-.23,1.17-.48,1.75-.71.64-.26,1.28-.49,1.94-.71.26-.09.52-.2.71-.41.38-.42.23-1.12-.28-1.36-.49-.25-1.06-.02-1.57.08-.88.2-1.72.52-2.57.81-.04-2.23-.15-4.45-.45-6.65,1.63-.2,3.18-.8,4.81-1.02.64-.15,1.65-.12,1.83-.9.06-.4-.2-.74-.58-.86-1.67-.35-3.39.15-5.04.44-.78.15-1.62.14-2.45.23-.84.17-1.12,1.1-.95,1.85.07.65.15,1.31.21,1.96.2,2.02.25,4.04.27,6.06-.13.3-.13.66,0,.96,0,1.31-.01,2.63-.02,3.94.02.91.02,1.93.02,2.85.06.78-.06,1.69.44,2.34,1.18,1.17,3-.05,4.24-.53,1.26-.57,2.51-1.19,3.84-1.61,1.69-.27,1.24-2.71-.43-2.36Z"/>
  <path class="cls-1" d="M65.35,12.88c-3.04-1.26-6.54-4.11-2.84-6.99,1.16-.95,2.66-1.13,4.09-.93,1.17-.32.47-1.48-.44-1.61-3.17-.79-6.8,1.44-7.49,4.65-.42,2.43,1.59,4.57,3.45,5.84,3.95,1.97,6.41,3.42,5.78,8.35-.16,1.09-1.43,1.77-2.45,1.82-.84,0-1.38-.79-1.8-1.44-.6-1.02-.92-2.18-1.15-3.34-.04-.32-.16-.6-.41-.82-.75-.71-2.12-.03-1.98,1,.09.68.26,1.35.46,2,.57,1.85,1.57,3.83,3.41,4.68,1.81.8,3.99-.06,5.28-1.44,1.64-1.74,1.25-5.57.4-7.64-.91-1.81-2.52-3.23-4.31-4.13Z"/>
  <path class="cls-1" d="M92.22,1.49c-1.33.17-2.66.18-3.99.31-.94.08-1.87.28-2.8.37-1.18.11-2.37.05-3.55.07-.85.09-1.92-.14-2.65.38-.42.35-.3,1.06.19,1.28.79.27,1.66.24,2.5.28,1.18.05,2.36.14,3.54.07.1,1.42.16,2.83.21,4.25.21,3.46.15,6.92.22,10.39.03.7.06,1.38.07,2.08.05.61-.18,1.42.29,1.94.64.78,2.03.29,2.04-.72,0-1.25-.13-2.5-.21-3.74-.22-4.77-.33-9.57-1.11-14.29.01-.02.01-.04.03-.06,1.8-.19,3.62-.24,5.43-.29,1.54-.16,1.34-2.44-.19-2.33Z"/>
  <path class="cls-1" d="M104.01,9.88c3.96-.87,4.79-6.66,1.44-8.78-1.3-.77-4.24-1.58-5.07.15-.24,1.24.11,2.56.08,3.83-.06,4.47-.62,8.92-.51,13.39.16,1.03-.45,3.29.71,3.74.71.25,1.66-.59,1.22-1.31.06-3.12.11-6.24.39-9.35,2.69,2.5,3.69,6.17,5.26,9.38.83,2.64,3.29,1.6,2.63-.13-1.95-3.68-3.02-7.98-6.16-10.91ZM102.63,2.62c3.46.14,3.34,4.92-.05,5.18.04-.48.06-.96.09-1.45.03-.48.04-.96.03-1.44-.02-.76-.04-1.53-.06-2.29Z"/>
  <path class="cls-1" d="M122.85,12.57c.1-.23.16-.48.1-.72-.12-.37-.31-.6-.55-.73-.23-.73-.46-1.46-.72-2.19-.77-1.83-1.7-6.82-3.52-7.5-1.97-.42-1.62,2.2-1.79,3.44-.17,1.9-.4,3.79-.47,5.7-.06,4.21-.75,8.43-.32,12.63.51,1.3,2.4-.12,1.61-1.08.25-2.61.45-5.24.65-7.88.43-.11.87-.31,1.29-.38.5-.13,1.01-.26,1.52-.38.71,2.46,1.35,4.95,1.98,7.41.26,1.76,2.91,1.13,2.33-.56-.67-2.6-1.34-5.2-2.1-7.77ZM118.99,11.71c-.29.13-.64.23-.99.33.13-1.72.27-3.44.43-5.15.58,1.47,1.09,2.98,1.57,4.51-.37.13-.72.25-1.01.31Z"/>
  <path class="cls-1" d="M133.3,7.36c-3.43-1.95-1.39-4.99,1.7-5.66.54-.14,1.32-.13,1.34-.87.02-.34-.21-.69-.54-.78-1.47-.26-3.05.45-4.3,1.18-3.01,1.98-2.73,5.88.2,7.79,1.29.93,2.88,1.19,4.33,1.76,3.88,1.2,2.38,6.48-1.2,5.4-1.62-.55-.36-3.5-2.4-3.44-1.65.22-1,2.23-.7,3.31.33.98,1.06,1.82,2.01,2.25,4.52,2.17,9.01-3.79,6-7.64-1.52-2.11-4.27-2.27-6.45-3.31Z"/>
  <path class="cls-1" d="M175.66,3.08c-1.69-1.34-7.62-2.27-7.73.91.07,4.2.07,8.4-.05,12.59-.07,1.8-.03,3.61-.06,5.41.09,1.06-.27,2.25.16,3.23,1.6,1.89,4.16-2.16,5.31-3.17,2.61-2.3,4.52-8.03.11-9.42,2.67-2.17,5.42-6.66,2.27-9.55ZM173.52,17.17c-.47,2.03-2.19,3.35-3.47,4.88.04-2.29.05-4.58.18-6.86,0-.05,0-.1,0-.15.92-.24,1.99-.39,2.87.06.69.43.59,1.38.42,2.07ZM170.27,12.17c0-.12,0-.23,0-.35,0-1.31.02-2.61.03-3.92,0-1.19.04-2.38.01-3.57,1.25-.2,2.67-.02,3.79.56.63.51.62,1.46.46,2.18-.68,2.18-2.65,3.65-4.3,5.1Z"/>
  <path class="cls-1" d="M186.9,5.79c.27,4.7.36,14.32-2.06,18.23-1.5-3.95-1.73-8.25-1.73-12.44.05-1.44-.12-3,.46-4.34.47-1.8-2.23-2.4-2.47.89-.48,3.95-.34,15.36,2.52,18.07,6.31,3.05,5.99-17.18,5.67-20.61-.15-1.56-2.51-1.35-2.39.2Z"/>
  <path class="cls-1" d="M201.26,16.4c-1.06-1.57-2.03-3.06-3.35-4.46,1.16-.52,2.34-1.08,3.27-1.97,2.21-2.04,3.29-6.1.65-8.24-1.96-1.59-5.2-.75-6.45,1.34-.57,1.06-.61,2.32-.74,3.49-.15,1.85-.37,3.7-.47,5.55-.07,1.45-.06,2.91-.16,4.36-.09,2.45-.49,4.88-.6,7.33-.03.27.17.54.44.59.62.08.64-.51.73-.95.47-3.43.97-6.86,1.16-10.32,2.17,2.29,3.85,5.03,5.48,7.72.19.33.37.71.62,1,1.06,1.13,2.76-.32,1.83-1.55-.75-1.33-1.55-2.63-2.42-3.89ZM196.39,8.34c.16-1.04.34-2.08.57-3.12.15-.98.71-1.64,1.68-1.9,1.27-.45,2.41.42,2.4,1.75-.02.96-.46,1.86-1.01,2.63-.98,1.23-2.51,1.8-3.92,2.38.09-.58.18-1.16.27-1.75Z"/>
  <path class="cls-1" d="M219.03,16.14c-.74-.15-1.44-.76-2.21-.52-.98.3-1.07,1.8-.12,2.21,1.02.48,2.15.67,3.16,1.16-.56,1.73-1.59,3.46-3.11,4.5-1.7.96-3.51-.14-3.59-2.06-.5-4.75,1.96-12.3,5.68-15.38.64-.46,1.25-1.01,2.01-1.26.49-.08,1.17-.07,1.29-.7.06-1.24-1.44-1.46-2.35-1.07-3.8,1.44-6.06,5.21-7.44,8.84-1.32,4.04-3.78,12.21,1.65,14.16,3.82,1.2,6.76-2.51,7.95-5.71,1.13-2.51-.73-3.63-2.92-4.17Z"/>
  <path class="cls-1" d="M238.06,5.12c-.78-.28-1.66-.22-2.48-.35-1.21-.09-3.58-1.17-3.72.79-.4,2.92-.9,5.82-1.4,8.72-.13.18-.22.4-.23.62,0,.14.03.25.06.36-.26,1.5-.53,3.01-.79,4.51-.3,1.59-.5,3.19-.76,4.78-.27.84.15,1.81,1.1,1.86-.03,0-.06,0-.09-.01,1.72.35,3.46-.19,5.19-.25.92-.09,1.58-1.2,1.32-2.06-.28-.9-1.62-1.07-2.12-.28-.32.03-.65.06-.97.1-.65.07-1.29.17-1.94.21.39-2.7.86-5.38,1.33-8.06.2-.01.4-.03.57-.02,1,0,2.01,0,2.98.3,1.1.82,2.32-.9,1.18-1.67-1.37-.63-2.87-.69-4.36-.75.41-2.4.82-4.81,1.14-7.22.77.07,1.54.16,2.32.18.78.02,1.99.32,2.2-.73.07-.4-.13-.86-.52-1.02Z"/>
  <path class="cls-1" d="M252.47,22.08c-1.12-1.38-1.92-2.98-2.97-4.41,3.37-1.27,6.44-5.77,4.03-9.13-1.19-1.54-3.41-2.12-5.25-1.6-.94.2-1.6,1-1.42,1.98.02,1.37-.13,2.74-.3,4.1-.25,2.03-.43,4.23-.69,6.33-.02,1.39-1.4,6.81-.18,7.53.71.46,1.38-.69.84-1.21.17-2.23.7-4.41,1.03-6.61,1.28,1.94,2.51,3.9,3.95,5.72.71,1.01,1.43,3.47,3.03,2.31.64-.55.41-1.4-.06-1.98-.58-1.03-1.22-2.13-2.02-3.04ZM248.24,14.64c.15-.95.33-1.9.47-2.85.14-.89.22-1.79.32-2.69,5.43-.32,2.51,5.79-.94,6.56.05-.34.09-.68.15-1.02Z"/>
  <path class="cls-1" d="M273.43,21.2c-1.36-1.61-2.64-3.3-4.2-4.73-.89-.85-2-1.57-2.52-2.73-1.18-3.18,2.43-5.8,5.26-4.17.36,1.99,2.9.76,1.86-.96-2.16-2.3-6.4-2.09-8.34.41-1.49,1.82-1.77,4.59-.41,6.56.84,1.23,2.08,2.09,3.12,3.14.84.86,1.59,1.79,2.36,2.71.87,1.13,2.04,2.16,2.31,3.61.1,1.02.03,2.42-.92,3.03-5.35,2.54-4.52-3.05-7.09-1.8-.53.36-.7,1.13-.32,1.66.69.94,1.38,1.94,2.41,2.53,1.92,1.1,4.46.67,6.31-.4,2.9-2.01,2.44-6.54.16-8.87Z"/>
</svg>