<?xml version="1.0" encoding="UTF-8"?>
<svg id="CRUCES" xmlns="http://www.w3.org/2000/svg" viewBox="0 0 458.21 94.32">
  <defs>
    <style>
      .cls-1 {
        fill: #0a4635;
      }
    </style>
  </defs>
  <path class="cls-1" d="M81.49,29.28c0,23.06-22.28,34.33-45.22,34.33-2.59,0-5.83-.13-9.2-.39,0,10.11.13,19.95.39,29.15-9.2,1.3-18.4,1.3-27.47,0C.65,62.06.65,35.24,0,3.24,12.7,1.43,23.32,0,35.11,0c12.7,0,46.38,1.43,46.38,29.28ZM52.08,30.58c0-19.43-7.64-25-17.88-25-1.81,0-4.28.26-6.74.52-.39,16.97-.52,34.46-.52,51.3,2.33.39,4.53.52,6.35.52,10.24,0,18.79-6.61,18.79-27.34Z"/>
  <path class="cls-1" d="M167.87,91.99c-11.4,1.3-18.66,1.3-31.74,0-1.81-6.74-4.02-14.64-6.35-23.06-10.62-.26-21.77-.26-32.26.13l-6.35,23.06c-6.22,1.3-11.92,1.17-18.14-.13,11.4-25.91,24.36-60.5,35.89-90.69,10.24-1.3,16.45-1.3,26.69,0,10.11,30.19,19.69,60.37,32.26,90.69ZM127.83,61.8c-4.79-16.84-10.11-34.85-14.64-48.84-4.66,15.55-9.33,32.65-13.73,48.84,9.33.13,19.05.13,28.37,0Z"/>
  <path class="cls-1" d="M261.01,29.28c0,23.06-22.28,34.33-45.22,34.33-2.59,0-5.83-.13-9.2-.39,0,10.11.13,19.95.39,29.15-9.2,1.3-18.4,1.3-27.47,0,.65-30.32.65-57.14,0-89.14,12.7-1.81,23.32-3.24,35.11-3.24,12.7,0,46.38,1.43,46.38,29.28ZM231.6,30.58c0-19.43-7.64-25-17.88-25-1.81,0-4.28.26-6.74.52-.39,16.97-.52,34.46-.52,51.3,2.33.39,4.53.52,6.35.52,10.24,0,18.79-6.61,18.79-27.34Z"/>
  <path class="cls-1" d="M274.09,53.51c0-17.49,0-34.72-.52-52.21,9.2-1.17,18.53-1.17,27.73,0-.52,17.49-.52,34.59-.52,52.08,0,22.54,4.66,33.94,16.19,33.94s16.07-11.4,16.07-33.81c0-17.49,0-34.72-.52-52.21,9.2-1.17,18.53-1.17,27.73,0-.52,17.49-.52,34.59-.52,52.08,0,25.13-15.68,40.94-42.88,40.94s-42.75-15.81-42.75-40.81Z"/>
  <path class="cls-1" d="M401.7,7.51c-8.81,5.05-20.86,9.85-29.02,14.51-.26-7.13,0-14.77,1.3-21.25,11.27.65,22.41,1.04,41.07.91,16.32,0,30.58-.26,41.85-.91,1.17,6.48,1.55,14.12,1.17,21.25-8.55-4.66-20.86-10.36-29.02-14.51-.65,27.73-.52,57.14.13,84.86-9.07,1.3-18.4,1.3-27.6,0,.65-27.85.78-57.26.13-84.86Z"/>
</svg>