<?xml version="1.0" encoding="UTF-8"?>
<svg id="CRUCES" xmlns="http://www.w3.org/2000/svg" viewBox="0 0 394.39 344.95">
  <defs>
    <style>
      .cls-1 {
        fill: #0a4635;
      }
    </style>
  </defs>
  <path class="cls-1" d="M260.2,228.86c1.62,3.14,3.06,6.7,2.69,10.3-.16,1.09-.42,2.25-1.24,3.04-.44.43-1.17.67-1.64.15-.51-.61-.6-1.45-.65-2.21-.12-.88-.23-1.76-.34-2.64-.5-3.53-1.68-7.04-3.84-9.91-1.63-2.12-3.64-3.95-5.91-5.37-.69-.42-1.48-.63-2.19-.99-.39-.2-.58-.66-.44-1.08.14-.4.59-.67,1.01-.57.81.19,1.56.59,2.32.92,4.22,1.74,8.09,4.21,10.24,8.38Z"/>
  <path class="cls-1" d="M169.2,221.5c.97.42.99,1.87.16,2.45-.91.62-1.88,1.07-2.87,1.54-1.54.72-3.16,1.5-4.89,1.49-.95-.03-1.49-1.04-1.34-1.9.17-.94.91-1.67,1.67-2.19,1.35-.87,2.91-1.36,4.5-1.52.58-.09,1.17-.09,1.75-.04.33.02.72,0,1.02.16Z"/>
  <path class="cls-1" d="M241.85,178.41c.75,2.08,3.92,11.4-.19,10.79-.97-.52-1.13-1.77-1.62-2.67-.75-1.82-1.6-3.6-2.5-5.35-3-5.59-6.89-10.95-11.12-15.62-3.06-3.18-6.05-6.63-9.85-8.95-2.11-1.17-4.01-2.66-6.1-3.87-2.18-1.14-3.97-1.6-3.32-4.55.19-1.49.72-2.93,1.37-4.29.82-1.75,1.54-5.23,4.15-4.44,5.2,2.97,8.77,8.08,12.45,12.67,6.58,8.04,13.07,16.46,16.74,26.28Z"/>
  <path class="cls-1" d="M198.13,135.18c.06,1.06-.32,2.09-.55,3.11-.47,1.81-.78,4.2-2.24,5.51-.62.56-1.46.5-2.21.31-1.55.08-3.09-.21-4.63-.39-5.25-.72-10.63-.83-15.81.42-8.24,1.97-16.15,5.11-23.85,8.59-.83.42-1.61.96-2.46,1.36-.86.42-2.23,1.39-3.15,1.01-.82-.45-.41-1.51-.01-2.12.51-.77,1.24-1.35,1.87-2.01,1.73-1.6,3.72-2.88,5.69-4.16,3.37-2.11,6.75-4.23,10.39-5.83,6.49-2.84,13.38-4.65,20.28-6.19,3.87-.82,7.8-1.42,11.76-1.58,1.72-.06,4.52-.21,4.91,1.97Z"/>
  <path class="cls-1" d="M174.21,210.3c.65-3.93,1.55-8.25,2.8-12.61-2.69-.03-5.4-.23-8.08-.6l-.03.12c-.31,1.26-.71,2.49-1.17,3.7-1.37,3.12-4.28,8.24-8.21,7.99-3.01-.46-3.57-4.1-4.01-6.58-.38-2.67-.23-5.46.52-8.06.05-.15.1-.31.15-.46-4.94-1.92-9.57-4.58-13.64-8.06-.08-.07-.17-.15-.27-.23-1.27,2.78-2.37,5.53-3.31,8.08-1.48,4.19-2.67,8.43-3.75,12.74-.47,1.17-.5,3.12-1.08,4.41.96.18,1.93.35,2.9.52,5.07.84,10.15,1.93,15.31,1.8,2.26-.14,4.5-.55,6.69-1.1,2.88-.73,5.69-1.79,8.65-2.18,2.17-.3,4.41-.11,6.52.52ZM189.42,173.54c-.26-1.03-.5-2.08-1.04-2.99-2.17-4.58-6.32-8.18-11-10.05-3.38-1.2-7.04-.8-10.5-.18-10.57,2.11-18.01,11.96-23.1,22.07.21.15.43.28.63.4,2.42,1.6,4.87,3.15,7.4,4.57,7.7,4.21,16.51,6.2,25.26,6.26.46-.02.85-.02,1.2-.01,2.51-7.44,6.08-14.7,11.14-20.08ZM224.16,224.01c.73-4.47,1.29-9,1.55-13.53-2.95.44-5.92.66-8.89.6-.27,1.71-1.4,4.35-1.72,5.44-1.15,3.06-1.95,8.04-6.04,8.14-2.16-.18-3.37-2.52-4.37-4.19-1.34-2.37-1.76-5.11-1.71-7.8.02-1.24.08-2.52.4-3.72-2.72-.75-5.42-1.61-8.11-2.4-3.18-1.03-6.34-2.19-9.29-3.77-1.78-1.03-3.56-2.19-5.28-3.39-1.2,4.1-2.02,8.3-3.05,12.44,1.79,1.07,3.36,2.52,4.51,4.3,1.18,1.84,1.95,3.91,2.76,5.94,1.29,3.25,2.84,6.44,5.08,9.15,2.86,3.23,5.74,4.88,10.18,4.41.67-.03,1.33-.08,1.99-.19.72-.13,1.42-.37,2.16-.36.21-.01.42,0,.62.03.31-.08.61-.16.92-.24,4.44-1.24,8.83-2.61,13.16-4.19,1.29-.43,2.57-.91,3.86-1.38.08-1.69,1.19-3.85,1.27-5.28ZM225.86,206.36c.03-1.98,0-3.97-.11-5.94-1.1-10.05-3.03-30.03-15.82-31.17-5.58-.44-11.23,1.1-15.41,4.93-6.22,5.48-9.9,13.54-12.51,21.18.02.02.04.03.06.05,2.02,1.43,4.09,2.8,6.24,4.03,3.34,1.67,6.88,2.87,10.45,3.93,6.69,2.06,13.53,4.01,20.61,3.64,2.18-.05,4.34-.33,6.48-.66ZM247.99,250.3c.68-1.93,1.28-3.93,1.27-5.99-.17-2.41-.89-4.86-2.48-6.72-4.04-4.82-10.67-7.24-16.87-6.16-3.07.56-5.95,1.84-8.9,2.82-4.45,1.59-8.94,3.09-13.52,4.23-1.39.4-2.74.68-4.06.81-1.96.42-4.02.43-6.01.39-5.25-.34-9.59-4.1-12.34-8.36-1.4-2.11-2.51-4.41-3.49-6.74-1.38-3.26-2.34-6.95-5.49-8.97-5.78-3.92-11.24-.81-17.2.54-2.16.47-4.35.85-6.56.94-3.35.08-6.7-.33-10.01-.83-3.91-.68-7.83-1.26-11.71-2.11-5.5-1.07-10.93-2.52-16.46-3.45-9.19-1.47-18.5-2.43-27.82-2.07-9.94.39-19.62,3.06-28.93,6.45-6.5,2.14-12.79,4.84-19.04,7.59-7.82,3.45-15.57,7.15-22.81,11.72-2.1,1.34-4.07,2.85-5.97,4.45-1.29,1.1-2.54,2.25-3.69,3.5-.77.9-1.53,1.86-1.86,3.01.8.06,1.54-.4,2.26-.68,1.9-.9,3.73-1.91,5.6-2.88,6.05-2.98,12.26-5.68,18.71-7.69,6.75-2.17,13.65-3.88,20.69-4.71,4.8-.68,9.6-1.45,14.44-1.74,6.52-.35,13.07-.34,19.59.09,8.39.62,16.72,2.13,24.84,4.31,5.9,1.53,11.74,3.3,17.41,5.53,6.23,2.57,12.48,5.05,18.78,7.43,7.5,2.82,14.95,5.83,22.76,7.7,9.13,2.34,18.35,3.45,27.74,3.81,5.39.29,10.82.11,16.16-.67,3.6-.63,7.12-1.69,10.49-3.12,2.61-1.1,5.2-2.27,7.71-3.6,1.57-.78,3.1-1.65,4.72-2.28.22-.07.5-.14.72-.03.17.08.29.24.28.44,0,.22-.11.42-.22.6-2.46,3.8-6.48,6.2-10.52,8.04-4.2,1.97-8.68,3.34-13.26,4.05-5.58.74-11.25.92-16.87.58-11.64-.44-23.23-2.24-34.36-5.69-4.55-1.34-8.96-3.11-13.4-4.79-4.37-1.63-8.72-3.31-13.07-4.99-4.24-1.66-8.39-3.53-12.68-5.05-11.73-4.03-23.88-7.07-36.26-8.15-6.34-.5-12.72-.51-19.07-.25-5.26.27-10.47,1.08-15.68,1.83-4.11.53-8.19,1.27-12.2,2.34-6.54,1.7-13.01,3.79-19.16,6.61-2.28.98-4.53,2.04-6.75,3.16,3.21,1.16,6.72.35,10.01-.67,3.25-1.05,6.39-2.39,9.68-3.32,3.51-.94,7.03-1.85,10.6-2.57,7.21-1.13,14.52-1.92,21.83-1.96,7.3-.02,14.52,1.17,21.69,2.45,4.95.75,9.87,1.73,14.69,3.09,8.28,2.39,16.17,6.01,23.67,10.23,8.62,4.57,16.5,10.43,25.2,14.85,3.02,1.49,6.56,2.92,9.62,3.98,3.63,1.26,7.29,2.46,11.06,3.25,11.69,2.59,23.74,3.12,35.64,1.92,13.74-1.18,21.9-3.89,32.13-13.51,4.01-3.75,6.96-7.78,8.74-13.02ZM257.46,30.85c1.77-1.3,3.6-2.63,5.37-4.02-2.84-7.13-7.66-13.4-13.41-18.46-3.39,1.31-6.53,2.69-8.95,3.78,3.45,2.37,6.41,5.43,9.22,8.49,2.75,3.08,5.36,6.3,7.54,9.82.07.12.15.26.23.39ZM333.01,56.42c2.03-.92,4.13-1.82,6.17-2.83-1.79-11.1-5.47-22.25-12.56-31.11-.61-.74-1.29-1.42-1.97-2.1-2.85.47-5.72,1.16-8.58,2,.43.43.84.88,1.24,1.34,4.83,5.35,7.81,11.97,10.69,18.5,1.34,3.24,2.28,6.59,3.13,9.96.35,1.54.83,3.06,1.04,4.63.28-.13.57-.26.85-.39ZM352.22,167.44c1.84-7.47,1.11-15.48-1.48-22.67-.42-1.18-.83-2.37-1.21-3.57-1.21-.05-2.41-.08-3.62-.09-8.79-.06-17.43,1.65-26.03,3.3-13.26,2.58-26,6.54-38.3,12.05-3.36,1.47-6.61,3.18-9.97,4.66-.96.29-2.1,1.2-2.92.7-.25.03-.52-.05-.8-.3-.83-1.15.91-1.9,1.51-2.67,1.21-1.31,2.46-2.56,3.8-3.75,6.35-5.44,13.39-9.88,20.48-14.26,10.86-7.16,22.47-13.14,34.57-17.92,6.28-2.48,12.75-4.4,19.23-6.27.04-.26.07-.51.11-.77.24-1.82.3-3.67.33-5.5.18-9.96-3.3-19.62-8.01-28.27-.4-.71-.85-1.38-1.24-2.09-.11.03-.22.05-.33.08-11.4,2.59-22.43,6.57-33.14,11.21-8.42,3.4-16.88,6.76-24.86,11.11-12.07,6.92-24.42,13.21-35.75,21.27-.34.19-.65.46-.97.68-.81.75-1.57,1.18-2.11.71-2.36-2.44,10.62-16.09,12.89-18.16,16.35-16.32,36.25-28.42,56.13-39.93,3.2-1.75,6.48-3.35,9.79-4.87-.06-.22-.11-.44-.16-.66-.9-3.72-1.76-7.46-3.07-11.07-1.52-4.22-3.51-8.19-5.81-12.03-1.67-2.85-3.49-5.64-5.56-8.22-.71-.86-1.43-1.7-2.13-2.56-.14-.17-.27-.33-.4-.5-6.48,2.77-12.55,5.89-17.7,8.56-11.53,5.93-22.33,13.16-32.52,21.16-13.15,9.78-25.39,20.73-35.52,33.66-3.34,3.92-6.28,7.65-9.88,11.16-.12.13-.27.21-.43.24-1.33,1.33-2.66.17-2.12-2.35,1.1-5.54,3.65-10.65,5.97-15.77,5.11-10.91,11.77-21.03,20.61-29.27,4.98-5.12,9.83-10.39,15.15-15.14-.12-.26-.23-.51-.38-.73-.98-1.9-1.96-3.8-3.08-5.63-3.54-5.89-7.97-11.21-13.57-15.22-11.65,7-22.12,15.93-31.93,25.3-19.33,18.63-34.23,41.29-46.7,64.95-7.46,15.8-12.45,32.6-18.32,49.02-5.27,13.98-9.28,28.2-12.46,42.76-.5,2.11-.98,4.22-1.4,6.35-.06.39-.12.85-.2,1.33.65.13,1.31.27,1.96.41,3.19.71,6.38,1.44,9.58,2.11,0-.15.03-.3.07-.44,1.36-6.14,3.02-12.22,5.15-18.14,5.56-14.71,15.4-33.32,32.7-35.36,4.57-.72,9.45-.38,13.5,2.02,4.72,2.89,9.35,7.3,10.62,12.79,2.55-2.11,5.43-3.77,8.67-4.81,6.35-1.54,14.2-1.59,18.92,3.6,8.13,9.24,9.43,22.72,10.04,34.54.02,2.46-.48,16.64-2.44,23.64.39-.1.78-.19,1.18-.27,5.23-1.04,10.81-.09,15.41,2.6,2.82,1.59,5.32,3.89,7.08,6.61,1.68,2.96,2.52,6.52,1.97,9.91-.46,2.96-1.55,5.78-2.76,8.5-2.5,5.49-6.79,9.94-11.36,13.77-4.32,3.62-9.12,6.75-14.46,8.64-6.71,2.34-13.84,3.1-20.9,3.57-3.67.27-7.35.41-11.03.34-8.59-.16-17.17-1.38-25.5-3.46-7.16-2.03-14.23-4.55-20.79-8.11-5.42-2.97-10.54-6.44-15.84-9.61-6.63-3.98-13.46-7.72-20.62-10.65-.02.12-.03.24-.04.36-1.73,17.33-1.65,34.82-2.29,52.22-.03,5.06.18,10.13.93,15.14.24.16.48.32.73.47,5.57,3.76,11.71,6.49,17.7,9.48,8.63,4.29,17.89,7.08,27.16,9.62,11.78,3.3,24.07,4.12,36.26,3.95,8.54-.21,17.07-1.1,25.44-2.8,8.03-1.8,15.83-4.52,23.39-7.77,5.67-2.58,11.39-5.12,16.72-8.35,1.96-1.19,3.9-2.41,5.82-3.68-.82-1.42-.63-3.69-1.12-5.14-1.73-7.87-1.3-15.92-.5-23.87.53-8.21.96-16.53,3.56-24.4,3.52-10.29,7.96-19.81,16.07-27.32,12.49-12.99,31.11-18.37,48.79-17.75,2.28-.17,5.52-.04,9.23.13.29-.86.9-1.81,1.08-2.44.75-1.83,1.38-3.7,1.91-5.6,1.62-6.42,1.93-13.49-.38-19.78-2.63-.25-5.26-.41-7.87-.52-16.9.37-33.48,4.27-49.82,8.32-3.35.96-6.63,2.17-9.92,3.33-.85.35-2.94,1.21-3.41.41-.07-.05-.14-.11-.21-.18-2.06-1.08,9.96-9.17,11.14-10.07,16.3-11.23,35.99-15.96,55.17-19.64,4.93-.72,9.91-1.04,14.9-1.21.07-.14.13-.28.18-.43.69-1.52,1.31-3.07,1.73-4.68ZM360.34,213.69c1.2-4.98,1.51-10.22.43-15.25-.11-.58-.22-1.16-.33-1.75-2.58-1.06-5.25-1.91-7.97-2.58,1.58,8.5,1.82,17.55-1.59,25.65-.07.13-.16.34-.26.59,2.42,0,4.82-.08,7.12-.28.05-.18.14-.36.26-.51.44-.79.8-1.62,1.15-2.45.43-1.12.83-2.26,1.19-3.41ZM369.98,108.03c.12-2.22.14-4.41.06-6.63-.47-8.77-3.24-17.32-7.25-25.09-.07-.13-.15-.26-.22-.38-3.7.17-7.4.67-11.07,1.33.09.12.16.22.23.3,3.42,5.07,5.67,10.81,7.08,16.73,1.03,3.98,1.78,8.04,1.91,12.16.05,1.58.06,3.16.06,4.74,0,.51,0,1.02-.01,1.53,2.88-.91,5.74-1.88,8.57-2.96.18-.09.37-.17.55-.26.03-.49.07-.98.09-1.48ZM373.23,166.37c1.53-6.73,1.75-14.59-.81-21.07-.07-.33-.33-.61-.46-.92-2.1-.54-4.21-.98-6.28-1.37-.43-.07-.86-.14-1.29-.21,2.52,7.25,1.45,17.94-.2,24.82-.39,1.43-.93,2.81-1.45,4.2-.07.14-.13.31-.19.48,2.86-.03,5.75-.09,8.59-.41.14-.28.28-.55.36-.78.68-1.53,1.3-3.09,1.72-4.72ZM381,74.3c7.54,2.62,14.2,8.54,13.31,17.17-2.15,10.34-12.43,16.47-21.15,21.02-17.31,7.22-36.28,9.95-53.16,18.37-7.08,3.18-13.82,6.98-20.43,11.02.46.61.83,1.38,1.01,1.78.18.41.33.83.45,1.27,7.89-2.39,15.94-4.21,24.06-5.6,12.7-2.67,25.87-2.93,38.65-.71,9.62,1.52,20.05,3.9,26.85,11.4,5.7,5.75,3.09,13.84-2.1,18.94-7.32,6.89-17.97,7.42-27.5,7.39-10.26.18-20.64.22-30.69,2.5-4.7,1.03-9.41,2.11-14.08,3.35.16.43.25.89.4,1.31.2.72.35,1.46.5,2.2.18.98.41,1.96.41,2.96,5.88-.76,11.79-1.17,17.72-1.03,10.88.8,22.23,2.28,31.83,7.79,6.58,3.59,13.1,10.11,10.08,18.18-3.73,10.76-18.44,10.62-27.93,10.75-9.28-.34-18.58-.7-27.87-.45-.64.03-1.28.07-1.91.12.07,1.12.02,2.26-.09,3.38-.87,7.74-2.51,15.38-4.44,22.92-1.28,5.03-3.05,9.91-5.17,14.65-3.35,7.35-6.99,14.6-11.2,21.49-6.47,10.29-14.51,19.59-23.87,27.35-5.21,4.22-10.78,8-16.5,11.48-4.43,2.71-9.14,4.93-13.84,7.1-7.19,3.33-14.62,6.2-22.28,8.26-5.17,1.48-10.48,2.41-15.81,3.09-7.97.98-16.01,1.41-24.03,1.11-5.3-.17-10.6-.47-15.85-1.24-7.88-1.09-15.55-3.3-23.14-5.64-7.46-2.2-14.65-5.2-21.56-8.76-9.46-4.37-18.48-9.79-26.14-16.89-3.89-3.44-7.6-7.07-11.23-10.78-2.8-2.85-5.54-5.79-7.81-9.09-5.1-7.81-9.5-16.07-13.5-24.49-3-6.22-5.64-12.69-6.61-19.57-.37-2.25-.65-4.52-.82-6.79-3.47.32-6.94.75-10.39,1.24-4.08.81-8.13,1.82-12.13,2.98-5.23,1.66-10.32,4.2-15.89,4.38-2.74-.03-5.51-.66-7.8-2.22-.08-.05-.16-.11-.24-.17-2.22,1.13-4.63,2.27-7.01,1.12-1.18-.53-1.92-1.76-2.04-3.03-.45-4.77,7.13-10.3,10.58-13,4.86-3.48,10.16-6.31,15.51-8.98,9.02-4.38,18.21-8.46,27.65-11.86-2.81-25.42,13.39-60.63,28.11-80.52,8.19-11.08,19.15-19.59,30.56-27.14,8.11-5.17,16-10.8,24.76-14.86,7.17-2.91,14.7-6.22,22.57-6.08.19.03.4.03.62.03,13.97-22.29,31.37-42.45,52.09-58.68,7.02-5.26,14.15-10.47,22.05-14.36,9.81-4.47,40.57-19.83,43.81-2.21.48,17.93-22.5,26.25-33.05,37.95-7.48,8.07-15.98,15.32-22.28,24.39-3.26,4.82-5.95,9.96-8.41,15.2.47.16.91.35,1.23.49,3.86-4.8,8.01-9.38,12.24-13.83,16.05-14.73,33.43-28.39,52.62-38.8,18.4-9.88,50.31-26.25,70.04-13.31,4.6,3.41,6.67,9.14,6.05,14.75-.47,4.51-1.47,9.22-4.22,12.93-3.41,5.17-9.07,8.06-14.53,10.6-4.92,2.16-9.79,4.41-14.7,6.59-12.97,5.84-24.99,13.62-36.96,21.25-8.36,5.86-16.76,11.75-24.27,18.69.26.2.52.39.78.58.43.31.83.64,1.21.97.09.08.18.15.27.23,11.68-6.91,23.66-13.42,36.39-18.14,11.68-4.98,23.54-9.63,35.95-12.44,14.38-3.37,29.9-7.12,44.31-2.04Z"/>
</svg>