<?xml version="1.0" encoding="UTF-8"?>
<svg id="CRUCES" xmlns="http://www.w3.org/2000/svg" viewBox="0 0 562.27 70.98">
  <defs>
    <style>
      .cls-1 {
        fill: #0a4635;
      }
    </style>
  </defs>
  <path class="cls-1" d="M6.45,70.75c-3.9-.65-6.22-3.83-6.22-7.7-.29-3.18-.26-6.38-.15-9.57.11-5.21.12-10.43.66-15.61.36-3.24.68-6.6,2.07-9.59,2.17-4.41,5.51-4.17,9.8-4.34,3.89-.2,7.96-.24,11.65,1.18.94.36,2.14,1.4,1.4,2.46-.95,1.12-2.61,1.08-3.95,1.12-4-.21-8.01-.11-12,.19-2.62-.27-3.1,2.72-3.53,4.69-.51,2.75-.75,5.53-.96,8.31-.23,6.6-.56,13.23-.27,19.83.18,1.25-.05,2.8.96,3.72,2.77,1.57,6.19.42,9.01-.49,3.78-1.36,8.01-3.1,11.68-4.34,1.61-.59,3.31-.97,5.02-1.03,1.78-.04,2.64,2.41,1.18,3.46-3.28,1.96-6.79,2.71-10.26,4.15-5.13,1.88-10.45,4.61-16.06,3.56Z"/>
  <path class="cls-1" d="M4.52,48.42c-2.56-.36-2.8-4.01-.31-4.69,3.02-.59,6.09-.83,9.16-.97,2.12-.07,4.26-.32,6.37-.04,1.82.22,3.45,1.71,1.53,3.2-1.16.86-2.63,1.13-4.04,1.28-1.9.21-3.82.31-5.73.43-1.33.1-2.65.25-3.98.43-1.06.08-2,.41-3.01.37Z"/>
  <path class="cls-1" d="M68.71,63.56c-5.01-.82-9.78-4.32-12.65-8.46-.94-1.42-3.33-3.97-1.4-5.36,1.11-.68,2,.37,2.6,1.11,1.22,1.41,2.75,2.49,4.23,3.6,2.14,1.56,6.89,5.69,9.53,3.88,3.98-3.61-5.06-12.08-7.47-14.89-1.78-2.03-3.75-3.99-4.84-6.5-1.57-3.66-.26-8.12,2.82-10.57,4.5-3.65,10.06-1.78,12.81,2.98,1.46,2.55,2.38,5.91,1.27,8.75-.36.87-1.33,1.56-2.25,1.04-2.3-1.76-1.25-6.96-4.96-9.33-2.81-2-6.17,1.74-5.48,4.62.96,2.75,3.34,4.7,5.18,6.87,1.75,1.91,3.45,3.88,5.09,5.88,2.4,3.15,4.44,7.39,3.28,11.4-1.04,3.23-4.37,5.45-7.76,4.95Z"/>
  <path class="cls-1" d="M92,20.86c-3.05-3.01,4.79-4.41,6.62-5.07,5.17-1.6,10.44-2.92,15.59-4.56,1.97-.7,3.88-1.54,5.86-2.19,3.03-.8,4.31,3.73,1.28,4.63-6.57,2.67-13.04,4.26-19.82,6.07-2.52.49-7.25,2.17-9.54,1.12Z"/>
  <path class="cls-1" d="M103.5,62.45c-.78-5.04.06-10.13.13-15.2.29-9.6.21-19.21.94-28.79.1-3.52,3.24-3.51,3.59-.03.7,4.47.4,9.02.43,13.53-.02,5.1,0,10.2-.17,15.3-.12,3.9-.26,7.81-.73,11.68-.33,1.49-.26,3.26-1.16,4.53-.97,1.03-2.89.41-3.02-1.02Z"/>
  <path class="cls-1" d="M132.92,64.19c-1.37-3.27,2.43-11.13,3.5-14.63,2.14-5.75,3.8-11.66,5.48-17.56,1.17-3.85,2.43-7.68,3.76-11.48.55-1.45,2.45-2.24,3.81-1.39,3.11,2.14,3.75,10,5.03,13.65,2.37,8.14,5.48,16.06,7.98,24.16.56,1.87.55,3.84.92,5.74.05,1.07-1.41,1.68-2.13.88-1.05-1.52-2.26-2.98-3-4.69-3.68-10.25-7.45-20.54-10.01-31.14-1.92,5.55-3.28,11.27-5.26,16.8-1.61,4.67-3.64,9.18-5.72,13.65-.61.97-3.05,7.4-4.37,6.01Z"/>
  <path class="cls-1" d="M129.26,47.06c-1.66-1.21-.93-4.06,1.14-4.28,2.11-.21,4.23-.31,6.35-.5,7.58-.65,15.11-1.65,22.63-2.78,1.71-.24,3.42-.43,5.15-.54,1.3-.1,5.24-.03,4.75,1.97-.98,1.72-5.35,2.39-7.24,2.75-7.5,1.08-15,2.18-22.53,3.08-1.58.18-3.16.34-4.74.47-1.24.1-2.48.2-3.72.31-.64.06-1.27-.07-1.79-.48Z"/>
  <path class="cls-1" d="M148.21,11.14c-.25-1.23-1.01-2.24-1.54-3.36-.61-1.15-1.01-2.41-1-3.72,0-1.33.16-2.89,1.23-3.82,1.36-.92,2.4.95,2.72,2.06.36,1.1.66,2.23.72,3.39.05,1.33-.13,2.7-.11,3.92.04.37.1.72.17,1.09.19,1.36-1.81,1.78-2.19.45Z"/>
  <path class="cls-1" d="M204.17,63.46c-3.76-.08-7.3-1.48-10.07-3.97-1.82-1.73-6.66-7.58-6.11-10.06.12-1.09,1.1-1.6,1.95-.82,3.51,2.79,5.73,7.08,9.94,9.01,2.29,1.11,5.06,1.43,7.39.25,1.45-.88,2.89-2.21,3.19-3.96.12-5.72-4.38-10.9-8.35-14.6-6.01-5.29-12.06-12.03-12.58-20.4-.37-9.58,8.05-16.08,16.38-9.65,2.53,1.92,5.66,4.54,5.38,8.03-.07.68-.25,1.72-1.17,1.5-1.34-.87-2.4-2.17-3.61-3.23-2.13-1.73-4.4-3.73-7.2-4.13-2.58-.14-4.24,2.43-4.75,4.68-.93,4.11.97,8.22,3.27,11.54,3.8,5.77,10.09,9.43,13.79,15.24,2.31,3.76,4.53,8.37,3.33,12.86-1.4,4.53-6.1,7.67-10.77,7.68Z"/>
  <path class="cls-1" d="M273.45,57.88c-2.99-2.19-4.42-7.19-5.12-10.7-.8-4.97-1.01-10.06-.78-15.09.08-1.52.24-3.03.38-4.54-.02-.29.24-.53.53-.5.26.04.42.28.4.52.04.43.11.87.17,1.3.48,3.9,1.51,7.7,2.49,11.5,1.2,4.47,1.53,9.43,4.35,13.26,3.26-2.66,4.24-8.25,4.83-12.23.26-2.15.55-4.39-.02-6.51-.91-3.76-3.31-5.11-6.48-6.84-2.93-1.73-6.06-3.16-9.42-3.77-2.62-.79-2.12-4.6.63-4.66,1,.04,1.97.32,2.93.57,3.55.98,6.78,2.81,9.94,4.65,2.98,1.63,5.59,4.15,6.6,7.46,1.28,3.24.98,6.8.52,10.17-.38,2.62-.91,5.23-1.81,7.73-.98,2.69-2.64,5.82-5.08,7.43-1.49.93-3.51,1.18-5.05.22Z"/>
  <path class="cls-1" d="M310.99,58.65c-5.23-.55-6.03-5.98-6.2-10.29-.33-5.2.11-10.41.54-15.59.3-3.89.89-7.75,1.8-11.55.69-2.67,1.77-5.58,4.2-7.12,2.01-1.15,4.78-.51,6.95-.16,1.14.23,2.23.63,3.26,1.18,2.78,1.62,2.65,2.86-.69,2.9-2.31.06-4.62.05-6.93.14-.41.04-.59.54-.84.82-.39.61-.64,1.3-.9,1.97-1.66,5.57-2.04,11.42-2.47,17.19-.23,3.49-.31,7-.1,10.5.15,1.53.18,3.13.86,4.54.44.96,1.7.75,2.55.6,2.1-.42,4.33-1.97,5.95-2.99,1.14-.72,3.56-2.47,4.89-2.05,1.37.34,1.97,2.13,1.08,3.22-1.64,1.94-3.91,3.23-6.06,4.52-2.37,1.38-5.09,2.49-7.88,2.16Z"/>
  <path class="cls-1" d="M304.43,38.89c-2.83-.79-1.96-5.06.96-4.69.32.06.64.05.96.03,4.69-.26,9.22-1.82,13.91-1.9,4.58.03,1.01,2.98-1.07,3.82-1.17.51-2.39.89-3.62,1.24-2.39.68-4.83,1.19-7.3,1.46-1.27.15-2.58.32-3.85.04Z"/>
  <path class="cls-1" d="M378.07,63.92c-.76-2.57-.45-5.34-.4-8,.09-2.58.24-5.15.47-7.72,1.2-10.96,1.95-22.09,5.03-32.72.5-2.24,2.28-4.51,4.79-3.32,2.5,1.44,3.4,4.53,3.97,7.19,2.02,8.69,2.22,18.13,6.82,26,1.35-2.98,2.13-6.19,2.92-9.36,2.27-8.44,3.25-17.12,4.79-25.7.6-2.17.83-4.66,2.37-6.4,3.15-2.81,7.21,1.01,8.38,4.08,2.79,5.86,4.43,12.16,6.37,18.33,1.39,4.93,2.05,10.02,2.87,15.07.35,2.96,1.04,5.88,1.15,8.86-.14,1.16-.18,3.87-1.53,4.14-.47.06-.97-.2-1.15-.65-.68-1.15-1.39-2.31-1.72-3.62-1.7-7.35-2.2-14.94-4.16-22.23-2.15-6.53-3.59-13.52-7.13-19.46-1.99,7.3-2.34,14.9-4.07,22.26-1.51,6.2-2.52,12.74-5.61,18.39-4.8,6.66-9.28-3.69-10.58-7.82-2.36-7.08-2.93-14.57-4.62-21.81-2.66,11.3-3.6,22.93-5.22,34.4-.32,2.87-.64,5.75-1.25,8.58-.1.45-.16.92-.29,1.37-.35.91-1.73,1.01-2.2.14Z"/>
  <path class="cls-1" d="M456.26,49c-3.29-.6-5.81-3.01-7.65-5.67-4.29-5.8-3.94-16.22-.76-22.48.85-1.57,1.87-3.04,3.01-4.42.44-.44,1.76-2.33,2.26-1.21.09.38-.16.76-.32,1.09-.21.45-.38.9-.55,1.36-.83,2.45-1.1,4.69-1.57,7.16-.54,3.36-.89,6.81-.31,10.19.38,1.74.71,3.55,1.76,5.03,1.15,1.57,2.35,3.3,4.24,4.02,2.51.93,4.29-.1,6.04-1.89,1.38-1.53,2.13-3.45,2.5-5.45.41-1.83.35-3.69,0-5.53-.61-2.74-1.45-5.43-2.69-7.95-1.1-2.18-2.48-4.19-3.94-6.15-1.36-1.81-2.83-3.55-4.5-5.07-.65-.5-1.29-1.1-1.37-1.96-.31-2.08,2.18-3.52,3.84-2.22,2.74,2.26,4.98,5.06,7.02,7.95,1.52,2.15,2.93,4.39,3.95,6.83,1.74,4.33,3.32,9.07,2.61,13.79-.39,2.53-1.05,5.09-2.52,7.21-1.34,2.05-3.23,3.74-5.43,4.83-1.75.78-3.76.94-5.64.54Z"/>
  <path class="cls-1" d="M499.13,51.97c-4.46-.1-6.1-4.82-6.74-8.54-1.03-4.98-.77-10.36-.43-15.32.34-5.25.89-10.5,2.1-15.63.16-.69.33-1.37.51-2.06.07-.27.15-.56.35-.76.31-.3.84-.16.96.25.09.32.05.68.05,1.01-.32,6.52-.47,13.06-.02,19.58.31,4.93.2,11.78,2.54,16.16.46.78,1.32.51,1.93.07.64-.44,1.26-.9,1.77-1.49,2.5-2.95,3.8-6.69,4.61-10.42.64-3.31.91-6.74.3-10.07-.65-2.99-2.22-5.68-3.91-8.2-2.46-3.49-5.3-6.69-8.02-9.98-.71-.85-1.77-1.58-1.73-2.8-.04-2.09,2.63-3.21,4.1-1.7,2.07,2.17,3.89,4.55,5.82,6.84,3.29,3.98,6.45,8.27,8.02,13.25,1.49,5.2.91,10.8-.45,15.96-1.29,4.54-3.41,9.44-7.36,12.26-1.28.93-2.78,1.66-4.4,1.59Z"/>
  <path class="cls-1" d="M555.63,56.06c-1.47-1.02-.95-4.7-1.25-6.39-.15-2.33-.37-4.65-.67-6.96-1.71-10.79-4.18-21.5-7.37-31.95-1.32,10.02-2.33,20.16-5.21,29.88-1.4,4.46-3.63,8.21-5.6,12.3-.43.55-.49,1.89-1.44,1.6-.52-.24-.42-.78-.17-1.2,3.34-11.77,5.28-23.85,6.79-35.97.42-3.74.85-7.49,1.52-11.2.39-1.53.23-3.38,1.38-4.6.83-.83,2.1-1.01,3.13-.45,3.52,1.89,7.03,18.63,8.19,23.12.59,2.58,1.12,5.18,1.7,7.76,1.3,5.6,2.18,11.31,2.52,17.05.11,1.71.23,3.42.29,5.14.08,1.89-2.35,3.08-3.8,1.87Z"/>
  <path class="cls-1" d="M529.55,40.58c-.2-1.28.77-2.53,2.05-2.7,2.8-.48,5.6-1.01,8.29-1.55,4.98-.98,9.83-2.49,14.64-4.09,1.91-.65,3.68-1.33,5.48-2.22.7-.2,1.44-1.38,2.13-.68.5.76-.63,1.16-1.05,1.62-5.32,4.34-11.42,7.58-18.04,9.36-2.16.59-4.35,1.06-6.47,1.49-2.33.26-6.32,2.24-7.02-1.23Z"/>
</svg>