<?xml version="1.0" encoding="UTF-8"?>
<svg id="CRUCES" xmlns="http://www.w3.org/2000/svg" viewBox="0 0 344.48 49.45">
  <defs>
    <style>
      .cls-1 {
        fill: #e54d3a;
      }
    </style>
  </defs>
  <path class="cls-1" d="M25.14,9.05C5.48,6.23-11.16,39.78,9.51,49.09c2.24.7,9.71.66,8.86-2.95-2.22-3.13-5.69,3.17-11.79-5.38-4.35-7.68.09-17.67,6.33-22.95,3.27-2.94,8.24-4.98,12.61-3.76,3.24,1.87,5.52,5.59,5.04,9.39-.29,3.77-1.24,8.21-5.06,9.88-3.63-2.5-.98-10.57-5.76-10.33-3.95.99-2.44,8.14-6.2,9.98-.36-2.9,1.24-5.76,2.98-7.98.6-1.21,3.97-2.65,2.5-4-3.98-1.51-7.87,3.6-9.28,6.86-4.12,8.94,4.95,14.25,9.86,5.36,3.09,6.67,8.45,5.88,12.38.43,2.67-3.91,3.51-9.12,3.03-13.78-1.01-4.89-4.77-9.91-9.88-10.84Z"/>
  <path class="cls-1" d="M64.76,5.04c-6.33.43-13.79,5.67-14.13,12.4-1.05,7.59-2.19,15.17-2.92,22.8.22,1.6-1.98,4.69.38,5.36,1.1.23,1.75-.81,1.82-1.79,1.55-5.33,2.8-10.74,3.86-16.18,5.92-1,14.18-5.52,17.77-10.47,4.36-6.18,1.11-13.25-6.77-12.12ZM54.63,22.59c.15-.97.3-1.93.45-2.9.09-.59.18-1.19.27-1.78.09-3.41,3.35-5.55,5.97-7.19,2.27-.6,5.63-2.06,7.41.14-.75,6.78-8.7,9.33-14.1,11.74Z"/>
  <path class="cls-1" d="M98.36,32.19c-.78-6.34-.08-21.76-4.75-25.78-6.23-2.95-6.77,8.48-8.2,12.23-1.2,4.97-2.48,9.91-3.7,14.88-.67,2.65-1.25,5.33-2.02,7.95-.85,2.36,3.06,3.38,3.49.93,1.27-3.88,2.47-7.78,3.63-11.69,1.11-.07,2.12-.74,3.18-1.03,1.02-.5,2.26-.64,3.39-.96.28,4.68.44,9.38.67,14.06.07,2.06,2.9,2.98,4.2,1.4,1.4-2.45-.08-8.81.12-11.99ZM88.97,25.1c-.2.09-.4.19-.61.28,1.15-4.02,2.28-8.06,3.38-12.09.6,3.49.99,7.01,1.29,10.53-1.37.36-2.74.76-4.06,1.28Z"/>
  <path class="cls-1" d="M127.9,1.56c-3.3-.83-6.82.33-9.26,2.64-3.37,2.47-5.21,6.24-5.16,10.41-.61,6.59-1.88,13.11-2.64,19.68.13,1.61-1.78,8.36.42,8.4,1.87.95,4.99-17.27,5.64-19.47,5.44-.38,10.71-3.29,13.75-7.86,3.36-4.19,3.01-12.01-2.75-13.82ZM117.73,18.33c.53-2.55.21-5.37,1.4-7.73,1.77-2.28,4.57-5.31,7.74-4.29,4.29,4.98-4.42,11.53-9.15,12.02Z"/>
  <path class="cls-1" d="M149.25,6.56c-1.86,1.24-1.53,8.69-2.18,11.25-1.03,5.54-1.16,14.51-5.79,18.18-2.01-5.17-.37-11.14-.17-16.55.34-3.76.64-7.52.93-11.29-.05-1.51.5-3.21-.06-4.63-.82-1.29-2.92-.51-2.76.96-1.45,6.77-7.4,32.64.01,35.88,12.19,3.38,12.31-23.77,13.72-31.36.44-2.03-2.01-3.65-3.69-2.44Z"/>
  <path class="cls-1" d="M179.71.28c-4.15.4-8.31.75-12.45,1.26-2.61.55-5.76.24-7.99,1.83-1.41,1.99,1.43,2.93,3.02,2.78,2.02.08,4.04-.01,6.06-.15-.82,2.63-1.31,5.43-2.06,8.04-1.55,6.08-2.17,12.32-2.82,18.55.17,1.52-1.43,5.44.52,5.88,1.33.25,1.54-1.24,1.73-2.21.96-3.26,1.76-6.58,2.55-9.89,1.61-6.84,3.17-13.81,4.42-20.69,2.46-.19,4.92-.41,7.38-.63,3.09-.22,2.71-5.04-.37-4.77Z"/>
  <path class="cls-1" d="M206.99,1.13c-3.06,2.38-4.13,6.4-5.52,9.86-.47-3.94-3.08-11.26-8.12-7.73-3.69,3.73-4.08,13.66-5.09,18.9.01,1.15-2.72,16.98.65,12.64,2.93-8.75,4.04-18.01,6.85-26.79,1.16,3.29,1.41,6.78,1.62,10.23.5,2.19-.54,5.67,2.01,6.72,3.76.98,3.97-5.94,5.14-8.32,1.52-4.05,2.39-8.99,5.68-11.99,3.11,4.95-.99,19.98-1.24,26.44-.05,1.59-1.42,5.02,1.24,5.33,2.56-.08,1.89-3.49,2.48-5.24,1.61-7.63,3.1-15.37,2.9-23.2.09-4.62-3.69-10.47-8.61-6.85Z"/>
  <path class="cls-1" d="M238.03,2.58c-9.37-2.92-13.5,8.56-15.6,15.59-1.13,5.47-5.97,15.31,3.04,16.07,3.11.15,6.26-.3,9.31-.9,3.06-.69,2.08-5.32-.99-4.7-2.9.46-6.06,1.27-8.95.57.31-1.69.77-4.21,1.43-6.98,2.4.24,6.94-1.87,8.04-3.31.73-.37.51-1.54-.3-1.62-2.06-.87-4.27-.45-6.39.03,1.81-5.68,4.54-11,8.59-11.33.97-.17,2.08.02,2.95-.53,1.32-1,.13-2.6-1.13-2.9Z"/>
  <path class="cls-1" d="M265.06,1.08c-2.18-.06-1.86,2.55-2.12,4.05-.19,1.51-.41,3.02-.62,4.53-.84,5.6-.92,11.56-3.28,16.94-1.5-3.44-5.73-29.72-12-20.81-1.03,8.74-1.53,17.92-1.61,26.73-.1,1.36,2.08,1.31,1.96-.03,1.46-6.02,2.63-11.97,3.32-18.14,1.01,3.41,2.41,6.68,3.73,9.97.99,2.15,1.05,4.97,3.06,6.48,3.2,1.75,5.15-2.68,6-5.09,1.59-6.22,2.38-12.65,2.84-19.04-.08-1.83,1.47-5.19-1.27-5.58Z"/>
  <path class="cls-1" d="M278.82,2.65c-1.59-1.11-4.16-.41-4.27,1.72-.01.25.02.49.08.73-.13.18-.28.34-.39.53-.87,1.49-1.54,3.1-1.97,4.77-1.3,2.84-2.01,6.1-1.82,9.17-.47,5.19.45,10.9,5.16,11.63,3.61.29,5.94-3.29,6.91-6.34,1.69-5.15,1.15-10.77.11-16-.52-2.42-1.64-4.87-3.81-6.21ZM275.95,26.61c-2.16-2.28-1.96-8.4-1.93-11.47,0-.15.03-.31.04-.46,0-.03.01-.06.02-.09.67-2.5,1.65-4.89,2.89-7.16.97,1.39,1.1,3.23,1.44,4.86.46,4.13,1.19,11.5-2.46,14.31Z"/>
  <path class="cls-1" d="M297.34,19.9c3.02-2.38,6.54-5.31,7.51-9.27,1.38-5.38-2.97-11.51-8.69-8.38-5.9,3.87-6.42,11.79-7.36,18.16-.73,5.28-.79,10.6-.76,15.92-.09,1.34,2.03,1.3,1.93-.02.14-5.28,1.69-10.42,2.63-15.6,1.31,6,7.23,16.94,12.09,20.48,1.11.24,2.28-.55,2.47-1.67.19-2.08-2.74-4.28-3.59-6.3-2.37-4.28-5.07-8.53-6.24-13.33ZM296.02,9.07c2.2-4.03,5.22-3.81,3.96,1.15-1.45,2.93-4.2,4.61-6.56,6.78.63-2.71,1.28-5.47,2.6-7.93Z"/>
  <path class="cls-1" d="M319.32,29.84c-1.78.41-3.07,6.02-4.88,2.76-2.83-6.23-.63-17.51,4.76-21.86,3.27-2.64,4.27.52,5.84-1.4,1.07-1.82-1.46-3.09-2.92-3.38-13.45-1.87-19.3,30.99-6.85,32.47,3.37.39,5.44-2.83,6.86-5.41.96-1.73-.96-3.9-2.8-3.17Z"/>
  <path class="cls-1" d="M344.43,42.72c-1.55-9.49-2.86-18.7-3.95-28.44-.44-2.83-.44-5.79-1.33-8.53-.44-.95-1.66-1.37-2.61-1-1.42.52-1.75,2.19-2.25,3.45-3.55,11.12-6.69,22.39-10.58,33.39-1.27,2.89,3.22,4.37,3.95,1.34,1.19-3.92,2.56-7.79,3.96-11.65,2.15.58,4.97.83,6.63.99.44,3.82.98,7.62,1.66,11.41.64,2.96,5.14,2,4.54-.96ZM333.79,27.91c-.26.04-.62.07-1.01.1,1.43-3.97,2.83-7.95,4-12,.27,3.98.59,7.95.98,11.92-1.32-.08-2.65-.1-3.97-.02Z"/>
</svg>