<?xml version="1.0" encoding="UTF-8"?>
<svg id="CRUCES" xmlns="http://www.w3.org/2000/svg" viewBox="0 0 134.13 136.36">
  <defs>
    <style>
      .cls-1 {
        fill: #ffc62d;
      }
    </style>
  </defs>
  <path class="cls-1" d="M133.08,56.78c-.59-3.77-1.78-7.4-3.09-10.97-1.54-4.37-3.15-8.75-5.51-12.75-2.51-4.04-5.5-7.76-8.71-11.26-3.55-4.03-7.1-8.13-11.52-11.24C95.03,4.15,83.76,1.45,72.73.24c-5.57-.49-11.19-.16-16.72.51-5.67.7-11.2,2.6-16.18,5.4-8.23,4.5-15.37,10.76-21.37,17.93C9.61,34.27,3.2,46.74.92,60.09c-2.71,15.07.74,30.85,7.91,44.24,1.77,3.29,3.93,6.4,6.37,9.23,1.93,2.42,4.52,4.15,6.68,6.34,5.82,5.63,12.93,9.93,20.58,12.55,6.3,1.76,12.8,2.84,19.3,3.54,13.08,1.28,26.87-.66,38.18-7.66,14.14-8.16,25.47-23.2,30.32-38.72,3.95-11.28,4.85-21.04,2.82-32.84ZM124.39,92.08c-4.04,10.39-10.87,19.58-19.22,26.92-3.98,3.22-8.38,5.88-12.97,8.12-7.72,3.33-16.26,4.72-24.66,4.48-8.42-.36-16.9-1.63-24.97-4.11-4.19-1.59-8.14-3.82-11.86-6.31-3.16-2.37-6.15-5.02-8.72-8.02-1.26-1.57-2.37-3.25-3.65-4.81-1.67-2.03-3.45-3.91-4.95-6.08-2.78-3.67-4.08-8.2-5.62-12.49-2.45-7.58-3.35-15.66-2.91-23.6,1.54-18.05,11.31-34.63,24.55-46.71,5.98-5.49,12.9-10.1,20.66-12.62,4.6-1.45,9.41-1.78,14.23-2.05,9.36-.38,18.78,1.36,27.55,4.61,5.09,1.8,9.77,4.65,13.71,8.34,1.77,1.68,3.39,3.51,5.02,5.33,4.32,4.78,8.72,9.65,11.48,15.53,1.95,4.12,3.36,8.46,4.86,12.76,1.53,4.77,2.11,9.78,2.45,14.76.53,8.93-1.89,17.63-4.96,25.93Z"/>
  <path class="cls-1" d="M88.81,72.59c-.03-.15-.08-.3-.15-.44-1.34-2.69-2.52-5.45-3.65-8.23,4.45.08,8.61-4.09,7.75-8.63-.72-4.64-6.09-7.31-10.44-6.23-.8.21-1.89.56-2.82,1.1-3.23-7.08-6.83-9.84-16.78-7.42-2.07.3-2.15,2.73-.05,3.01,4.05.93,9.57-.64,11.45,4.2,2.25,4.57,3.94,9.37,5.82,14.1.52,1.05,1.18,2.85,1.91,4.71.42,1.36.86,2.72,1.36,4.08.09.21.17.44.24.68-1.92.82-3.58,2.18-4.68,4.13-.36.68-.65,1.38-.87,2.1-4.21-.03-8.43.25-12.65.14,1.05-7.91,2.34-17.08-8.61-17.24-7.61-.33-16.3-.29-22.57,4.6-2.73,2.19-2.68,5.98-2.52,9.17.1,2.38.76,4.76,2.46,6.5.9.99,2.03,1.53,3.26,1.83-.59,5.91,3.89,11.38,9.84,11.97,5.59.59,10.71-3.49,12.44-8.65.21-.63.38-1.3.49-1.99,1.72.03,3.44.06,5.15.1,3.49.06,6.99-.02,10.48-.1.67-.02,1.34-.04,2-.08.98,4.63,4.38,8.75,9.24,9.72,13.04,3,19.05-10.71,9.98-19.66-2.11-2.13-5.1-3.31-8.11-3.45ZM82.03,84.63c-.06-.44-.08-.86-.07-1.27,2.17-5.03,8.03-5.67,11.53-1.13.92,1.29,1.78,2.89,1.86,4.49-.31,2.47-3.01,2.94-5.06,3.26-2.89.03-6.4-1.4-7.94-3.98-.15-.44-.26-.91-.31-1.38ZM84.28,53.3c2.06.1,4.57,1.82,3.69,4.13-1.16,1.95-2.76,1.64-4.66,1.83-.04.01-.07.03-.11.05-.62-1.57-1.23-3.15-1.86-4.72-.12-.3-.23-.6-.34-.9,1.09-.24,2.17-.51,3.29-.39ZM37.98,72.03c.42-2.12,2.56-3.16,4.52-3.48,1.95-.34,3.92-.52,5.89-.63,3.24-.16,7.07-.36,10.22,1,2.05,1.35,1.4,8.37,1.31,10.72-1.72-.08-3.43-.16-5.15-.24-3.39-.29-14.77-.06-16.69-2.49-.57-1.54-.39-3.31-.1-4.9ZM49.23,90.39c-.18.09-.36.18-.54.26-.02,0-.04.02-.06.02-4.32,1.29-5.88-1.85-5.93-5.39.4.03.78.07,1.16.13,3.44.27,6.88.42,10.32.52-.29,1.01-.82,1.8-1.5,2.45-1.08.78-2.3,1.41-3.46,2.01Z"/>
  <path class="cls-1" d="M43.03,53.73c-2.07-.02-3.16,2.62-1.65,4.05.42.41,1.05.72,1.66.68,2.93-.19,5.87-.47,8.8-.7,2.82-.2,5.68-.45,8.33-1.5,1.09-.21,1.01-1.86-.07-2.03-.58-.21-1.21-.29-1.81-.39-5.05-.8-10.18-.44-15.25-.11Z"/>
  <path class="cls-1" d="M35.83,48.44c6.37-.38,12.72-1.05,18.9-2.68,0,0-.02,0-.02,0-.03,0-.07,0-.1,0,1.28.09,1.21-1.81-.04-1.64-3.92-.4-7.84-.78-11.78-.63-3.15,0-6.28.21-9.42.45-1.39-.1-2.81.86-2.77,2.35,0,1.18,1,2.32,2.21,2.32,1.01-.05,2.01-.1,3.02-.16Z"/>
</svg>