<?xml version="1.0" encoding="UTF-8"?>
<svg id="CRUCES" xmlns="http://www.w3.org/2000/svg" viewBox="0 0 133.38 134.61">
  <defs>
    <style>
      .cls-1 {
        fill: #e54d3a;
      }

      .cls-2 {
        fill: #ffc62d;
      }
    </style>
  </defs>
  <path class="cls-1" d="M129.41,44.27c-2.58-6.55-6.57-12.45-10.97-17.94-4.43-5.46-8.75-11.13-14.21-15.63C94.97,3.39,78.1-.3,66.41.02c-12.12.7-23.79,4.66-34.05,11.08-12.84,6.51-24.29,16.73-28.39,30.94-6.53,20.21-5.33,46.47,6.06,64.75,10.69,17.6,31.14,28.13,51.59,27.7,19.66,1.07,41.41-4.85,54.16-20.67,15.32-18.89,22.73-46.34,13.63-69.56Z"/>
  <path class="cls-2" d="M64.27,78.66c2.7,1.87,5.87,2.91,9.06,3.6,2.42.62,4.62.33,6.59-1.28,2.46-1.49,3.43-4.47,2.52-7.17-.74-2.3-3.11-4.21-5.59-4.06-2.56.17-4.34,2.32-5.39,4.47-.69.16-1.41.14-2.15,0-2.56-1.26-5.07-2.75-7.24-4.58-1.63-1.66-2.98-3.46-3.74-4.86,3.93-1.35,4.46-5.32,3.34-8.86-.64-1.76-2.07-3.36-3.85-3.99-1.4-.41-2.89.13-4.13.79-4.48,2.86-4.17,9.74-1.96,13.98,2.59,5.37,7.75,8.74,12.55,11.96Z"/>
  <path class="cls-2" d="M100.85,61.55c-.06-1.08-.18-2.17-.36-3.24-1.24-6.19-4.43-10.94-8.74-14.6-1.9-2.12-4.03-3.98-6.32-5.45-7.37-4.19-19.06-6.68-27.25-3.94-.7.29-1.41.6-2.11.91-5.52,1.83-10.62,5.02-14.68,9.15-11.18,11.12-12.24,27.39-4.63,40.84-1.35,3.83-2.76,7.65-3.73,11.61-.59,1.32-1.46,2.56-1.74,3.99-.22,1.26,1.04,2.64,2.39,2.55,1.15-.04,2.07-.86,3.09-1.31,1.28-.64,2.59-1.24,3.9-1.82,2.39-1.04,4.8-2.08,7.35-2.68,1.1-.38,2.09.03,3.07.53,11.19,4.94,24.71,4.29,35.14-2.21,5.67-3.61,10.58-8.84,12.42-15.43.61-1.84,1.05-3.72,1.32-5.64.02-.18.05-.36.07-.55,1.12-4.15,1.63-8.47.8-12.71ZM37.58,96.43c1.38-3.63,2.99-7.22,4.01-10.96.11-1.6-.94-2.98-1.57-4.38-.68-1.37-1.27-2.76-1.8-4.19-.52-3.05-.63-6.17-.32-9.26.94-9.68,5.99-19.64,14.23-25.06,1.83-1.1,3.6-2.07,5.39-2.85.92-.31,1.85-.59,2.79-.82,8.51-1.8,20.86,2.28,28.19,8.25,2.12,2.45,3.99,5.46,5.78,9.1.93,1.94,1.54,3.94,1.87,5.97.04,1.16.02,2.33-.04,3.49-.17,2.58-.34,5.19-.72,7.76-1.45,5.22-4.26,10.16-7.72,14.17-5.46,5.5-13.48,7.67-21.09,8.16-5.02.21-9.83-1.22-14.62-2.5-.42-.17-.84-.33-1.26-.5-4.12-.76-9.34,2.05-13.12,3.61Z"/>
</svg>